<svg width="29" height="28" viewBox="0 0 29 28" fill="none" xmlns="http://www.w3.org/2000/svg">
<circle cx="16" cy="13" r="13" fill="#C7DBFA"/>
<path d="M11.666 15.6667C11.9523 16.0495 12.3176 16.3662 12.737 16.5954C13.1565 16.8245 13.6204 16.9608 14.0971 16.9949C14.5739 17.0291 15.0524 16.9603 15.5002 16.7932C15.9481 16.6262 16.3548 16.3648 16.6927 16.0267L18.6927 14.0267C19.2999 13.3981 19.6359 12.556 19.6283 11.6821C19.6207 10.8081 19.2701 9.97202 18.6521 9.354C18.0341 8.73597 17.198 8.38541 16.324 8.37781C15.45 8.37022 14.608 8.7062 13.9793 9.31339L12.8327 10.4534" stroke="#3C454D" stroke-linecap="round" stroke-linejoin="round"/>
<path d="M14.3335 14.3333C14.0472 13.9506 13.6819 13.6339 13.2624 13.4047C12.843 13.1755 12.3791 13.0392 11.9024 13.0051C11.4256 12.971 10.9471 13.0397 10.4992 13.2068C10.0514 13.3739 9.64472 13.6353 9.3068 13.9733L7.3068 15.9733C6.69961 16.602 6.36363 17.444 6.37122 18.318C6.37881 19.192 6.72938 20.028 7.3474 20.646C7.96543 21.2641 8.80147 21.6146 9.67546 21.6222C10.5495 21.6298 11.3915 21.2938 12.0201 20.6867L13.1601 19.5467" stroke="#3C454D" stroke-linecap="round" stroke-linejoin="round"/>
<circle cx="13" cy="15" r="12.5" stroke="#3C454D"/>
</svg>
