<svg width="34" height="34" viewBox="0 0 34 34" fill="none" xmlns="http://www.w3.org/2000/svg">
<circle cx="16.9996" cy="16.9999" r="14.4" transform="rotate(-90 16.9996 16.9999)" fill="white" stroke="#5B96EE" stroke-width="4"/>
<circle r="2.6" transform="matrix(-4.37114e-08 -1 -1 4.37114e-08 16.9996 17.0001)" fill="#5B96EE" stroke="#5B96EE" stroke-width="2"/>
<path d="M17.0007 30.3335C24.3607 30.3335 30.334 24.3602 30.334 17.0002C30.334 9.64016 24.3606 3.66683 17.0006 3.66683C9.64065 3.66683 3.66731 9.64016 3.66732 17.0002C3.66732 24.3602 9.64065 30.3335 17.0007 30.3335ZM27.6673 17.0002C27.6673 22.8935 22.894 27.6668 17.0007 27.6668C14.534 27.6668 12.2673 26.8268 10.4673 25.4135L25.414 10.4668C26.8273 12.2668 27.6673 14.5335 27.6673 17.0002ZM17.0006 6.3335C19.4673 6.3335 21.734 7.1735 23.534 8.58683L8.58732 23.5335C7.17398 21.7335 6.33398 19.4668 6.33398 17.0002C6.33398 11.1068 11.1073 6.3335 17.0006 6.3335Z" fill="#D80032"/>
</svg>