<svg width="29" height="28" viewBox="0 0 29 28" fill="none" xmlns="http://www.w3.org/2000/svg">
<circle cx="16" cy="13" r="13" fill="#C7DBFA"/>
<path d="M20.3327 8.99987C19.6943 9.45019 18.9874 9.79461 18.2393 10.0199C17.8378 9.55821 17.3042 9.231 16.7107 9.08249C16.1172 8.93397 15.4923 8.97133 14.9207 9.1895C14.3491 9.40768 13.8583 9.79614 13.5147 10.3023C13.171 10.8086 12.9911 11.4081 12.9993 12.0199V12.6865C11.8278 12.7169 10.6669 12.4571 9.62002 11.9302C8.57318 11.4033 7.67289 10.6256 6.99935 9.66653C6.99935 9.66653 4.33268 15.6665 10.3327 18.3332C8.9597 19.2652 7.32412 19.7325 5.66602 19.6665C11.666 22.9999 18.9993 19.6665 18.9993 11.9999C18.9987 11.8142 18.9809 11.6289 18.946 11.4465C19.6264 10.7755 20.1066 9.92834 20.3327 8.99987V8.99987Z" stroke="#3C454D" stroke-linecap="round" stroke-linejoin="round"/>
<circle cx="13" cy="15" r="12.5" stroke="#3C454D"/>
</svg>
