<svg width="41" height="41" viewBox="0 0 41 41" fill="none" xmlns="http://www.w3.org/2000/svg">
<rect x="2.0498" y="23.575" width="17.425" height="21.525" rx="1.025" transform="rotate(-90 2.0498 23.575)" fill="#E4F7F1"/>
<path d="M3.0748 11.275C2.50871 11.275 2.0498 10.8161 2.0498 10.25L2.0498 7.17503C2.0498 6.60893 2.50871 6.15003 3.0748 6.15003L22.5498 6.15003C23.1159 6.15003 23.5748 6.60893 23.5748 7.17502L23.5748 11.275L3.0748 11.275Z" fill="#7BD2B8"/>
<rect x="4.09961" y="8.19995" width="2.05" height="2.05" rx="1.025" fill="#219773"/>
<rect x="17.4248" y="33.825" width="16.4" height="21.525" rx="1.025" transform="rotate(-90 17.4248 33.825)" fill="#E4F7F1"/>
<path d="M10.7623 22.55H4.09981C2.96762 22.55 2.0498 21.6322 2.0498 20.5V8.20005C2.0498 7.06787 2.96762 6.15005 4.0998 6.15005H21.5248C22.657 6.15005 23.5748 7.06787 23.5748 8.20005V8.71255" stroke="#7BD2B8" stroke-width="1.025" stroke-linecap="round"/>
<path d="M31.0199 17.425H36.9002C38.0324 17.425 38.9502 18.3429 38.9502 19.475V30.75C38.9502 31.8822 38.0324 32.8 36.9002 32.8H18.4502C17.8841 32.8 17.4252 32.3411 17.4252 31.775V31.775" stroke="#7BD2B8" stroke-width="1.025" stroke-linecap="round"/>
<path d="M11.2748 23.575H4.0998C2.96762 23.575 2.0498 22.6571 2.0498 21.525V8.19995C2.0498 7.06777 2.96762 6.14995 4.0998 6.14995H21.5248C22.657 6.14995 23.5748 7.06777 23.5748 8.19995V9.22495" stroke="#3C454D" stroke-width="1.025" stroke-linecap="round"/>
<path d="M21.5254 25.625L34.8504 25.625" stroke="#7BD2B8" stroke-width="1.025" stroke-linecap="round"/>
<path d="M7.17486 14.35L19.4748 14.35" stroke="#219773" stroke-width="1.025" stroke-linecap="round"/>
<path d="M7.17486 16.4L19.4748 16.4" stroke="#219773" stroke-width="1.025" stroke-linecap="round"/>
<path d="M7.17486 18.45L19.4748 18.45" stroke="#219773" stroke-width="1.025" stroke-linecap="round"/>
<path d="M21.5254 27.675L34.8504 27.675" stroke="#7BD2B8" stroke-width="1.025" stroke-linecap="round"/>
<path d="M21.5254 29.725L25.6254 29.725" stroke="#219773" stroke-width="1.025" stroke-linecap="round"/>
<path d="M1.02539 33.825H5.12539" stroke="#3C454D" stroke-width="1.025" stroke-linecap="round"/>
<path d="M13.3252 33.825L35.8752 33.825" stroke="#3C454D" stroke-width="1.025" stroke-linecap="round"/>
<path d="M8.2002 33.825H10.2502" stroke="#3C454D" stroke-width="1.025" stroke-linecap="round"/>
<path d="M20.4996 22.55C19.9335 22.55 19.4746 22.0911 19.4746 21.525L19.4746 18.4501C19.4746 17.884 19.9335 17.4251 20.4996 17.4251L37.9246 17.425C38.4907 17.425 38.9496 17.884 38.9496 18.45L38.9496 22.55L20.4996 22.55Z" fill="#7BD2B8"/>
<path d="M28.7002 17.425H36.9002C38.0324 17.425 38.9502 18.3429 38.9502 19.475V31.775C38.9502 32.9072 38.0324 33.825 36.9002 33.825H19.4752C18.343 33.825 17.4252 32.9072 17.4252 31.775V28.1875" stroke="#3C454D" stroke-width="1.025" stroke-linecap="round"/>
<path d="M21.6063 11.7957C22.0141 11.7963 22.4049 11.9589 22.6928 12.2477L25.6874 15.2519C25.9752 15.5407 26.1366 15.932 26.1359 16.3398L26.1292 20.5816C26.1285 20.9893 25.9659 21.3801 25.6771 21.668L22.6729 24.6626C22.3841 24.9505 21.9928 25.1118 21.585 25.1112L17.3433 25.1044C16.9355 25.1037 16.5447 24.9411 16.2568 24.6523L13.2622 21.6481C12.9744 21.3593 12.813 20.968 12.8137 20.5602L12.8205 16.3185C12.8211 15.9107 12.9837 15.5199 13.2725 15.232L16.2767 12.2375C16.5655 11.9496 16.9568 11.7882 17.3646 11.7889L21.6063 11.7957Z" fill="white" stroke="#3C454D" stroke-width="1.025"/>
<path d="M17.4248 20.5L21.5248 16.4" stroke="#219773" stroke-width="1.025" stroke-linecap="round"/>
<path d="M17.4248 16.4L21.5248 20.5" stroke="#219773" stroke-width="1.025" stroke-linecap="round"/>
</svg>
