<svg xmlns="http://www.w3.org/2000/svg" xmlns:xlink="http://www.w3.org/1999/xlink" width="342" height="52"><defs><filter id="a" width="120.4%" height="120.4%" x="-10.2%" y="-10.2%" filterUnits="objectBoundingBox"><feGaussianBlur in="SourceAlpha" result="shadowBlurInner1" stdDeviation="3.5"/><feOffset dy="1" in="shadowBlurInner1" result="shadowOffsetInner1"/><feComposite in="shadowOffsetInner1" in2="SourceAlpha" k2="-1" k3="1" operator="arithmetic" result="shadowInnerInner1"/><feColorMatrix in="shadowInnerInner1" values="0 0 0 0 0.8 0 0 0 0 0.8 0 0 0 0 0.8 0 0 0 1 0"/></filter><circle id="b" cx="316.461" cy="25.039" r="24.461"/></defs><g fill="none" fill-rule="evenodd" transform="translate(0 1)"><rect width="336" height="29" y="10" fill="#ECEDF0" rx="4"/><path fill="#0D3ECC" fill-rule="nonzero" d="M315.586 31.658h.053a.164.164 0 0 0 .168-.163c0-.072-.053-.164-.147-.164h-.053l-.115-.02c-1.94-.368-3.376-2.055-3.376-4.028 0-.838.262-1.635.713-2.28.073-.091.189-.163.315-.05l3.061 3.025a.2.2 0 0 0 .115.051c.053 0 .095-.02.116-.05l3.082-3.006c.115-.113.22-.092.283.02a3.997 3.997 0 0 1-.367 5.009l-.073.072c0 .02-.021.05-.021.071 0 .092.073.164.168.164h.02c.022 0 .053-.02.074-.02 4.089-1.677 3.9-5.643 3.9-5.643 0-2.26-1.1-4.294-2.8-5.571-.073-.051-.188-.051-.24.02l-4.016 3.966a.187.187 0 0 1-.262 0l-4.047-3.966a.183.183 0 0 0-.241-.02c-1.667 1.277-2.768 3.281-2.768 5.57 0 3.64 2.82 6.645 6.458 7.013"/><path fill="#FFF" d="M78 18h221v13H78z"/><path d="M9 17h16v16H9z"/><path fill="#515565" d="M13.404 24.333H23v1.334h-9.3l3.428 3.428-.943.943-4.714-4.714a.667.667 0 0 1 0-.943l4.714-4.714.943.942-3.724 3.724z"/><g opacity=".5"><path d="M49 17H33v16h16z"/><path fill="#515565" d="M44.596 24.333H35v1.334h9.3l-3.428 3.428.943.943 4.714-4.714a.667.667 0 0 0 0-.943l-4.714-4.714-.943.942 3.724 3.724z"/></g><path fill="#515565" fill-rule="nonzero" d="M61.101 28.988c-2.61 0-4-2.266-4-3.903 0-1.636 1.39-3.902 4-3.902a4.157 4.157 0 0 1 2.774 1.113l-1.707-.025-.015.975 3.347.047-.056-3.256-1 .015.022 1.444a5.11 5.11 0 0 0-3.365-1.287c-2.99 0-5 2.521-5 4.878 0 2.356 2.009 4.878 5 4.878 2.559 0 4.25-1.793 4.798-3.571l-.959-.28c-.44 1.43-1.795 2.874-3.839 2.874z"/><use fill="#000" filter="url(#a)" xlink:href="#b"/><use stroke="silver" stroke-width="2" xlink:href="#b"/></g></svg>