<svg xmlns="http://www.w3.org/2000/svg" width="336" height="60"><g fill="none" fill-rule="evenodd"><rect width="336" height="29" fill="#ECEDF0" rx="4"/><path fill="#FFF" d="M78 8h221v13H78z"/><path d="M9 7h16v16H9z"/><path fill="#515565" d="m16.185 9.667.943.942-3.724 3.724H23v1.334h-9.3l3.428 3.428-.943.943-4.714-4.714a.668.668 0 0 1 0-.943l4.714-4.714z"/><g opacity=".5"><path d="M49 7H33v16h16z"/><path fill="#515565" d="m41.815 9.667-.943.942 3.724 3.724H35v1.334h9.3l-3.428 3.428.943.943 4.714-4.714a.668.668 0 0 0 0-.943l-4.714-4.714z"/></g><path d="M61.101 18.988c-2.61 0-4-2.266-4-3.903 0-1.636 1.39-3.902 4-3.902a4.155 4.155 0 0 1 2.774 1.113l-1.707-.025-.016.975 3.348.047-.056-3.256-1 .015.022 1.444a5.101 5.101 0 0 0-3.365-1.286c-2.99 0-5 2.521-5 4.878 0 2.356 2.009 4.878 5 4.878 2.559 0 4.25-1.793 4.798-3.571l-.959-.28c-.44 1.43-1.795 2.874-3.839 2.874zM322.347 19c-.652 0-.872-.35-1.138-.615-.542-.544-1.209-.312-1.209.565V23h-4.05c-.877 0-1.109-.667-.565-1.209.266-.266.615-.486.615-1.138 0-.725-.739-1.653-2-1.653-1.261 0-2 .928-2 1.653 0 .652.35.872.615 1.138.544.542.312 1.209-.565 1.209H308v-4.05c0-.877.667-1.109 1.209-.565.266.266.486.615 1.138.615.725 0 1.653-.739 1.653-2 0-1.261-.928-2-1.653-2-.652 0-.872.35-1.138.615-.542.544-1.209.312-1.209-.565V11h4.05c.877 0 1.109-.667.565-1.209-.266-.266-.615-.486-.615-1.138 0-.725.739-1.653 2-1.653 1.261 0 2 .928 2 1.653 0 .652-.35.872-.615 1.138-.544.542-.312 1.209.565 1.209H320v4.05c0 .877.667 1.109 1.209.565.266-.266.486-.615 1.138-.615.725 0 1.653.739 1.653 2 0 1.261-.928 2-1.653 2z" fill="#515565" fill-rule="nonzero"/><path fill="#ECEDF0" d="M144 32h191v28H144z"/><path d="M322.906 48.005c-.092-.45-.31-.827-.599-1.054-.21-.165-.472-.424-.52-.69l-.723-4.004c-.047-.264-.073-.478-.058-.479h.027c.416 0 .773-.361.913-.87.072-.258-.154-.48-.423-.48h-5.077c-.268 0-.493.221-.421.48.14.509.497.87.913.87h.028c.014 0-.012.214-.06.479l-.722 4.005c-.048.264-.31.523-.52.69-.289.226-.507.603-.6 1.054-.054.263.17.483.438.482l3.009.001v3.342h.007c.037 1.375.244 2.431.497 2.432.252 0 .46-1.057.496-2.432h.008v-3.342h2.95c.269 0 .492-.22.438-.483z" fill="#0D3ECC" fill-rule="nonzero"/><path d="M158.586 53.659h.053a.164.164 0 0 0 .167-.164c0-.071-.052-.163-.147-.163h-.052l-.115-.02c-1.94-.369-3.376-2.056-3.376-4.028 0-.839.262-1.636.713-2.28.073-.092.188-.164.314-.051l3.062 3.026c.02.02.073.05.115.05.052 0 .094-.02.115-.05l3.083-3.006c.115-.112.22-.092.283.02a4.02 4.02 0 0 1 .713 2.28c0 1.053-.41 2.004-1.08 2.73l-.074.071c0 .02-.02.051-.02.072 0 .092.073.163.167.163h.021c.021 0 .053-.02.074-.02 4.089-1.677 3.9-5.643 3.9-5.643a6.98 6.98 0 0 0-2.8-5.57c-.073-.052-.188-.052-.24.02l-4.017 3.966a.188.188 0 0 1-.262 0l-4.046-3.966a.18.18 0 0 0-.241-.02c-1.667 1.276-2.768 3.279-2.768 5.569 0 3.64 2.82 6.645 6.458 7.013" fill="#515565"/><text fill="#141519" font-family="Graphik-Regular, Graphik" font-size="10" transform="translate(144 32)">
                                <tspan x="26" y="18">Malwarebytes Browser Guard</tspan>
                            </text></g></svg>