<svg width="20" height="21" viewBox="0 0 20 21" fill="none" xmlns="http://www.w3.org/2000/svg">
<path d="M19.8669 2.23815C19.9549 2.46713 20 2.71036 20 2.95568V18.9452C20 20.0498 19.1046 20.9452 18 20.9452C17.7138 20.9452 17.4309 20.8838 17.1705 20.7651L12.8379 18.7899C12.5316 19.5017 11.824 20 11 20H8C6.89543 20 6 19.1046 6 18V15.6731L4.52 14.9991L2 15C0.89543 15 0 14.1046 0 13V8C0 6.89543 0.89543 6 2 6L4.505 5.99914L17.2825 1.08882C18.3135 0.692541 19.4706 1.20711 19.8669 2.23815ZM18 2.95568L6 7.56792V13.4759L18 18.9452V2.95568ZM8 16.5851V18H11V17.9521L8 16.5851ZM4 8H2V13H4V8Z" fill="#1C1B1F"/>
</svg>
