<svg width="20" height="15" viewBox="0 0 20 15" fill="none" xmlns="http://www.w3.org/2000/svg">
<path d="M17.3735 7.21268C17.769 6.82725 18.4021 6.83546 18.7876 7.23101L18.8165 7.26074C19.1963 7.65046 19.1947 8.2723 18.813 8.66011L13.4218 14.1374C13.2185 14.337 12.902 14.334 12.7086 14.1369L10.1873 11.5677C9.80565 11.1787 9.80565 10.5558 10.1873 10.1669L10.2153 10.1384C10.2197 10.1339 10.2241 10.1295 10.2286 10.1251C10.6228 9.73824 11.2559 9.74421 11.6427 10.1384L13.0641 11.5868L17.359 7.2271L17.3735 7.21268ZM7 10C7.55228 10 8 10.4477 8 11C8 11.5523 7.55228 12 7 12H1C0.447715 12 0 11.5523 0 11C0 10.4477 0.447715 10 1 10H7ZM12 5C12.5523 5 13 5.44772 13 6C13 6.55228 12.5523 7 12 7H1C0.447715 7 0 6.55228 0 6C0 5.44772 0.447715 5 1 5H12ZM17 0C17.5523 0 18 0.447715 18 1C18 1.55228 17.5523 2 17 2H1C0.447715 2 0 1.55228 0 1C0 0.447715 0.447715 0 1 0H17Z" fill="#1C1B1F"/>
</svg>
