<svg xmlns="http://www.w3.org/2000/svg" xmlns:xlink="http://www.w3.org/1999/xlink" width="323" height="373"><defs><path id="a" d="M.209 121.76C.049 189.181 68.183 243.997 152.39 244.2c84.208.2 152.601-54.294 152.76-121.715C305.312 55.064 237.178.248 152.97.046h-.459C68.513.046.368 54.463.21 121.76"/><path id="d" d="M272.285 174.853H1.777c-.983 0-1.777-.74-1.777-1.65V3.09C0 1.619 1.281.429 2.863.429h268.333c1.582 0 2.863 1.19 2.863 2.66V173.2c.003.913-.794 1.653-1.774 1.653"/><path id="e" d="M0 .188h99.956v3.52H0z"/><path id="g" d="M0 .121h99.956v3.52H0z"/><path id="i" d="M0 .259h99.956v3.52H0z"/><path id="k" d="M0 .259h143.843v3.52H0z"/><path id="m" d="M0 .192h99.956v3.52H0z"/><path id="o" d="M0 .05h37.227v3.52H0z"/><path id="q" d="M0 .4h37.227v3.521H0z"/><path id="s" d="M0 .121h51.475v3.52H0z"/><path id="u" d="M0 .33h51.475v3.52H0z"/><path id="w" d="M0 .238h99.956v3.52H0z"/><filter id="c" width="119.7%" height="131%" x="-10.9%" y="-12%" filterUnits="objectBoundingBox"><feOffset dx="-3" dy="6" in="SourceAlpha" result="shadowOffsetOuter1"/><feGaussianBlur in="shadowOffsetOuter1" result="shadowBlurOuter1" stdDeviation="8"/><feColorMatrix in="shadowBlurOuter1" values="0 0 0 0 0.588235294 0 0 0 0 0.588235294 0 0 0 0 0.588235294 0 0 0 0.3 0"/></filter></defs><g fill="none" fill-rule="evenodd"><path fill="#EFF6FF" d="M169.637 372.775C255.501 372.775 323 320.52 323 215.033c0-62.266-22.608-71.031-58.302-100.646C239.92 93.83 283.196.225 173.969.225 88.105.225 0 69.687 0 175.173c0 54.133 49.061 33.736 78.513 68.492 27.94 32.97-6.214 129.11 91.124 129.11z"/><g transform="translate(14.394 58.602)"><mask id="b" fill="#fff"><use xlink:href="#a"/></mask><path d="M.209 121.76C.049 189.181 68.183 243.997 152.39 244.2c84.208.2 152.601-54.294 152.76-121.715C305.312 55.064 237.178.248 152.97.046h-.459C68.513.046.368 54.463.21 121.76" mask="url(#b)"/></g><g transform="translate(24.926 101)"><use fill="#000" filter="url(#c)" xlink:href="#d"/><use fill="#FFF" xlink:href="#d"/></g><path fill="#EDEDED" d="M24.926 125.428H298.99v-12.147H24.926z"/><path fill="#C6C6C6" d="M296.88 101.304H27.035a2.07 2.07 0 0 0-2.069 2.066v9.981h273.983v-9.98a2.067 2.067 0 0 0-2.069-2.067"/><path fill="#FFF" d="M282.56 123.456H59.618A1.618 1.618 0 0 1 58 121.838v-5.313c0-.895.725-1.62 1.62-1.62h222.94c.895 0 1.62.725 1.62 1.62v5.31a1.619 1.619 0 0 1-1.62 1.621"/><path fill="#9D9D9C" d="M291.954 118.783a.593.593 0 1 1 0 1.186.593.593 0 0 1 0-1.186m.59-1.303a.594.594 0 1 0-1.188.002.594.594 0 0 0 1.188-.002m-.59 3.195a.593.593 0 1 1 0 1.187.593.593 0 0 1 0-1.187m-257.251-1.469h-3.791l1.26-1.272-.551-.557-2.246 2.102.62.618 1.626 1.625.55-.48-1.214-1.145h3.746zm3.852.891h3.917l-1.26 1.168.55.503 2.246-2.127-.62-.633-1.625-1.631-.551.58 1.214 1.248h-3.87zm13.849 0c-.052.593-.785 1.436-1.692 1.436-.94 0-1.701-.843-1.701-1.783s.76-1.743 1.7-1.743c.339 0 .649.079.914.25 0 0 .191.109.3.26l-.967.01.015.49 1.966.018-.012-.563-.03-1.467-.506.022.013.958a1.415 1.415 0 0 0-.314-.25c-.365-.23-.913-.45-1.375-.45a2.38 2.38 0 0 0-2.38 2.38c0 1.314 1.065 2.547 2.38 2.547 1.28 0 2.325-1.23 2.376-2.118h-.687v.003z"/><path fill="#EDEDED" d="M85.82 104.962H36.526a2.623 2.623 0 0 0-2.623 2.623v5.77H88.44v-5.77a2.617 2.617 0 0 0-2.62-2.623"/><path fill="#9D9D9C" d="m289.958 105.385 3.289 3.29c.06.06.06.16 0 .221l-.48.481a.158.158 0 0 1-.223 0l-3.29-3.29a.158.158 0 0 1 0-.222l.481-.48a.159.159 0 0 1 .223 0"/><path fill="#9D9D9C" d="m293.247 106.085-3.29 3.289a.158.158 0 0 1-.222 0l-.48-.48a.158.158 0 0 1 0-.223l3.289-3.29a.16.16 0 0 1 .222 0l.48.482a.156.156 0 0 1 0 .222m-206.534 3.453a2.215 2.215 0 1 0-4.43 0 2.215 2.215 0 0 0 4.43 0"/><path fill="#EDEDED" d="m83.307 110.328 1.98-1.98.395.397-1.979 1.979z"/><path fill="#EDEDED" d="m83.308 108.747.395-.396 1.98 1.98-.396.395z"/><path fill="#9D9D9C" d="M274.004 108.364h4.58c.078 0 .145.064.145.146v.754c0 .08-.064.146-.146.146h-4.58a.146.146 0 0 1-.145-.146v-.754c0-.08.064-.146.146-.146m11.956.696h-4.38a.074.074 0 0 1-.073-.072v-2.639c0-.04.034-.073.074-.073h4.378c.04 0 .073.034.073.073v2.639c0 .04-.033.073-.073.073m-4.795-3.755v4.028c0 .04.033.073.073.073h5.072c.04 0 .073-.033.073-.073v-4.028a.074.074 0 0 0-.073-.073h-5.072a.072.072 0 0 0-.073.073m-191.351 5.011h4.74v-1.183h-4.74z"/><path fill="#9D9D9C" d="M91.59 112.094h1.183v-5.036H91.59z"/><path fill="#F2F2F2" d="M214.703 196.593h59.155v64.479h-59.155z"/><g opacity=".8"><g transform="translate(48.937 155.285)"><mask id="f" fill="#fff"><use xlink:href="#e"/></mask><path fill="#8DCFFD" d="M98.369 3.708H1.587C.71 3.708 0 2.998 0 2.121v-.346C0 .898.71.188 1.587.188h96.782c.877 0 1.587.71 1.587 1.587v.346a1.591 1.591 0 0 1-1.587 1.587" mask="url(#f)"/></g><path fill="#8DCFFD" d="M191.193 181.751H50.523c-.876 0-1.586-.71-1.586-1.587v-.346c0-.877.71-1.587 1.587-1.587h140.67c.876 0 1.586.71 1.586 1.587v.346a1.591 1.591 0 0 1-1.587 1.587m0-7.583H94.411c-.877 0-1.586-.71-1.586-1.587v-.346c0-.877.71-1.587 1.586-1.587h96.782c.877 0 1.587.71 1.587 1.587v.346a1.591 1.591 0 0 1-1.587 1.587"/><path fill="#7C92D2" d="M191.193 158.993H157.14c-.877 0-1.587-.71-1.587-1.587v-.346c0-.877.71-1.587 1.587-1.587h34.053c.877 0 1.587.71 1.587 1.587v.346a1.591 1.591 0 0 1-1.587 1.587"/><g transform="translate(48.937 193.285)"><mask id="h" fill="#fff"><use xlink:href="#g"/></mask><path fill="#8DCFFD" d="M98.369 3.641H1.587C.71 3.641 0 2.931 0 2.055v-.347C0 .831.71.121 1.587.121h96.782c.877 0 1.587.71 1.587 1.587v.347a1.591 1.591 0 0 1-1.587 1.586" mask="url(#h)"/></g><path fill="#7C92D2" d="M191.193 196.926H157.14c-.877 0-1.587-.71-1.587-1.587v-.346c0-.877.71-1.587 1.587-1.587h34.053c.877 0 1.587.71 1.587 1.587v.346a1.591 1.591 0 0 1-1.587 1.587M84.577 166.58H50.524c-.877 0-1.587-.71-1.587-1.586v-.347c0-.877.71-1.586 1.587-1.586h34.053c.877 0 1.587.71 1.587 1.586v.347a1.591 1.591 0 0 1-1.587 1.587m106.616-.001h-48.3c-.878 0-1.588-.71-1.588-1.586v-.347c0-.877.71-1.586 1.587-1.586h48.301c.877 0 1.587.71 1.587 1.586v.347a1.591 1.591 0 0 1-1.587 1.587"/><path fill="#0D3ECC" d="M134.896 166.58H92.57c-.877 0-1.587-.71-1.587-1.586v-.347c0-.877.71-1.586 1.587-1.586h42.326c.877 0 1.586.71 1.586 1.586v.347c0 .877-.71 1.587-1.586 1.587"/><path fill="#7C92D2" d="M84.577 189.339H50.524c-.877 0-1.587-.71-1.587-1.587v-.347c0-.877.71-1.586 1.587-1.586h34.053c.877 0 1.587.71 1.587 1.586v.347a1.591 1.591 0 0 1-1.587 1.587"/><path fill="#0D3ECC" d="M191.193 189.339h-48.3c-.878 0-1.588-.71-1.588-1.587v-.347c0-.877.71-1.586 1.587-1.586h48.301c.877 0 1.587.71 1.587 1.586v.347a1.591 1.591 0 0 1-1.587 1.587"/><path fill="#7C92D2" d="M134.896 189.339H92.57c-.877 0-1.587-.71-1.587-1.587v-.347c0-.877.71-1.586 1.587-1.586h42.326c.877 0 1.586.71 1.586 1.586v.347c0 .877-.71 1.587-1.586 1.587M84.577 173.98H50.524c-.877 0-1.587-.71-1.587-1.587v-.346c0-.877.71-1.587 1.587-1.587h34.053c.877 0 1.587.71 1.587 1.587v.346a1.591 1.591 0 0 1-1.587 1.587"/><path fill="#8DCFFD" d="M191.193 204.697H94.411c-.877 0-1.586-.71-1.586-1.587v-.346c0-.877.71-1.587 1.586-1.587h96.782c.877 0 1.587.71 1.587 1.587v.346a1.591 1.591 0 0 1-1.587 1.587"/><path fill="#0D3ECC" d="M84.577 204.513H50.524c-.877 0-1.587-.71-1.587-1.586v-.347c0-.877.71-1.587 1.587-1.587h34.053c.877 0 1.587.71 1.587 1.587v.347a1.591 1.591 0 0 1-1.587 1.586"/><g transform="translate(48.937 139.417)"><mask id="j" fill="#fff"><use xlink:href="#i"/></mask><path fill="#8DCFFD" d="M98.369 3.78H1.587C.71 3.78 0 3.07 0 2.191v-.346C0 .969.71.259 1.587.259h96.782c.877 0 1.587.71 1.587 1.587v.346a1.591 1.591 0 0 1-1.587 1.587" mask="url(#j)"/></g><path fill="#7C92D2" d="M191.193 143.196H157.14c-.877 0-1.587-.71-1.587-1.586v-.347c0-.877.71-1.587 1.587-1.587h34.053c.877 0 1.587.71 1.587 1.587v.347a1.591 1.591 0 0 1-1.587 1.586"/><path fill="#8DCFFD" d="M191.193 150.967H94.411c-.877 0-1.586-.71-1.586-1.586v-.347c0-.877.71-1.587 1.586-1.587h96.782c.877 0 1.587.71 1.587 1.587v.347a1.591 1.591 0 0 1-1.587 1.586"/><path fill="#0D3ECC" d="M84.577 150.784H50.524c-.877 0-1.587-.71-1.587-1.587v-.347c0-.877.71-1.586 1.587-1.586h34.053c.877 0 1.587.71 1.587 1.586v.347a1.591 1.591 0 0 1-1.587 1.587"/><path fill="#8DCFFD" d="M94.411 212.723h96.782c.877 0 1.587-.71 1.587-1.587v-.346c0-.877-.71-1.587-1.587-1.587H94.411c-.877 0-1.586.71-1.586 1.587v.346c0 .877.71 1.587 1.586 1.587"/><g transform="translate(48.937 231.702)"><mask id="l" fill="#fff"><use xlink:href="#k"/></mask><path fill="#8DCFFD" d="M1.587 3.78h140.67c.876 0 1.586-.71 1.586-1.588v-.346c0-.877-.71-1.587-1.587-1.587H1.586C.71.259 0 .969 0 1.846v.346C0 3.07.71 3.78 1.587 3.78" mask="url(#l)"/></g><g transform="translate(48.937 224.185)"><mask id="n" fill="#fff"><use xlink:href="#m"/></mask><path fill="#8DCFFD" d="M1.587 3.712h96.782c.877 0 1.587-.71 1.587-1.586v-.347c0-.877-.71-1.587-1.587-1.587H1.587C.71.192 0 .902 0 1.78v.347c0 .876.71 1.586 1.587 1.586" mask="url(#n)"/></g><g transform="translate(48.937 209.153)"><mask id="p" fill="#fff"><use xlink:href="#o"/></mask><path fill="#7C92D2" d="M1.587 3.57H35.64c.877 0 1.587-.71 1.587-1.586v-.347c0-.877-.71-1.587-1.587-1.587H1.587C.71.05 0 .76 0 1.637v.347C0 2.86.71 3.57 1.587 3.57" mask="url(#p)"/></g><path fill="#8DCFFD" d="M94.411 250.656h96.782c.877 0 1.587-.71 1.587-1.587v-.347c0-.877-.71-1.586-1.587-1.586H94.411c-.877 0-1.586.71-1.586 1.586v.347c0 .877.71 1.587 1.586 1.587"/><g transform="translate(48.937 246.735)"><mask id="r" fill="#fff"><use xlink:href="#q"/></mask><path fill="#7C92D2" d="M1.587 3.921H35.64c.877 0 1.587-.71 1.587-1.587v-.346c0-.877-.71-1.587-1.587-1.587H1.587A1.585 1.585 0 0 0 0 1.988v.346c0 .877.71 1.587 1.587 1.587" mask="url(#r)"/></g><path fill="#7C92D2" d="M157.14 220.31h34.053c.877 0 1.587-.71 1.587-1.586v-.347c0-.877-.71-1.587-1.587-1.587H157.14c-.877 0-1.587.71-1.587 1.587v.347c0 .877.71 1.586 1.587 1.586"/><g transform="translate(48.937 216.67)"><mask id="t" fill="#fff"><use xlink:href="#s"/></mask><path fill="#7C92D2" d="M1.587 3.641h48.301c.877 0 1.587-.71 1.587-1.586v-.347c0-.877-.71-1.587-1.587-1.587H1.587C.71.121 0 .831 0 1.708v.347C0 2.93.71 3.64 1.587 3.64" mask="url(#t)"/></g><path fill="#0D3ECC" d="M106.818 220.31h42.325c.877 0 1.587-.71 1.587-1.586v-.347c0-.877-.71-1.587-1.587-1.587h-42.325c-.877 0-1.587.71-1.587 1.587v.347c0 .877.71 1.586 1.587 1.586"/><path fill="#7C92D2" d="M157.14 243.068h34.053c.877 0 1.587-.71 1.587-1.586v-.347c0-.877-.71-1.587-1.587-1.587H157.14c-.877 0-1.587.71-1.587 1.587v.347c0 .877.71 1.586 1.587 1.586"/><g transform="translate(48.937 239.218)"><mask id="v" fill="#fff"><use xlink:href="#u"/></mask><path fill="#0D3ECC" d="M1.587 3.85h48.301c.877 0 1.587-.71 1.587-1.587v-.346c0-.877-.71-1.587-1.587-1.587H1.587C.71.33 0 1.04 0 1.917v.346C0 3.14.71 3.85 1.587 3.85" mask="url(#v)"/></g><path fill="#7C92D2" d="M106.818 243.068h42.325c.877 0 1.587-.71 1.587-1.586v-.347c0-.877-.71-1.587-1.587-1.587h-42.325c-.877 0-1.587.71-1.587 1.587v.347c0 .877.71 1.586 1.587 1.586m50.322-15.358h34.053c.877 0 1.587-.71 1.587-1.587v-.347c0-.876-.71-1.586-1.587-1.586H157.14c-.877 0-1.587.71-1.587 1.586v.347c0 .877.71 1.587 1.587 1.587"/><g transform="translate(48.937 254.669)"><mask id="x" fill="#fff"><use xlink:href="#w"/></mask><path fill="#8DCFFD" d="M1.587 3.758h96.782c.877 0 1.587-.71 1.587-1.587v-.346c0-.877-.71-1.587-1.587-1.587H1.587C.71.238 0 .948 0 1.825v.346c0 .877.71 1.587 1.587 1.587" mask="url(#x)"/></g><path fill="#0D3ECC" d="M157.14 258.24h34.053c.877 0 1.587-.71 1.587-1.588v-.346c0-.877-.71-1.587-1.587-1.587H157.14c-.877 0-1.587.71-1.587 1.587v.346c0 .881.71 1.587 1.587 1.587"/><path fill="#FF9B21" d="M244.28 138.582c12.915 0 23.385 10.47 23.385 23.384 0 12.915-10.47 23.385-23.385 23.385-12.915 0-23.384-10.47-23.384-23.385 0-12.914 10.47-23.384 23.384-23.384" opacity=".7"/></g><g fill="#4998F1"><path fill-opacity=".05" d="M162.426 44.195c-81.748 0-148.255 66.507-148.255 148.255 0 81.748 66.507 148.255 148.255 148.255 81.748 0 148.255-66.507 148.255-148.255 0-81.748-66.507-148.255-148.255-148.255m0 298.95c-83.095 0-150.695-67.603-150.695-150.695 0-83.093 67.603-150.695 150.695-150.695 83.093 0 150.695 67.602 150.695 150.695 0 83.095-67.602 150.695-150.695 150.695"/><path fill-opacity=".1" d="M162.426 60.942c-72.513 0-131.507 58.994-131.507 131.508 0 72.513 58.994 131.507 131.507 131.507 72.514 0 131.508-58.994 131.508-131.507 0-72.514-58.997-131.508-131.508-131.508m0 265.455c-73.857 0-133.947-60.09-133.947-133.947 0-73.858 60.09-133.948 133.947-133.948 73.858 0 133.948 60.09 133.948 133.948 0 73.857-60.09 133.947-133.948 133.947"/><path fill-opacity=".15" d="M162.428 79.124c-62.488 0-113.329 50.838-113.329 113.326 0 62.487 50.838 113.328 113.329 113.328 62.49 0 113.326-50.838 113.326-113.328S224.916 79.124 162.428 79.124m0 229.094c-63.835 0-115.769-51.933-115.769-115.768S98.593 76.684 162.428 76.684c63.835 0 115.766 51.934 115.766 115.766 0 63.835-51.934 115.768-115.766 115.768"/><path fill-opacity=".2" d="M162.426 95.159c-53.647 0-97.293 43.644-97.293 97.294s43.646 97.293 97.293 97.293c53.648 0 97.294-43.644 97.294-97.293 0-53.65-43.646-97.294-97.294-97.294m0 197.025c-54.994 0-99.733-44.74-99.733-99.734 0-54.995 44.74-99.734 99.733-99.734 54.995 0 99.734 44.74 99.734 99.734 0 54.994-44.742 99.734-99.734 99.734"/><path fill-opacity=".25" d="M162.426 114.701c-42.87 0-77.748 34.879-77.748 77.749s34.879 77.748 77.748 77.748c42.87 0 77.749-34.879 77.749-77.748 0-42.87-34.879-77.749-77.749-77.749m0 157.937c-44.216 0-80.188-35.971-80.188-80.188 0-44.217 35.972-80.189 80.188-80.189 44.217 0 80.189 35.972 80.189 80.189 0 44.217-35.975 80.188-80.189 80.188"/></g><path fill="#082882" d="M112.92 148.103v.839c.023 2.269.045 4.812.09 7.535.137 7.784.408 15.57.816 22.832.727 12.779 1.817 22.514 3.29 27.802 3.382 12.03 11.236 22.332 22.265 30.913 5.355 4.175 11.121 7.672 16.862 10.486a95.891 95.891 0 0 0 5.562 2.519c.59.248 1.068.43 1.431.567.364-.137.839-.34 1.406-.567a83.377 83.377 0 0 0 5.448-2.519c5.651-2.836 11.303-6.355 16.568-10.553 10.736-8.556 18.408-18.839 21.765-30.824 1.476-5.288 2.588-15.026 3.29-27.804.408-7.264.682-15.049.816-22.833.045-2.722.09-5.265.09-7.535v-.838c-5.018-1.499-6.65-1.974-24.398-7.24-18.998-5.629-19.52-5.788-25.533-7.58-5.992 1.77-6.515 1.929-25.465 7.58-17.653 5.244-19.285 5.722-24.302 7.22"/><path fill="#0D3ECC" fill-opacity=".5" d="M162.716 133.303c-5.992 1.77-6.515 1.929-25.465 7.58-17.659 5.244-19.29 5.719-24.308 7.217v.839c.023 2.27.045 4.813.09 7.535.137 7.784.408 15.57.816 22.832.726 12.779 1.817 22.514 3.29 27.802 3.381 12.03 11.235 22.332 22.264 30.913 5.356 4.175 11.122 7.672 16.863 10.487a95.891 95.891 0 0 0 5.562 2.518c.59.249 1.067.43 1.43.567"/></g></svg>
