<svg width="40" height="40" viewBox="0 0 40 40" fill="none" xmlns="http://www.w3.org/2000/svg">
<path opacity="0.15" d="M20 40C31.0457 40 40 31.0457 40 20C40 8.9543 31.0457 0 20 0C8.9543 0 0 8.9543 0 20C0 31.0457 8.9543 40 20 40Z" fill="#FFBC66"/>
<g clip-path="url(#clip0_1353_75351)">
<path d="M26.0868 22.0095L29.6868 22.8095C29.8811 22.8527 30.0141 23.0322 29.9988 23.2307C29.7212 26.8373 28.4421 29.1114 26.1405 29.9745C26.0499 30.0085 25.9501 30.0085 25.8596 29.9745C23.5578 29.1114 22.2786 26.8373 22.0012 23.2307C21.9859 23.0322 22.1189 22.8527 22.3132 22.8095L25.9132 22.0095C25.9704 21.9968 26.0296 21.9968 26.0868 22.0095ZM18.5 9C23.7467 9 28 13.2533 28 18.5C28 19.4881 27.8491 20.441 27.5692 21.3368L26.1084 21.0119C26.0608 21.0013 26.012 20.9978 25.9636 21.0013L25.8915 21.0119L21.3915 22.0119C21.1486 22.0659 20.9824 22.2903 21.0015 22.5383C21.146 24.4169 21.5079 26.0063 22.0891 27.2993C20.9824 27.7507 19.7703 28 18.5 28C13.2533 28 9 23.7467 9 18.5C9 13.2533 13.2533 9 18.5 9ZM20.886 23.0004H16.114C16.6008 23.989 17.2483 24.984 18.0588 25.9862C18.2051 25.9957 18.3521 26 18.5 26C18.6479 26 18.7949 25.9957 18.9407 25.9873C19.7517 24.984 20.3992 23.989 20.886 23.0004ZM13.9208 23.0003L12.4998 23.0005C13.1663 23.8876 14.0249 24.6222 15.0139 25.1423C14.5793 24.4303 14.215 23.7165 13.9208 23.0003ZM13.1018 17.0006L11.1499 17.0004C11.0516 17.4849 11 17.9864 11 18.5C11 19.377 11.1505 20.2189 11.4272 21.0011L13.2834 21.0006C13.0948 20.1699 13 19.3362 13 18.5C13 17.9992 13.034 17.4994 13.1018 17.0006ZM25.8501 17.0004L23.8982 17.0006C23.966 17.4994 24 17.9992 24 18.5C24 19.3362 23.9052 20.1699 23.7166 21.0006L25.5728 21.0011C25.8495 20.2189 26 19.377 26 18.5C26 17.9864 25.9484 17.4849 25.8501 17.0004ZM21.8755 17.0004H15.1245C15.0414 17.5016 15 18.0015 15 18.5C15 19.3295 15.1146 20.1627 15.3454 21.0001H21.6546C21.8854 20.1627 22 19.3295 22 18.5C22 18.0015 21.9586 17.5016 21.8755 17.0004ZM15.013 11.8587L14.9126 11.912C13.6181 12.6184 12.5548 13.6952 11.8651 15L13.5559 15.0005C13.8912 13.9481 14.3775 12.9006 15.013 11.8587ZM18.5 11C18.3521 11 18.2051 11.0043 18.0593 11.0127C16.9742 12.3549 16.1815 13.6831 15.6752 15.0004H21.3248C20.8185 13.6831 20.0258 12.3549 18.9412 11.0138C18.7949 11.0043 18.6479 11 18.5 11ZM21.9871 11.8582L22.1491 12.1302C22.7058 13.0825 23.1379 14.0395 23.4441 15.0005L25.1349 15C24.4275 13.6616 23.327 12.5631 21.9871 11.8582Z" fill="#FFBC66"/>
</g>
<defs>
<clipPath id="clip0_1353_75351">
<rect width="24" height="24" fill="white" transform="translate(8 8)"/>
</clipPath>
</defs>
</svg>
