<svg xmlns="http://www.w3.org/2000/svg" xmlns:xlink="http://www.w3.org/1999/xlink" width="292" height="343"><defs><path id="a" d="M0 .313h291.997V343H0z"/><path id="c" d="M0 0h148.492v342.687H0z"/><path id="e" d="M0 342h292V0H0z"/></defs><g fill="none" fill-rule="evenodd"><mask id="b" fill="#fff"><use xlink:href="#a"/></mask><path fill="#7094FF" d="m0 43.214.018 2.422c.053 6.58.149 13.916.298 21.817.428 22.565 1.195 45.127 2.388 66.16 2.098 36.988 5.299 65.2 9.643 80.522 9.882 34.853 32.88 64.674 65.164 89.545 15.684 12.083 32.53 22.193 49.378 30.39 5.895 2.87 11.363 5.292 16.26 7.278 1.708.692 3.12 1.242 4.21 1.652 1.063-.41 2.439-.96 4.1-1.65 4.806-1.997 10.173-4.435 15.96-7.32 16.538-8.25 33.076-18.425 48.474-30.587 31.424-24.82 53.902-54.555 63.757-89.308 4.344-15.321 7.545-43.534 9.643-80.522 1.193-21.033 1.96-43.595 2.387-66.16.15-7.9.246-15.236.3-21.817l.017-2.42c-14.714-4.32-19.49-5.72-71.427-20.968L145.848.313l-74.57 21.935L0 43.214" mask="url(#b)"/><g transform="translate(0 .313)"><mask id="d" fill="#fff"><use xlink:href="#c"/></mask><path fill="#4671E4" d="M146.97 0 71.825 21.934C19.602 37.18 14.793 38.583 0 42.9l.018 2.423c.054 6.58.15 13.916.3 21.817.431 22.565 1.205 45.126 2.407 66.16 2.114 36.988 5.34 65.2 9.717 80.522 9.958 34.852 33.134 64.674 65.665 89.544 15.805 12.084 32.78 22.193 49.757 30.392 5.94 2.868 11.451 5.29 16.387 7.277 1.72.692 3.143 1.242 4.24 1.652" mask="url(#d)"/></g><path fill="#0D3ECC" d="M13.016 55.661c.049 6.05.137 12.793.274 20.055.39 20.742 1.092 41.48 2.183 60.814 1.919 34 4.844 59.933 8.817 74.017 9.037 32.036 30.066 59.448 59.586 82.31 14.341 11.106 29.745 20.4 45.15 27.935a242.231 242.231 0 0 0 14.869 6.69c1.561.636 2.853 1.141 3.85 1.518.971-.377 2.23-.882 3.747-1.517 4.395-1.836 9.303-4.076 14.594-6.73 15.123-7.582 30.244-16.934 44.324-28.114 28.735-22.815 49.288-50.147 58.3-82.092 3.973-14.084 6.899-40.017 8.817-74.017 1.09-19.334 1.792-40.072 2.183-60.814.137-7.262.224-14.005.273-20.055l.017-2.224-65.313-19.274L146.362 14 78.176 34.163 13 53.435l.016 2.226z"/><path fill="#113DAA" d="M146.616 14 78.299 34.163 13 53.435l.016 2.226c.05 6.05.137 12.792.274 20.054.391 20.742 1.094 41.481 2.188 60.815 1.921 34 4.853 59.933 8.834 74.017 9.053 32.036 30.123 59.448 59.699 82.31 14.369 11.106 29.801 20.4 45.236 27.935 5.4 2.637 10.41 4.864 14.897 6.69 1.565.636 2.859 1.141 3.856 1.518"/><mask id="f" fill="#fff"><use xlink:href="#e"/></mask><path fill="#FFF" d="M144 246h6V90h-6z" mask="url(#f)"/><path fill="#FFF" d="M148 94.055c-41.856 0-75.908 33.845-75.908 75.445 0 41.6 34.052 75.445 75.908 75.445s75.908-33.844 75.908-75.445c0-41.6-34.052-75.445-75.908-75.445M148 251c-45.215 0-82-36.56-82-81.5S102.785 88 148 88s82 36.56 82 81.5-36.785 81.5-82 81.5" mask="url(#f)"/><path fill="#FFF" d="M147 94.055c-17.896 0-33.016 34.55-33.016 75.445 0 40.895 15.12 75.445 33.016 75.445s33.016-34.55 33.016-75.445c0-40.895-15.12-75.445-33.016-75.445M147 251c-21.87 0-39-35.799-39-81.5 0-45.7 17.13-81.5 39-81.5s39 35.8 39 81.5c0 45.701-17.13 81.5-39 81.5" mask="url(#f)"/><path fill="#FFF" d="M77 138h142v-6H77zm0 67h142v-6H77z" mask="url(#f)"/><g mask="url(#f)"><path fill="#25AC4D" d="M189 266c-14.36 0-26-11.64-26-26s11.64-26 26-26 26 11.64 26 26-11.64 26-26 26z"/><path fill="#FFF" d="M182.292 250c-.401 0-.8-.154-1.084-.452l-6.843-7.158c-.53-.555-.476-1.403.122-1.895s1.515-.44 2.043.115l5.952 6.225 19.193-13.561c.636-.448 1.544-.335 2.029.254.484.59.362 1.432-.274 1.881l-20.262 14.317c-.26.184-.57.274-.876.274"/></g></g></svg>