<svg width="20" height="20" viewBox="0 0 20 20" fill="none" xmlns="http://www.w3.org/2000/svg">
<rect width="20" height="20" rx="10" fill="#FFE9CC"/>
<g clip-path="url(#clip0_1929_17745)">
<path fill-rule="evenodd" clip-rule="evenodd" d="M12 3.33334C12.7364 3.33334 13.3333 3.93029 13.3333 4.66667V7.33334H14.6667C15.403 7.33334 16 7.93029 16 8.66667L16 15.3333C16 16.0697 15.403 16.6667 14.6667 16.6667H5.33333C4.59695 16.6667 4 16.0697 4 15.3333L4 8.66667C4 7.93029 4.59695 7.33334 5.33333 7.33334H6.66667V4.66667C6.66667 3.93029 7.26362 3.33334 8 3.33334L12 3.33334ZM14.6667 8.66667L5.33333 8.66667L5.33333 15.3333L14.6667 15.3333L14.6667 8.66667ZM10 10C10.7364 10 11.3333 10.597 11.3333 11.3333C11.3333 11.8266 11.0655 12.2572 10.6674 12.4879L10.6667 13.3333C10.6667 13.7015 10.3682 14 10 14C9.63181 14 9.33333 13.7015 9.33333 13.3333L9.33329 12.4883C8.93478 12.2577 8.66667 11.8268 8.66667 11.3333C8.66667 10.597 9.26362 10 10 10ZM11.3333 4.66667H8.66667C8.29848 4.66667 8 4.96515 8 5.33334V7.33334H12V5.33334C12 4.96515 11.7015 4.66667 11.3333 4.66667Z" fill="#995600"/>
</g>
<defs>
<clipPath id="clip0_1929_17745">
<rect width="16" height="16" fill="white" transform="translate(2 2)"/>
</clipPath>
</defs>
</svg>
