<svg xmlns="http://www.w3.org/2000/svg" xmlns:xlink="http://www.w3.org/1999/xlink" width="213" height="264"><defs><path id="b" d="M0 .23h212.998V251H0z"/><path id="d" d="M0 .23h108.318V251H0z"/><path id="f" d="M0 250.268h213V0H0z"/><filter id="a" width="113.5%" height="174.5%" x="-6.8%" y="-37.2%" filterUnits="objectBoundingBox"><feGaussianBlur in="SourceGraphic" stdDeviation="1.987"/></filter></defs><g fill="none" fill-rule="evenodd"><ellipse cx="107" cy="251" fill="#C2BDBD" fill-rule="nonzero" filter="url(#a)" opacity=".7" rx="44" ry="8"/><mask id="c" fill="#fff"><use xlink:href="#b"/></mask><path fill="#F6F8FE" d="m0 31.623.013 1.773C.052 38.21.122 43.579.231 49.36c.311 16.514.871 33.024 1.742 48.415 1.53 27.067 3.865 47.713 7.034 58.925 7.208 25.504 23.985 47.326 47.534 65.526 11.44 8.842 23.729 16.24 36.018 22.24 4.3 2.1 8.29 3.872 11.862 5.325 1.245.507 2.276.91 3.07 1.209.776-.3 1.78-.702 2.99-1.207a187.357 187.357 0 0 0 11.643-5.358c12.064-6.037 24.127-13.482 35.36-22.382 22.922-18.163 39.319-39.922 46.507-65.354 3.17-11.211 5.504-31.857 7.034-58.924.87-15.391 1.43-31.901 1.742-48.415a1487.939 1487.939 0 0 0 .23-17.735L160.896 16.28 106.39.229 51.994 16.28 0 31.623" mask="url(#c)"/><mask id="e" fill="#fff"><use xlink:href="#d"/></mask><path fill="#EDF1FE" d="M107.207.23 52.393 16.28 0 31.623l.013 1.772c.04 4.816.11 10.184.22 15.966.314 16.512.878 33.022 1.755 48.414 1.542 27.067 3.895 47.712 7.088 58.924 7.264 25.505 24.17 47.327 47.9 65.527 11.528 8.843 23.91 16.24 36.295 22.24a195.17 195.17 0 0 0 11.953 5.325c1.255.507 2.293.909 3.094 1.209" mask="url(#e)"/><path fill="#0D3ECC" d="m9.483 39.102.012 1.63c.035 4.426.1 9.36.2 14.675.284 15.179.796 30.355 1.592 44.503 1.4 24.88 3.534 43.857 6.432 54.163 6.591 23.444 21.931 43.504 43.464 60.233 10.462 8.128 21.698 14.928 32.935 20.443 3.932 1.93 7.58 3.558 10.846 4.895 1.14.465 2.082.836 2.808 1.111.71-.276 1.627-.645 2.734-1.11a170.62 170.62 0 0 0 10.646-4.924c11.032-5.55 22.061-12.393 32.332-20.574 20.96-16.696 35.953-36.697 42.527-60.074 2.898-10.306 5.032-29.283 6.432-54.163.795-14.148 1.307-29.324 1.592-44.503a1372.064 1372.064 0 0 0 .212-16.303L156.604 25l-49.84-14.755-49.738 14.754L9.483 39.102"/><path fill="#113DAA" d="M106.95 10.245 57.115 24.999 9.483 39.102l.012 1.63c.035 4.426.1 9.36.2 14.675.285 15.178.798 30.354 1.595 44.503 1.402 24.88 3.54 43.857 6.444 54.164 6.604 23.443 21.974 43.503 43.548 60.232 10.481 8.128 21.739 14.928 32.997 20.443 3.94 1.93 7.594 3.559 10.867 4.895 1.141.465 2.086.836 2.813 1.111"/><mask id="g" fill="#fff"><use xlink:href="#f"/></mask><path fill="#FFF" d="M105.041 180.017h4.377V65.86h-4.377z" mask="url(#g)"/><path fill="#FFF" d="M107.959 68.827c-30.532 0-55.371 24.767-55.371 55.21 0 30.442 24.84 55.208 55.37 55.208 30.533 0 55.372-24.766 55.372-55.208 0-30.443-24.84-55.21-55.371-55.21m0 114.85c-32.982 0-59.815-26.755-59.815-59.64 0-32.886 26.833-59.64 59.815-59.64s59.815 26.754 59.815 59.64c0 32.885-26.833 59.64-59.815 59.64" mask="url(#g)"/><path fill="#FFF" d="M107.23 68.827c-13.055 0-24.084 25.283-24.084 55.21 0 29.926 11.029 55.208 24.083 55.208 13.055 0 24.084-25.282 24.084-55.208 0-29.927-11.03-55.21-24.084-55.21m0 114.85c-15.952 0-28.448-26.197-28.448-59.64s12.496-59.64 28.448-59.64c15.953 0 28.45 26.197 28.45 59.64s-12.497 59.64-28.45 59.64" mask="url(#g)"/><path fill="#FFF" d="M56.168 100.985H159.75v-4.39H56.168zm0 49.03H159.75v-4.391H56.168z" mask="url(#g)"/><g mask="url(#g)"><path fill="#56B373" d="M137.866 194.653c-10.474 0-18.965-8.518-18.965-19.026s8.49-19.026 18.965-19.026 18.966 8.518 18.966 19.026-8.49 19.026-18.966 19.026z"/><path fill="#FFF" d="M132.973 182.945a1.09 1.09 0 0 1-.79-.331l-4.992-5.238a.935.935 0 0 1 .089-1.387 1.111 1.111 0 0 1 1.49.084l4.342 4.556 14-9.924c.464-.328 1.126-.245 1.48.186.353.432.264 1.047-.2 1.376l-14.78 10.477c-.19.135-.415.2-.639.2"/></g></g></svg>