<svg width="24" height="24" viewBox="0 0 24 24" fill="none" xmlns="http://www.w3.org/2000/svg">
<rect x="2" y="2" width="20" height="20" rx="10" fill="#FFBC66"/>
<g clip-path="url(#clip0_1985_26642)">
<path fill-rule="evenodd" clip-rule="evenodd" d="M14 5.3335C14.7364 5.3335 15.3333 5.93045 15.3333 6.66683V9.3335H16.6667C17.403 9.3335 18 9.93045 18 10.6668V17.3335C18 18.0699 17.403 18.6668 16.6667 18.6668H7.33333C6.59695 18.6668 6 18.0699 6 17.3335L6 10.6668C6 9.93045 6.59695 9.3335 7.33333 9.3335H8.66667V6.66683C8.66667 5.93045 9.26362 5.3335 10 5.3335H14ZM16.6667 10.6668L7.33333 10.6668L7.33333 17.3335H16.6667V10.6668ZM12 12.0002C12.7364 12.0002 13.3333 12.5971 13.3333 13.3335C13.3333 13.8267 13.0655 14.2574 12.6674 14.488L12.6667 15.3335C12.6667 15.7017 12.3682 16.0002 12 16.0002C11.6318 16.0002 11.3333 15.7017 11.3333 15.3335L11.3333 14.4884C10.9348 14.2579 10.6667 13.827 10.6667 13.3335C10.6667 12.5971 11.2636 12.0002 12 12.0002ZM13.3333 6.66683H10.6667C10.2985 6.66683 10 6.96531 10 7.3335V9.3335H14V7.3335C14 6.96531 13.7015 6.66683 13.3333 6.66683Z" fill="#1C1B1F"/>
</g>
<defs>
<clipPath id="clip0_1985_26642">
<rect width="16" height="16" fill="white" transform="translate(4 4)"/>
</clipPath>
</defs>
</svg>
