<svg width="234" height="16" viewBox="0 0 234 16" fill="none" xmlns="http://www.w3.org/2000/svg">
<path fill-rule="evenodd" clip-rule="evenodd" d="M68.9585 6.23008V9.45187C68.9585 10.6434 68.5985 11.382 66.806 11.382C66.2073 11.382 65.622 11.3394 65.0668 11.2555L65.0328 11.2501V5.52078L65.0552 5.51019C65.5702 5.26136 66.6626 4.83998 67.492 4.83998C68.5061 4.83998 68.9585 5.26868 68.9585 6.23008ZM65.0914 4.19539L65.0328 4.2264V0.156063C65.0328 0.0611178 64.9482 -0.0118728 64.8541 0.00160828L63.7308 0.161456C63.6539 0.172626 63.5967 0.238298 63.5967 0.316296V12.1743C63.5967 12.2479 63.6473 12.3118 63.7194 12.327C64.708 12.5377 65.9383 12.634 66.6978 12.634C69.9469 12.634 70.3948 11.0789 70.3948 9.39795V6.284C70.3948 4.49525 69.5397 3.58797 67.8531 3.58797C66.6655 3.58797 65.6477 3.90189 65.0914 4.19539Z" fill="white"/>
<path fill-rule="evenodd" clip-rule="evenodd" d="M72.2972 3.76794H71.2131C71.1069 3.76794 71.0313 3.87156 71.064 3.97209L73.7892 12.3462C73.8101 12.4105 73.8704 12.454 73.938 12.454H74.2636C74.3708 12.454 74.4464 12.5596 74.4114 12.6611L73.327 15.7927C73.292 15.8944 73.3677 15.9999 73.4754 15.9999H74.486C74.5527 15.9999 74.6118 15.958 74.6338 15.8956L75.8335 12.4806L78.6544 3.97286C78.688 3.87213 78.6126 3.76794 78.5059 3.76794H77.4227C77.3548 3.76794 77.2945 3.81166 77.2741 3.87618L74.9919 10.9536C74.9453 11.0984 74.7399 11.0978 74.6937 10.953L72.4462 3.87676C72.4257 3.81205 72.3654 3.76794 72.2972 3.76794Z" fill="white"/>
<path fill-rule="evenodd" clip-rule="evenodd" d="M87.21 6.71607C87.21 5.36892 87.8181 4.76805 89.1818 4.76805C90.5183 4.76805 91.0634 5.33233 91.0634 6.71607V7.32002C91.0634 7.4063 90.9932 7.47583 90.9069 7.47583H87.3667C87.2802 7.47583 87.21 7.4063 87.21 7.32002V6.71607ZM85.7737 6.82411V9.45216C85.7737 11.623 86.868 12.6341 89.2183 12.6341C90.2209 12.6341 91.3277 12.4644 92.154 12.1869C92.2261 12.1626 92.2694 12.0891 92.257 12.0145L92.1198 11.1816C92.1049 11.0915 92.0155 11.0339 91.9264 11.056C90.9635 11.2962 90.0958 11.4181 89.3443 11.4181C87.5294 11.4181 87.21 10.7781 87.21 9.43386V8.81238C87.21 8.7261 87.2802 8.656 87.3667 8.656H92.2891C92.3755 8.656 92.4458 8.58629 92.4458 8.5002V6.86012C92.4458 4.65808 91.378 3.58826 89.1818 3.58826C86.9202 3.58826 85.7737 4.67676 85.7737 6.82411Z" fill="white"/>
<path fill-rule="evenodd" clip-rule="evenodd" d="M96.6806 7.49279C95.194 7.1315 95.1517 6.95316 95.1517 5.94208C95.1517 5.1024 95.3812 4.80408 96.6723 4.80408C97.2966 4.80408 98.1677 4.88843 98.9057 5.01747C98.996 5.03345 99.0804 4.96797 99.0883 4.87688L99.1635 4.01543C99.1701 3.93975 99.121 3.86926 99.0464 3.85077C98.3672 3.68322 97.532 3.58789 96.7264 3.58789C94.5445 3.58789 93.7335 4.2163 93.7335 5.90607C93.7335 7.70714 93.9362 8.14374 96.0862 8.67528C97.8358 9.10225 97.9579 9.20143 97.9579 10.19C97.9579 11.1263 97.7285 11.4179 96.2929 11.4179C95.599 11.4179 94.7146 11.2997 93.9795 11.1121C93.891 11.0896 93.8025 11.1479 93.7874 11.2378L93.6514 12.051C93.639 12.1266 93.6827 12.2 93.7557 12.2247C94.4616 12.4617 95.5525 12.6339 96.3836 12.6339C98.9134 12.6339 99.3763 11.7927 99.3763 10.1361C99.3763 8.28645 99.0375 8.08038 96.6806 7.49279Z" fill="white"/>
<path fill-rule="evenodd" clip-rule="evenodd" d="M30.0402 12.3639L28.4732 3.91331C28.4555 3.8174 28.5293 3.729 28.6272 3.729H30.3668C30.4423 3.729 30.5073 3.78274 30.5208 3.85669L31.4624 8.95544C31.4922 9.11664 31.7194 9.12877 31.7664 8.97162L33.2984 3.84051C33.3181 3.77426 33.3792 3.729 33.4485 3.729H35.5073C35.5767 3.729 35.6379 3.77445 35.6574 3.8409L37.1722 8.96719C37.2188 9.12473 37.4466 9.11278 37.4764 8.9514L38.4173 3.85669C38.4308 3.78274 38.4955 3.729 38.5713 3.729H40.3108C40.4088 3.729 40.4826 3.8174 40.4648 3.91331L38.8978 12.3639C38.8841 12.438 38.8194 12.4915 38.7438 12.4915H36.4458C36.3763 12.4915 36.3152 12.4459 36.2955 12.3795L34.6192 6.70255C34.5751 6.5533 34.3629 6.5533 34.3189 6.70255L32.6425 12.3795C32.6228 12.4459 32.5618 12.4915 32.4922 12.4915H30.194C30.1187 12.4915 30.0539 12.438 30.0402 12.3639Z" fill="white"/>
<path fill-rule="evenodd" clip-rule="evenodd" d="M27.4975 10.8723C26.7031 10.8723 26.4685 10.5303 26.4685 9.54075V3.18575V0.687698C26.4685 0.592752 26.3845 0.519954 26.2904 0.532857L24.4009 0.795354C24.3236 0.806139 24.266 0.872197 24.266 0.950002V1.03127V3.18575V9.77474C24.266 11.7721 25.4757 12.6356 27.1004 12.6356C27.2664 12.6356 27.8488 12.6102 28.1512 12.5811C28.2312 12.5734 28.2919 12.5058 28.2919 12.4257V11.0204C28.2919 10.9318 28.2185 10.8609 28.1298 10.8646C27.9255 10.8723 27.6341 10.8723 27.4975 10.8723Z" fill="white"/>
<path fill-rule="evenodd" clip-rule="evenodd" d="M54.1838 5.6108C53.4081 5.96305 52.7629 6.33416 52.0315 6.7956C51.9861 6.8243 51.9583 6.87437 51.9583 6.92791V12.3356C51.9583 12.4217 51.8883 12.4918 51.8017 12.4918H49.9125C49.8259 12.4918 49.7557 12.4217 49.7557 12.3356V4.17988C49.7557 4.10419 49.8106 4.03929 49.8858 4.0262L51.4572 3.75619C51.544 3.74117 51.6259 3.80068 51.6388 3.88715L51.7241 4.46087C51.7407 4.57237 51.8663 4.63034 51.9619 4.57045C52.4518 4.26269 53.2356 3.82456 53.8868 3.60597C53.9811 3.57439 54.0802 3.6391 54.091 3.7377L54.2752 5.45231C54.2825 5.51913 54.2452 5.58307 54.1838 5.6108Z" fill="white"/>
<path fill-rule="evenodd" clip-rule="evenodd" d="M83.5015 11.4359C82.6244 11.4359 82.5588 11.0352 82.5588 10.4241V5.10406C82.5588 5.01797 82.6286 4.94806 82.7154 4.94806H84.7857C84.8661 4.94806 84.9337 4.8874 84.9417 4.80747L85.0284 3.93967C85.0379 3.84781 84.9656 3.76808 84.8729 3.76808H82.7154C82.6286 3.76808 82.5588 3.69798 82.5588 3.61189V1.57797C82.5588 1.48322 82.4744 1.40985 82.3797 1.42352L81.2568 1.58356C81.1795 1.59434 81.1221 1.6604 81.1221 1.73801V3.61189C81.1221 3.69798 81.052 3.76808 80.9656 3.76808H79.7264C79.6398 3.76808 79.5695 3.83799 79.5695 3.92407V4.79187C79.5695 4.87815 79.6398 4.94806 79.7264 4.94806H80.9656C81.052 4.94806 81.1221 5.01797 81.1221 5.10406V10.676C81.1221 12.0665 81.7434 12.634 83.2669 12.634C83.6072 12.634 83.9591 12.5984 84.302 12.5312C84.3749 12.5167 84.4269 12.4518 84.4269 12.3777V11.5203C84.4269 11.4234 84.3388 11.3506 84.2431 11.367C83.9705 11.414 83.7318 11.4359 83.5015 11.4359Z" fill="white"/>
<path fill-rule="evenodd" clip-rule="evenodd" d="M60.2494 7.28568C60.2494 7.37196 60.1795 7.44168 60.0929 7.44168H57.291H57.2908V6.67441C57.2908 5.84667 57.6699 5.27102 58.7534 5.27102C58.8835 5.27102 59.0033 5.27988 59.1144 5.29568C59.9293 5.41335 60.2494 5.94604 60.2494 6.67441V7.28568ZM60.5515 3.79619C60.0815 3.58935 59.4869 3.47168 58.735 3.47168C57.8788 3.47168 57.2069 3.61708 56.6856 3.87072C55.4915 4.45099 55.0883 5.60073 55.0883 6.8903V9.21136C55.0883 11.2694 56.0036 12.5356 58.6251 12.5917C58.8195 12.6024 59.0284 12.5942 59.2361 12.5942C59.9441 12.5942 60.6802 12.5185 61.376 12.4174C61.4614 12.4048 61.5202 12.3253 61.5078 12.2402L61.4966 12.1645L61.3196 10.971C60.6647 11.0402 60.0647 11.0675 59.4033 11.0681C57.7783 11.0681 57.291 10.6003 57.291 9.6287V9.32268C57.291 9.32152 57.2908 9.32037 57.2908 9.31941V8.89956H57.291H62.0269C62.1134 8.89956 62.1836 8.82965 62.1836 8.74357V8.08126V6.99834C62.1836 5.61325 61.8425 4.36471 60.5515 3.79619Z" fill="white"/>
<path fill-rule="evenodd" clip-rule="evenodd" d="M6.64256 13.9749C6.65686 13.9764 6.67116 13.9784 6.68546 13.9795C6.77937 13.9865 6.87 13.8984 6.87 13.7991C6.87 13.7163 6.81744 13.6375 6.73454 13.6259L6.69145 13.619L6.57744 13.6009C4.59655 13.2013 3.10514 11.4543 3.10514 9.35974C3.10514 8.46845 3.37529 7.63994 3.83829 6.95144C3.90476 6.85302 4.04718 6.78273 4.16641 6.89366L7.30652 10.0802C7.34247 10.1108 7.38884 10.1297 7.44044 10.1297C7.49203 10.1297 7.53841 10.1108 7.57435 10.0802L10.7481 6.92409C10.8735 6.81258 10.9659 6.83704 11.0432 6.95144C11.5079 7.63897 11.7765 8.46845 11.7765 9.35974C11.7765 10.4658 11.3607 11.4751 10.6764 12.2399C10.6538 12.2653 10.6308 12.2902 10.6074 12.315C10.5976 12.3364 10.5922 12.3601 10.5922 12.3851C10.5922 12.4777 10.6671 12.5525 10.7599 12.5525C10.769 12.5525 10.7779 12.5517 10.7865 12.5505C10.8109 12.5401 10.8351 12.5301 10.8592 12.5199C15.0536 10.7427 14.8805 6.59303 14.8805 6.59303C14.8805 4.20514 13.7508 2.08071 11.9958 0.722387C11.9201 0.66384 11.8105 0.672122 11.7431 0.739335L7.57609 4.89749C7.5017 4.97183 7.3788 4.97183 7.3044 4.89749L3.13761 0.739335C3.07017 0.672122 2.96041 0.66384 2.88485 0.722387C1.13025 2.08032 0.000772952 4.20379 0 6.59072V6.59438C0.000772952 10.4253 2.9092 13.5776 6.64256 13.9749Z" fill="white"/>
<path fill-rule="evenodd" clip-rule="evenodd" d="M20.5296 9.21692C20.5296 10.3145 19.7895 11.0521 18.616 11.0521C17.7133 11.0521 17.2438 10.7104 17.2438 9.99054C17.2438 9.19901 17.7313 8.89299 18.616 8.89299H20.3731C20.4595 8.89299 20.5296 8.9629 20.5296 9.04898V9.21692ZM18.616 3.54907C17.8534 3.54907 17.0424 3.60935 16.2911 3.72067C16.2063 3.73319 16.1481 3.81215 16.1599 3.89689L16.3437 5.22998C16.3566 5.31279 16.4277 5.38809 16.5118 5.37846C17.2169 5.30065 17.7045 5.27639 18.4173 5.27639C20.0423 5.27639 20.5296 5.74418 20.5296 6.71579V7.29759C20.5296 7.38368 20.4595 7.45359 20.3731 7.45359H18.3317C16.5263 7.45359 15.4791 8.35336 15.4791 10.0086C15.4791 11.5382 16.6706 12.6176 18.4399 12.6176C19.559 12.6176 19.9866 12.4491 20.352 12.0936C20.4521 11.9961 20.6198 12.0636 20.6198 12.2032V12.3178C20.6198 12.4037 20.6902 12.4738 20.7764 12.4738H22.5756C22.6622 12.4738 22.7321 12.4037 22.7321 12.3178V6.7699C22.7321 4.5927 21.1976 3.54907 18.616 3.54907Z" fill="white"/>
<path fill-rule="evenodd" clip-rule="evenodd" d="M46.0258 9.21692C46.0258 10.3145 45.2857 11.0521 44.1122 11.0521C43.2096 11.0521 42.74 10.7104 42.74 9.99054C42.74 9.19901 43.2275 8.89299 44.1122 8.89299H45.8693C45.9557 8.89299 46.0258 8.9629 46.0258 9.04898V9.21692ZM44.1122 3.54907C43.3497 3.54907 42.5386 3.60935 41.7873 3.72067C41.7025 3.73319 41.6443 3.81215 41.6559 3.89689L41.8399 5.22998C41.8528 5.31279 41.9239 5.38809 42.008 5.37846C42.7131 5.30065 43.2007 5.27639 43.9135 5.27639C45.5385 5.27639 46.0258 5.74418 46.0258 6.71579V7.29759C46.0258 7.38368 45.9557 7.45359 45.8693 7.45359H43.8279C42.0225 7.45359 40.9753 8.35336 40.9753 10.0086C40.9753 11.5382 42.1668 12.6176 43.9361 12.6176C45.0552 12.6176 45.4828 12.4491 45.8482 12.0936C45.9483 11.9961 46.1161 12.0636 46.1161 12.2032V12.3178C46.1161 12.4037 46.1864 12.4738 46.2726 12.4738H48.0718C48.1584 12.4738 48.2285 12.4037 48.2285 12.3178V6.7699C48.2285 4.5927 46.6938 3.54907 44.1122 3.54907Z" fill="white"/>
<path d="M108.712 15.4483V0.587036H107.039V15.4483H108.712ZM120.282 13.068C122.582 13.068 124.061 12.0225 124.061 9.85122V9.78689C124.061 8.29111 123.434 7.43867 121.761 7.03658C123.08 6.58624 123.498 5.65339 123.498 4.60795V4.54361C123.498 2.27582 121.938 1.56814 119.799 1.56814H116.341V13.068H120.282ZM119.799 6.58624H117.708V2.66183H119.767C121.375 2.66183 122.131 3.19259 122.131 4.49536V4.5597C122.131 5.97506 121.488 6.58624 119.799 6.58624ZM120.249 11.9743H117.708V7.67993H120.056C121.906 7.67993 122.694 8.35544 122.694 9.7708V9.83514C122.694 11.2344 121.922 11.9743 120.249 11.9743ZM128.254 13.068V8.45194C128.254 6.37715 129.331 5.84639 131.02 5.76597V4.51145C129.508 4.5597 128.785 5.21913 128.254 6.16806V4.6562H126.919V13.068H128.254ZM136.885 13.2127C139.282 13.2127 141.035 11.4596 141.035 8.91837V8.7897C141.035 6.26457 139.282 4.51145 136.901 4.51145C134.521 4.51145 132.768 6.28065 132.768 8.80578V8.93445C132.768 11.3953 134.489 13.2127 136.885 13.2127ZM136.901 12.1029C135.197 12.1029 134.151 10.8484 134.151 8.93445V8.80578C134.151 6.87574 135.213 5.62122 136.901 5.62122C138.574 5.62122 139.652 6.87574 139.652 8.82187V8.93445C139.652 10.8323 138.59 12.1029 136.901 12.1029ZM146.771 13.068L148.734 6.76316L150.487 13.068H151.966L154.588 4.6562H153.221L151.243 11.4274L149.329 4.6562H148.171L146.128 11.4274L144.166 4.6562H142.718L145.308 13.068H146.771ZM159.665 13.2127C161.708 13.2127 162.753 12.1833 162.753 10.6554C162.753 8.87012 161.531 8.48411 159.794 8.16244C158.25 7.88901 157.832 7.58342 157.832 6.82749C157.832 6.10373 158.459 5.62122 159.424 5.62122C160.485 5.62122 161 6.02331 161.193 6.94008H162.48C162.255 5.12263 160.952 4.51145 159.44 4.51145C158.121 4.51145 156.593 5.31563 156.593 6.87574C156.593 8.33936 157.333 8.95054 159.52 9.35263C160.823 9.59388 161.483 9.88339 161.483 10.768C161.483 11.6687 160.92 12.1029 159.649 12.1029C158.298 12.1029 157.767 11.4757 157.671 10.4785H156.368C156.448 12.1994 157.655 13.2127 159.665 13.2127ZM168.892 13.2127C170.79 13.2127 172.189 12.3281 172.478 10.6393H171.144C170.967 11.6204 170.211 12.1029 168.908 12.1029C167.187 12.1029 166.27 11.0414 166.206 9.12746H172.543V8.6932C172.543 5.68555 170.709 4.51145 168.763 4.51145C166.447 4.51145 164.823 6.28065 164.823 8.82187V8.95053C164.823 11.54 166.511 13.2127 168.892 13.2127ZM171.176 8.04985H166.254C166.479 6.55407 167.396 5.62122 168.763 5.62122C170.146 5.62122 171.047 6.31282 171.176 8.04985ZM176.59 13.068V8.45194C176.59 6.37715 177.668 5.84639 179.357 5.76597V4.51145C177.845 4.5597 177.121 5.21913 176.59 6.16806V4.6562H175.256V13.068H176.59ZM192.004 13.2127C194.947 13.2127 196.99 11.4435 196.99 8.11419V7.26175H192.261V8.41977H195.623C195.575 10.4624 194.497 12.0868 192.004 12.0868C189.302 12.0868 187.887 10.2211 187.887 7.37434V7.24567C187.887 4.43103 189.398 2.50099 192.036 2.50099C193.709 2.50099 194.963 3.20867 195.285 5.04221H196.684C196.331 2.45274 194.288 1.39122 192.004 1.39122C188.707 1.39122 186.439 3.90027 186.439 7.26175V7.39042C186.439 10.7519 188.466 13.2127 192.004 13.2127ZM202.759 13.2127C204.11 13.2127 205.042 12.5211 205.428 11.733V13.068H206.763V4.6562H205.428V9.75472C205.428 11.2666 204.303 12.0547 203.112 12.0547C201.794 12.0547 201.166 11.3953 201.166 9.91555V4.6562H199.831V9.97989C199.831 12.2959 201.086 13.2127 202.759 13.2127ZM212.243 13.2127C213.481 13.2127 214.237 12.7945 214.864 12.0064V13.068H216.199V7.51909C216.199 5.17088 214.736 4.51145 213.127 4.51145C211.503 4.51145 209.975 5.21913 209.798 7.13308H211.133C211.261 6.10373 211.905 5.62122 213.063 5.62122C214.35 5.62122 214.864 6.18415 214.864 7.51909V8.13027H213.658C211.503 8.13027 209.444 8.7897 209.444 10.7358C209.444 12.4568 210.682 13.2127 212.243 13.2127ZM212.371 12.1512C211.197 12.1512 210.779 11.6043 210.779 10.7358C210.779 9.49738 212.017 9.0792 213.706 9.0792H214.864V10.1246C214.864 11.4274 213.787 12.1512 212.371 12.1512ZM220.826 13.068V8.45194C220.826 6.37715 221.904 5.84639 223.592 5.76597V4.51145C222.08 4.5597 221.357 5.21913 220.826 6.16806V4.6562H219.491V13.068H220.826ZM229.136 13.2127C230.358 13.2127 231.532 12.4407 232.015 11.6204V13.068H233.35V0.635287H232.015V6.00723C231.532 5.18696 230.664 4.51145 229.264 4.51145C226.948 4.51145 225.34 6.3289 225.34 8.90228V9.03095C225.34 11.6526 226.932 13.2127 229.136 13.2127ZM229.281 12.1029C227.865 12.1029 226.723 11.0897 226.723 8.96662V8.83795C226.723 6.79533 227.72 5.62122 229.393 5.62122C231.034 5.62122 232.063 6.63449 232.063 8.7897V8.91837C232.063 11.0736 230.841 12.1029 229.281 12.1029Z" fill="white"/>
</svg>
