<svg width="234" height="16" viewBox="0 0 234 16" fill="none" xmlns="http://www.w3.org/2000/svg">
<path fill-rule="evenodd" clip-rule="evenodd" d="M68.7263 6.23008V9.45187C68.7263 10.6434 68.3675 11.382 66.5811 11.382C65.9844 11.382 65.4011 11.3394 64.8478 11.2555L64.8139 11.2501V5.52078L64.8362 5.51019C65.3495 5.26136 66.4382 4.83998 67.2647 4.83998C68.2754 4.83998 68.7263 5.26868 68.7263 6.23008ZM64.8722 4.19539L64.8139 4.2264V0.156063C64.8139 0.0611178 64.7295 -0.0118728 64.6357 0.00160828L63.5162 0.161456C63.4396 0.172626 63.3826 0.238298 63.3826 0.316296V12.1743C63.3826 12.2479 63.433 12.3118 63.5049 12.327C64.4901 12.5377 65.7163 12.634 66.4732 12.634C69.7114 12.634 70.1578 11.0789 70.1578 9.39795V6.284C70.1578 4.49525 69.3056 3.58797 67.6247 3.58797C66.441 3.58797 65.4267 3.90189 64.8722 4.19539Z" fill="#0D3ECC"/>
<path fill-rule="evenodd" clip-rule="evenodd" d="M72.0539 3.768H70.9735C70.8676 3.768 70.7922 3.87161 70.8248 3.97214L73.5409 12.3462C73.5617 12.4106 73.6217 12.4541 73.6891 12.4541H74.0137C74.1205 12.4541 74.1958 12.5596 74.161 12.6611L73.0802 15.7928C73.0453 15.8945 73.1208 16 73.2281 16H74.2353C74.3018 16 74.3607 15.958 74.3827 15.8956L75.5782 12.4807L78.3896 3.97291C78.4231 3.87219 78.348 3.768 78.2417 3.768H77.1621C77.0945 3.768 77.0344 3.81172 77.014 3.87624L74.7395 10.9536C74.6931 11.0985 74.4884 11.0979 74.4424 10.9531L72.2024 3.87681C72.182 3.8121 72.1219 3.768 72.0539 3.768Z" fill="#0D3ECC"/>
<path fill-rule="evenodd" clip-rule="evenodd" d="M86.9164 6.71605C86.9164 5.3689 87.5224 4.76803 88.8815 4.76803C90.2135 4.76803 90.7568 5.33231 90.7568 6.71605V7.32001C90.7568 7.40629 90.6868 7.47581 90.6008 7.47581H87.0726C86.9863 7.47581 86.9164 7.40629 86.9164 7.32001V6.71605ZM85.4849 6.8241V9.45214C85.4849 11.623 86.5755 12.6341 88.9179 12.6341C89.9171 12.6341 91.0202 12.4644 91.8437 12.1869C91.9156 12.1626 91.9587 12.0891 91.9464 12.0145L91.8096 11.1816C91.7948 11.0914 91.7056 11.0339 91.6168 11.056C90.6572 11.2962 89.7925 11.4181 89.0435 11.4181C87.2347 11.4181 86.9164 10.7781 86.9164 9.43385V8.81237C86.9164 8.72609 86.9863 8.65599 87.0726 8.65599H91.9783C92.0644 8.65599 92.1345 8.58627 92.1345 8.50018V6.86011C92.1345 4.65806 91.0703 3.58824 88.8815 3.58824C86.6275 3.58824 85.4849 4.67675 85.4849 6.8241Z" fill="#0D3ECC"/>
<path fill-rule="evenodd" clip-rule="evenodd" d="M96.3551 7.4928C94.8735 7.1315 94.8313 6.95317 94.8313 5.94208C94.8313 5.1024 95.0601 4.80408 96.3468 4.80408C96.969 4.80408 97.8372 4.88844 98.5727 5.01747C98.6626 5.03346 98.7468 4.96798 98.7547 4.87688L98.8296 4.01544C98.8362 3.93975 98.7872 3.86926 98.7129 3.85078C98.036 3.68323 97.2036 3.58789 96.4007 3.58789C94.2262 3.58789 93.4179 4.21631 93.4179 5.90607C93.4179 7.70715 93.6199 8.14374 95.7627 8.67528C97.5063 9.10225 97.6281 9.20143 97.6281 10.19C97.6281 11.1263 97.3995 11.4179 95.9687 11.4179C95.2772 11.4179 94.3957 11.2997 93.6631 11.1121C93.5749 11.0896 93.4867 11.1479 93.4716 11.2379L93.3361 12.051C93.3237 12.1266 93.3673 12.2 93.4401 12.2247C94.1436 12.4617 95.2307 12.6339 96.0591 12.6339C98.5804 12.6339 99.0416 11.7927 99.0416 10.1361C99.0416 8.28645 98.704 8.08038 96.3551 7.4928Z" fill="#0D3ECC"/>
<path fill-rule="evenodd" clip-rule="evenodd" d="M29.9391 12.3639L28.3774 3.91337C28.3597 3.81746 28.4332 3.72906 28.5309 3.72906H30.2646C30.3399 3.72906 30.4046 3.78279 30.4181 3.85675L31.3565 8.9555C31.3862 9.11669 31.6127 9.12883 31.6595 8.97168L33.1863 3.84057C33.206 3.77432 33.2668 3.72906 33.3359 3.72906H35.3878C35.4569 3.72906 35.518 3.77451 35.5374 3.84095L37.0471 8.96725C37.0935 9.12478 37.3206 9.11284 37.3502 8.95145L38.2879 3.85675C38.3014 3.78279 38.3659 3.72906 38.4414 3.72906H40.1751C40.2728 3.72906 40.3463 3.81746 40.3286 3.91337L38.7669 12.3639C38.7532 12.4381 38.6887 12.4916 38.6134 12.4916H36.3232C36.2538 12.4916 36.193 12.446 36.1733 12.3795L34.5026 6.70261C34.4587 6.55336 34.2473 6.55336 34.2034 6.70261L32.5327 12.3795C32.513 12.446 32.4522 12.4916 32.3828 12.4916H30.0924C30.0173 12.4916 29.9528 12.4381 29.9391 12.3639Z" fill="#0D3ECC"/>
<path fill-rule="evenodd" clip-rule="evenodd" d="M27.405 10.8723C26.6132 10.8723 26.3794 10.5303 26.3794 9.54075V3.18575V0.687702C26.3794 0.592756 26.2957 0.519958 26.2019 0.532861L24.3188 0.795358C24.2417 0.806143 24.1843 0.8722 24.1843 0.950006V1.03128V3.18575V9.77475C24.1843 11.7721 25.3899 12.6356 27.0092 12.6356C27.1746 12.6356 27.7551 12.6102 28.0565 12.5811C28.1362 12.5734 28.1967 12.5058 28.1967 12.4257V11.0204C28.1967 10.9318 28.1235 10.8609 28.0351 10.8646C27.8315 10.8723 27.5411 10.8723 27.405 10.8723Z" fill="#0D3ECC"/>
<path fill-rule="evenodd" clip-rule="evenodd" d="M54.0013 5.61076C53.2282 5.963 52.5852 6.33411 51.8562 6.79555C51.811 6.82425 51.7832 6.87432 51.7832 6.92786V12.3355C51.7832 12.4216 51.7135 12.4917 51.6272 12.4917H49.7443C49.658 12.4917 49.5881 12.4216 49.5881 12.3355V4.17983C49.5881 4.10414 49.6428 4.03924 49.7177 4.02615L51.2839 3.75614C51.3703 3.74112 51.452 3.80063 51.4649 3.8871L51.5498 4.46082C51.5664 4.57232 51.6916 4.63029 51.7869 4.5704C52.2751 4.26264 53.0562 3.82451 53.7053 3.60592C53.7992 3.57434 53.898 3.63905 53.9088 3.73765L54.0924 5.45226C54.0997 5.51908 54.0625 5.58302 54.0013 5.61076Z" fill="#0D3ECC"/>
<path fill-rule="evenodd" clip-rule="evenodd" d="M83.2203 11.4359C82.3461 11.4359 82.2808 11.0352 82.2808 10.4241V5.10406C82.2808 5.01797 82.3504 4.94806 82.4368 4.94806H84.5002C84.5803 4.94806 84.6477 4.8874 84.6556 4.80747L84.7421 3.93967C84.7515 3.84781 84.6795 3.76808 84.5871 3.76808H82.4368C82.3504 3.76808 82.2808 3.69798 82.2808 3.61189V1.57797C82.2808 1.48322 82.1967 1.40985 82.1023 1.42352L80.9832 1.58356C80.9062 1.59434 80.849 1.6604 80.849 1.73801V3.61189C80.849 3.69798 80.779 3.76808 80.693 3.76808H79.4579C79.3716 3.76808 79.3015 3.83799 79.3015 3.92407V4.79187C79.3015 4.87815 79.3716 4.94806 79.4579 4.94806H80.693C80.779 4.94806 80.849 5.01797 80.849 5.10406V10.676C80.849 12.0665 81.4681 12.634 82.9865 12.634C83.3256 12.634 83.6763 12.5984 84.0182 12.5312C84.0908 12.5167 84.1426 12.4518 84.1426 12.3777V11.5203C84.1426 11.4234 84.0548 11.3506 83.9594 11.367C83.6877 11.414 83.4498 11.4359 83.2203 11.4359Z" fill="#0D3ECC"/>
<path fill-rule="evenodd" clip-rule="evenodd" d="M60.0467 7.28573C60.0467 7.37201 59.9769 7.44172 59.8907 7.44172H57.0981H57.0979V6.67445C57.0979 5.84671 57.4758 5.27107 58.5556 5.27107C58.6852 5.27107 58.8047 5.27993 58.9154 5.29572C59.7275 5.41339 60.0467 5.94609 60.0467 6.67445V7.28573ZM60.3477 3.79624C59.8793 3.5894 59.2867 3.47173 58.5373 3.47173C57.684 3.47173 57.0144 3.61713 56.4948 3.87077C55.3048 4.45103 54.9028 5.60078 54.9028 6.89034V9.21141C54.9028 11.2694 55.8151 12.5357 58.4278 12.5917C58.6215 12.6025 58.8297 12.5942 59.0367 12.5942C59.7424 12.5942 60.4759 12.5185 61.1694 12.4174C61.2546 12.4049 61.3131 12.3254 61.3008 12.2402L61.2896 12.1645L61.1132 10.9711C60.4605 11.0402 59.8625 11.0676 59.2033 11.0681C57.5838 11.0681 57.0981 10.6003 57.0981 9.62875V9.32272C57.0981 9.32157 57.0979 9.32041 57.0979 9.31945V8.89961H57.0981H61.8181C61.9043 8.89961 61.9743 8.8297 61.9743 8.74361V8.08131V6.99839C61.9743 5.6133 61.6343 4.36475 60.3477 3.79624Z" fill="#0D3ECC"/>
<path fill-rule="evenodd" clip-rule="evenodd" d="M6.62019 13.9749C6.63444 13.9765 6.6487 13.9784 6.66295 13.9796C6.75654 13.9865 6.84687 13.8985 6.84687 13.7991C6.84687 13.7163 6.79448 13.6375 6.71186 13.626L6.66892 13.619L6.55529 13.6009C4.58108 13.2013 3.09469 11.4544 3.09469 9.35978C3.09469 8.46848 3.36392 7.63997 3.82536 6.95147C3.89161 6.85306 4.03355 6.78277 4.15238 6.8937L7.28192 10.0802C7.31774 10.1109 7.36397 10.1297 7.41539 10.1297C7.46681 10.1297 7.51303 10.1109 7.54885 10.0802L10.7119 6.92413C10.8369 6.81262 10.929 6.83708 11.006 6.95147C11.4692 7.63901 11.7369 8.46848 11.7369 9.35978C11.7369 10.4658 11.3224 11.4752 10.6405 12.2399C10.6179 12.2653 10.595 12.2902 10.5717 12.315C10.5619 12.3364 10.5565 12.3601 10.5565 12.3851C10.5565 12.4778 10.6312 12.5525 10.7237 12.5525C10.7327 12.5525 10.7416 12.5517 10.7502 12.5506C10.7745 12.5402 10.7986 12.5302 10.8226 12.5199C15.0029 10.7427 14.8304 6.59307 14.8304 6.59307C14.8304 4.20518 13.7045 2.08074 11.9554 0.722425C11.8799 0.663879 11.7708 0.67216 11.7035 0.739373L7.55058 4.89753C7.47644 4.97187 7.35395 4.97187 7.2798 4.89753L3.12704 0.739373C3.05983 0.67216 2.95044 0.663879 2.87514 0.722425C1.12644 2.08036 0.00077035 4.20383 0 6.59076V6.59442C0.00077035 10.4254 2.8994 13.5776 6.62019 13.9749Z" fill="#0D3ECC"/>
<path fill-rule="evenodd" clip-rule="evenodd" d="M20.4605 9.21688C20.4605 10.3144 19.7229 11.052 18.5533 11.052C17.6537 11.052 17.1857 10.7104 17.1857 9.9905C17.1857 9.19897 17.6716 8.89295 18.5533 8.89295H20.3045C20.3906 8.89295 20.4605 8.96285 20.4605 9.04894V9.21688ZM18.5533 3.54903C17.7933 3.54903 16.985 3.60931 16.2363 3.72063C16.1517 3.73314 16.0937 3.8121 16.1055 3.89684L16.2886 5.22993C16.3015 5.31275 16.3724 5.38805 16.4562 5.37842C17.1589 5.30061 17.6448 5.27635 18.3553 5.27635C19.9748 5.27635 20.4605 5.74414 20.4605 6.71575V7.29755C20.4605 7.38364 20.3906 7.45355 20.3045 7.45355H18.27C16.4706 7.45355 15.427 8.35332 15.427 10.0086C15.427 11.5381 16.6145 12.6176 18.3778 12.6176C19.4931 12.6176 19.9193 12.4491 20.2835 12.0936C20.3832 11.9961 20.5504 12.0635 20.5504 12.2031V12.3177C20.5504 12.4036 20.6205 12.4737 20.7064 12.4737H22.4996C22.5859 12.4737 22.6556 12.4036 22.6556 12.3177V6.76986C22.6556 4.59266 21.1262 3.54903 18.5533 3.54903Z" fill="#0D3ECC"/>
<path fill-rule="evenodd" clip-rule="evenodd" d="M45.8709 9.21688C45.8709 10.3144 45.1333 11.052 43.9637 11.052C43.0641 11.052 42.5961 10.7104 42.5961 9.9905C42.5961 9.19897 43.082 8.89295 43.9637 8.89295H45.7149C45.801 8.89295 45.8709 8.96285 45.8709 9.04894V9.21688ZM43.9637 3.54903C43.2037 3.54903 42.3954 3.60931 41.6467 3.72063C41.5621 3.73314 41.5041 3.8121 41.5157 3.89684L41.699 5.22993C41.7119 5.31275 41.7828 5.38805 41.8666 5.37842C42.5693 5.30061 43.0552 5.27635 43.7657 5.27635C45.3852 5.27635 45.8709 5.74414 45.8709 6.71575V7.29755C45.8709 7.38364 45.801 7.45355 45.7149 7.45355H43.6804C41.881 7.45355 40.8374 8.35332 40.8374 10.0086C40.8374 11.5381 42.0249 12.6176 43.7882 12.6176C44.9035 12.6176 45.3297 12.4491 45.6939 12.0936C45.7936 11.9961 45.9608 12.0635 45.9608 12.2031V12.3177C45.9608 12.4036 46.0309 12.4737 46.1168 12.4737H47.91C47.9963 12.4737 48.0662 12.4036 48.0662 12.3177V6.76986C48.0662 4.59266 46.5366 3.54903 43.9637 3.54903Z" fill="#0D3ECC"/>
<path d="M108.712 15.4483V0.587051H107.039V15.4483H108.712ZM120.282 13.068C122.582 13.068 124.061 12.0225 124.061 9.85123V9.7869C124.061 8.29112 123.434 7.43869 121.761 7.0366C123.08 6.58625 123.498 5.6534 123.498 4.60796V4.54363C123.498 2.27584 121.938 1.56815 119.799 1.56815H116.341V13.068H120.282ZM119.799 6.58625H117.708V2.66184H119.767C121.375 2.66184 122.131 3.1926 122.131 4.49538V4.55971C122.131 5.97507 121.488 6.58625 119.799 6.58625ZM120.249 11.9743H117.708V7.67994H120.056C121.906 7.67994 122.694 8.35546 122.694 9.77082V9.83515C122.694 11.2344 121.922 11.9743 120.249 11.9743ZM128.254 13.068V8.45196C128.254 6.37717 129.331 5.84641 131.02 5.76599V4.51146C129.508 4.55971 128.785 5.21914 128.254 6.16808V4.65622H126.919V13.068H128.254ZM136.885 13.2127C139.282 13.2127 141.035 11.4596 141.035 8.91838V8.78971C141.035 6.26458 139.282 4.51146 136.901 4.51146C134.521 4.51146 132.768 6.28066 132.768 8.8058V8.93447C132.768 11.3953 134.489 13.2127 136.885 13.2127ZM136.901 12.1029C135.197 12.1029 134.151 10.8484 134.151 8.93447V8.8058C134.151 6.87576 135.213 5.62123 136.901 5.62123C138.574 5.62123 139.652 6.87576 139.652 8.82188V8.93447C139.652 10.8323 138.59 12.1029 136.901 12.1029ZM146.771 13.068L148.734 6.76317L150.487 13.068H151.966L154.588 4.65622H153.221L151.243 11.4274L149.329 4.65622H148.171L146.128 11.4274L144.166 4.65622H142.718L145.308 13.068H146.771ZM159.665 13.2127C161.708 13.2127 162.753 12.1834 162.753 10.6554C162.753 8.87013 161.531 8.48412 159.794 8.16245C158.25 7.88903 157.832 7.58344 157.832 6.82751C157.832 6.10374 158.459 5.62123 159.424 5.62123C160.485 5.62123 161 6.02333 161.193 6.94009H162.48C162.255 5.12264 160.952 4.51146 159.44 4.51146C158.121 4.51146 156.593 5.31565 156.593 6.87576C156.593 8.33937 157.333 8.95055 159.52 9.35264C160.823 9.5939 161.483 9.8834 161.483 10.768C161.483 11.6687 160.92 12.1029 159.649 12.1029C158.298 12.1029 157.767 11.4757 157.671 10.4785H156.368C156.448 12.1994 157.655 13.2127 159.665 13.2127ZM168.892 13.2127C170.79 13.2127 172.189 12.3281 172.478 10.6393H171.144C170.967 11.6204 170.211 12.1029 168.908 12.1029C167.187 12.1029 166.27 11.0414 166.206 9.12747H172.543V8.69321C172.543 5.68557 170.709 4.51146 168.763 4.51146C166.447 4.51146 164.823 6.28066 164.823 8.82188V8.95055C164.823 11.54 166.511 13.2127 168.892 13.2127ZM171.176 8.04987H166.254C166.479 6.55409 167.396 5.62123 168.763 5.62123C170.146 5.62123 171.047 6.31283 171.176 8.04987ZM176.59 13.068V8.45196C176.59 6.37717 177.668 5.84641 179.357 5.76599V4.51146C177.845 4.55971 177.121 5.21914 176.59 6.16808V4.65622H175.256V13.068H176.59ZM192.004 13.2127C194.947 13.2127 196.99 11.4435 196.99 8.1142V7.26177H192.261V8.41979H195.623C195.575 10.4624 194.497 12.0869 192.004 12.0869C189.302 12.0869 187.887 10.2212 187.887 7.37435V7.24568C187.887 4.43104 189.398 2.50101 192.036 2.50101C193.709 2.50101 194.963 3.20869 195.285 5.04222H196.684C196.331 2.45276 194.288 1.39123 192.004 1.39123C188.707 1.39123 186.439 3.90028 186.439 7.26177V7.39044C186.439 10.7519 188.466 13.2127 192.004 13.2127ZM202.759 13.2127C204.11 13.2127 205.042 12.5211 205.428 11.733V13.068H206.763V4.65622H205.428V9.75473C205.428 11.2666 204.303 12.0547 203.112 12.0547C201.794 12.0547 201.166 11.3953 201.166 9.91557V4.65622H199.831V9.9799C199.831 12.2959 201.086 13.2127 202.759 13.2127ZM212.243 13.2127C213.481 13.2127 214.237 12.7945 214.864 12.0064V13.068H216.199V7.51911C216.199 5.17089 214.736 4.51146 213.127 4.51146C211.503 4.51146 209.975 5.21914 209.798 7.1331H211.133C211.261 6.10374 211.905 5.62123 213.063 5.62123C214.35 5.62123 214.864 6.18416 214.864 7.51911V8.13028H213.658C211.503 8.13028 209.444 8.78971 209.444 10.7358C209.444 12.4568 210.682 13.2127 212.243 13.2127ZM212.371 12.1512C211.197 12.1512 210.779 11.6044 210.779 10.7358C210.779 9.49739 212.017 9.07922 213.706 9.07922H214.864V10.1247C214.864 11.4274 213.787 12.1512 212.371 12.1512ZM220.826 13.068V8.45196C220.826 6.37717 221.904 5.84641 223.592 5.76599V4.51146C222.08 4.55971 221.357 5.21914 220.826 6.16808V4.65622H219.491V13.068H220.826ZM229.136 13.2127C230.358 13.2127 231.532 12.4407 232.015 11.6204V13.068H233.35V0.635302H232.015V6.00724C231.532 5.18698 230.664 4.51146 229.264 4.51146C226.948 4.51146 225.34 6.32892 225.34 8.9023V9.03097C225.34 11.6526 226.932 13.2127 229.136 13.2127ZM229.281 12.1029C227.865 12.1029 226.723 11.0897 226.723 8.96663V8.83797C226.723 6.79534 227.72 5.62123 229.393 5.62123C231.034 5.62123 232.063 6.6345 232.063 8.78971V8.91838C232.063 11.0736 230.841 12.1029 229.281 12.1029Z" fill="#0D3ECC"/>
</svg>
