<svg xmlns="http://www.w3.org/2000/svg" width="245" height="115"><defs><radialGradient id="a" cx="48.019%" cy="45.235%" r="100%" fx="48.019%" fy="45.235%" gradientTransform="matrix(0 1 -.58303 0 .744 -.028)"><stop offset="0%" stop-color="#FFF"/><stop offset="100%" stop-color="#EAEFFF"/></radialGradient></defs><g fill="none"><g transform="translate(0 .5)"><ellipse cx="122.68" cy="108.93" fill="#E5EEEC" rx="122.12" ry="4.79"/><path fill="#7492D1" d="M45.57 0h156.08c1.972 0 3.57 1.618 3.57 3.614v95.772c0 1.996-1.598 3.614-3.57 3.614H45.57c-1.972 0-3.57-1.618-3.57-3.614V3.644a3.637 3.637 0 0 1 1.035-2.575A3.543 3.543 0 0 1 45.57 0z"/><path fill="url(#a)" d="M48.38 4h151.31a2.431 2.431 0 0 1 1.69.667c.448.43.7 1.014.7 1.623v86.42a2.25 2.25 0 0 1-.7 1.623 2.431 2.431 0 0 1-1.69.667H48.38C47.066 95 46 93.975 46 92.71V6.29C46 5.025 47.066 4 48.38 4z"/><path d="M94 23.763c.01 1.65.033 3.3.067 4.95.086 4.614.25 9.218.497 13.517.44 7.554 1.107 13.316 2.013 16.45 2.068 7.118 6.872 13.208 13.615 18.29a60.141 60.141 0 0 0 10.316 6.204c1.4.668 2.826 1.277 4.276 1.826a54.092 54.092 0 0 0 4.19-1.833 58.795 58.795 0 0 0 10.126-6.246c6.567-5.071 11.261-11.146 13.32-18.244.909-3.131 1.577-8.893 2.013-16.45.25-4.296.411-8.903.5-13.513.032-1.65.055-3.3.067-4.951l-14.92-4.283L124.47 15l-15.58 4.48L94 23.763z" fill="#FFF" stroke="#25AC4D" stroke-width="6.808"/><path fill="#606D99" d="m148.3 98.2-5.3 4.66h-37.4l-4.79-4.66H24.73a1.59 1.59 0 0 0-1.7 1.46v1.17a7.643 7.643 0 0 0 2.79 5.77 10.421 10.421 0 0 0 6.73 2.4h183.52c5.25 0 9.51-3.65 9.51-8.15v-1.17a1.59 1.59 0 0 0-1.7-1.46l-75.58-.02z"/></g><path fill="#25AC4D" d="m146.423 38.144-4.425-4.426-22.128 22.13-8.853-8.852-4.44 4.44 12.54 12.54a1.04 1.04 0 0 0 1.474 0l25.832-25.832z"/></g></svg>