<svg width="24" height="24" viewBox="0 0 24 24" fill="none" xmlns="http://www.w3.org/2000/svg">
<path fill-rule="evenodd" clip-rule="evenodd" d="M20 12C20 16.4183 16.4183 20 12 20C10.1514 20 8.44923 19.373 7.09458 18.32L18.32 7.09458C19.373 8.44923 20 10.1514 20 12ZM5.68032 16.9059L16.9059 5.68032C15.5511 4.62715 13.8488 4 12 4C7.58172 4 4 7.58172 4 12C4 13.8488 4.62715 15.5511 5.68032 16.9059ZM22 12C22 17.5228 17.5228 22 12 22C6.47715 22 2 17.5228 2 12C2 6.47715 6.47715 2 12 2C17.5228 2 22 6.47715 22 12Z" fill="#1C1B1F"/>
</svg>
