<svg width="24" height="24" viewBox="0 0 24 24" fill="none" xmlns="http://www.w3.org/2000/svg">
<g clip-path="url(#clip0_9_1858)">
<path fill-rule="evenodd" clip-rule="evenodd" d="M20 3C21.1046 3 22 3.89543 22 5V16C22 17.1046 21.1046 18 20 18H13V19H14C14.5523 19 15 19.4477 15 20C15 20.5523 14.5523 21 14 21H10C9.44772 21 9 20.5523 9 20C9 19.4477 9.44772 19 10 19H11V18H4C2.89543 18 2 17.1046 2 16V5C2 3.89543 2.89543 3 4 3H20ZM20 7.658L14.2046 14.1775C14.1916 14.1921 14.1782 14.2064 14.1644 14.2202C13.7739 14.6107 13.1407 14.6107 12.7502 14.2202L9.5 10.97L4.454 16H20V7.658ZM19.755 5H4V13.477L8.79336 8.67758C8.79321 8.67726 8.79317 8.67707 8.79319 8.67693L8.88757 8.59345C9.27986 8.28843 9.84706 8.31619 10.2071 8.67711L13.5 11.97L19.755 5Z" fill="#1C1B1F"/>
</g>
<defs>
<clipPath id="clip0_9_1858">
<rect width="24" height="24" fill="white"/>
</clipPath>
</defs>
</svg>
