<svg xmlns="http://www.w3.org/2000/svg" width="85" height="85" viewBox="0 0 85 85"><g fill="none" fill-rule="evenodd"><path fill="#25AC4D" fill-rule="nonzero" d="M42.36.633C19.315.633.633 19.315.633 42.36c0 23.045 18.682 41.726 41.727 41.726 23.045 0 41.726-18.681 41.726-41.726C84.086 19.315 65.405.633 42.36.633zm0 6.26c19.588 0 35.467 15.878 35.467 35.467 0 19.588-15.88 35.467-35.467 35.467-19.589 0-35.468-15.88-35.468-35.467 0-19.589 15.88-35.468 35.468-35.468v.001zm20.027 24.245-4.426-4.426-22.128 22.13-8.852-8.852-4.441 4.441 12.54 12.54a1.043 1.043 0 0 0 1.475 0l25.832-25.833z"/><path d="M-8-8H92V92H-8z"/></g></svg>
