<svg xmlns="http://www.w3.org/2000/svg" xmlns:xlink="http://www.w3.org/1999/xlink" width="600" height="600"><defs><linearGradient id="b" x1="50%" x2="50%" y1="96.782%" y2="0%"><stop offset="0%" stop-color="#FFF"/><stop offset="100%" stop-color="#E0ECF8"/></linearGradient><linearGradient id="c" x1="47.432%" x2="47.432%" y1="66.996%" y2="100%"><stop offset="0%" stop-color="#FFF"/><stop offset="100%" stop-color="#FFF" stop-opacity="0"/></linearGradient><linearGradient id="e" x1="30.449%" x2="30.449%" y1="59.473%" y2="100%"><stop offset="0%" stop-color="#FFF" stop-opacity=".703"/><stop offset="100%" stop-color="#FFF" stop-opacity="0"/></linearGradient><linearGradient id="f" x1="47.432%" x2="47.432%" y1="66.996%" y2="100%"><stop offset="0%" stop-color="#FFF"/><stop offset="100%" stop-color="#FFF" stop-opacity="0"/></linearGradient><path id="a" d="M0 0h600v600H0z"/></defs><g fill="none" fill-rule="evenodd"><mask id="d" fill="#fff"><use xlink:href="#a"/></mask><use fill="url(#b)" xlink:href="#a"/><path fill="url(#c)" d="M144 213H-62V109.806c5.39-4.849 12.195-7.806 19.81-7.806 16.143 0 29.257 13.294 29.257 29.696 0 1.07-.042 2.124-.15 3.165a4.47 4.47 0 0 1 .807-.077c2.576 0 4.665 2.122 4.665 4.74 0 .697-.148 1.356-.415 1.952 12.368.46 22.257 10.787 22.257 23.464a23.91 23.91 0 0 1-.649 5.534c.052-.002.103-.005.155-.005 1.959 0 3.79.555 5.35 1.515.275-12.725 10.514-22.958 23.107-22.958 12.549 0 22.762 10.161 23.102 22.83a4.575 4.575 0 0 1 2.238-.584c2.576 0 4.664 2.121 4.664 4.738a4.8 4.8 0 0 1-.225 1.45 18.3 18.3 0 0 1 7.634 4.106c1.806-2.512 4.727-4.144 8.025-4.144 3.522 0 6.613 1.865 8.378 4.675 3.113-4.77 8.442-7.918 14.499-7.918 9.6 0 17.383 7.908 17.383 17.664 0 2.105-.364 4.124-1.03 5.996a13.605 13.605 0 0 1 3.331-.417c7.545 0 13.66 6.275 13.66 13.94 0 .528.056.924.147 1.638" mask="url(#d)"/><path fill="url(#e)" d="M603 189H425v-88.32c4.658-4.149 10.537-6.68 17.117-6.68 13.949 0 25.28 11.378 25.28 25.416 0 .915-.036 1.817-.128 2.708.224-.04.46-.065.696-.065 2.226 0 4.032 1.816 4.032 4.055 0 .597-.128 1.162-.36 1.671 10.687.394 19.232 9.232 19.232 20.083 0 1.632-.196 3.216-.56 4.736.044-.002.089-.004.134-.004a8.86 8.86 0 0 1 4.623 1.296c.237-10.891 9.085-19.648 19.966-19.648 10.843 0 19.668 8.696 19.962 19.538a3.983 3.983 0 0 1 1.934-.5c2.225 0 4.03 1.816 4.03 4.056 0 .432-.07.85-.195 1.241a15.86 15.86 0 0 1 6.596 3.514 8.552 8.552 0 0 1 6.934-3.546c3.044 0 5.715 1.595 7.24 4 2.69-4.082 7.295-6.776 12.528-6.776 8.295 0 15.02 6.768 15.02 15.118 0 1.801-.314 3.53-.89 5.131.923-.23 1.887-.356 2.879-.356 6.519 0 11.802 5.37 11.802 11.93 0 .452.049.79.128 1.402" mask="url(#d)" transform="matrix(-1 0 0 1 1028 0)"/><path fill="url(#f)" d="M600 247H486v-56.71c2.983-2.665 6.749-4.29 10.962-4.29 8.934 0 16.191 7.306 16.191 16.32 0 .587-.023 1.167-.082 1.739.144-.027.295-.042.446-.042a2.593 2.593 0 0 1 2.582 2.604c0 .383-.082.746-.23 1.073 6.844.252 12.317 5.928 12.317 12.895 0 1.048-.126 2.065-.36 3.04l.087-.002c1.084 0 2.097.305 2.96.833.153-6.994 5.819-12.617 12.788-12.617 6.944 0 12.596 5.584 12.784 12.546a2.55 2.55 0 0 1 1.24-.32c1.425 0 2.58 1.165 2.58 2.603 0 .278-.044.546-.124.797a10.15 10.15 0 0 1 4.224 2.256 5.473 5.473 0 0 1 4.44-2.277c1.95 0 3.66 1.025 4.638 2.57 1.722-2.622 4.671-4.352 8.023-4.352 5.312 0 9.62 4.346 9.62 9.707a9.75 9.75 0 0 1-.57 3.295 7.579 7.579 0 0 1 1.843-.229c4.175 0 7.56 3.448 7.56 7.66 0 .291.03.508.081.901" mask="url(#d)" transform="matrix(-1 0 0 1 1086 0)"/></g></svg>