<svg width="40" height="40" viewBox="0 0 40 40" fill="none" xmlns="http://www.w3.org/2000/svg">
<path opacity="0.15" d="M20 40C31.0457 40 40 31.0457 40 20C40 8.9543 31.0457 0 20 0C8.9543 0 0 8.9543 0 20C0 31.0457 8.9543 40 20 40Z" fill="#747784"/>
<g clip-path="url(#clip0_1306_100227)">
<path d="M12.2222 12C10.9889 12 10 13.2608 10 14.8333V26.1667C10 27.7392 10.9889 29 12.2222 29H27.7778C29.0111 29 30 27.7392 30 26.1667V14.8333C30 13.2608 29.0111 12 27.7778 12H12.2222ZM12 14H14V20L16 18.6L18 20V14H28V27H12V14ZM16 21C14.8954 21 14 21.8954 14 23C14 24.1046 14.8954 25 16 25C17.1046 25 18 24.1046 18 23C18 21.8954 17.1046 21 16 21ZM21 21C20.4477 21 20 21.4477 20 22C20 22.5523 20.4477 23 21 23H25C25.5523 23 26 22.5523 26 22C26 21.4477 25.5523 21 25 21H21ZM21 17C20.4477 17 20 17.4477 20 18C20 18.5523 20.4477 19 21 19H25C25.5523 19 26 18.5523 26 18C26 17.4477 25.5523 17 25 17H21Z" fill="#1C1B1F"/>
</g>
<defs>
<clipPath id="clip0_1306_100227">
<rect width="24" height="24" fill="white" transform="translate(8 8)"/>
</clipPath>
</defs>
</svg>
