<svg width="40" height="40" viewBox="0 0 40 40" fill="none" xmlns="http://www.w3.org/2000/svg">
<path opacity="0.15" d="M20 40C31.0457 40 40 31.0457 40 20C40 8.9543 31.0457 0 20 0C8.9543 0 0 8.9543 0 20C0 31.0457 8.9543 40 20 40Z" fill="#B9BBC1"/>
<path fill-rule="evenodd" clip-rule="evenodd" d="M28 20C28 24.4183 24.4183 28 20 28C18.1514 28 16.4492 27.373 15.0946 26.32L26.32 15.0946C27.373 16.4492 28 18.1514 28 20ZM13.6803 24.9059L24.9059 13.6803C23.5511 12.6272 21.8488 12 20 12C15.5817 12 12 15.5817 12 20C12 21.8488 12.6272 23.5511 13.6803 24.9059ZM30 20C30 25.5228 25.5228 30 20 30C14.4772 30 10 25.5228 10 20C10 14.4772 14.4772 10 20 10C25.5228 10 30 14.4772 30 20Z" fill="white" fill-opacity="0.9"/>
</svg>
