<svg width="16" height="16" viewBox="0 0 16 16" fill="none" xmlns="http://www.w3.org/2000/svg">
<g clip-path="url(#clip0_1492_14626)">
<path fill-rule="evenodd" clip-rule="evenodd" d="M12.6061 2.4311C12.8664 2.69145 12.8664 3.11356 12.6061 3.37391L3.17799 12.802C2.91764 13.0624 2.49553 13.0624 2.23518 12.802C1.97483 12.5417 1.97483 12.1195 2.23518 11.8592L3.28891 10.8052L3.1716 10.6947C2.88519 10.4138 2.62159 10.1062 2.38487 9.77401L2.26244 9.59644L1.19824 8.00014L2.26244 6.40384C3.45698 4.61203 5.41675 3.4856 7.56517 3.34752L7.78062 3.33702L7.99948 3.33347C8.8117 3.33347 9.60499 3.47649 10.3478 3.74563L11.6633 2.4311C11.9236 2.17075 12.3457 2.17075 12.6061 2.4311ZM12.2884 4.82967C12.788 5.22648 13.2354 5.69497 13.6141 6.22626L13.7365 6.40384L14.8007 8.00014L13.7365 9.59644C12.542 11.3882 10.5822 12.5147 8.43378 12.6528L8.21833 12.6633L7.99948 12.6668C6.98022 12.6668 5.99077 12.4416 5.0935 12.0245L6.11395 11.0053C6.58901 11.1767 7.0891 11.2838 7.60121 11.3199L7.79079 11.33L7.98839 11.3336L8.18506 11.3304C9.91269 11.2729 11.5131 10.415 12.5179 9.01465L12.6271 8.85684L13.1981 8.00014L12.6271 7.14344C12.2727 6.61182 11.8351 6.15315 11.3378 5.78005L12.2884 4.82967ZM10.3599 6.75814L10.4183 6.87594C10.5773 7.21756 10.6661 7.59848 10.6661 8.00014C10.6661 9.4729 9.47224 10.6668 7.99948 10.6668C7.55128 10.6668 7.12891 10.5562 6.75815 10.3609L10.3599 6.75814ZM8.01056 4.66671L7.81389 4.66989C6.08626 4.72741 4.48587 5.58531 3.48102 6.98563L3.37184 7.14344L2.80014 8.00014L3.37184 8.85684C3.62034 9.22959 3.90976 9.56647 4.2318 9.86315L5.41891 8.67517L5.4171 8.66789C5.36208 8.45448 5.33281 8.23073 5.33281 8.00014C5.33281 6.52738 6.52672 5.33347 7.99948 5.33347C8.23274 5.33347 8.45902 5.36342 8.67466 5.41969L9.27691 4.81651L9.17662 4.79271C8.91653 4.73639 8.65114 4.69848 8.38227 4.67996L8.19138 4.67011L8.01056 4.66671Z" fill="#1C1B1F"/>
</g>
<defs>
<clipPath id="clip0_1492_14626">
<rect width="16" height="16" fill="white"/>
</clipPath>
</defs>
</svg>
