<svg width="160" height="160" viewBox="0 0 160 160" fill="none" xmlns="http://www.w3.org/2000/svg">
<g opacity="0.15">
<path d="M104.271 145.312C131.815 145.312 154.143 122.984 154.143 95.4404C154.143 67.8968 131.815 45.5684 104.271 45.5684C76.7279 45.5684 54.3994 67.8968 54.3994 95.4404C54.3994 122.984 76.7279 145.312 104.271 145.312Z" fill="white"/>
<path d="M48.0477 135.115C71.6383 135.115 90.7623 115.991 90.7623 92.4003C90.7623 68.8096 71.6383 49.6855 48.0477 49.6855C24.457 49.6855 5.33301 68.8096 5.33301 92.4003C5.33301 115.991 24.457 135.115 48.0477 135.115Z" fill="white"/>
<path d="M86.9598 100.363C110.55 100.363 129.674 81.2389 129.674 57.6482C129.674 34.0576 110.55 14.9336 86.9598 14.9336C63.3691 14.9336 44.2451 34.0576 44.2451 57.6482C44.2451 81.2389 63.3691 100.363 86.9598 100.363Z" fill="white"/>
</g>
<path d="M80.1224 133.259C80.1331 133.04 80.1438 132.821 80.1438 132.603C80.1438 125.973 74.7678 120.597 68.1384 120.597C67.9038 120.597 67.6691 120.608 67.4398 120.619C66.5224 113.648 60.5651 108.267 53.3438 108.267C46.1224 108.267 39.8024 113.979 39.1784 121.259C37.4824 120.544 35.6158 120.144 33.6584 120.144C26.1758 120.144 20.0478 125.92 19.4824 133.259H80.1278H80.1224Z" fill="#F59999"/>
<path d="M79.8395 129.813C107.439 129.813 129.813 107.439 129.813 79.8395C129.813 52.24 107.439 29.8662 79.8395 29.8662C52.24 29.8662 29.8662 52.24 29.8662 79.8395C29.8662 107.439 52.24 129.813 79.8395 129.813Z" fill="#8A0000"/>
<path d="M79.837 120.722C102.414 120.722 120.717 102.419 120.717 79.8419C120.717 57.2645 102.414 38.9619 79.837 38.9619C57.2596 38.9619 38.957 57.2645 38.957 79.8419C38.957 102.419 57.2596 120.722 79.837 120.722Z" fill="#B80000"/>
<path fill-rule="evenodd" clip-rule="evenodd" d="M91.7347 94.5876C85.818 88.6709 76.225 88.6709 70.3082 94.5876C69.5178 95.3781 68.2362 95.3781 67.4458 94.5876C66.6553 93.7972 66.6553 92.5156 67.4458 91.7251C74.9434 84.2275 87.0995 84.2275 94.5972 91.7251C95.3877 92.5156 95.3877 93.7972 94.5972 94.5876C93.8068 95.3781 92.5252 95.3781 91.7347 94.5876Z" fill="#FFCC28"/>
<rect x="62.8623" y="66" width="18.0632" height="4.04816" rx="2.02408" transform="rotate(45 62.8623 66)" fill="#FFCC28"/>
<rect x="60.0859" y="78.7725" width="18.0632" height="4.04816" rx="2.02408" transform="rotate(-45 60.0859 78.7725)" fill="#FFCC28"/>
<rect x="88.0996" y="66" width="18.0632" height="4.04816" rx="2.02408" transform="rotate(45 88.0996 66)" fill="#FFCC28"/>
<rect x="85.3232" y="78.7725" width="18.0632" height="4.04816" rx="2.02408" transform="rotate(-45 85.3232 78.7725)" fill="#FFCC28"/>
<path fill-rule="evenodd" clip-rule="evenodd" d="M77.2587 47.091C78.1098 47.0249 78.9698 46.9912 79.8375 46.9912C80.7052 46.9912 81.5652 47.0249 82.4163 47.091C83.0036 47.1366 83.4428 47.6497 83.3971 48.2371C83.3515 48.8244 82.8384 49.2635 82.2511 49.2179C81.4549 49.1561 80.65 49.1245 79.8375 49.1245C79.025 49.1245 78.2201 49.1561 77.424 49.2179C76.8366 49.2635 76.3235 48.8244 76.2779 48.2371C76.2322 47.6497 76.6714 47.1366 77.2587 47.091ZM73.452 48.6812C73.589 49.2541 73.2357 49.8297 72.6628 49.9667C71.0842 50.3444 69.5531 50.844 68.0797 51.4549C67.5356 51.6806 66.9115 51.4224 66.6858 50.8782C66.4602 50.3341 66.7184 49.71 67.2626 49.4843C68.839 48.8306 70.4773 48.2961 72.1664 47.892C72.7393 47.7549 73.3149 48.1082 73.452 48.6812ZM86.223 48.6812C86.3601 48.1082 86.9357 47.7549 87.5086 47.892C89.1977 48.2961 90.836 48.8306 92.4125 49.4843C92.9566 49.71 93.2148 50.3341 92.9892 50.8782C92.7635 51.4224 92.1394 51.6806 91.5953 51.4549C90.1219 50.844 88.5908 50.3444 87.0122 49.9667C86.4393 49.8297 86.086 49.2541 86.223 48.6812ZM64.1377 52.1792C64.4459 52.6812 64.2889 53.3381 63.7869 53.6464C62.4123 54.4905 61.1092 55.4398 59.8886 56.4832C59.4409 56.866 58.7675 56.8133 58.3847 56.3656C58.0019 55.9178 58.0546 55.2445 58.5024 54.8617C59.8072 53.7462 61.2005 52.7311 62.6705 51.8284C63.1725 51.5202 63.8294 51.6772 64.1377 52.1792ZM95.5373 52.1792C95.8456 51.6772 96.5025 51.5202 97.0045 51.8284C98.4745 52.7311 99.8678 53.7462 101.173 54.8617C101.62 55.2445 101.673 55.9178 101.29 56.3656C100.907 56.8133 100.234 56.866 99.7864 56.4832C98.5658 55.4398 97.2627 54.4905 95.8881 53.6464C95.3861 53.3381 95.2291 52.6812 95.5373 52.1792ZM56.3616 58.3887C56.8094 58.7715 56.8621 59.4448 56.4793 59.8926C55.4359 61.1131 54.4866 62.4163 53.6425 63.7908C53.3342 64.2928 52.6773 64.4499 52.1753 64.1416C51.6733 63.8333 51.5163 63.1765 51.8245 62.6744C52.7272 61.2045 53.7423 59.8111 54.8577 58.5063C55.2405 58.0585 55.9139 58.0059 56.3616 58.3887ZM103.313 58.3887C103.761 58.0059 104.434 58.0585 104.817 58.5063C105.933 59.8111 106.948 61.2045 107.85 62.6744C108.159 63.1765 108.002 63.8333 107.5 64.1416C106.998 64.4499 106.341 64.2928 106.033 63.7908C105.188 62.4163 104.239 61.1131 103.196 59.8926C102.813 59.4448 102.866 58.7715 103.313 58.3887ZM50.8743 66.6898C51.4185 66.9154 51.6767 67.5395 51.451 68.0837C50.8401 69.557 50.3405 71.0882 49.9628 72.6667C49.8258 73.2396 49.2502 73.593 48.6772 73.4559C48.1043 73.3188 47.751 72.7432 47.8881 72.1703C48.2922 70.4813 48.8267 68.8429 49.4804 67.2665C49.7061 66.7223 50.3301 66.4641 50.8743 66.6898ZM108.801 66.6898C109.345 66.4641 109.969 66.7223 110.195 67.2665C110.848 68.8429 111.383 70.4813 111.787 72.1703C111.924 72.7432 111.571 73.3188 110.998 73.4559C110.425 73.593 109.849 73.2396 109.712 72.6667C109.335 71.0882 108.835 69.557 108.224 68.0837C107.998 67.5395 108.257 66.9154 108.801 66.6898ZM48.2332 76.2818C48.8205 76.3274 49.2596 76.8405 49.214 77.4279C49.1522 78.2241 49.1206 79.029 49.1206 79.8414C49.1206 80.6539 49.1522 81.4588 49.214 82.255C49.2596 82.8423 48.8205 83.3554 48.2332 83.4011C47.6458 83.4467 47.1327 83.0076 47.0871 82.4202C47.021 81.5691 46.9873 80.7091 46.9873 79.8414C46.9873 78.9738 47.021 78.1137 47.0871 77.2626C47.1327 76.6753 47.6458 76.2362 48.2332 76.2818ZM111.442 76.2818C112.029 76.2362 112.542 76.6753 112.588 77.2626C112.654 78.1137 112.688 78.9738 112.688 79.8414C112.688 80.7091 112.654 81.5691 112.588 82.4202C112.542 83.0076 112.029 83.4467 111.442 83.4011C110.855 83.3554 110.415 82.8423 110.461 82.255C110.523 81.4588 110.554 80.6539 110.554 79.8414C110.554 79.029 110.523 78.2241 110.461 77.4279C110.415 76.8405 110.855 76.3274 111.442 76.2818ZM48.6772 86.227C49.2502 86.0899 49.8258 86.4432 49.9628 87.0162C50.3405 88.5947 50.8401 90.1258 51.451 91.5992C51.6767 92.1434 51.4185 92.7674 50.8743 92.9931C50.3301 93.2188 49.7061 92.9605 49.4804 92.4164C48.8267 90.84 48.2922 89.2016 47.8881 87.5126C47.751 86.9396 48.1043 86.364 48.6772 86.227ZM110.998 86.227C111.571 86.364 111.924 86.9396 111.787 87.5126C111.383 89.2016 110.848 90.84 110.195 92.4164C109.969 92.9605 109.345 93.2188 108.801 92.9931C108.257 92.7674 107.998 92.1434 108.224 91.5992C108.835 90.1259 109.335 88.5947 109.712 87.0162C109.849 86.4432 110.425 86.0899 110.998 86.227ZM52.1753 95.5413C52.6773 95.233 53.3342 95.39 53.6425 95.892C54.4865 97.2666 55.4359 98.5698 56.4793 99.7903C56.8621 100.238 56.8094 100.911 56.3616 101.294C55.9139 101.677 55.2405 101.624 54.8577 101.177C53.7423 99.8717 52.7272 98.4784 51.8245 97.0084C51.5163 96.5064 51.6733 95.8495 52.1753 95.5413ZM107.5 95.5413C108.002 95.8495 108.159 96.5064 107.85 97.0084C106.948 98.4784 105.933 99.8717 104.817 101.177C104.434 101.624 103.761 101.677 103.313 101.294C102.866 100.911 102.813 100.238 103.196 99.7903C104.239 98.5698 105.188 97.2666 106.033 95.892C106.341 95.39 106.998 95.233 107.5 95.5413ZM58.3847 103.317C58.7675 102.87 59.4409 102.817 59.8886 103.2C61.1092 104.243 62.4123 105.192 63.7869 106.036C64.2889 106.345 64.4459 107.002 64.1377 107.504C63.8294 108.006 63.1725 108.163 62.6705 107.854C61.2005 106.952 59.8072 105.937 58.5024 104.821C58.0546 104.438 58.0019 103.765 58.3847 103.317ZM101.29 103.317C101.673 103.765 101.62 104.438 101.173 104.821C99.8678 105.937 98.4745 106.952 97.0045 107.854C96.5025 108.163 95.8456 108.006 95.5373 107.504C95.2291 107.002 95.3861 106.345 95.8881 106.036C97.2627 105.192 98.5658 104.243 99.7864 103.2C100.234 102.817 100.907 102.87 101.29 103.317ZM66.6858 108.805C66.9115 108.26 67.5356 108.002 68.0797 108.228C69.5531 108.839 71.0842 109.338 72.6628 109.716C73.2357 109.853 73.589 110.429 73.452 111.002C73.3149 111.575 72.7393 111.928 72.1664 111.791C70.4773 111.387 68.839 110.852 67.2626 110.199C66.7184 109.973 66.4602 109.349 66.6858 108.805ZM92.9892 108.805C93.2148 109.349 92.9566 109.973 92.4124 110.199C90.836 110.852 89.1977 111.387 87.5086 111.791C86.9357 111.928 86.3601 111.575 86.223 111.002C86.086 110.429 86.4393 109.853 87.0122 109.716C88.5908 109.338 90.1219 108.839 91.5953 108.228C92.1394 108.002 92.7635 108.26 92.9892 108.805ZM76.2779 111.446C76.3235 110.858 76.8366 110.419 77.4239 110.465C78.2201 110.527 79.025 110.558 79.8375 110.558C80.65 110.558 81.4549 110.527 82.2511 110.465C82.8384 110.419 83.3515 110.858 83.3971 111.446C83.4428 112.033 83.0036 112.546 82.4163 112.592C81.5652 112.658 80.7052 112.692 79.8375 112.692C78.9698 112.692 78.1098 112.658 77.2587 112.592C76.6714 112.546 76.2322 112.033 76.2779 111.446Z" fill="#E60000"/>
<path d="M146.742 133.339C146.758 133.04 146.768 132.742 146.768 132.438C146.768 123.382 139.43 116.043 130.374 116.043C130.054 116.043 129.734 116.053 129.419 116.075C128.166 106.555 120.027 99.2002 110.16 99.2002C100.294 99.2002 91.6643 107.003 90.811 116.949C88.491 115.973 85.9416 115.429 83.2696 115.429C73.051 115.429 64.6776 123.323 63.9043 133.344H146.742V133.339Z" fill="#F59999"/>
</svg>
