<svg width="160" height="160" viewBox="0 0 160 160" fill="none" xmlns="http://www.w3.org/2000/svg">
<g opacity="0.15">
<path d="M104.271 145.312C131.815 145.312 154.143 122.983 154.143 95.4399C154.143 67.8963 131.815 45.5679 104.271 45.5679C76.7279 45.5679 54.3994 67.8963 54.3994 95.4399C54.3994 122.983 76.7279 145.312 104.271 145.312Z" fill="#282A32"/>
<path d="M48.0477 135.114C71.6383 135.114 90.7623 115.99 90.7623 92.3998C90.7623 68.8091 71.6383 49.6851 48.0477 49.6851C24.457 49.6851 5.33301 68.8091 5.33301 92.3998C5.33301 115.99 24.457 135.114 48.0477 135.114Z" fill="#282A32"/>
<path d="M86.9598 100.362C110.55 100.362 129.674 81.2384 129.674 57.6478C129.674 34.0571 110.55 14.9331 86.9598 14.9331C63.3691 14.9331 44.2451 34.0571 44.2451 57.6478C44.2451 81.2384 63.3691 100.362 86.9598 100.362Z" fill="#282A32"/>
</g>
<path d="M80.1224 133.259C80.1331 133.04 80.1438 132.821 80.1438 132.603C80.1438 125.973 74.7678 120.597 68.1384 120.597C67.9038 120.597 67.6691 120.608 67.4398 120.619C66.5224 113.648 60.5651 108.267 53.3438 108.267C46.1224 108.267 39.8024 113.979 39.1784 121.259C37.4824 120.544 35.6158 120.144 33.6584 120.144C26.1758 120.144 20.0478 125.92 19.4824 133.259H80.1278H80.1224Z" fill="#8ED788"/>
<path d="M79.8395 129.813C107.439 129.813 129.813 107.44 129.813 79.84C129.813 52.2405 107.439 29.8667 79.8395 29.8667C52.24 29.8667 29.8662 52.2405 29.8662 79.84C29.8662 107.44 52.24 129.813 79.8395 129.813Z" fill="#43BC38"/>
<path d="M79.837 120.722C102.414 120.722 120.717 102.42 120.717 79.8424C120.717 57.265 102.414 38.9624 79.837 38.9624C57.2596 38.9624 38.957 57.265 38.957 79.8424C38.957 102.42 57.2596 120.722 79.837 120.722Z" fill="#287122"/>
<path d="M79.8874 43.3928C100.726 43.3928 117.711 59.7997 118.513 80.3413C118.534 79.8327 118.554 79.3292 118.554 78.8156C118.554 57.567 101.242 40.3413 79.8874 40.3413C58.5325 40.3413 41.2207 57.567 41.2207 78.8156C41.2207 79.3292 41.2411 79.8327 41.2616 80.3413C42.0692 59.7997 59.0488 43.3928 79.8874 43.3928Z" fill="#36962D"/>
<path fill-rule="evenodd" clip-rule="evenodd" d="M77.2587 47.092C78.1098 47.0259 78.9698 46.9922 79.8375 46.9922C80.7052 46.9922 81.5652 47.0259 82.4163 47.092C83.0036 47.1376 83.4428 47.6507 83.3971 48.2381C83.3515 48.8254 82.8384 49.2645 82.2511 49.2189C81.4549 49.157 80.65 49.1255 79.8375 49.1255C79.025 49.1255 78.2201 49.157 77.424 49.2189C76.8366 49.2645 76.3235 48.8254 76.2779 48.2381C76.2322 47.6507 76.6714 47.1376 77.2587 47.092ZM73.452 48.6821C73.589 49.2551 73.2357 49.8306 72.6628 49.9677C71.0842 50.3454 69.5531 50.8449 68.0797 51.4559C67.5356 51.6816 66.9115 51.4234 66.6858 50.8792C66.4602 50.335 66.7184 49.711 67.2626 49.4853C68.839 48.8316 70.4773 48.297 72.1664 47.8929C72.7393 47.7559 73.3149 48.1092 73.452 48.6821ZM86.223 48.6821C86.3601 48.1092 86.9357 47.7559 87.5086 47.8929C89.1977 48.297 90.836 48.8316 92.4125 49.4853C92.9566 49.711 93.2148 50.335 92.9892 50.8792C92.7635 51.4234 92.1394 51.6816 91.5953 51.4559C90.1219 50.8449 88.5908 50.3454 87.0122 49.9677C86.4393 49.8306 86.086 49.2551 86.223 48.6821ZM64.1377 52.1802C64.4459 52.6822 64.2889 53.3391 63.7869 53.6473C62.4123 54.4914 61.1092 55.4408 59.8886 56.4842C59.4409 56.867 58.7675 56.8143 58.3847 56.3665C58.0019 55.9188 58.0546 55.2454 58.5024 54.8626C59.8072 53.7472 61.2005 52.7321 62.6705 51.8294C63.1725 51.5211 63.8294 51.6782 64.1377 52.1802ZM95.5373 52.1802C95.8456 51.6782 96.5025 51.5211 97.0045 51.8294C98.4745 52.7321 99.8678 53.7472 101.173 54.8626C101.62 55.2454 101.673 55.9188 101.29 56.3665C100.907 56.8143 100.234 56.867 99.7864 56.4842C98.5658 55.4408 97.2627 54.4914 95.8881 53.6473C95.3861 53.3391 95.2291 52.6822 95.5373 52.1802ZM56.3616 58.3896C56.8094 58.7724 56.8621 59.4457 56.4793 59.8935C55.4359 61.1141 54.4866 62.4172 53.6425 63.7918C53.3342 64.2938 52.6773 64.4508 52.1753 64.1426C51.6733 63.8343 51.5163 63.1774 51.8245 62.6754C52.7272 61.2054 53.7423 59.8121 54.8577 58.5073C55.2405 58.0595 55.9139 58.0068 56.3616 58.3896ZM103.313 58.3896C103.761 58.0068 104.434 58.0595 104.817 58.5073C105.933 59.8121 106.948 61.2054 107.85 62.6754C108.159 63.1774 108.002 63.8343 107.5 64.1426C106.998 64.4508 106.341 64.2938 106.033 63.7918C105.188 62.4172 104.239 61.1141 103.196 59.8935C102.813 59.4457 102.866 58.7724 103.313 58.3896ZM50.8743 66.6907C51.4185 66.9164 51.6767 67.5405 51.451 68.0846C50.8401 69.558 50.3405 71.0891 49.9628 72.6677C49.8258 73.2406 49.2502 73.5939 48.6772 73.4569C48.1043 73.3198 47.751 72.7442 47.8881 72.1713C48.2922 70.4822 48.8267 68.8439 49.4804 67.2675C49.7061 66.7233 50.3301 66.4651 50.8743 66.6907ZM108.801 66.6907C109.345 66.4651 109.969 66.7233 110.195 67.2675C110.848 68.8439 111.383 70.4822 111.787 72.1713C111.924 72.7442 111.571 73.3198 110.998 73.4569C110.425 73.5939 109.849 73.2406 109.712 72.6677C109.335 71.0891 108.835 69.558 108.224 68.0846C107.998 67.5405 108.257 66.9164 108.801 66.6907ZM48.2332 76.2828C48.8205 76.3284 49.2596 76.8415 49.214 77.4288C49.1522 78.225 49.1206 79.0299 49.1206 79.8424C49.1206 80.6549 49.1522 81.4598 49.214 82.256C49.2596 82.8433 48.8205 83.3564 48.2332 83.402C47.6458 83.4477 47.1327 83.0085 47.0871 82.4212C47.021 81.5701 46.9873 80.7101 46.9873 79.8424C46.9873 78.9747 47.021 78.1147 47.0871 77.2636C47.1327 76.6763 47.6458 76.2371 48.2332 76.2828ZM111.442 76.2828C112.029 76.2371 112.542 76.6763 112.588 77.2636C112.654 78.1147 112.688 78.9747 112.688 79.8424C112.688 80.7101 112.654 81.5701 112.588 82.4212C112.542 83.0085 112.029 83.4477 111.442 83.402C110.855 83.3564 110.415 82.8433 110.461 82.256C110.523 81.4598 110.554 80.6549 110.554 79.8424C110.554 79.0299 110.523 78.225 110.461 77.4288C110.415 76.8415 110.855 76.3284 111.442 76.2828ZM48.6772 86.2279C49.2502 86.0909 49.8258 86.4442 49.9628 87.0171C50.3405 88.5957 50.8401 90.1268 51.451 91.6002C51.6767 92.1443 51.4185 92.7684 50.8743 92.9941C50.3301 93.2197 49.7061 92.9615 49.4804 92.4174C48.8267 90.8409 48.2922 89.2026 47.8881 87.5135C47.751 86.9406 48.1043 86.365 48.6772 86.2279ZM110.998 86.2279C111.571 86.365 111.924 86.9406 111.787 87.5135C111.383 89.2026 110.848 90.8409 110.195 92.4174C109.969 92.9615 109.345 93.2197 108.801 92.9941C108.257 92.7684 107.998 92.1443 108.224 91.6002C108.835 90.1268 109.335 88.5957 109.712 87.0171C109.849 86.4442 110.425 86.0909 110.998 86.2279ZM52.1753 95.5422C52.6773 95.234 53.3342 95.391 53.6425 95.893C54.4865 97.2676 55.4359 98.5707 56.4793 99.7913C56.8621 100.239 56.8094 100.912 56.3616 101.295C55.9139 101.678 55.2405 101.625 54.8577 101.178C53.7423 99.8727 52.7272 98.4794 51.8245 97.0094C51.5163 96.5074 51.6733 95.8505 52.1753 95.5422ZM107.5 95.5422C108.002 95.8505 108.159 96.5074 107.85 97.0094C106.948 98.4794 105.933 99.8727 104.817 101.178C104.434 101.625 103.761 101.678 103.313 101.295C102.866 100.912 102.813 100.239 103.196 99.7913C104.239 98.5708 105.188 97.2676 106.033 95.893C106.341 95.391 106.998 95.234 107.5 95.5422ZM58.3847 103.318C58.7675 102.87 59.4409 102.818 59.8886 103.201C61.1092 104.244 62.4123 105.193 63.7869 106.037C64.2889 106.346 64.4459 107.003 64.1377 107.505C63.8294 108.007 63.1725 108.164 62.6705 107.855C61.2005 106.953 59.8072 105.938 58.5024 104.822C58.0546 104.439 58.0019 103.766 58.3847 103.318ZM101.29 103.318C101.673 103.766 101.62 104.439 101.173 104.822C99.8678 105.938 98.4745 106.953 97.0045 107.855C96.5025 108.164 95.8456 108.007 95.5373 107.505C95.2291 107.003 95.3861 106.346 95.8881 106.037C97.2627 105.193 98.5658 104.244 99.7864 103.201C100.234 102.818 100.907 102.87 101.29 103.318ZM66.6858 108.806C66.9115 108.261 67.5356 108.003 68.0797 108.229C69.5531 108.84 71.0842 109.339 72.6628 109.717C73.2357 109.854 73.589 110.43 73.452 111.003C73.3149 111.576 72.7393 111.929 72.1664 111.792C70.4773 111.388 68.839 110.853 67.2626 110.2C66.7184 109.974 66.4602 109.35 66.6858 108.806ZM92.9892 108.806C93.2148 109.35 92.9566 109.974 92.4124 110.2C90.836 110.853 89.1977 111.388 87.5086 111.792C86.9357 111.929 86.3601 111.576 86.223 111.003C86.086 110.43 86.4393 109.854 87.0122 109.717C88.5908 109.339 90.1219 108.84 91.5953 108.229C92.1394 108.003 92.7635 108.261 92.9892 108.806ZM76.2779 111.447C76.3235 110.859 76.8366 110.42 77.4239 110.466C78.2201 110.528 79.025 110.559 79.8375 110.559C80.65 110.559 81.4549 110.528 82.2511 110.466C82.8384 110.42 83.3515 110.859 83.3971 111.447C83.4428 112.034 83.0036 112.547 82.4163 112.593C81.5652 112.659 80.7052 112.693 79.8375 112.693C78.9698 112.693 78.1098 112.659 77.2587 112.593C76.6714 112.547 76.2322 112.034 76.2779 111.447Z" fill="#36962D"/>
<path d="M92.9773 74.2302L87.5901 75.3605C86.7965 75.5289 86.1772 74.7052 86.5439 73.9776C87.8967 71.3141 88.7926 68.4161 89.1594 65.4279C89.3698 63.7384 88.3958 62.0669 86.7724 61.5558C84.6019 60.8764 82.4735 62.3375 82.2209 64.4779C81.9684 66.6124 81.2048 69.811 79.0103 72.9736C77.5132 75.1201 75.529 76.9718 73.2683 78.3247C73.0579 78.4509 72.8655 78.5953 72.6911 78.7576C71.7893 79.3709 71.2061 80.399 71.2061 81.5414V93.3319C71.2061 95.1958 72.7212 96.7109 74.5851 96.7109H89.7486C94.757 96.7109 98.8214 92.6524 98.8214 87.638V78.9741C98.8214 75.8957 95.9895 73.5929 92.9773 74.2302Z" fill="#1B4B16"/>
<path d="M65.8367 79.0522H63.6722C62.121 79.0522 60.8584 80.3088 60.8584 81.8661V94.0775C60.8584 95.6287 62.115 96.8913 63.6722 96.8913H65.8367C67.388 96.8913 68.6506 95.6347 68.6506 94.0775V81.8661C68.6506 80.3148 67.394 79.0522 65.8367 79.0522ZM64.7545 94.4683C63.9608 94.4683 63.3175 93.8249 63.3175 93.0313C63.3175 92.2376 63.9608 91.5943 64.7545 91.5943C65.5481 91.5943 66.1915 92.2376 66.1915 93.0313C66.1915 93.8249 65.5481 94.4683 64.7545 94.4683Z" fill="#1B4B16"/>
<path d="M92.947 70.1159L87.5598 71.2463C86.7662 71.4146 86.1469 70.5909 86.5136 69.8634C87.8665 67.1998 88.7623 64.3018 89.1291 61.3136C89.3395 59.6241 88.3655 57.9526 86.7421 57.4415C84.5716 56.7621 82.4432 58.2232 82.1907 60.3637C81.9381 62.4981 81.1746 65.6968 78.98 68.8593C77.4829 71.0058 75.4988 72.8576 73.2381 74.2104C73.0276 74.3367 72.8352 74.481 72.6609 74.6434C71.759 75.2566 71.1758 76.2848 71.1758 77.4271V89.2176C71.1758 91.0815 72.6909 92.5967 74.5548 92.5967H89.7183C94.7267 92.5967 98.7912 88.5382 98.7912 83.5237V74.8598C98.7912 71.7814 95.9593 69.4786 92.947 70.1159Z" fill="white"/>
<path d="M65.8367 74.7759H63.6722C62.121 74.7759 60.8584 76.0324 60.8584 77.5897V89.8011C60.8584 91.3523 62.115 92.6149 63.6722 92.6149H65.8367C67.388 92.6149 68.6506 91.3583 68.6506 89.8011V77.5897C68.6506 76.0385 67.394 74.7759 65.8367 74.7759ZM64.7545 90.1919C63.9608 90.1919 63.3175 89.5486 63.3175 88.7549C63.3175 87.9613 63.9608 87.3179 64.7545 87.3179C65.5481 87.3179 66.1915 87.9613 66.1915 88.7549C66.1915 89.5486 65.5481 90.1919 64.7545 90.1919Z" fill="#36962D"/>
<path d="M146.742 133.339C146.758 133.04 146.768 132.742 146.768 132.438C146.768 123.382 139.43 116.043 130.374 116.043C130.054 116.043 129.734 116.053 129.419 116.075C128.166 106.555 120.027 99.2002 110.16 99.2002C100.294 99.2002 91.6643 107.003 90.811 116.949C88.491 115.973 85.9416 115.429 83.2696 115.429C73.051 115.429 64.6776 123.323 63.9043 133.344H146.742V133.339Z" fill="#B4E4AF"/>
<path d="M123.216 133.066C131.537 133.066 138.283 126.321 138.283 118C138.283 109.679 131.537 102.933 123.216 102.933C114.895 102.933 108.149 109.679 108.149 118C108.149 126.321 114.895 133.066 123.216 133.066Z" fill="#36962D"/>
<path d="M121.723 123.632C121.248 123.632 120.795 123.445 120.459 123.109L116.203 118.853C115.504 118.154 115.504 117.024 116.203 116.325C116.901 115.626 118.032 115.626 118.731 116.325L121.723 119.317L127.707 113.333C128.405 112.634 129.536 112.634 130.235 113.333C130.933 114.032 130.933 115.162 130.235 115.861L122.987 123.109C122.651 123.445 122.197 123.632 121.723 123.632Z" fill="white"/>
</svg>
