<svg width="40" height="40" viewBox="0 0 40 40" fill="none" xmlns="http://www.w3.org/2000/svg">
<path opacity="0.15" d="M20 40C31.0457 40 40 31.0457 40 20C40 8.9543 31.0457 0 20 0C8.9543 0 0 8.9543 0 20C0 31.0457 8.9543 40 20 40Z" fill="#747784"/>
<g clip-path="url(#clip0_2156_675)">
<path fill-rule="evenodd" clip-rule="evenodd" d="M20.5301 9.01346L19.9999 8.98828L20.0002 10.9883L20.4797 11.0134C22.7263 11.1313 24.7545 12.0729 26.2688 13.5432C27.8471 15.0755 28.8645 17.1798 28.9874 19.5211L29 20.0009L27.0333 19.9964L26.9485 19.1479L26.9471 19.1364C26.7513 17.5483 26.0239 16.1253 24.9497 15.0511C23.8039 13.9053 22.2613 13.1541 20.545 13.0218L20 12.9798V14.9692L19.4375 15.0322C18.2808 15.1619 17.2439 15.6859 16.4645 16.4654C15.5602 17.3696 15 18.6203 15 20.0009C15 21.3815 15.5602 22.6322 16.4645 23.5364C17.3812 24.4532 18.642 24.9982 20.2055 24.9963L20.2165 24.9963L20.2275 24.9958C21.5183 24.9379 22.6815 24.3905 23.5355 23.5364C24.2895 22.7825 24.7941 21.7932 24.9523 20.572L25.0262 20.0009H27.0122L26.9879 20.4163C26.8846 22.1835 26.1258 23.7746 24.9497 24.9506C23.6824 26.2179 21.9331 27.0009 20 27.0009C18.0669 27.0009 16.3176 26.2179 15.0503 24.9506C13.7829 23.6833 13 21.934 13 20.0009C13 18.0678 13.7829 16.3185 15.0503 15.0511C16.1441 13.9573 17.5969 13.2246 19.2159 13.0443L20.0005 12.9748L19.9984 10.9851L19.4631 11.0167C17.1912 11.1504 15.1459 12.1271 13.636 13.6369C12.0079 15.2651 11 17.5158 11 20.0009C11 22.486 12.0079 24.7367 13.636 26.3649C15.2642 27.993 17.5149 29.0009 20 29.0009C22.4851 29.0009 24.7358 27.993 26.364 26.3649C27.9193 24.8095 28.9087 22.686 28.994 20.3322L29 20.0009L29.0126 20.0005L31.0215 20.001L30.9646 19.1123L30.9639 19.1039C30.7475 16.4235 29.5701 14.0147 27.7782 12.2227C25.9047 10.3493 23.3571 9.14769 20.5301 9.01346ZM20 14.9692L20.7039 15.05C21.8022 15.2046 22.7865 15.7163 23.5355 16.4654C24.3395 17.2693 24.8701 18.3443 24.9791 19.5407L25.0211 20.0009H20V14.9692Z" fill="#1C1B1F"/>
</g>
<defs>
<clipPath id="clip0_2156_675">
<rect width="24" height="24" fill="white" transform="translate(8 8)"/>
</clipPath>
</defs>
</svg>
