<svg width="40" height="40" viewBox="0 0 40 40" fill="none" xmlns="http://www.w3.org/2000/svg">
<path opacity="0.15" d="M20 40C31.0457 40 40 31.0457 40 20C40 8.9543 31.0457 0 20 0C8.9543 0 0 8.9543 0 20C0 31.0457 8.9543 40 20 40Z" fill="#FF8F00"/>
<g clip-path="url(#clip0_1294_3369)">
<path fill-rule="evenodd" clip-rule="evenodd" d="M19.9908 9L30 11.7922L29.9815 13.947L29.9705 14.5888C29.9459 15.8366 29.9012 17.026 29.8364 18.1078L29.8119 18.4993C29.8035 18.6276 29.7949 18.7536 29.7859 18.8773L29.7289 19.5926C29.7088 19.822 29.6876 20.0423 29.6651 20.2536L29.594 20.8603L29.5153 21.4126C29.4327 21.9377 29.3383 22.3811 29.2303 22.7425C28.5771 24.9317 27.131 26.8292 25.0245 28.4105C24.0874 29.1083 23.0837 29.7101 22.0345 30.2038C21.625 30.3982 21.2077 30.5756 20.7837 30.7354L20.082 31L19.3782 30.7409C18.9475 30.5824 18.5234 30.4063 18.1144 30.2166C17.0443 29.7258 16.0248 29.1298 15.0635 28.4321C12.9072 26.8528 11.4264 24.9479 10.7669 22.7415C10.6236 22.2597 10.504 21.6324 10.4043 20.86L10.3332 20.2535C10.3108 20.0423 10.2895 19.822 10.2693 19.5927L10.2121 18.8775L10.1614 18.1081C10.0963 17.0073 10.0514 15.8122 10.0281 14.5917L10.0168 13.9471L10 11.7927L19.9908 9ZM19.9913 11.0578L12.0079 13.2893L12.0144 13.9197L12.0255 14.5501C12.0479 15.725 12.091 16.8975 12.1558 17.9922L12.2017 18.6918L12.2534 19.346C12.2624 19.4512 12.2717 19.5543 12.2813 19.6554L12.3414 20.2371L12.4073 20.7674C12.4875 21.3549 12.5794 21.8322 12.6832 22.1814C13.225 23.994 14.4837 25.5449 16.2505 26.8389C17.0982 27.4541 18.0034 27.9833 18.9532 28.419C19.3204 28.5892 19.6941 28.7444 20.0736 28.8841C20.4457 28.7438 20.812 28.5881 21.1716 28.4174C22.1058 27.9777 22.9946 27.4449 23.8247 26.8268C25.5453 25.5352 26.7751 23.9883 27.3146 22.1806C27.389 21.9314 27.4572 21.6168 27.5194 21.2433L27.5911 20.7671L27.6569 20.2369L27.717 19.6551L27.7713 19.0243C27.7799 18.9152 27.7882 18.8041 27.7963 18.6912L27.842 17.9914C27.9075 16.8975 27.9499 15.7242 27.973 14.5501C27.9815 14.1299 27.9874 13.7096 27.9906 13.2893L19.9913 11.0578ZM19 14V15.277C19.295 15.105 19.634 15 20 15C20.305 15 20.5912 15.0729 20.8489 15.1968L21 15.277V14H22L21.999 16.999L24 17V16H25L25 18H23V19H25V20H23V21H25L25 23H24V22H23L22.9949 22.1763C22.9037 23.7511 21.5977 25 20 25C18.4023 25 17.0963 23.7511 17.0051 22.1763L17 22H16V23H15V21L16.999 20.999V19.999L15 20V19L16.999 18.999V17.999L15 18V16H16V17L17.999 16.999L18 14H19Z" fill="#FF8F00"/>
</g>
<defs>
<clipPath id="clip0_1294_3369">
<rect width="24" height="24" fill="white" transform="translate(8 8)"/>
</clipPath>
</defs>
</svg>
