<svg width="40" height="40" viewBox="0 0 40 40" fill="none" xmlns="http://www.w3.org/2000/svg">
<path opacity="0.15" d="M20 40C31.0457 40 40 31.0457 40 20C40 8.9543 31.0457 0 20 0C8.9543 0 0 8.9543 0 20C0 31.0457 8.9543 40 20 40Z" fill="#8ED788"/>
<g clip-path="url(#clip0_1353_75155)">
<path fill-rule="evenodd" clip-rule="evenodd" d="M19.9908 9L30 11.7922L29.9815 13.947L29.9705 14.5888C29.9459 15.8366 29.9012 17.026 29.8364 18.1078L29.8119 18.4993C29.8035 18.6276 29.7949 18.7536 29.7859 18.8773L29.7289 19.5926C29.7088 19.822 29.6876 20.0423 29.6651 20.2536L29.594 20.8603L29.5153 21.4126C29.4327 21.9377 29.3383 22.3811 29.2303 22.7425C28.5771 24.9317 27.131 26.8292 25.0245 28.4105C24.0874 29.1083 23.0837 29.7101 22.0345 30.2038C21.625 30.3982 21.2077 30.5756 20.7837 30.7354L20.082 31L19.3782 30.7409C18.9475 30.5824 18.5234 30.4063 18.1144 30.2166C17.0443 29.7258 16.0248 29.1298 15.0635 28.4321C12.9072 26.8528 11.4264 24.9479 10.7669 22.7415C10.6236 22.2597 10.504 21.6324 10.4043 20.86L10.3332 20.2535C10.3108 20.0423 10.2895 19.822 10.2693 19.5927L10.2121 18.8775L10.1614 18.1081C10.0963 17.0073 10.0514 15.8122 10.0281 14.5917L10.0168 13.9471L10 11.7927L19.9908 9ZM19.9913 11.0578L12.0079 13.2893L12.0144 13.9197L12.0255 14.5501C12.0479 15.725 12.091 16.8975 12.1558 17.9922L12.2017 18.6918L12.2534 19.346C12.2624 19.4512 12.2717 19.5543 12.2813 19.6554L12.3414 20.2371L12.4073 20.7674C12.4875 21.3549 12.5794 21.8322 12.6832 22.1814C13.225 23.994 14.4837 25.5449 16.2505 26.8389C17.0982 27.4541 18.0034 27.9833 18.9532 28.419C19.3204 28.5892 19.6941 28.7444 20.0736 28.8841C20.4457 28.7438 20.812 28.5881 21.1716 28.4174C22.1058 27.9777 22.9946 27.4449 23.8247 26.8268C25.5453 25.5352 26.7751 23.9883 27.3146 22.1806C27.389 21.9314 27.4572 21.6168 27.5194 21.2433L27.5911 20.7671L27.6569 20.2369L27.717 19.6551L27.7713 19.0243C27.7799 18.9152 27.7882 18.8041 27.7963 18.6912L27.842 17.9914C27.9075 16.8975 27.9499 15.7242 27.973 14.5501C27.9815 14.1299 27.9874 13.7096 27.9906 13.2893L19.9913 11.0578ZM21.1937 21.5126C20.925 22.4108 20.5187 23.2462 20 24C19.4813 23.2462 19.075 22.4108 18.8063 21.5126H21.1937ZM17.5188 21.5126C17.7188 22.2977 18.0063 23.0515 18.3813 23.7487C17.2313 23.353 16.275 22.5553 15.675 21.5126H17.5188ZM24.325 21.5126C23.725 22.549 22.7687 23.353 21.6187 23.7487C21.9937 23.0515 22.2812 22.2977 22.4812 21.5126H24.325ZM17.275 17.7437C17.225 18.1583 17.1875 18.5729 17.1875 19C17.1875 19.4271 17.225 19.8417 17.275 20.2563H15.1625C15.0625 19.8543 15 19.4334 15 19C15 18.5666 15.0625 18.1457 15.1625 17.7437H17.275ZM21.4625 17.7437C21.5187 18.152 21.5625 18.5729 21.5625 19C21.5625 19.4271 21.5187 19.8417 21.4625 20.2563H18.5375C18.4813 19.8417 18.4375 19.4271 18.4375 19C18.4375 18.5729 18.4813 18.152 18.5375 17.7437H21.4625ZM24.8375 17.7437C24.9375 18.1457 25 18.5666 25 19C25 19.4334 24.9375 19.8543 24.8375 20.2563H22.725C22.775 19.8417 22.8125 19.4271 22.8125 19C22.8125 18.5729 22.775 18.1583 22.725 17.7437H24.8375ZM21.6187 14.2513C22.7687 14.647 23.725 15.451 24.325 16.4874H22.4812C22.2812 15.7023 21.9937 14.9485 21.6187 14.2513ZM20 14C20.5187 14.7538 20.925 15.5892 21.1937 16.4874H18.8063C19.075 15.5892 19.4813 14.7538 20 14ZM18.3813 14.2513C18.0063 14.9485 17.7188 15.7023 17.5188 16.4874H15.675C16.275 15.4447 17.2313 14.647 18.3813 14.2513Z" fill="#8ED788"/>
</g>
<defs>
<clipPath id="clip0_1353_75155">
<rect width="24" height="24" fill="white" transform="translate(8 8)"/>
</clipPath>
</defs>
</svg>
