<svg width="4" height="18" viewBox="0 0 4 18" fill="none" xmlns="http://www.w3.org/2000/svg">
<path fill-rule="evenodd" clip-rule="evenodd" d="M2 13.9622C3.10457 13.9622 4 14.8661 4 15.9811C4 17.0961 3.10457 18 2 18C0.89543 18 0 17.0961 0 15.9811C0 14.8661 0.89543 13.9622 2 13.9622ZM2 6.9811C3.10457 6.9811 4 7.88499 4 9C4 10.115 3.10457 11.0189 2 11.0189C0.89543 11.0189 0 10.115 0 9C0 7.88499 0.89543 6.9811 2 6.9811ZM2 0C3.10457 0 4 0.903893 4 2.0189C4 3.13391 3.10457 4.0378 2 4.0378C0.89543 4.0378 0 3.13391 0 2.0189C0 0.903893 0.89543 0 2 0Z" fill="#1C1B1F"/>
</svg>
