<svg xmlns="http://www.w3.org/2000/svg" xmlns:xlink="http://www.w3.org/1999/xlink" width="600" height="600"><defs><linearGradient id="a" x1="50.759%" x2="50.759%" y1="100%" y2="25.215%"><stop offset="0%" stop-color="#FFF"/><stop offset="100%" stop-color="#D1E7FD"/></linearGradient><linearGradient id="d" x1="50.759%" x2="50.759%" y1="128.389%" y2="20.375%"><stop offset="0%" stop-color="#2A2092" stop-opacity="0"/><stop offset="100%" stop-color="#2A2092"/></linearGradient><linearGradient id="f" x1="50%" x2="50%" y1="99.889%" y2="55.921%"><stop offset="0%" stop-color="#4C4C4C" stop-opacity="0"/><stop offset="100%" stop-color="#4C4C4C"/></linearGradient><linearGradient id="h" x1="50%" x2="50%" y1="50%" y2="100%"><stop offset="0%" stop-color="#4C4C4C"/><stop offset="100%" stop-color="#4C4C4C" stop-opacity="0"/></linearGradient><linearGradient id="i" x1="50%" x2="50%" y1="99.889%" y2="55.921%"><stop offset="0%" stop-color="#4C4C4C" stop-opacity="0"/><stop offset="100%" stop-color="#4C4C4C"/></linearGradient><path id="b" d="M0 0h600v496H0z"/><path id="c" d="M1 0h599v496H1z"/><path id="e" d="M0-104h600v600H0z"/></defs><g transform="translate(0 104)" fill="none" fill-rule="evenodd"><use fill="url(#a)" xlink:href="#b"/><use fill="#000" xlink:href="#c"/><use fill="url(#d)" xlink:href="#c"/><mask id="g" fill="#fff"><use xlink:href="#e"/></mask><use fill="#2D2D2D" xlink:href="#e"/><path fill="url(#f)" d="M600 403H259V223.572c8.923-8.43 20.186-13.572 32.79-13.572 26.724 0 48.432 23.115 48.432 51.634 0 1.859-.069 3.693-.247 5.502.43-.083.881-.132 1.335-.132 4.264 0 7.723 3.688 7.723 8.239 0 1.213-.246 2.36-.688 3.395 20.473.799 36.842 18.756 36.842 40.798a43.58 43.58 0 0 1-1.073 9.622c.085-.004.17-.008.256-.008 3.243 0 6.273.965 8.857 2.633.454-22.125 17.405-39.916 38.25-39.916 20.771 0 37.679 17.667 38.241 39.693a7.294 7.294 0 0 1 3.705-1.015c4.264 0 7.72 3.69 7.72 8.24a8.69 8.69 0 0 1-.372 2.521c4.757 1.292 9.067 3.776 12.636 7.138 2.991-4.368 7.826-7.204 13.284-7.204 5.831 0 10.948 3.242 13.87 8.127 5.152-8.293 13.974-13.766 24-13.766 15.89 0 28.774 13.75 28.774 30.712 0 3.66-.601 7.172-1.703 10.426a21.488 21.488 0 0 1 5.513-.725c12.489 0 22.61 10.91 22.61 24.238 0 .918.094 1.606.245 2.848" mask="url(#g)" opacity=".3" transform="matrix(-1 0 0 1 859 0)"/><path fill="url(#h)" d="M-91 228V70.884C-83.28 63.503-73.537 59-62.633 59c23.119 0 41.898 20.24 41.898 45.213 0 1.628-.06 3.234-.213 4.818a6.102 6.102 0 0 1 1.154-.116c3.69 0 6.681 3.23 6.681 7.215a7.63 7.63 0 0 1-.594 2.972c17.71.7 31.872 16.424 31.872 35.726 0 2.904-.325 5.72-.929 8.425.074-.003.148-.007.222-.007 2.806 0 5.427.845 7.662 2.306.393-19.375 15.057-34.953 33.09-34.953 17.97 0 32.596 15.47 33.083 34.757a6.247 6.247 0 0 1 3.205-.888c3.689 0 6.68 3.23 6.68 7.214a7.71 7.71 0 0 1-.323 2.208c4.115 1.131 7.843 3.307 10.931 6.25 2.588-3.824 6.77-6.308 11.492-6.308 5.045 0 9.472 2.84 11.999 7.117 4.457-7.262 12.09-12.055 20.762-12.055 13.747 0 24.893 12.04 24.893 26.894 0 3.205-.52 6.28-1.473 9.129a18.369 18.369 0 0 1 4.77-.635c10.803 0 19.56 9.554 19.56 21.224 0 .804.08 1.406.211 2.494H-91z" mask="url(#g)" opacity=".3"/><path fill="url(#i)" d="M431 155V47.157C436.234 42.091 442.84 39 450.232 39c15.673 0 28.406 13.893 28.406 31.034 0 1.117-.04 2.22-.145 3.307.252-.05.516-.08.783-.08 2.5 0 4.529 2.217 4.529 4.952 0 .73-.144 1.419-.403 2.04 12.007.481 21.608 11.274 21.608 24.522 0 1.993-.22 3.927-.63 5.783.05-.002.1-.005.15-.005 1.903 0 3.68.58 5.196 1.583.266-13.298 10.207-23.991 22.433-23.991 12.183 0 22.1 10.618 22.43 23.857a4.198 4.198 0 0 1 2.172-.61c2.501 0 4.529 2.217 4.529 4.952 0 .528-.078 1.038-.219 1.516 2.79.776 5.318 2.27 7.411 4.29 1.755-2.626 4.59-4.33 7.791-4.33 3.42 0 6.422 1.948 8.135 4.885 3.022-4.985 8.196-8.275 14.076-8.275 9.32 0 16.877 8.265 16.877 18.46 0 2.2-.353 4.31-.999 6.266a12.32 12.32 0 0 1 3.233-.436c7.325 0 13.262 6.558 13.262 14.568 0 .552.054.965.143 1.712H431z" mask="url(#g)" opacity=".3" transform="matrix(-1 0 0 1 1062 0)"/></g></svg>