<svg width="40" height="40" viewBox="0 0 40 40" fill="none" xmlns="http://www.w3.org/2000/svg">
<path opacity="0.15" d="M20 40C31.0457 40 40 31.0457 40 20C40 8.9543 31.0457 0 20 0C8.9543 0 0 8.9543 0 20C0 31.0457 8.9543 40 20 40Z" fill="#747784"/>
<g clip-path="url(#clip0_1728_6097)">
<path fill-rule="evenodd" clip-rule="evenodd" d="M13 23.0003V26.0003H27V23.0003H29V26.0003C29 27.1049 28.1046 28.0003 27 28.0003H13C11.8954 28.0003 11 27.1049 11 26.0003V23.0003H13ZM16.2075 17.0009C15.9314 17.0009 15.7075 16.777 15.7075 16.5009C15.7075 16.3683 15.7602 16.2412 15.8539 16.1474L19.2924 12.7081C19.6527 12.3475 20.22 12.3197 20.6123 12.6247L20.7065 12.7078C20.7065 12.7079 20.7066 12.7079 20.7065 12.708L24.1458 16.1473C24.3411 16.3426 24.3411 16.6592 24.1458 16.8545C24.0521 16.9482 23.9249 17.0009 23.7923 17.0009L21 17.0003V23.0003C21 23.5526 20.5523 24.0003 20 24.0003C19.4477 24.0003 19 23.5526 19 23.0003V17.0003L16.2075 17.0009Z" fill="#1C1B1F"/>
</g>
<defs>
<clipPath id="clip0_1728_6097">
<rect width="24" height="24" fill="white" transform="translate(8 8)"/>
</clipPath>
</defs>
</svg>
