<svg width="18" height="18" viewBox="0 0 18 18" fill="none" xmlns="http://www.w3.org/2000/svg">
<g clip-path="url(#clip0_1935_9421)">
<path fill-rule="evenodd" clip-rule="evenodd" d="M3.75 11.25L3.75 13.5L14.25 13.5V11.25H15.75V13.5C15.75 14.3284 15.0784 15 14.25 15L3.75 15C2.92157 15 2.25 14.3284 2.25 13.5L2.25 11.25H3.75ZM6.15563 6.75043C5.94852 6.75043 5.78063 6.58254 5.78063 6.37543C5.78063 6.27599 5.82013 6.18062 5.89043 6.1103L8.46928 3.53083C8.73955 3.26037 9.16496 3.23952 9.45921 3.46825L9.52987 3.53063C9.52989 3.53065 9.52992 3.53068 9.52987 3.53076L12.1094 6.11027C12.2558 6.25671 12.2558 6.49415 12.1094 6.6406C12.0391 6.71092 11.9437 6.75043 11.8442 6.75043L9.75 6.74997V11.25C9.75 11.6642 9.41421 12 9 12C8.58579 12 8.25 11.6642 8.25 11.25V6.74997L6.15563 6.75043Z" fill="#9EB2EB"/>
</g>
<defs>
<clipPath id="clip0_1935_9421">
<rect width="18" height="18" fill="white"/>
</clipPath>
</defs>
</svg>
