<svg width="24" height="24" viewBox="0 0 24 24" fill="none" xmlns="http://www.w3.org/2000/svg">
<g clip-path="url(#clip0_9_2090)">
<path d="M12 2C17.5228 2 22 6.47715 22 12C22 17.5228 17.5228 22 12 22C6.47715 22 2 17.5228 2 12C2 6.47715 6.47715 2 12 2ZM14.2029 16.0004H9.57797C10.091 17.324 10.859 18.6561 11.886 19.9985C12.9219 18.6561 13.6899 17.324 14.2029 16.0004ZM18.9291 16.0012L16.3263 16.0008C15.9357 17.1915 15.3711 18.3771 14.6343 19.5568C16.4545 18.9221 17.9766 17.6471 18.9291 16.0012ZM7.45456 16.0008L5.07093 16.0012C5.97285 17.5597 7.38551 18.7857 9.08002 19.4504C8.37612 18.3061 7.83344 17.1558 7.45456 16.0008ZM6.96309 10.0007L4.25187 10.0006C4.08745 10.6397 4 11.3096 4 12C4 12.6907 4.08754 13.361 4.25213 14.0004L6.96325 14.0003C6.85453 13.3349 6.8 12.6681 6.8 12C6.8 11.3322 6.85447 10.6657 6.96309 10.0007ZM14.7858 10.0002H8.99505C8.86484 10.6687 8.8 11.3352 8.8 12C8.8 12.6651 8.86491 13.3319 8.99524 14.0008H14.7856C14.916 13.3319 14.9809 12.6651 14.9809 12C14.9809 11.3352 14.916 10.6687 14.7858 10.0002ZM19.7481 10.0006L16.8178 10.0007C16.9264 10.6657 16.9809 11.3322 16.9809 12C16.9809 12.6681 16.9263 13.3349 16.8176 14.0003L19.7479 14.0004C19.9125 13.361 20 12.6907 20 12C20 11.3096 19.9126 10.6397 19.7481 10.0006ZM9.08089 4.54916L8.94032 4.60596C7.30753 5.28237 5.94735 6.48385 5.07035 7.99984L7.45423 8.00019C7.83312 6.84482 8.37592 5.69423 9.08089 4.54916ZM11.8948 4.00147C10.8587 5.34425 10.0906 6.6767 9.57759 8.00056H14.2033C13.6903 6.6767 12.9221 5.34425 11.8948 4.00147ZM14.6325 4.44321L14.7159 4.57515C15.4132 5.71163 15.9506 6.85356 16.3266 8.00019L18.9296 7.99984C17.9772 6.35346 16.4549 5.07801 14.6325 4.44321Z" fill="#1C1B1F"/>
</g>
<defs>
<clipPath id="clip0_9_2090">
<rect width="24" height="24" fill="white"/>
</clipPath>
</defs>
</svg>
