<svg width="48" height="48" viewBox="0 0 48 48" fill="none" xmlns="http://www.w3.org/2000/svg">
<g clip-path="url(#clip0_3469_45100)">
<path fill-rule="evenodd" clip-rule="evenodd" d="M37.475 21.325C36.2283 14.8563 30.6733 10 24 10C18.7017 10 14.1 13.075 11.8083 17.575C6.29 18.175 2 22.9563 2 28.75C2 34.9562 6.93167 40 13 40H36.8333C41.8933 40 46 35.8 46 30.625C46 25.675 42.2417 21.6625 37.475 21.325ZM36.6 36H13.2C9.222 36 6 32.7183 6 28.6667C6 24.9083 8.754 21.7733 12.408 21.3883L14.334 21.1867L15.234 19.445C16.944 16.09 20.292 14 24 14C28.716 14 32.784 17.41 33.702 22.1217L34.242 24.8717L36.996 25.0733C39.804 25.2567 42 27.6583 42 30.5C42 33.525 39.57 36 36.6 36ZM16.4142 28C15.8619 28 15.4142 27.5523 15.4142 27C15.4142 26.7348 15.5196 26.4804 15.7071 26.2929L22.5858 19.4142C23.3668 18.6332 24.6332 18.6332 25.4142 19.4142L32.2929 26.2929C32.6834 26.6834 32.6834 27.3166 32.2929 27.7071C32.1054 27.8946 31.851 28 31.5858 28H28V32C28 33.1046 27.1046 34 26 34H22C20.8954 34 20 33.1046 20 32V28H16.4142Z" fill="white" fill-opacity="0.4"/>
</g>
<defs>
<clipPath id="clip0_3469_45100">
<rect width="48" height="48" fill="white"/>
</clipPath>
</defs>
</svg>
