<svg width="40" height="40" viewBox="0 0 40 40" fill="none" xmlns="http://www.w3.org/2000/svg">
<path opacity="0.15" d="M20 40C31.0457 40 40 31.0457 40 20C40 8.9543 31.0457 0 20 0C8.9543 0 0 8.9543 0 20C0 31.0457 8.9543 40 20 40Z" fill="#43BC38"/>
<g clip-path="url(#clip0_3444_89584)">
<path fill-rule="evenodd" clip-rule="evenodd" d="M12.2071 20.1064C11.8166 20.4969 11.8166 21.1301 12.2071 21.5206L16.4573 25.7708C16.8387 26.1521 17.4641 26.1452 17.8547 25.7553L27.779 15.8482C28.1609 15.4669 28.1615 14.8482 27.7802 14.4662C27.3989 14.0843 26.7802 14.0837 26.3983 14.465C26.3983 14.465 26.3982 14.465 26.3982 14.465L17.1811 23.6662L13.6213 20.1064C13.2308 19.7158 12.5976 19.7158 12.2071 20.1064Z" fill="#43BC38"/>
</g>
<defs>
<clipPath id="clip0_3444_89584">
<rect width="24" height="24" fill="white" transform="translate(8 8)"/>
</clipPath>
</defs>
</svg>
