<svg width="40" height="40" viewBox="0 0 40 40" fill="none" xmlns="http://www.w3.org/2000/svg">
<path opacity="0.15" d="M20 40C31.0457 40 40 31.0457 40 20C40 8.9543 31.0457 0 20 0C8.9543 0 0 8.9543 0 20C0 31.0457 8.9543 40 20 40Z" fill="#E60000"/>
<g clip-path="url(#clip0_3444_89616)">
<path fill-rule="evenodd" clip-rule="evenodd" d="M24.9652 12.4426C24.581 12.0508 23.9534 12.0398 23.5558 12.418L20.0246 15.7768L16.6153 12.2994C16.2309 11.9074 15.603 11.8964 15.2051 12.2748C14.815 12.6459 14.7995 13.263 15.1706 13.6532C15.174 13.6568 15.1775 13.6603 15.1809 13.6638L18.5902 17.1412L15.059 20.5C14.6691 20.8709 14.6536 21.4877 15.0245 21.8776C15.0279 21.8812 15.0313 21.8847 15.0348 21.8883C15.419 22.2801 16.0466 22.2911 16.4442 21.9128L19.9754 18.554L23.3847 22.0314C23.7691 22.4235 24.397 22.4345 24.7949 22.0561C25.185 21.685 25.2005 21.0678 24.8294 20.6777C24.826 20.6741 24.8225 20.6706 24.8191 20.6671L21.4098 17.1897L24.941 13.8309C25.3309 13.46 25.3464 12.8432 24.9755 12.4532C24.9721 12.4497 24.9687 12.4461 24.9652 12.4426ZM13 26.0302H27V23.0753H29V25.9758C29 27.0938 28.0937 28.0001 26.9756 28.0001H13.0244C11.9063 28.0001 11 27.0938 11 25.9758V23.0753H13V26.0302Z" fill="#E60000"/>
</g>
<defs>
<clipPath id="clip0_3444_89616">
<rect width="24" height="24" fill="white" transform="translate(8 8)"/>
</clipPath>
</defs>
</svg>
