<svg width="16" height="16" viewBox="0 0 16 16" fill="none" xmlns="http://www.w3.org/2000/svg">
<path fill-rule="evenodd" clip-rule="evenodd" d="M8.00008 2.66602C5.05456 2.66601 2.66675 5.05383 2.66675 7.99935C2.66675 10.9449 5.05456 13.3327 8.00008 13.3327C10.9456 13.3327 13.3334 10.9449 13.3334 7.99935C13.3334 5.05383 10.9456 2.66602 8.00008 2.66602ZM8.00008 1.33268C4.31818 1.33268 1.33341 4.31745 1.33341 7.99935C1.33341 11.6812 4.31818 14.666 8.00008 14.666C11.682 14.666 14.6667 11.6812 14.6667 7.99935C14.6667 4.31745 11.682 1.33268 8.00008 1.33268ZM8.66675 10.666C8.66675 11.0342 8.36827 11.3327 8.00008 11.3327C7.63189 11.3327 7.33341 11.0342 7.33341 10.666L7.33342 7.33268C7.33342 6.96449 7.63189 6.66601 8.00008 6.66601C8.36827 6.66601 8.66675 6.96449 8.66675 7.33268L8.66675 10.666ZM8.00008 4.66602C7.63189 4.66602 7.33341 4.96449 7.33341 5.33268C7.33341 5.70087 7.63189 5.99935 8.00008 5.99935C8.36827 5.99935 8.66675 5.70087 8.66675 5.33268C8.66675 4.96449 8.36827 4.66602 8.00008 4.66602Z" fill="white" fill-opacity="0.4"/>
</svg>
