<svg width="16" height="16" viewBox="0 0 16 16" fill="none" xmlns="http://www.w3.org/2000/svg">
<g clip-path="url(#clip0_2439_13890)">
<path fill-rule="evenodd" clip-rule="evenodd" d="M7.99984 2.66602C5.05432 2.66601 2.6665 5.05383 2.6665 7.99935C2.6665 10.9449 5.05432 13.3327 7.99984 13.3327C10.9454 13.3327 13.3332 10.9449 13.3332 7.99935C13.3332 5.05383 10.9454 2.66602 7.99984 2.66602ZM7.99984 1.33268C4.31794 1.33268 1.33317 4.31745 1.33317 7.99935C1.33317 11.6812 4.31794 14.666 7.99984 14.666C11.6817 14.666 14.6665 11.6812 14.6665 7.99935C14.6665 4.31745 11.6817 1.33268 7.99984 1.33268ZM8.6665 10.666C8.6665 11.0342 8.36803 11.3327 7.99984 11.3327C7.63165 11.3327 7.33317 11.0342 7.33317 10.666L7.33317 7.33268C7.33317 6.96449 7.63165 6.66601 7.99984 6.66601C8.36803 6.66601 8.6665 6.96449 8.6665 7.33268L8.6665 10.666ZM7.99984 4.66602C7.63165 4.66602 7.33317 4.96449 7.33317 5.33268C7.33317 5.70087 7.63165 5.99935 7.99984 5.99935C8.36803 5.99935 8.6665 5.70087 8.6665 5.33268C8.6665 4.96449 8.36803 4.66602 7.99984 4.66602Z" fill="#1C1B1F" fill-opacity="0.5"/>
</g>
<defs>
<clipPath id="clip0_2439_13890">
<rect width="16" height="16" fill="white"/>
</clipPath>
</defs>
</svg>
