<svg width="150" height="150" viewBox="0 0 150 150" fill="none" xmlns="http://www.w3.org/2000/svg">
<g opacity="0.06">
<path d="M96.6898 18C67.971 18 44.6898 41.2812 44.6898 70C44.6898 98.7188 67.971 122 96.6898 122C125.409 122 148.69 98.7188 148.69 70C148.69 41.2812 125.409 18 96.6898 18Z" fill="#1C1B1F"/>
<path d="M38.2849 21.98C22.7877 21.98 10.2248 34.5429 10.2248 50.04C10.2248 65.5371 22.7877 78.1 38.2849 78.1C53.782 78.1 66.3448 65.5371 66.3449 50.04C66.3449 34.5429 53.782 21.98 38.2849 21.98Z" fill="#1C1B1F"/>
<path d="M41.045 51.91C18.9287 51.91 0.999975 69.8388 0.999973 91.955C0.999971 114.071 18.9287 132 41.045 132C63.1612 132 81.09 114.071 81.09 91.955C81.09 69.8388 63.1612 51.91 41.045 51.91Z" fill="#1C1B1F"/>
</g>
<rect x="18" y="36" width="114" height="77.5" rx="12" fill="#9799A3"/>
<rect x="24" y="41.5002" width="102" height="66" rx="8" fill="#B9BBC1"/>
<rect x="29" y="64" width="92" height="39" rx="4" fill="#DCDDE0"/>
<rect width="92" height="10.5" rx="4" transform="matrix(1 0 0 -1 29 57)" fill="#DCDDE0"/>
<path d="M125.126 120.25C132.927 120.25 139.251 113.926 139.251 106.125C139.251 98.324 132.927 92 125.126 92C117.325 92 111.001 98.324 111.001 106.125C111.001 113.926 117.325 120.25 125.126 120.25Z" fill="#515565"/>
<path d="M125.019 110.185C124.224 110.185 123.579 109.54 123.579 108.745V107.88C123.579 106.215 124.464 104.655 125.944 103.72C126.429 103.41 126.889 102.77 126.719 101.89C126.589 101.23 126.039 100.68 125.384 100.55C124.844 100.445 124.324 100.575 123.919 100.91C123.519 101.24 123.284 101.73 123.284 102.25C123.284 103.045 122.639 103.69 121.844 103.69C121.049 103.69 120.404 103.045 120.404 102.25C120.404 100.865 121.014 99.5699 122.084 98.6899C123.154 97.8099 124.554 97.4599 125.929 97.7249C127.739 98.0749 129.189 99.5299 129.544 101.34C129.914 103.235 129.104 105.125 127.484 106.15C126.839 106.56 126.454 107.205 126.454 107.88V108.745C126.454 109.54 125.809 110.185 125.014 110.185H125.019Z" fill="white"/>
<path d="M125.019 114.43C125.917 114.43 126.644 113.702 126.644 112.805C126.644 111.907 125.917 111.18 125.019 111.18C124.122 111.18 123.394 111.907 123.394 112.805C123.394 113.702 124.122 114.43 125.019 114.43Z" fill="white"/>
<circle cx="33.5" cy="52" r="2" fill="white"/>
<circle cx="40.5" cy="52" r="2" fill="white"/>
<circle cx="47.5" cy="52" r="2" fill="white"/>
</svg>
