<svg width="150" height="150" viewBox="0 0 150 150" fill="none" xmlns="http://www.w3.org/2000/svg">
<g opacity="0.05">
<path d="M96.6898 18C67.971 18 44.6898 41.2812 44.6898 70C44.6898 98.7188 67.971 122 96.6898 122C125.409 122 148.69 98.7188 148.69 70C148.69 41.2812 125.409 18 96.6898 18Z" fill="white"/>
<path d="M38.2849 21.98C22.7877 21.98 10.2248 34.5429 10.2248 50.04C10.2248 65.5371 22.7877 78.1 38.2849 78.1C53.782 78.1 66.3448 65.5371 66.3449 50.04C66.3449 34.5429 53.782 21.98 38.2849 21.98Z" fill="white"/>
<path d="M41.045 51.91C18.9287 51.91 0.999975 69.8388 0.999973 91.955C0.999971 114.071 18.9287 132 41.045 132C63.1612 132 81.09 114.071 81.09 91.955C81.09 69.8388 63.1612 51.91 41.045 51.91Z" fill="white"/>
</g>
<rect x="18" y="36" width="114" height="77.5" rx="12" fill="#515565"/>
<rect x="24" y="41.5" width="102" height="66" rx="8" fill="#414451"/>
<rect x="29" y="64" width="92" height="39" rx="4" fill="#747784"/>
<rect width="92" height="10.5" rx="4" transform="matrix(1 0 0 -1 29 57)" fill="#747784"/>
<circle cx="34" cy="52" r="2" fill="#414451"/>
<circle cx="41" cy="52" r="2" fill="#414451"/>
<circle cx="48" cy="52" r="2" fill="#414451"/>
<path d="M125.126 126.25C132.927 126.25 139.251 119.926 139.251 112.125C139.251 104.324 132.927 98 125.126 98C117.325 98 111.001 104.324 111.001 112.125C111.001 119.926 117.325 126.25 125.126 126.25Z" fill="#DCDDE0"/>
<path d="M125.019 116.685C124.224 116.685 123.579 116.04 123.579 115.245V114.38C123.579 112.715 124.464 111.155 125.944 110.22C126.429 109.91 126.889 109.27 126.719 108.39C126.589 107.73 126.039 107.18 125.384 107.05C124.844 106.945 124.324 107.075 123.919 107.41C123.519 107.74 123.284 108.23 123.284 108.75C123.284 109.545 122.639 110.19 121.844 110.19C121.049 110.19 120.404 109.545 120.404 108.75C120.404 107.365 121.014 106.07 122.084 105.19C123.154 104.31 124.554 103.96 125.929 104.225C127.739 104.575 129.189 106.03 129.544 107.84C129.914 109.735 129.104 111.625 127.484 112.65C126.839 113.06 126.454 113.705 126.454 114.38V115.245C126.454 116.04 125.809 116.685 125.014 116.685H125.019Z" fill="#414451"/>
<path d="M125.019 120.93C125.917 120.93 126.644 120.202 126.644 119.305C126.644 118.407 125.917 117.68 125.019 117.68C124.122 117.68 123.394 118.407 123.394 119.305C123.394 120.202 124.122 120.93 125.019 120.93Z" fill="#414451"/>
</svg>
