<svg width="20" height="20" viewBox="0 0 20 20" fill="none" xmlns="http://www.w3.org/2000/svg">
<path fill-rule="evenodd" clip-rule="evenodd" d="M8.58583 11.4142L7.18884 10.0172C6.39828 9.22666 6.39828 7.9449 7.18884 7.15434L12.8112 1.53194C13.6018 0.74138 14.8836 0.74138 15.6741 1.53194L18.4681 4.32591C19.2587 5.11648 19.2587 6.39823 18.4681 7.1888L15.6655 9.99138C15.2702 10.3867 14.6293 10.3867 14.2341 9.99138L13.5363 9.2936L17.0711 5.75735L14.2427 2.92893L8.58583 8.58578L10 10L8.58583 11.4142ZM7.18885 18.468C6.39828 19.2586 5.11652 19.2586 4.32596 18.468L1.53199 15.6741C0.741426 14.8835 0.741427 13.6018 1.53199 12.8112L4.33457 10.0086C4.72985 9.61333 5.37073 9.61333 5.76602 10.0086L6.46592 10.7071L2.92897 14.2426L5.7574 17.0711L11.4143 11.4142L10 10L11.4143 8.58578L12.8112 9.98277C13.6018 10.7733 13.6018 12.0551 12.8112 12.8457L7.18885 18.468Z" fill="#1C1B1F"/>
</svg>
