<svg width="22" height="20" xmlns="http://www.w3.org/2000/svg"><path d="M9.821 19.094h.08a.247.247 0 0 0 .255-.245c0-.108-.08-.246-.223-.246h-.08l-.175-.03c-2.95-.552-5.134-3.083-5.134-6.044 0-1.258.399-2.454 1.084-3.42.112-.139.287-.246.478-.077l4.656 4.54c.032.03.112.077.175.077.08 0 .144-.03.176-.077l4.687-4.51c.175-.168.335-.138.43.031a5.961 5.961 0 0 1 1.085 3.42c0 1.58-.622 3.007-1.642 4.096l-.112.108c0 .03-.032.076-.032.107 0 .138.112.245.255.245h.032c.032 0 .08-.03.112-.03 6.218-2.516 5.93-8.467 5.93-8.467 0-3.39-1.673-6.443-4.256-8.36-.112-.077-.287-.077-.367.03l-6.106 5.952a.287.287 0 0 1-.399 0L4.576.242a.28.28 0 0 0-.367-.03C1.674 2.129 0 5.136 0 8.572c0 5.46 4.289 9.97 9.821 10.522" fill="#0D3ECC" fill-rule="nonzero"/></svg>