<svg xmlns="http://www.w3.org/2000/svg" width="377" height="29"><g fill="none" fill-rule="evenodd"><text fill="#141519" font-family="graphik-web, Graphik, sans-serif" font-size="26" opacity=".8">
            <tspan x="197" y="23">Browser Guard</tspan>
        </text><path d="m117.8 7.614-.097.038V.457c0-.171-.137-.305-.313-.267l-2.05.305c-.136 0-.214.133-.214.266v20.957c0 .134.097.267.215.267 1.776.4 4.002.57 5.388.57 5.876 0 6.677-2.74 6.677-5.729v-5.52c0-3.16-1.562-4.777-4.588-4.777-2.187 0-4.002.57-5.018 1.085zm6.99 3.616v5.692c0 2.132-.664 3.426-3.866 3.426-1.074 0-2.128-.095-3.163-.21h-.039V9.955h.04c.936-.438 2.889-1.18 4.412-1.18 1.796-.02 2.616.761 2.616 2.455zm6.052-4.397h-1.953a.285.285 0 0 0-.273.343l4.94 14.847c.038.133.136.171.273.171h.585c.176 0 .313.172.274.343l-1.953 5.558a.285.285 0 0 0 .274.343h1.815c.137 0 .215-.096.274-.172l2.186-6.034L142.4 7.176a.285.285 0 0 0-.273-.343h-1.952c-.137 0-.215.096-.274.172l-4.139 12.543c-.097.267-.449.267-.527 0l-4.06-12.543c-.118-.076-.215-.172-.332-.172zm24.384 5.425v4.645c0 3.864 1.952 5.634 6.227 5.634 1.816 0 3.827-.305 5.291-.78a.244.244 0 0 0 .176-.305l-.274-1.485c-.039-.171-.175-.266-.351-.21-1.738.439-3.3.648-4.666.648-3.3 0-3.865-1.123-3.865-3.521v-1.085c0-.172.136-.267.273-.267h8.902a.263.263 0 0 0 .274-.266V12.39c0-3.902-1.914-5.767-5.916-5.767-3.982-.095-6.071 1.827-6.071 5.634zm2.577-.171c0-2.38 1.112-3.426 3.553-3.426 2.401 0 3.377.99 3.377 3.426v1.085c0 .171-.136.266-.273.266h-6.404a.263.263 0 0 1-.273-.266v-1.085h.02zm17.141 1.351c-2.675-.647-2.753-.951-2.753-2.74 0-1.485.41-2 2.753-2 1.112 0 2.713.134 4.06.4.176.039.313-.095.313-.266l.136-1.523a.336.336 0 0 0-.214-.304c-1.25-.305-2.753-.476-4.178-.476-3.963 0-5.428 1.123-5.428 4.13 0 3.16.352 3.96 4.276 4.911 3.163.743 3.377.914 3.377 2.684 0 1.656-.41 2.17-3.026 2.17-1.25 0-2.85-.21-4.178-.514-.175-.038-.312.038-.351.21l-.273 1.427a.244.244 0 0 0 .175.305c1.289.437 3.241.742 4.764.742 4.588 0 5.427-1.485 5.427-4.435.02-3.293-.605-3.674-4.88-4.72zM54.351 22.08 51.501 7.1a.285.285 0 0 1 .273-.343h3.163c.137 0 .273.095.273.21l1.699 9.022c.039.305.449.305.527.038l2.753-9.08c.039-.133.136-.209.273-.209h3.748c.137 0 .215.095.274.21l2.752 9.079c.098.267.489.267.528-.038l1.698-9.022c.04-.134.137-.21.273-.21h3.163c.176 0 .312.172.273.343l-2.87 14.98c-.039.133-.136.21-.273.21H65.89c-.136 0-.214-.096-.273-.21L62.59 12.01c-.098-.266-.449-.266-.527 0l-3.026 10.07c-.04.133-.137.21-.273.21h-4.14c-.136 0-.234-.077-.273-.21zm-4.587-2.646c-1.426 0-1.875-.609-1.875-2.341V1.409c0-.172-.136-.305-.312-.267l-3.436.476c-.137 0-.215.133-.215.266v15.628c0 3.521 2.187 5.082 5.115 5.082.313 0 1.328-.038 1.913-.095.137 0 .274-.133.274-.267v-2.474c0-.172-.137-.267-.313-.267-.39-.057-.917-.057-1.151-.057zm48.299-9.289c-1.425.61-2.577 1.257-3.866 2.075a.222.222 0 0 0-.136.21v9.593c0 .171-.137.266-.274.266h-3.436a.263.263 0 0 1-.273-.266V7.576c0-.134.098-.267.215-.267l2.85-.476c.176-.038.313.096.313.21l.136.99c.04.209.274.304.45.17.897-.57 2.322-1.293 3.474-1.693.176-.038.352.038.352.21l.312 3.045c.059.19-.02.285-.117.38zm53.063 10.279c-1.601 0-1.699-.685-1.699-1.77V9.232c0-.172.137-.267.274-.267h3.748c.137 0 .273-.095.273-.266l.176-1.523c0-.171-.137-.305-.273-.305H149.7a.263.263 0 0 1-.274-.266V3.026c0-.17-.136-.304-.312-.266l-2.05.305c-.137 0-.215.133-.215.266v3.293c0 .171-.136.266-.273.266h-2.226a.263.263 0 0 0-.273.267V8.68c0 .171.137.266.273.266h2.226c.176 0 .273.133.273.267v9.821c0 2.475 1.113 3.465 3.866 3.465.625 0 1.25-.038 1.874-.172.137-.038.215-.133.215-.266v-1.523c0-.171-.176-.304-.313-.266a6.135 6.135 0 0 1-1.366.152zM109.6 6.929c-.839-.343-1.912-.571-3.298-.571-1.562 0-2.753.266-3.69.685-2.187 1.047-2.89 3.083-2.89 5.33v4.13c0 3.655 1.64 5.9 6.404 5.996h1.113c1.288 0 2.635-.133 3.865-.305.137-.038.273-.171.215-.304v-.134l-.312-2.131c-1.21.133-2.265.17-3.476.17-2.928 0-3.826-.818-3.826-2.569V15.99h8.59a.263.263 0 0 0 .273-.267V12.64c-.039-2.494-.644-4.72-2.967-5.71zm-.585 6.167c0 .171-.136.266-.273.266h-5.076v-1.351c0-1.485.664-2.475 2.636-2.475.214 0 .449 0 .663.038 1.465.21 2.05 1.18 2.05 2.437v1.085zM12.026 24.935h.098a.305.305 0 0 0 .312-.304c0-.134-.098-.305-.273-.305h-.098l-.215-.038c-3.611-.685-6.286-3.826-6.286-7.5a7.42 7.42 0 0 1 1.328-4.244c.136-.172.351-.305.585-.095l5.7 5.634a.371.371 0 0 0 .216.095c.097 0 .175-.038.214-.095l5.74-5.596c.215-.21.41-.172.527.038a7.466 7.466 0 0 1 1.328 4.244c0 1.96-.762 3.731-2.011 5.083l-.137.133c0 .038-.039.095-.039.133 0 .171.137.305.313.305h.039c.039 0 .097-.038.136-.038 7.614-3.122 7.263-10.507 7.263-10.507 0-4.207-2.05-7.995-5.213-10.374-.137-.095-.351-.095-.449.038l-7.477 7.385a.348.348 0 0 1-.488 0L5.603 1.542a.34.34 0 0 0-.449-.038C2.05 3.883 0 7.614 0 11.878c0 6.776 5.252 12.372 12.026 13.057m21.67-18.482c-1.386 0-2.85.095-4.236.304-.137.038-.273.172-.215.305l.312 2.341c.04.133.137.267.313.267a29.456 29.456 0 0 1 3.436-.172c2.928 0 3.826.819 3.826 2.57v1.047c0 .171-.136.266-.273.266h-3.69c-3.24 0-5.173 1.6-5.173 4.511 0 2.684 2.128 4.607 5.349 4.607 2.01 0 2.811-.305 3.475-.914.176-.171.488-.038.488.171v.21c0 .171.137.266.273.266h3.241a.263.263 0 0 0 .273-.266v-9.784c.04-3.864-2.713-5.73-7.399-5.73zm3.475 10.069c0 1.96-1.327 3.255-3.475 3.255-1.64 0-2.499-.61-2.499-1.866 0-1.39.898-1.96 2.5-1.96h3.162c.176 0 .273.133.273.266v.305h.04zM79.81 6.453c-1.387 0-2.851.095-4.237.304-.137.038-.274.172-.215.305l.312 2.341c.04.133.137.267.313.267a29.456 29.456 0 0 1 3.436-.172c2.928 0 3.826.819 3.826 2.57v1.047c0 .171-.137.266-.273.266h-3.69c-3.24 0-5.174 1.6-5.174 4.511 0 2.684 2.128 4.607 5.35 4.607 2.01 0 2.811-.305 3.475-.914.175-.171.488-.038.488.171v.21c0 .171.136.266.273.266h3.24a.263.263 0 0 0 .274-.266v-9.784c.098-3.864-2.713-5.73-7.399-5.73zm3.474 10.069c0 1.96-1.327 3.255-3.475 3.255-1.64 0-2.499-.61-2.499-1.866 0-1.39.898-1.96 2.5-1.96h3.162c.176 0 .273.133.273.266v.305h.04z" fill="#0D3ECC" fill-rule="nonzero"/><path fill="#ABAEBC" d="M188 0h1v29h-1z"/></g></svg>