<svg width="300" height="300" viewBox="0 0 300 300" fill="none" xmlns="http://www.w3.org/2000/svg">
<path opacity="0.15" fill-rule="evenodd" clip-rule="evenodd" d="M63.8801 182.957C58.9924 191.282 56.1899 200.978 56.1899 211.33C56.1899 242.324 81.3157 267.45 112.31 267.45C135.482 267.45 155.375 253.405 163.939 233.364C171.718 235.461 179.898 236.58 188.34 236.58C239.984 236.58 281.85 194.714 281.85 143.07C281.85 91.4257 239.984 49.5598 188.34 49.5598C172.128 49.5598 156.88 53.6854 143.588 60.944C130.965 50.6338 114.84 44.4498 97.27 44.4498C56.8041 44.4498 24 77.2539 24 117.72C24 146.159 40.2025 170.814 63.8801 182.957Z" fill="#FFCC28"/>
<rect x="61" y="139" width="178" height="59" fill="#ECB917"/>
<path d="M195.272 60.7517L150 86.8617L238.719 138.032L277.992 115.387C280.661 113.847 280.661 109.995 277.992 108.456L195.272 60.7517Z" fill="#FFDE77"/>
<path d="M104.719 60.7517L150.001 86.8617L61.2724 138.032L22.0079 115.387C19.3391 113.847 19.3391 109.996 22.0078 108.457L104.719 60.7517Z" fill="#FFDE77"/>
<path fill-rule="evenodd" clip-rule="evenodd" d="M149.706 87.0422L149.706 157.372L61.001 208.534L61.001 138.204L149.706 87.0422Z" fill="#E4AE02"/>
<path fill-rule="evenodd" clip-rule="evenodd" d="M149.706 87.1955L149.706 157.526L149.986 157.364L238.706 208.534L238.706 138.204L149.986 87.0337L149.706 87.1955Z" fill="#FFCC28"/>
<path fill-rule="evenodd" clip-rule="evenodd" d="M150.001 259.525V189.194L238.706 138.033V208.363L150.001 259.525Z" fill="#E4AE02"/>
<path fill-rule="evenodd" clip-rule="evenodd" d="M150.001 259.371V189.041L149.72 189.203L61.001 138.033V208.363L149.72 259.533L150.001 259.371Z" fill="#FFCC28"/>
<path d="M100.723 213.012C103.196 214.438 106.242 214.438 108.716 213.012L150.001 189.207L61.2724 138.037L22.0079 160.682C19.3391 162.221 19.3391 166.072 22.0078 167.612L100.723 213.012Z" fill="#FFDE77"/>
<path d="M199.269 213.012C196.796 214.438 193.749 214.438 191.276 213.012L150 189.207L238.719 138.037L277.992 160.682C280.661 162.221 280.661 166.073 277.992 167.612L199.269 213.012Z" fill="#FFDE77"/>
<path d="M237.036 265.96C252.638 265.96 265.286 253.312 265.286 237.71C265.286 222.108 252.638 209.46 237.036 209.46C221.434 209.46 208.786 222.108 208.786 237.71C208.786 253.312 221.434 265.96 237.036 265.96Z" fill="#0C54C0"/>
<path d="M237.251 245.503C235.368 245.503 233.841 247.029 233.841 248.913C233.841 250.796 235.368 252.323 237.251 252.323C239.134 252.323 240.661 250.796 240.661 248.913C240.661 247.029 239.134 245.503 237.251 245.503Z" fill="white"/>
<path d="M233.841 238.663C233.841 240.546 235.366 242.073 237.246 242.073C239.127 242.073 240.651 240.546 240.651 238.663L240.651 226.952C240.651 225.069 239.127 223.542 237.246 223.542C235.366 223.542 233.841 225.069 233.841 226.952L233.841 238.663Z" fill="white"/>
</svg>
