<svg width="454" height="140" viewBox="0 0 454 140" fill="none" xmlns="http://www.w3.org/2000/svg">
<g clip-path="url(#clip0_711_15914)">
<path d="M0 3.2C0 2.0799 0 1.51984 0.217987 1.09202C0.409734 0.715695 0.715695 0.409734 1.09202 0.217987C1.51984 0 2.0799 0 3.2 0H444.8C445.92 0 446.48 0 446.908 0.217987C447.284 0.409734 447.59 0.715695 447.782 1.09202C448 1.51984 448 2.0799 448 3.2V36.8C448 37.9201 448 38.4802 447.782 38.908C447.59 39.2843 447.284 39.5903 446.908 39.782C446.48 40 445.92 40 444.8 40H3.20002C2.0799 40 1.51984 40 1.09202 39.782C0.715695 39.5903 0.409734 39.2843 0.217987 38.908C0 38.4802 0 37.9201 0 36.8V3.2Z" fill="white"/>
<rect width="448" height="40" fill="#F6F7F7"/>
<path d="M34.9999 19H23.8299L28.7099 14.12C29.0999 13.73 29.0999 13.09 28.7099 12.7C28.3199 12.31 27.6899 12.31 27.2999 12.7L20.7099 19.29C20.3199 19.68 20.3199 20.31 20.7099 20.7L27.2999 27.29C27.6899 27.68 28.3199 27.68 28.7099 27.29C29.0999 26.9 29.0999 26.27 28.7099 25.88L23.8299 21H34.9999C35.5499 21 35.9999 20.55 35.9999 20C35.9999 19.45 35.5499 19 34.9999 19Z" fill="#6B6C6E"/>
<path d="M56.7599 21H67.9299L63.0499 25.88C62.6599 26.27 62.6599 26.91 63.0499 27.3C63.4399 27.69 64.0699 27.69 64.4599 27.3L71.0499 20.71C71.4399 20.32 71.4399 19.69 71.0499 19.3L64.4699 12.7C64.0799 12.31 63.4499 12.31 63.0599 12.7C62.6699 13.09 62.6699 13.72 63.0599 14.11L67.9299 19H56.7599C56.2099 19 55.7599 19.45 55.7599 20C55.7599 20.55 56.2099 21 56.7599 21Z" fill="#6B6C6E"/>
<path d="M105.279 14.7055C103.751 13.1776 101.586 12.2965 99.2053 12.5402C95.7653 12.887 92.9346 15.6803 92.5503 19.1203C92.0348 23.6663 95.5498 27.5 99.9833 27.5C102.973 27.5 105.542 25.7472 106.741 23.2258C107.041 22.5978 106.591 21.876 105.898 21.876C105.551 21.876 105.223 22.0635 105.073 22.3728C104.014 24.6505 101.474 26.094 98.6992 25.4754C96.6183 25.0161 94.9405 23.3195 94.4999 21.2386C93.7126 17.6018 96.4777 14.3774 99.9833 14.3774C101.539 14.3774 102.927 15.0242 103.939 16.0458L102.523 17.4612C101.933 18.0517 102.345 19.064 103.18 19.064H106.545C107.06 19.064 107.482 18.6422 107.482 18.1267V14.7617C107.482 13.9275 106.47 13.5057 105.879 14.0962L105.279 14.7055Z" fill="#6B6C6E"/>
<g opacity="0.6">
<rect x="128" y="4" width="264" height="32" rx="16" fill="#E5E6E8"/>
</g>
<rect x="408" y="8" width="24" height="24" rx="4" fill="#E5E6E8"/>
<path d="M426.924 18.8584H425.855V14.1448H421.142V13.0763C421.142 12.0472 420.403 11.1123 419.382 11.0102C418.203 10.8924 417.214 11.8115 417.214 12.9663V14.1448H412.508V18.7012H413.6C414.629 18.7012 415.564 19.3926 415.76 20.3982C416.02 21.7494 414.99 22.9435 413.678 22.9435H412.5V27.5H417.056V26.4002C417.056 25.371 417.748 24.4361 418.753 24.2397C420.105 23.9805 421.299 25.0096 421.299 26.3216V27.5H425.855V22.7864H427.034C428.188 22.7864 429.108 21.7965 428.99 20.6181C428.888 19.5968 427.945 18.8584 426.924 18.8584Z" fill="#1C1B1F" fill-opacity="0.5"/>
</g>
<g filter="url(#filter0_dd_711_15914)">
<g filter="url(#filter1_dd_711_15914)">
<rect x="172" y="46" width="270" height="40" rx="4" fill="white"/>
<path fill-rule="evenodd" clip-rule="evenodd" d="M191.239 73.5C191.261 73.5 191.261 73.5 191.294 73.5C191.392 73.5 191.469 73.4235 191.469 73.325C191.469 73.2485 191.414 73.1501 191.316 73.1501H191.261L191.141 73.1282C189.117 72.7345 187.618 70.9302 187.618 68.8197C187.618 67.923 187.891 67.07 188.362 66.3811C188.438 66.2827 188.559 66.2061 188.69 66.3264L191.884 69.5633C191.906 69.5852 191.961 69.618 192.005 69.618C192.059 69.618 192.103 69.5961 192.125 69.5633L195.341 66.3483C195.462 66.228 195.571 66.2499 195.637 66.3702C196.107 67.07 196.381 67.912 196.381 68.8087C196.381 69.9351 195.954 70.9521 195.254 71.7285C195.232 71.7503 195.199 71.7832 195.177 71.805C195.177 71.8269 195.155 71.8597 195.155 71.8816C195.155 71.98 195.232 72.0565 195.33 72.0565H195.352C195.374 72.0565 195.407 72.0347 195.429 72.0347C199.696 70.2413 199.499 65.9984 199.499 65.9984C199.499 63.5817 198.35 61.4055 196.578 60.0386C196.501 59.9839 196.381 59.9839 196.326 60.0605L192.136 64.3034C192.059 64.3799 191.939 64.3799 191.863 64.3034L187.64 60.0605C187.563 59.9839 187.465 59.9839 187.388 60.0386C185.649 61.4055 184.5 63.5489 184.5 65.9984C184.5 69.8913 187.443 73.1063 191.239 73.5Z" fill="#1C1B1F"/>
<path d="M213.572 61.0469H214.851L218.111 69.1611L221.365 61.0469H222.65L218.604 71H217.605L213.572 61.0469ZM213.155 61.0469H214.283L214.468 67.1172V71H213.155V61.0469ZM221.933 61.0469H223.061V71H221.748V67.1172L221.933 61.0469ZM229.798 69.7354V65.9277C229.798 65.6361 229.739 65.3831 229.62 65.1689C229.506 64.9502 229.333 64.7816 229.101 64.6631C228.868 64.5446 228.581 64.4854 228.239 64.4854C227.92 64.4854 227.64 64.54 227.398 64.6494C227.161 64.7588 226.975 64.9023 226.838 65.0801C226.706 65.2578 226.64 65.4492 226.64 65.6543H225.375C225.375 65.39 225.443 65.1279 225.58 64.8682C225.717 64.6084 225.913 64.3737 226.168 64.1641C226.428 63.9499 226.738 63.7812 227.098 63.6582C227.462 63.5306 227.868 63.4668 228.314 63.4668C228.852 63.4668 229.326 63.5579 229.736 63.7402C230.151 63.9225 230.475 64.1982 230.707 64.5674C230.944 64.932 231.062 65.39 231.062 65.9414V69.3867C231.062 69.6328 231.083 69.8949 231.124 70.1729C231.17 70.4508 231.236 70.6901 231.322 70.8906V71H230.003C229.939 70.8542 229.889 70.6605 229.853 70.4189C229.816 70.1729 229.798 69.945 229.798 69.7354ZM230.017 66.5156L230.03 67.4043H228.752C228.392 67.4043 228.071 67.4339 227.788 67.4932C227.506 67.5479 227.269 67.6322 227.077 67.7461C226.886 67.86 226.74 68.0036 226.64 68.1768C226.539 68.3454 226.489 68.5436 226.489 68.7715C226.489 69.0039 226.542 69.2158 226.646 69.4072C226.751 69.5986 226.909 69.7513 227.118 69.8652C227.332 69.9746 227.594 70.0293 227.904 70.0293C228.292 70.0293 228.633 69.9473 228.93 69.7832C229.226 69.6191 229.461 69.4186 229.634 69.1816C229.812 68.9447 229.907 68.7145 229.921 68.4912L230.461 69.0996C230.429 69.291 230.342 69.5029 230.201 69.7354C230.06 69.9678 229.871 70.1911 229.634 70.4053C229.401 70.6149 229.123 70.7904 228.8 70.9316C228.481 71.0684 228.121 71.1367 227.72 71.1367C227.218 71.1367 226.779 71.0387 226.4 70.8428C226.027 70.6468 225.735 70.3848 225.525 70.0566C225.32 69.724 225.218 69.3525 225.218 68.9424C225.218 68.5459 225.295 68.1973 225.45 67.8965C225.605 67.5911 225.828 67.3382 226.12 67.1377C226.412 66.9326 226.763 66.7777 227.173 66.6729C227.583 66.568 228.041 66.5156 228.547 66.5156H230.017ZM234.676 60.5V71H233.404V60.5H234.676ZM238.829 69.6875L240.729 63.6035H241.563L241.399 64.8135L239.465 71H238.651L238.829 69.6875ZM237.551 63.6035L239.171 69.7559L239.287 71H238.433L236.286 63.6035H237.551ZM243.382 69.708L244.927 63.6035H246.185L244.038 71H243.19L243.382 69.708ZM241.748 63.6035L243.607 69.585L243.819 71H243.013L241.023 64.7998L240.859 63.6035H241.748ZM252.095 69.7354V65.9277C252.095 65.6361 252.035 65.3831 251.917 65.1689C251.803 64.9502 251.63 64.7816 251.397 64.6631C251.165 64.5446 250.878 64.4854 250.536 64.4854C250.217 64.4854 249.937 64.54 249.695 64.6494C249.458 64.7588 249.271 64.9023 249.135 65.0801C249.003 65.2578 248.937 65.4492 248.937 65.6543H247.672C247.672 65.39 247.74 65.1279 247.877 64.8682C248.014 64.6084 248.21 64.3737 248.465 64.1641C248.725 63.9499 249.035 63.7812 249.395 63.6582C249.759 63.5306 250.165 63.4668 250.611 63.4668C251.149 63.4668 251.623 63.5579 252.033 63.7402C252.448 63.9225 252.771 64.1982 253.004 64.5674C253.241 64.932 253.359 65.39 253.359 65.9414V69.3867C253.359 69.6328 253.38 69.8949 253.421 70.1729C253.466 70.4508 253.533 70.6901 253.619 70.8906V71H252.3C252.236 70.8542 252.186 70.6605 252.149 70.4189C252.113 70.1729 252.095 69.945 252.095 69.7354ZM252.313 66.5156L252.327 67.4043H251.049C250.689 67.4043 250.368 67.4339 250.085 67.4932C249.802 67.5479 249.565 67.6322 249.374 67.7461C249.183 67.86 249.037 68.0036 248.937 68.1768C248.836 68.3454 248.786 68.5436 248.786 68.7715C248.786 69.0039 248.839 69.2158 248.943 69.4072C249.048 69.5986 249.205 69.7513 249.415 69.8652C249.629 69.9746 249.891 70.0293 250.201 70.0293C250.589 70.0293 250.93 69.9473 251.227 69.7832C251.523 69.6191 251.757 69.4186 251.931 69.1816C252.108 68.9447 252.204 68.7145 252.218 68.4912L252.758 69.0996C252.726 69.291 252.639 69.5029 252.498 69.7354C252.357 69.9678 252.168 70.1911 251.931 70.4053C251.698 70.6149 251.42 70.7904 251.097 70.9316C250.778 71.0684 250.418 71.1367 250.017 71.1367C249.515 71.1367 249.076 71.0387 248.697 70.8428C248.324 70.6468 248.032 70.3848 247.822 70.0566C247.617 69.724 247.515 69.3525 247.515 68.9424C247.515 68.5459 247.592 68.1973 247.747 67.8965C247.902 67.5911 248.125 67.3382 248.417 67.1377C248.709 66.9326 249.06 66.7777 249.47 66.6729C249.88 66.568 250.338 66.5156 250.844 66.5156H252.313ZM256.863 64.7656V71H255.599V63.6035H256.829L256.863 64.7656ZM259.174 63.5625L259.167 64.7383C259.062 64.7155 258.962 64.7018 258.866 64.6973C258.775 64.6882 258.67 64.6836 258.552 64.6836C258.26 64.6836 258.003 64.7292 257.779 64.8203C257.556 64.9115 257.367 65.0391 257.212 65.2031C257.057 65.3672 256.934 65.5632 256.843 65.791C256.756 66.0143 256.699 66.2604 256.672 66.5293L256.316 66.7344C256.316 66.2878 256.36 65.8685 256.446 65.4766C256.537 65.0846 256.676 64.7383 256.863 64.4375C257.05 64.1322 257.287 63.8952 257.574 63.7266C257.866 63.5534 258.212 63.4668 258.613 63.4668C258.704 63.4668 258.809 63.4782 258.928 63.501C259.046 63.5192 259.128 63.5397 259.174 63.5625ZM263.525 71.1367C263.01 71.1367 262.543 71.0501 262.124 70.877C261.709 70.6992 261.352 70.4508 261.051 70.1318C260.755 69.8128 260.527 69.4346 260.367 68.9971C260.208 68.5596 260.128 68.0811 260.128 67.5615V67.2744C260.128 66.6729 260.217 66.1374 260.395 65.668C260.572 65.194 260.814 64.793 261.119 64.4648C261.424 64.1367 261.771 63.8883 262.158 63.7197C262.546 63.5511 262.947 63.4668 263.361 63.4668C263.89 63.4668 264.346 63.5579 264.729 63.7402C265.116 63.9225 265.433 64.1777 265.679 64.5059C265.925 64.8294 266.107 65.2122 266.226 65.6543C266.344 66.0918 266.403 66.5703 266.403 67.0898V67.6572H260.88V66.625H265.139V66.5293C265.12 66.2012 265.052 65.8822 264.934 65.5723C264.82 65.2624 264.637 65.0072 264.387 64.8066C264.136 64.6061 263.794 64.5059 263.361 64.5059C263.074 64.5059 262.81 64.5674 262.568 64.6904C262.327 64.8089 262.119 64.9867 261.946 65.2236C261.773 65.4606 261.639 65.75 261.543 66.0918C261.447 66.4336 261.399 66.8278 261.399 67.2744V67.5615C261.399 67.9124 261.447 68.2428 261.543 68.5527C261.643 68.8581 261.787 69.127 261.974 69.3594C262.165 69.5918 262.395 69.7741 262.664 69.9062C262.938 70.0384 263.247 70.1045 263.594 70.1045C264.04 70.1045 264.419 70.0133 264.729 69.8311C265.038 69.6488 265.31 69.4049 265.542 69.0996L266.308 69.708C266.148 69.9495 265.945 70.1797 265.699 70.3984C265.453 70.6172 265.15 70.7949 264.79 70.9316C264.435 71.0684 264.013 71.1367 263.525 71.1367ZM268.123 60.5H269.395V69.5645L269.285 71H268.123V60.5ZM274.392 67.2402V67.3838C274.392 67.9215 274.328 68.4206 274.2 68.8809C274.073 69.3366 273.886 69.7331 273.64 70.0703C273.394 70.4076 273.093 70.6696 272.737 70.8564C272.382 71.0433 271.974 71.1367 271.514 71.1367C271.044 71.1367 270.632 71.057 270.276 70.8975C269.925 70.7334 269.629 70.4987 269.388 70.1934C269.146 69.888 268.952 69.5189 268.807 69.0859C268.665 68.653 268.567 68.1654 268.513 67.623V66.9941C268.567 66.4473 268.665 65.9574 268.807 65.5244C268.952 65.0915 269.146 64.7223 269.388 64.417C269.629 64.1071 269.925 63.8724 270.276 63.7129C270.627 63.5488 271.035 63.4668 271.5 63.4668C271.965 63.4668 272.377 63.5579 272.737 63.7402C273.097 63.918 273.398 64.1732 273.64 64.5059C273.886 64.8385 274.073 65.2373 274.2 65.7021C274.328 66.1624 274.392 66.6751 274.392 67.2402ZM273.12 67.3838V67.2402C273.12 66.8711 273.086 66.5247 273.018 66.2012C272.949 65.873 272.84 65.5859 272.689 65.3398C272.539 65.0892 272.341 64.8932 272.095 64.752C271.849 64.6061 271.546 64.5332 271.186 64.5332C270.867 64.5332 270.589 64.5879 270.352 64.6973C270.119 64.8066 269.921 64.9548 269.757 65.1416C269.593 65.3239 269.458 65.5335 269.354 65.7705C269.253 66.0029 269.178 66.2445 269.128 66.4951V68.1426C269.201 68.4616 269.319 68.7692 269.483 69.0654C269.652 69.3571 269.875 69.5964 270.153 69.7832C270.436 69.9701 270.785 70.0635 271.199 70.0635C271.541 70.0635 271.833 69.9951 272.074 69.8584C272.32 69.7171 272.519 69.5234 272.669 69.2773C272.824 69.0312 272.938 68.7464 273.011 68.4229C273.084 68.0993 273.12 67.7529 273.12 67.3838ZM278.237 70.2344L280.295 63.6035H281.648L278.682 72.1416C278.613 72.3239 278.522 72.5199 278.408 72.7295C278.299 72.9437 278.158 73.1465 277.984 73.3379C277.811 73.5293 277.602 73.6842 277.355 73.8027C277.114 73.9258 276.825 73.9873 276.487 73.9873C276.387 73.9873 276.259 73.9736 276.104 73.9463C275.95 73.9189 275.84 73.8962 275.776 73.8779L275.77 72.8525C275.806 72.8571 275.863 72.8617 275.94 72.8662C276.022 72.8753 276.079 72.8799 276.111 72.8799C276.398 72.8799 276.642 72.8411 276.843 72.7637C277.043 72.6908 277.212 72.5654 277.349 72.3877C277.49 72.2145 277.611 71.9753 277.711 71.6699L278.237 70.2344ZM276.727 63.6035L278.647 69.3457L278.976 70.6787L278.066 71.1436L275.346 63.6035H276.727ZM286.137 63.6035V64.5742H282.138V63.6035H286.137ZM283.491 61.8057H284.756V69.168C284.756 69.4186 284.795 69.6077 284.872 69.7354C284.95 69.863 285.05 69.9473 285.173 69.9883C285.296 70.0293 285.428 70.0498 285.569 70.0498C285.674 70.0498 285.784 70.0407 285.897 70.0225C286.016 69.9997 286.105 69.9814 286.164 69.9678L286.171 71C286.071 71.0319 285.938 71.0615 285.774 71.0889C285.615 71.1208 285.421 71.1367 285.193 71.1367C284.883 71.1367 284.599 71.0752 284.339 70.9521C284.079 70.8291 283.872 70.624 283.717 70.3369C283.566 70.0452 283.491 69.6533 283.491 69.1611V61.8057ZM290.939 71.1367C290.424 71.1367 289.957 71.0501 289.538 70.877C289.123 70.6992 288.766 70.4508 288.465 70.1318C288.169 69.8128 287.941 69.4346 287.781 68.9971C287.622 68.5596 287.542 68.0811 287.542 67.5615V67.2744C287.542 66.6729 287.631 66.1374 287.809 65.668C287.986 65.194 288.228 64.793 288.533 64.4648C288.839 64.1367 289.185 63.8883 289.572 63.7197C289.96 63.5511 290.361 63.4668 290.775 63.4668C291.304 63.4668 291.76 63.5579 292.143 63.7402C292.53 63.9225 292.847 64.1777 293.093 64.5059C293.339 64.8294 293.521 65.2122 293.64 65.6543C293.758 66.0918 293.817 66.5703 293.817 67.0898V67.6572H288.294V66.625H292.553V66.5293C292.535 66.2012 292.466 65.8822 292.348 65.5723C292.234 65.2624 292.051 65.0072 291.801 64.8066C291.55 64.6061 291.208 64.5059 290.775 64.5059C290.488 64.5059 290.224 64.5674 289.982 64.6904C289.741 64.8089 289.534 64.9867 289.36 65.2236C289.187 65.4606 289.053 65.75 288.957 66.0918C288.861 66.4336 288.813 66.8278 288.813 67.2744V67.5615C288.813 67.9124 288.861 68.2428 288.957 68.5527C289.057 68.8581 289.201 69.127 289.388 69.3594C289.579 69.5918 289.809 69.7741 290.078 69.9062C290.352 70.0384 290.661 70.1045 291.008 70.1045C291.454 70.1045 291.833 70.0133 292.143 69.8311C292.452 69.6488 292.724 69.4049 292.956 69.0996L293.722 69.708C293.562 69.9495 293.359 70.1797 293.113 70.3984C292.867 70.6172 292.564 70.7949 292.204 70.9316C291.849 71.0684 291.427 71.1367 290.939 71.1367ZM299.851 69.0381C299.851 68.8558 299.81 68.6872 299.728 68.5322C299.65 68.3727 299.488 68.2292 299.242 68.1016C299.001 67.9694 298.636 67.8555 298.148 67.7598C297.738 67.6732 297.367 67.5706 297.034 67.4521C296.706 67.3337 296.426 67.1901 296.193 67.0215C295.965 66.8529 295.79 66.6546 295.667 66.4268C295.544 66.1989 295.482 65.9323 295.482 65.627C295.482 65.3353 295.546 65.0596 295.674 64.7998C295.806 64.54 295.991 64.3099 296.228 64.1094C296.469 63.9089 296.758 63.7516 297.096 63.6377C297.433 63.5238 297.809 63.4668 298.224 63.4668C298.816 63.4668 299.322 63.5716 299.741 63.7812C300.16 63.9909 300.482 64.2712 300.705 64.6221C300.928 64.9684 301.04 65.3535 301.04 65.7773H299.775C299.775 65.5723 299.714 65.374 299.591 65.1826C299.472 64.9867 299.297 64.8249 299.064 64.6973C298.837 64.5697 298.556 64.5059 298.224 64.5059C297.873 64.5059 297.588 64.5605 297.369 64.6699C297.155 64.7747 296.998 64.9092 296.897 65.0732C296.802 65.2373 296.754 65.4105 296.754 65.5928C296.754 65.7295 296.777 65.8525 296.822 65.9619C296.872 66.0667 296.959 66.1647 297.082 66.2559C297.205 66.3424 297.378 66.4245 297.602 66.502C297.825 66.5794 298.11 66.6569 298.456 66.7344C299.062 66.8711 299.561 67.0352 299.953 67.2266C300.345 67.418 300.637 67.6527 300.828 67.9307C301.02 68.2087 301.115 68.5459 301.115 68.9424C301.115 69.266 301.047 69.5622 300.91 69.8311C300.778 70.0999 300.584 70.3324 300.329 70.5283C300.078 70.7197 299.778 70.8701 299.427 70.9795C299.08 71.0843 298.691 71.1367 298.258 71.1367C297.606 71.1367 297.055 71.0205 296.604 70.7881C296.152 70.5557 295.811 70.2549 295.578 69.8857C295.346 69.5166 295.229 69.127 295.229 68.7168H296.501C296.519 69.0632 296.619 69.3389 296.802 69.5439C296.984 69.7445 297.207 69.888 297.472 69.9746C297.736 70.0566 297.998 70.0977 298.258 70.0977C298.604 70.0977 298.894 70.0521 299.126 69.9609C299.363 69.8698 299.543 69.7445 299.666 69.585C299.789 69.4255 299.851 69.2432 299.851 69.0381ZM310.488 66.3447H307.966L307.952 65.2852H310.242C310.62 65.2852 310.951 65.2214 311.233 65.0938C311.516 64.9661 311.735 64.7839 311.89 64.5469C312.049 64.3053 312.129 64.0182 312.129 63.6855C312.129 63.321 312.058 63.0247 311.917 62.7969C311.78 62.5645 311.568 62.3958 311.281 62.291C310.999 62.1816 310.639 62.127 310.201 62.127H308.26V71H306.94V61.0469H310.201C310.712 61.0469 311.167 61.0993 311.568 61.2041C311.969 61.3044 312.309 61.4639 312.587 61.6826C312.869 61.8968 313.084 62.1702 313.229 62.5029C313.375 62.8356 313.448 63.2344 313.448 63.6992C313.448 64.1094 313.343 64.4808 313.134 64.8135C312.924 65.1416 312.632 65.4105 312.259 65.6201C311.89 65.8298 311.457 65.9642 310.96 66.0234L310.488 66.3447ZM310.427 71H307.446L308.191 69.9268H310.427C310.846 69.9268 311.201 69.8538 311.493 69.708C311.789 69.5622 312.015 69.3571 312.17 69.0928C312.325 68.8239 312.402 68.5072 312.402 68.1426C312.402 67.7734 312.336 67.4544 312.204 67.1855C312.072 66.9167 311.865 66.7093 311.582 66.5635C311.299 66.4176 310.935 66.3447 310.488 66.3447H308.608L308.622 65.2852H311.192L311.473 65.668C311.951 65.709 312.357 65.8457 312.689 66.0781C313.022 66.306 313.275 66.5977 313.448 66.9531C313.626 67.3086 313.715 67.7005 313.715 68.1289C313.715 68.7487 313.578 69.2728 313.305 69.7012C313.036 70.125 312.655 70.4486 312.163 70.6719C311.671 70.8906 311.092 71 310.427 71ZM316.986 64.7656V71H315.722V63.6035H316.952L316.986 64.7656ZM319.297 63.5625L319.29 64.7383C319.185 64.7155 319.085 64.7018 318.989 64.6973C318.898 64.6882 318.793 64.6836 318.675 64.6836C318.383 64.6836 318.126 64.7292 317.902 64.8203C317.679 64.9115 317.49 65.0391 317.335 65.2031C317.18 65.3672 317.057 65.5632 316.966 65.791C316.879 66.0143 316.822 66.2604 316.795 66.5293L316.439 66.7344C316.439 66.2878 316.483 65.8685 316.569 65.4766C316.66 65.0846 316.799 64.7383 316.986 64.4375C317.173 64.1322 317.41 63.8952 317.697 63.7266C317.989 63.5534 318.335 63.4668 318.736 63.4668C318.827 63.4668 318.932 63.4782 319.051 63.501C319.169 63.5192 319.251 63.5397 319.297 63.5625ZM320.244 67.3838V67.2266C320.244 66.6934 320.322 66.1989 320.477 65.7432C320.632 65.2829 320.855 64.8841 321.146 64.5469C321.438 64.2051 321.791 63.9408 322.206 63.7539C322.621 63.5625 323.086 63.4668 323.601 63.4668C324.12 63.4668 324.587 63.5625 325.002 63.7539C325.421 63.9408 325.777 64.2051 326.068 64.5469C326.365 64.8841 326.59 65.2829 326.745 65.7432C326.9 66.1989 326.978 66.6934 326.978 67.2266V67.3838C326.978 67.917 326.9 68.4115 326.745 68.8672C326.59 69.3229 326.365 69.7217 326.068 70.0635C325.777 70.4007 325.424 70.665 325.009 70.8564C324.599 71.0433 324.134 71.1367 323.614 71.1367C323.095 71.1367 322.628 71.0433 322.213 70.8564C321.798 70.665 321.443 70.4007 321.146 70.0635C320.855 69.7217 320.632 69.3229 320.477 68.8672C320.322 68.4115 320.244 67.917 320.244 67.3838ZM321.509 67.2266V67.3838C321.509 67.7529 321.552 68.1016 321.639 68.4297C321.725 68.7533 321.855 69.0404 322.028 69.291C322.206 69.5417 322.427 69.7399 322.691 69.8857C322.956 70.027 323.263 70.0977 323.614 70.0977C323.961 70.0977 324.264 70.027 324.523 69.8857C324.788 69.7399 325.007 69.5417 325.18 69.291C325.353 69.0404 325.483 68.7533 325.569 68.4297C325.66 68.1016 325.706 67.7529 325.706 67.3838V67.2266C325.706 66.862 325.66 66.5179 325.569 66.1943C325.483 65.8662 325.351 65.5768 325.173 65.3262C325 65.071 324.781 64.8704 324.517 64.7246C324.257 64.5788 323.951 64.5059 323.601 64.5059C323.254 64.5059 322.949 64.5788 322.685 64.7246C322.425 64.8704 322.206 65.071 322.028 65.3262C321.855 65.5768 321.725 65.8662 321.639 66.1943C321.552 66.5179 321.509 66.862 321.509 67.2266ZM330.687 69.6875L332.587 63.6035H333.421L333.257 64.8135L331.322 71H330.509L330.687 69.6875ZM329.408 63.6035L331.028 69.7559L331.145 71H330.29L328.144 63.6035H329.408ZM335.239 69.708L336.784 63.6035H338.042L335.896 71H335.048L335.239 69.708ZM333.605 63.6035L335.465 69.585L335.677 71H334.87L332.881 64.7998L332.717 63.6035H333.605ZM343.897 69.0381C343.897 68.8558 343.856 68.6872 343.774 68.5322C343.697 68.3727 343.535 68.2292 343.289 68.1016C343.048 67.9694 342.683 67.8555 342.195 67.7598C341.785 67.6732 341.414 67.5706 341.081 67.4521C340.753 67.3337 340.473 67.1901 340.24 67.0215C340.012 66.8529 339.837 66.6546 339.714 66.4268C339.591 66.1989 339.529 65.9323 339.529 65.627C339.529 65.3353 339.593 65.0596 339.721 64.7998C339.853 64.54 340.037 64.3099 340.274 64.1094C340.516 63.9089 340.805 63.7516 341.143 63.6377C341.48 63.5238 341.856 63.4668 342.271 63.4668C342.863 63.4668 343.369 63.5716 343.788 63.7812C344.207 63.9909 344.529 64.2712 344.752 64.6221C344.975 64.9684 345.087 65.3535 345.087 65.7773H343.822C343.822 65.5723 343.761 65.374 343.638 65.1826C343.519 64.9867 343.344 64.8249 343.111 64.6973C342.883 64.5697 342.603 64.5059 342.271 64.5059C341.92 64.5059 341.635 64.5605 341.416 64.6699C341.202 64.7747 341.045 64.9092 340.944 65.0732C340.849 65.2373 340.801 65.4105 340.801 65.5928C340.801 65.7295 340.824 65.8525 340.869 65.9619C340.919 66.0667 341.006 66.1647 341.129 66.2559C341.252 66.3424 341.425 66.4245 341.648 66.502C341.872 66.5794 342.157 66.6569 342.503 66.7344C343.109 66.8711 343.608 67.0352 344 67.2266C344.392 67.418 344.684 67.6527 344.875 67.9307C345.066 68.2087 345.162 68.5459 345.162 68.9424C345.162 69.266 345.094 69.5622 344.957 69.8311C344.825 70.0999 344.631 70.3324 344.376 70.5283C344.125 70.7197 343.825 70.8701 343.474 70.9795C343.127 71.0843 342.738 71.1367 342.305 71.1367C341.653 71.1367 341.102 71.0205 340.65 70.7881C340.199 70.5557 339.857 70.2549 339.625 69.8857C339.393 69.5166 339.276 69.127 339.276 68.7168H340.548C340.566 69.0632 340.666 69.3389 340.849 69.5439C341.031 69.7445 341.254 69.888 341.519 69.9746C341.783 70.0566 342.045 70.0977 342.305 70.0977C342.651 70.0977 342.94 70.0521 343.173 69.9609C343.41 69.8698 343.59 69.7445 343.713 69.585C343.836 69.4255 343.897 69.2432 343.897 69.0381ZM350.143 71.1367C349.628 71.1367 349.16 71.0501 348.741 70.877C348.326 70.6992 347.969 70.4508 347.668 70.1318C347.372 69.8128 347.144 69.4346 346.984 68.9971C346.825 68.5596 346.745 68.0811 346.745 67.5615V67.2744C346.745 66.6729 346.834 66.1374 347.012 65.668C347.189 65.194 347.431 64.793 347.736 64.4648C348.042 64.1367 348.388 63.8883 348.775 63.7197C349.163 63.5511 349.564 63.4668 349.979 63.4668C350.507 63.4668 350.963 63.5579 351.346 63.7402C351.733 63.9225 352.05 64.1777 352.296 64.5059C352.542 64.8294 352.724 65.2122 352.843 65.6543C352.961 66.0918 353.021 66.5703 353.021 67.0898V67.6572H347.497V66.625H351.756V66.5293C351.738 66.2012 351.669 65.8822 351.551 65.5723C351.437 65.2624 351.255 65.0072 351.004 64.8066C350.753 64.6061 350.411 64.5059 349.979 64.5059C349.691 64.5059 349.427 64.5674 349.186 64.6904C348.944 64.8089 348.737 64.9867 348.563 65.2236C348.39 65.4606 348.256 65.75 348.16 66.0918C348.064 66.4336 348.017 66.8278 348.017 67.2744V67.5615C348.017 67.9124 348.064 68.2428 348.16 68.5527C348.26 68.8581 348.404 69.127 348.591 69.3594C348.782 69.5918 349.012 69.7741 349.281 69.9062C349.555 70.0384 349.865 70.1045 350.211 70.1045C350.658 70.1045 351.036 70.0133 351.346 69.8311C351.656 69.6488 351.927 69.4049 352.159 69.0996L352.925 69.708C352.765 69.9495 352.562 70.1797 352.316 70.3984C352.07 70.6172 351.767 70.7949 351.407 70.9316C351.052 71.0684 350.63 71.1367 350.143 71.1367ZM356.012 64.7656V71H354.747V63.6035H355.978L356.012 64.7656ZM358.322 63.5625L358.315 64.7383C358.211 64.7155 358.11 64.7018 358.015 64.6973C357.924 64.6882 357.819 64.6836 357.7 64.6836C357.409 64.6836 357.151 64.7292 356.928 64.8203C356.704 64.9115 356.515 65.0391 356.36 65.2031C356.205 65.3672 356.082 65.5632 355.991 65.791C355.905 66.0143 355.848 66.2604 355.82 66.5293L355.465 66.7344C355.465 66.2878 355.508 65.8685 355.595 65.4766C355.686 65.0846 355.825 64.7383 356.012 64.4375C356.199 64.1322 356.436 63.8952 356.723 63.7266C357.014 63.5534 357.361 63.4668 357.762 63.4668C357.853 63.4668 357.958 63.4782 358.076 63.501C358.195 63.5192 358.277 63.5397 358.322 63.5625ZM371.011 66.0439V69.6875C370.888 69.8698 370.692 70.0749 370.423 70.3027C370.154 70.526 369.783 70.722 369.309 70.8906C368.839 71.0547 368.233 71.1367 367.49 71.1367C366.884 71.1367 366.326 71.0319 365.815 70.8223C365.31 70.6081 364.87 70.2982 364.496 69.8926C364.127 69.4824 363.84 68.9857 363.635 68.4023C363.434 67.8145 363.334 67.1491 363.334 66.4062V65.6338C363.334 64.891 363.421 64.2279 363.594 63.6445C363.771 63.0612 364.031 62.5667 364.373 62.1611C364.715 61.751 365.134 61.4411 365.631 61.2314C366.128 61.0173 366.697 60.9102 367.34 60.9102C368.101 60.9102 368.737 61.0423 369.247 61.3066C369.762 61.5664 370.163 61.9264 370.45 62.3867C370.742 62.847 370.929 63.3711 371.011 63.959H369.691C369.632 63.599 369.514 63.2708 369.336 62.9746C369.163 62.6784 368.914 62.4414 368.591 62.2637C368.267 62.0814 367.85 61.9902 367.34 61.9902C366.88 61.9902 366.481 62.0745 366.144 62.2432C365.806 62.4118 365.528 62.6533 365.31 62.9678C365.091 63.2822 364.927 63.6628 364.817 64.1094C364.713 64.556 364.66 65.0596 364.66 65.6201V66.4062C364.66 66.9805 364.726 67.4932 364.858 67.9443C364.995 68.3955 365.189 68.7806 365.439 69.0996C365.69 69.4141 365.989 69.6533 366.335 69.8174C366.686 69.9814 367.073 70.0635 367.497 70.0635C367.966 70.0635 368.347 70.0247 368.639 69.9473C368.93 69.8652 369.158 69.7695 369.322 69.6602C369.486 69.5462 369.612 69.4391 369.698 69.3389V67.1104H367.395V66.0439H371.011ZM377.782 69.291V63.6035H379.054V71H377.844L377.782 69.291ZM378.021 67.7324L378.548 67.7188C378.548 68.2109 378.495 68.6667 378.391 69.0859C378.29 69.5007 378.126 69.8607 377.898 70.166C377.671 70.4714 377.372 70.7106 377.003 70.8838C376.634 71.0524 376.185 71.1367 375.656 71.1367C375.296 71.1367 374.966 71.0843 374.665 70.9795C374.369 70.8747 374.114 70.7129 373.899 70.4941C373.685 70.2754 373.519 69.9906 373.4 69.6396C373.286 69.2887 373.229 68.8672 373.229 68.375V63.6035H374.494V68.3887C374.494 68.7214 374.531 68.9971 374.604 69.2158C374.681 69.43 374.784 69.6009 374.911 69.7285C375.043 69.8516 375.189 69.9382 375.349 69.9883C375.513 70.0384 375.681 70.0635 375.854 70.0635C376.392 70.0635 376.818 69.9609 377.133 69.7559C377.447 69.5462 377.673 69.266 377.81 68.915C377.951 68.5596 378.021 68.1654 378.021 67.7324ZM385.593 69.7354V65.9277C385.593 65.6361 385.534 65.3831 385.415 65.1689C385.301 64.9502 385.128 64.7816 384.896 64.6631C384.663 64.5446 384.376 64.4854 384.034 64.4854C383.715 64.4854 383.435 64.54 383.193 64.6494C382.956 64.7588 382.77 64.9023 382.633 65.0801C382.501 65.2578 382.435 65.4492 382.435 65.6543H381.17C381.17 65.39 381.238 65.1279 381.375 64.8682C381.512 64.6084 381.708 64.3737 381.963 64.1641C382.223 63.9499 382.533 63.7812 382.893 63.6582C383.257 63.5306 383.663 63.4668 384.109 63.4668C384.647 63.4668 385.121 63.5579 385.531 63.7402C385.946 63.9225 386.27 64.1982 386.502 64.5674C386.739 64.932 386.857 65.39 386.857 65.9414V69.3867C386.857 69.6328 386.878 69.8949 386.919 70.1729C386.965 70.4508 387.031 70.6901 387.117 70.8906V71H385.798C385.734 70.8542 385.684 70.6605 385.647 70.4189C385.611 70.1729 385.593 69.945 385.593 69.7354ZM385.812 66.5156L385.825 67.4043H384.547C384.187 67.4043 383.866 67.4339 383.583 67.4932C383.3 67.5479 383.063 67.6322 382.872 67.7461C382.681 67.86 382.535 68.0036 382.435 68.1768C382.334 68.3454 382.284 68.5436 382.284 68.7715C382.284 69.0039 382.337 69.2158 382.441 69.4072C382.546 69.5986 382.703 69.7513 382.913 69.8652C383.127 69.9746 383.389 70.0293 383.699 70.0293C384.087 70.0293 384.428 69.9473 384.725 69.7832C385.021 69.6191 385.256 69.4186 385.429 69.1816C385.606 68.9447 385.702 68.7145 385.716 68.4912L386.256 69.0996C386.224 69.291 386.137 69.5029 385.996 69.7354C385.855 69.9678 385.666 70.1911 385.429 70.4053C385.196 70.6149 384.918 70.7904 384.595 70.9316C384.276 71.0684 383.916 71.1367 383.515 71.1367C383.013 71.1367 382.574 71.0387 382.195 70.8428C381.822 70.6468 381.53 70.3848 381.32 70.0566C381.115 69.724 381.013 69.3525 381.013 68.9424C381.013 68.5459 381.09 68.1973 381.245 67.8965C381.4 67.5911 381.623 67.3382 381.915 67.1377C382.207 66.9326 382.558 66.7777 382.968 66.6729C383.378 66.568 383.836 66.5156 384.342 66.5156H385.812ZM390.361 64.7656V71H389.097V63.6035H390.327L390.361 64.7656ZM392.672 63.5625L392.665 64.7383C392.56 64.7155 392.46 64.7018 392.364 64.6973C392.273 64.6882 392.168 64.6836 392.05 64.6836C391.758 64.6836 391.501 64.7292 391.277 64.8203C391.054 64.9115 390.865 65.0391 390.71 65.2031C390.555 65.3672 390.432 65.5632 390.341 65.791C390.254 66.0143 390.197 66.2604 390.17 66.5293L389.814 66.7344C389.814 66.2878 389.858 65.8685 389.944 65.4766C390.035 65.0846 390.174 64.7383 390.361 64.4375C390.548 64.1322 390.785 63.8952 391.072 63.7266C391.364 63.5534 391.71 63.4668 392.111 63.4668C392.202 63.4668 392.307 63.4782 392.426 63.501C392.544 63.5192 392.626 63.5397 392.672 63.5625ZM398.616 69.5645V60.5H399.888V71H398.726L398.616 69.5645ZM393.64 67.3838V67.2402C393.64 66.6751 393.708 66.1624 393.845 65.7021C393.986 65.2373 394.184 64.8385 394.439 64.5059C394.699 64.1732 395.007 63.918 395.362 63.7402C395.722 63.5579 396.123 63.4668 396.565 63.4668C397.03 63.4668 397.436 63.5488 397.782 63.7129C398.133 63.8724 398.429 64.1071 398.671 64.417C398.917 64.7223 399.111 65.0915 399.252 65.5244C399.393 65.9574 399.491 66.4473 399.546 66.9941V67.623C399.496 68.1654 399.398 68.653 399.252 69.0859C399.111 69.5189 398.917 69.888 398.671 70.1934C398.429 70.4987 398.133 70.7334 397.782 70.8975C397.431 71.057 397.021 71.1367 396.552 71.1367C396.119 71.1367 395.722 71.0433 395.362 70.8564C395.007 70.6696 394.699 70.4076 394.439 70.0703C394.184 69.7331 393.986 69.3366 393.845 68.8809C393.708 68.4206 393.64 67.9215 393.64 67.3838ZM394.911 67.2402V67.3838C394.911 67.7529 394.948 68.0993 395.021 68.4229C395.098 68.7464 395.216 69.0312 395.376 69.2773C395.535 69.5234 395.738 69.7171 395.984 69.8584C396.23 69.9951 396.524 70.0635 396.866 70.0635C397.285 70.0635 397.63 69.9746 397.898 69.7969C398.172 69.6191 398.391 69.3844 398.555 69.0928C398.719 68.8011 398.846 68.4844 398.938 68.1426V66.4951C398.883 66.2445 398.803 66.0029 398.698 65.7705C398.598 65.5335 398.466 65.3239 398.302 65.1416C398.142 64.9548 397.944 64.8066 397.707 64.6973C397.475 64.5879 397.199 64.5332 396.88 64.5332C396.534 64.5332 396.235 64.6061 395.984 64.752C395.738 64.8932 395.535 65.0892 395.376 65.3398C395.216 65.5859 395.098 65.873 395.021 66.2012C394.948 66.5247 394.911 66.8711 394.911 67.2402Z" fill="#1C1B1F" fill-opacity="0.8"/>
<g clip-path="url(#clip1_711_15914)">
<rect x="410" y="54" width="24" height="24" rx="4" fill="#F6F7F7"/>
<path d="M429.485 67C429.485 66.7 429.587 66.4 429.587 66C429.587 65.7 429.587 65.3 429.485 65L431.627 63.4C431.831 63.3 431.831 63 431.729 62.8L429.689 59.3C429.689 59.1 429.485 59 429.281 59H429.077L426.526 60C426.016 59.6 425.404 59.3 424.792 59L424.384 56.3C424.486 56.2 424.282 56 423.976 56H419.895C419.691 56 419.385 56.2 419.385 56.4L418.977 59.1C418.365 59.3 417.855 59.7 417.243 60.1L414.794 59.1C414.692 59 414.59 59 414.59 59C414.386 59 414.182 59.1 414.08 59.3L412.04 62.8C411.938 63 412.04 63.2 412.244 63.4L414.386 65C414.386 65.3 414.284 65.6 414.284 66C414.284 66.3 414.284 66.7 414.386 67L412.244 68.6C412.04 68.7 412.04 69 412.142 69.2L414.182 72.7C414.182 72.9 414.386 73 414.59 73H414.794L417.345 72C417.855 72.4 418.467 72.7 419.079 73L419.487 75.6C419.487 75.8 419.691 76 419.997 76H424.078C424.282 76 424.588 75.8 424.588 75.6L424.996 73C425.608 72.8 426.22 72.4 426.73 72L429.281 73H429.485C429.689 73 429.791 72.9 429.893 72.8L431.933 69.3C432.035 69.1 432.035 68.8 431.831 68.7L429.485 67ZM427.546 65.3V66.7L427.444 67.8L428.362 68.5L429.485 69.3L428.771 70.5L427.444 70L426.424 69.6L425.506 70.3C425.098 70.6 424.69 70.9 424.282 71L423.16 71.4L422.956 72.5L422.65 74H421.221L421.017 72.7L420.915 71.5L419.793 71.1C419.385 70.9 418.977 70.7 418.569 70.4L417.651 69.7L416.529 70.1L415.202 70.6L414.488 69.4L415.611 68.6L416.529 67.9L416.427 66.8C416.427 66.5 416.325 66.3 416.325 66.1C416.325 65.9 416.325 65.7 416.427 65.4L416.529 64.3L415.611 63.4L414.488 62.6L415.202 61.4L416.529 61.9L417.549 62.3L418.467 61.6C418.875 61.3 419.283 61 419.691 60.9L420.813 60.5L421.017 59.4L421.221 58H422.65L422.854 59.3L422.956 60.5L424.078 60.9C424.486 61.1 424.894 61.3 425.302 61.6L426.22 62.3L427.342 61.9L428.669 61.4L429.383 62.6L428.26 63.5L427.342 64.2C427.342 64.1 427.546 65.3 427.546 65.3ZM421.935 62C419.691 62 417.855 63.8 417.855 66C417.855 68.2 419.691 70 421.935 70C424.18 70 426.016 68.2 426.016 66C426.016 63.8 424.18 62 421.935 62ZM421.935 68C420.813 68 419.895 67.1 419.895 66C419.895 64.9 420.813 64 421.935 64C423.058 64 423.976 64.9 423.976 66C423.976 67.1 423.058 68 421.935 68Z" fill="#0D3ECC"/>
</g>
<rect x="171.5" y="45.5" width="271" height="41" rx="4.5" stroke="#E5E6E8"/>
</g>
<g filter="url(#filter2_di_711_15914)">
<g clip-path="url(#clip2_711_15914)">
<rect x="340" y="82" width="102" height="32" rx="4" fill="white"/>
<path d="M350.826 99.0967H348.167V98.0234H350.826C351.341 98.0234 351.758 97.9414 352.077 97.7773C352.396 97.6133 352.629 97.3854 352.774 97.0938C352.925 96.8021 353 96.4694 353 96.0957C353 95.7539 352.925 95.4326 352.774 95.1318C352.629 94.8311 352.396 94.5895 352.077 94.4072C351.758 94.2204 351.341 94.127 350.826 94.127H348.475V103H347.155V93.0469H350.826C351.578 93.0469 352.214 93.1768 352.733 93.4365C353.253 93.6963 353.647 94.0563 353.916 94.5166C354.185 94.9723 354.319 95.4941 354.319 96.082C354.319 96.7201 354.185 97.2646 353.916 97.7158C353.647 98.167 353.253 98.5111 352.733 98.748C352.214 98.9805 351.578 99.0967 350.826 99.0967ZM357.42 95.6035V103H356.148V95.6035H357.42ZM356.053 93.6416C356.053 93.4365 356.114 93.2633 356.237 93.1221C356.365 92.9808 356.552 92.9102 356.798 92.9102C357.039 92.9102 357.224 92.9808 357.352 93.1221C357.484 93.2633 357.55 93.4365 357.55 93.6416C357.55 93.8376 357.484 94.0062 357.352 94.1475C357.224 94.2842 357.039 94.3525 356.798 94.3525C356.552 94.3525 356.365 94.2842 356.237 94.1475C356.114 94.0062 356.053 93.8376 356.053 93.6416ZM360.965 97.1826V103H359.7V95.6035H360.896L360.965 97.1826ZM360.664 99.0215L360.138 99.001C360.142 98.4951 360.217 98.028 360.363 97.5996C360.509 97.1667 360.714 96.7907 360.979 96.4717C361.243 96.1527 361.557 95.9066 361.922 95.7334C362.291 95.5557 362.699 95.4668 363.146 95.4668C363.51 95.4668 363.838 95.5169 364.13 95.6172C364.422 95.7129 364.67 95.8678 364.875 96.082C365.085 96.2962 365.244 96.5742 365.354 96.916C365.463 97.2533 365.518 97.6657 365.518 98.1533V103H364.246V98.1396C364.246 97.7523 364.189 97.4424 364.075 97.21C363.961 96.973 363.795 96.8021 363.576 96.6973C363.357 96.5879 363.089 96.5332 362.77 96.5332C362.455 96.5332 362.168 96.5993 361.908 96.7314C361.653 96.8636 361.432 97.0459 361.245 97.2783C361.063 97.5107 360.919 97.7773 360.814 98.0781C360.714 98.3743 360.664 98.6888 360.664 99.0215ZM374.508 95.6035V96.5742H370.509V95.6035H374.508ZM371.862 93.8057H373.127V101.168C373.127 101.419 373.166 101.608 373.243 101.735C373.321 101.863 373.421 101.947 373.544 101.988C373.667 102.029 373.799 102.05 373.94 102.05C374.045 102.05 374.155 102.041 374.269 102.022C374.387 102 374.476 101.981 374.535 101.968L374.542 103C374.442 103.032 374.31 103.062 374.146 103.089C373.986 103.121 373.792 103.137 373.564 103.137C373.255 103.137 372.97 103.075 372.71 102.952C372.45 102.829 372.243 102.624 372.088 102.337C371.938 102.045 371.862 101.653 371.862 101.161V93.8057ZM375.77 99.3838V99.2266C375.77 98.6934 375.847 98.1989 376.002 97.7432C376.157 97.2829 376.38 96.8841 376.672 96.5469C376.964 96.2051 377.317 95.9408 377.731 95.7539C378.146 95.5625 378.611 95.4668 379.126 95.4668C379.646 95.4668 380.113 95.5625 380.527 95.7539C380.947 95.9408 381.302 96.2051 381.594 96.5469C381.89 96.8841 382.116 97.2829 382.271 97.7432C382.425 98.1989 382.503 98.6934 382.503 99.2266V99.3838C382.503 99.917 382.425 100.411 382.271 100.867C382.116 101.323 381.89 101.722 381.594 102.063C381.302 102.401 380.949 102.665 380.534 102.856C380.124 103.043 379.659 103.137 379.14 103.137C378.62 103.137 378.153 103.043 377.738 102.856C377.324 102.665 376.968 102.401 376.672 102.063C376.38 101.722 376.157 101.323 376.002 100.867C375.847 100.411 375.77 99.917 375.77 99.3838ZM377.034 99.2266V99.3838C377.034 99.7529 377.077 100.102 377.164 100.43C377.251 100.753 377.381 101.04 377.554 101.291C377.731 101.542 377.952 101.74 378.217 101.886C378.481 102.027 378.789 102.098 379.14 102.098C379.486 102.098 379.789 102.027 380.049 101.886C380.313 101.74 380.532 101.542 380.705 101.291C380.878 101.04 381.008 100.753 381.095 100.43C381.186 100.102 381.231 99.7529 381.231 99.3838V99.2266C381.231 98.862 381.186 98.5179 381.095 98.1943C381.008 97.8662 380.876 97.5768 380.698 97.3262C380.525 97.071 380.306 96.8704 380.042 96.7246C379.782 96.5788 379.477 96.5059 379.126 96.5059C378.78 96.5059 378.474 96.5788 378.21 96.7246C377.95 96.8704 377.731 97.071 377.554 97.3262C377.381 97.5768 377.251 97.8662 377.164 98.1943C377.077 98.5179 377.034 98.862 377.034 99.2266ZM391.657 93.0469V103H390.358V93.0469H391.657ZM394.856 93.0469V94.127H387.166V93.0469H394.856ZM395.373 99.3838V99.2266C395.373 98.6934 395.451 98.1989 395.605 97.7432C395.76 97.2829 395.984 96.8841 396.275 96.5469C396.567 96.2051 396.92 95.9408 397.335 95.7539C397.75 95.5625 398.215 95.4668 398.729 95.4668C399.249 95.4668 399.716 95.5625 400.131 95.7539C400.55 95.9408 400.906 96.2051 401.197 96.5469C401.493 96.8841 401.719 97.2829 401.874 97.7432C402.029 98.1989 402.106 98.6934 402.106 99.2266V99.3838C402.106 99.917 402.029 100.411 401.874 100.867C401.719 101.323 401.493 101.722 401.197 102.063C400.906 102.401 400.552 102.665 400.138 102.856C399.728 103.043 399.263 103.137 398.743 103.137C398.224 103.137 397.757 103.043 397.342 102.856C396.927 102.665 396.572 102.401 396.275 102.063C395.984 101.722 395.76 101.323 395.605 100.867C395.451 100.411 395.373 99.917 395.373 99.3838ZM396.638 99.2266V99.3838C396.638 99.7529 396.681 100.102 396.768 100.43C396.854 100.753 396.984 101.04 397.157 101.291C397.335 101.542 397.556 101.74 397.82 101.886C398.085 102.027 398.392 102.098 398.743 102.098C399.09 102.098 399.393 102.027 399.652 101.886C399.917 101.74 400.135 101.542 400.309 101.291C400.482 101.04 400.612 100.753 400.698 100.43C400.789 100.102 400.835 99.7529 400.835 99.3838V99.2266C400.835 98.862 400.789 98.5179 400.698 98.1943C400.612 97.8662 400.479 97.5768 400.302 97.3262C400.129 97.071 399.91 96.8704 399.646 96.7246C399.386 96.5788 399.08 96.5059 398.729 96.5059C398.383 96.5059 398.078 96.5788 397.813 96.7246C397.554 96.8704 397.335 97.071 397.157 97.3262C396.984 97.5768 396.854 97.8662 396.768 98.1943C396.681 98.5179 396.638 98.862 396.638 99.2266ZM403.607 99.3838V99.2266C403.607 98.6934 403.685 98.1989 403.84 97.7432C403.995 97.2829 404.218 96.8841 404.51 96.5469C404.801 96.2051 405.155 95.9408 405.569 95.7539C405.984 95.5625 406.449 95.4668 406.964 95.4668C407.483 95.4668 407.951 95.5625 408.365 95.7539C408.785 95.9408 409.14 96.2051 409.432 96.5469C409.728 96.8841 409.953 97.2829 410.108 97.7432C410.263 98.1989 410.341 98.6934 410.341 99.2266V99.3838C410.341 99.917 410.263 100.411 410.108 100.867C409.953 101.323 409.728 101.722 409.432 102.063C409.14 102.401 408.787 102.665 408.372 102.856C407.962 103.043 407.497 103.137 406.978 103.137C406.458 103.137 405.991 103.043 405.576 102.856C405.161 102.665 404.806 102.401 404.51 102.063C404.218 101.722 403.995 101.323 403.84 100.867C403.685 100.411 403.607 99.917 403.607 99.3838ZM404.872 99.2266V99.3838C404.872 99.7529 404.915 100.102 405.002 100.43C405.089 100.753 405.218 101.04 405.392 101.291C405.569 101.542 405.79 101.74 406.055 101.886C406.319 102.027 406.627 102.098 406.978 102.098C407.324 102.098 407.627 102.027 407.887 101.886C408.151 101.74 408.37 101.542 408.543 101.291C408.716 101.04 408.846 100.753 408.933 100.43C409.024 100.102 409.069 99.7529 409.069 99.3838V99.2266C409.069 98.862 409.024 98.5179 408.933 98.1943C408.846 97.8662 408.714 97.5768 408.536 97.3262C408.363 97.071 408.144 96.8704 407.88 96.7246C407.62 96.5788 407.315 96.5059 406.964 96.5059C406.618 96.5059 406.312 96.5788 406.048 96.7246C405.788 96.8704 405.569 97.071 405.392 97.3262C405.218 97.5768 405.089 97.8662 405.002 98.1943C404.915 98.5179 404.872 98.862 404.872 99.2266ZM413.551 92.5V103H412.279V92.5H413.551ZM415.824 92.5H417.096V101.564L416.986 103H415.824V92.5ZM422.093 99.2402V99.3838C422.093 99.9215 422.029 100.421 421.901 100.881C421.774 101.337 421.587 101.733 421.341 102.07C421.095 102.408 420.794 102.67 420.438 102.856C420.083 103.043 419.675 103.137 419.215 103.137C418.745 103.137 418.333 103.057 417.978 102.897C417.627 102.733 417.33 102.499 417.089 102.193C416.847 101.888 416.654 101.519 416.508 101.086C416.367 100.653 416.269 100.165 416.214 99.623V98.9941C416.269 98.4473 416.367 97.9574 416.508 97.5244C416.654 97.0915 416.847 96.7223 417.089 96.417C417.33 96.1071 417.627 95.8724 417.978 95.7129C418.328 95.5488 418.736 95.4668 419.201 95.4668C419.666 95.4668 420.078 95.5579 420.438 95.7402C420.799 95.918 421.099 96.1732 421.341 96.5059C421.587 96.8385 421.774 97.2373 421.901 97.7021C422.029 98.1624 422.093 98.6751 422.093 99.2402ZM420.821 99.3838V99.2402C420.821 98.8711 420.787 98.5247 420.719 98.2012C420.65 97.873 420.541 97.5859 420.391 97.3398C420.24 97.0892 420.042 96.8932 419.796 96.752C419.55 96.6061 419.247 96.5332 418.887 96.5332C418.568 96.5332 418.29 96.5879 418.053 96.6973C417.82 96.8066 417.622 96.9548 417.458 97.1416C417.294 97.3239 417.16 97.5335 417.055 97.7705C416.954 98.0029 416.879 98.2445 416.829 98.4951V100.143C416.902 100.462 417.021 100.769 417.185 101.065C417.353 101.357 417.576 101.596 417.854 101.783C418.137 101.97 418.486 102.063 418.9 102.063C419.242 102.063 419.534 101.995 419.775 101.858C420.021 101.717 420.22 101.523 420.37 101.277C420.525 101.031 420.639 100.746 420.712 100.423C420.785 100.099 420.821 99.7529 420.821 99.3838ZM428.304 101.735V97.9277C428.304 97.6361 428.244 97.3831 428.126 97.1689C428.012 96.9502 427.839 96.7816 427.606 96.6631C427.374 96.5446 427.087 96.4854 426.745 96.4854C426.426 96.4854 426.146 96.54 425.904 96.6494C425.667 96.7588 425.48 96.9023 425.344 97.0801C425.212 97.2578 425.146 97.4492 425.146 97.6543H423.881C423.881 97.39 423.949 97.1279 424.086 96.8682C424.223 96.6084 424.419 96.3737 424.674 96.1641C424.934 95.9499 425.243 95.7812 425.604 95.6582C425.968 95.5306 426.374 95.4668 426.82 95.4668C427.358 95.4668 427.832 95.5579 428.242 95.7402C428.657 95.9225 428.98 96.1982 429.213 96.5674C429.45 96.932 429.568 97.39 429.568 97.9414V101.387C429.568 101.633 429.589 101.895 429.63 102.173C429.675 102.451 429.742 102.69 429.828 102.891V103H428.509C428.445 102.854 428.395 102.66 428.358 102.419C428.322 102.173 428.304 101.945 428.304 101.735ZM428.522 98.5156L428.536 99.4043H427.258C426.898 99.4043 426.576 99.4339 426.294 99.4932C426.011 99.5479 425.774 99.6322 425.583 99.7461C425.392 99.86 425.246 100.004 425.146 100.177C425.045 100.345 424.995 100.544 424.995 100.771C424.995 101.004 425.048 101.216 425.152 101.407C425.257 101.599 425.414 101.751 425.624 101.865C425.838 101.975 426.1 102.029 426.41 102.029C426.798 102.029 427.139 101.947 427.436 101.783C427.732 101.619 427.966 101.419 428.14 101.182C428.317 100.945 428.413 100.715 428.427 100.491L428.967 101.1C428.935 101.291 428.848 101.503 428.707 101.735C428.566 101.968 428.377 102.191 428.14 102.405C427.907 102.615 427.629 102.79 427.306 102.932C426.987 103.068 426.627 103.137 426.226 103.137C425.724 103.137 425.285 103.039 424.906 102.843C424.533 102.647 424.241 102.385 424.031 102.057C423.826 101.724 423.724 101.353 423.724 100.942C423.724 100.546 423.801 100.197 423.956 99.8965C424.111 99.5911 424.334 99.3382 424.626 99.1377C424.918 98.9326 425.269 98.7777 425.679 98.6729C426.089 98.568 426.547 98.5156 427.053 98.5156H428.522ZM433.072 96.7656V103H431.808V95.6035H433.038L433.072 96.7656ZM435.383 95.5625L435.376 96.7383C435.271 96.7155 435.171 96.7018 435.075 96.6973C434.984 96.6882 434.879 96.6836 434.761 96.6836C434.469 96.6836 434.212 96.7292 433.988 96.8203C433.765 96.9115 433.576 97.0391 433.421 97.2031C433.266 97.3672 433.143 97.5632 433.052 97.791C432.965 98.0143 432.908 98.2604 432.881 98.5293L432.525 98.7344C432.525 98.2878 432.569 97.8685 432.655 97.4766C432.746 97.0846 432.885 96.7383 433.072 96.4375C433.259 96.1322 433.496 95.8952 433.783 95.7266C434.075 95.5534 434.421 95.4668 434.822 95.4668C434.913 95.4668 435.018 95.4782 435.137 95.501C435.255 95.5192 435.337 95.5397 435.383 95.5625Z" fill="#1C1B1F"/>
</g>
</g>
<g filter="url(#filter3_d_711_15914)">
<path fill-rule="evenodd" clip-rule="evenodd" d="M431 110V122L434 119L436.5 124H437.5C437.5 124 438.146 123.35 438 123C437.312 121.35 435.5 118 435.5 118H439L431 110Z" fill="black"/>
<path d="M431.354 109.646L430.5 108.793V110V122V123.207L431.354 122.354L433.863 119.844L436.053 124.224L436.191 124.5H436.5H437.5H437.708L437.855 124.352L437.5 124C437.855 124.352 437.855 124.352 437.855 124.352L437.855 124.352L437.855 124.352L437.856 124.351L437.859 124.348L437.866 124.34C437.873 124.334 437.881 124.325 437.892 124.314C437.912 124.292 437.941 124.261 437.975 124.223C438.041 124.147 438.13 124.04 438.215 123.916C438.299 123.796 438.392 123.642 438.453 123.475C438.51 123.319 438.569 123.066 438.462 122.808C438.109 121.961 437.475 120.694 436.936 119.652C436.712 119.217 436.502 118.818 436.334 118.5H439H440.207L439.354 117.646L431.354 109.646Z" stroke="white"/>
</g>
</g>
<defs>
<filter id="filter0_dd_711_15914" x="155" y="33" width="304" height="107" filterUnits="userSpaceOnUse" color-interpolation-filters="sRGB">
<feFlood flood-opacity="0" result="BackgroundImageFix"/>
<feColorMatrix in="SourceAlpha" type="matrix" values="0 0 0 0 0 0 0 0 0 0 0 0 0 0 0 0 0 0 127 0" result="hardAlpha"/>
<feOffset dy="1"/>
<feGaussianBlur stdDeviation="1.5"/>
<feColorMatrix type="matrix" values="0 0 0 0 0 0 0 0 0 0 0 0 0 0 0 0 0 0 0.1 0"/>
<feBlend mode="normal" in2="BackgroundImageFix" result="effect1_dropShadow_711_15914"/>
<feColorMatrix in="SourceAlpha" type="matrix" values="0 0 0 0 0 0 0 0 0 0 0 0 0 0 0 0 0 0 127 0" result="hardAlpha"/>
<feMorphology radius="3" operator="dilate" in="SourceAlpha" result="effect2_dropShadow_711_15914"/>
<feOffset dy="4"/>
<feGaussianBlur stdDeviation="4"/>
<feColorMatrix type="matrix" values="0 0 0 0 0 0 0 0 0 0 0 0 0 0 0 0 0 0 0.08 0"/>
<feBlend mode="normal" in2="effect1_dropShadow_711_15914" result="effect2_dropShadow_711_15914"/>
<feBlend mode="normal" in="SourceGraphic" in2="effect2_dropShadow_711_15914" result="shape"/>
</filter>
<filter id="filter1_dd_711_15914" x="160" y="38" width="294" height="64" filterUnits="userSpaceOnUse" color-interpolation-filters="sRGB">
<feFlood flood-opacity="0" result="BackgroundImageFix"/>
<feColorMatrix in="SourceAlpha" type="matrix" values="0 0 0 0 0 0 0 0 0 0 0 0 0 0 0 0 0 0 127 0" result="hardAlpha"/>
<feOffset dy="1"/>
<feGaussianBlur stdDeviation="1.5"/>
<feColorMatrix type="matrix" values="0 0 0 0 0 0 0 0 0 0 0 0 0 0 0 0 0 0 0.1 0"/>
<feBlend mode="normal" in2="BackgroundImageFix" result="effect1_dropShadow_711_15914"/>
<feColorMatrix in="SourceAlpha" type="matrix" values="0 0 0 0 0 0 0 0 0 0 0 0 0 0 0 0 0 0 127 0" result="hardAlpha"/>
<feMorphology radius="3" operator="dilate" in="SourceAlpha" result="effect2_dropShadow_711_15914"/>
<feOffset dy="4"/>
<feGaussianBlur stdDeviation="4"/>
<feColorMatrix type="matrix" values="0 0 0 0 0 0 0 0 0 0 0 0 0 0 0 0 0 0 0.08 0"/>
<feBlend mode="normal" in2="effect1_dropShadow_711_15914" result="effect2_dropShadow_711_15914"/>
<feBlend mode="normal" in="SourceGraphic" in2="effect2_dropShadow_711_15914" result="shape"/>
</filter>
<filter id="filter2_di_711_15914" x="336" y="78" width="110" height="40" filterUnits="userSpaceOnUse" color-interpolation-filters="sRGB">
<feFlood flood-opacity="0" result="BackgroundImageFix"/>
<feColorMatrix in="SourceAlpha" type="matrix" values="0 0 0 0 0 0 0 0 0 0 0 0 0 0 0 0 0 0 127 0" result="hardAlpha"/>
<feMorphology radius="4" operator="dilate" in="SourceAlpha" result="effect1_dropShadow_711_15914"/>
<feOffset/>
<feComposite in2="hardAlpha" operator="out"/>
<feColorMatrix type="matrix" values="0 0 0 0 0.431373 0 0 0 0 0.545098 0 0 0 0 0.878431 0 0 0 0.2 0"/>
<feBlend mode="normal" in2="BackgroundImageFix" result="effect1_dropShadow_711_15914"/>
<feBlend mode="normal" in="SourceGraphic" in2="effect1_dropShadow_711_15914" result="shape"/>
<feColorMatrix in="SourceAlpha" type="matrix" values="0 0 0 0 0 0 0 0 0 0 0 0 0 0 0 0 0 0 127 0" result="hardAlpha"/>
<feMorphology radius="1" operator="erode" in="SourceAlpha" result="effect2_innerShadow_711_15914"/>
<feOffset/>
<feComposite in2="hardAlpha" operator="arithmetic" k2="-1" k3="1"/>
<feColorMatrix type="matrix" values="0 0 0 0 0.0509804 0 0 0 0 0.243137 0 0 0 0 0.8 0 0 0 1 0"/>
<feBlend mode="normal" in2="shape" result="effect2_innerShadow_711_15914"/>
</filter>
<filter id="filter3_d_711_15914" x="427" y="105.586" width="17.4142" height="23.4143" filterUnits="userSpaceOnUse" color-interpolation-filters="sRGB">
<feFlood flood-opacity="0" result="BackgroundImageFix"/>
<feColorMatrix in="SourceAlpha" type="matrix" values="0 0 0 0 0 0 0 0 0 0 0 0 0 0 0 0 0 0 127 0" result="hardAlpha"/>
<feOffset dy="1"/>
<feGaussianBlur stdDeviation="1.5"/>
<feColorMatrix type="matrix" values="0 0 0 0 0 0 0 0 0 0 0 0 0 0 0 0 0 0 0.290893 0"/>
<feBlend mode="normal" in2="BackgroundImageFix" result="effect1_dropShadow_711_15914"/>
<feBlend mode="normal" in="SourceGraphic" in2="effect1_dropShadow_711_15914" result="shape"/>
</filter>
<clipPath id="clip0_711_15914">
<path d="M0 3.2C0 2.0799 0 1.51984 0.217987 1.09202C0.409734 0.715695 0.715695 0.409734 1.09202 0.217987C1.51984 0 2.0799 0 3.2 0H444.8C445.92 0 446.48 0 446.908 0.217987C447.284 0.409734 447.59 0.715695 447.782 1.09202C448 1.51984 448 2.0799 448 3.2V36.8C448 37.9201 448 38.4802 447.782 38.908C447.59 39.2843 447.284 39.5903 446.908 39.782C446.48 40 445.92 40 444.8 40H3.20002C2.0799 40 1.51984 40 1.09202 39.782C0.715695 39.5903 0.409734 39.2843 0.217987 38.908C0 38.4802 0 37.9201 0 36.8V3.2Z" fill="white"/>
</clipPath>
<clipPath id="clip1_711_15914">
<rect x="410" y="54" width="24" height="24" rx="4" fill="white"/>
</clipPath>
<clipPath id="clip2_711_15914">
<rect x="340" y="82" width="102" height="32" rx="4" fill="white"/>
</clipPath>
</defs>
</svg>
