<svg width="460" height="96" viewBox="0 0 460 96" fill="none" xmlns="http://www.w3.org/2000/svg">
<g clip-path="url(#clip0_740_4053)">
<path d="M0 3.2C0 2.0799 0 1.51984 0.217987 1.09202C0.409734 0.715695 0.715695 0.409734 1.09202 0.217987C1.51984 0 2.0799 0 3.2 0H444.8C445.92 0 446.48 0 446.908 0.217987C447.284 0.409734 447.59 0.715695 447.782 1.09202C448 1.51984 448 2.0799 448 3.2V36.8C448 37.9201 448 38.4802 447.782 38.908C447.59 39.2843 447.284 39.5903 446.908 39.782C446.48 40 445.92 40 444.8 40H3.20002C2.0799 40 1.51984 40 1.09202 39.782C0.715695 39.5903 0.409734 39.2843 0.217987 38.908C0 38.4802 0 37.9201 0 36.8V3.2Z" fill="white"/>
<rect width="448" height="40" fill="#F6F7F7"/>
<path d="M34.9999 19H23.8299L28.7099 14.12C29.0999 13.73 29.0999 13.09 28.7099 12.7C28.3199 12.31 27.6899 12.31 27.2999 12.7L20.7099 19.29C20.3199 19.68 20.3199 20.31 20.7099 20.7L27.2999 27.29C27.6899 27.68 28.3199 27.68 28.7099 27.29C29.0999 26.9 29.0999 26.27 28.7099 25.88L23.8299 21H34.9999C35.5499 21 35.9999 20.55 35.9999 20C35.9999 19.45 35.5499 19 34.9999 19Z" fill="#6B6C6E"/>
<path d="M56.7599 21H67.9299L63.0499 25.88C62.6599 26.27 62.6599 26.91 63.0499 27.3C63.4399 27.69 64.0699 27.69 64.4599 27.3L71.0499 20.71C71.4399 20.32 71.4399 19.69 71.0499 19.3L64.4699 12.7C64.0799 12.31 63.4499 12.31 63.0599 12.7C62.6699 13.09 62.6699 13.72 63.0599 14.11L67.9299 19H56.7599C56.2099 19 55.7599 19.45 55.7599 20C55.7599 20.55 56.2099 21 56.7599 21Z" fill="#6B6C6E"/>
<path d="M105.279 14.7055C103.751 13.1776 101.586 12.2965 99.2053 12.5402C95.7653 12.887 92.9346 15.6803 92.5503 19.1203C92.0348 23.6663 95.5498 27.5 99.9833 27.5C102.973 27.5 105.542 25.7472 106.741 23.2258C107.041 22.5978 106.591 21.876 105.898 21.876C105.551 21.876 105.223 22.0635 105.073 22.3728C104.014 24.6505 101.474 26.094 98.6992 25.4754C96.6183 25.0161 94.9405 23.3195 94.4999 21.2386C93.7126 17.6018 96.4777 14.3774 99.9833 14.3774C101.539 14.3774 102.927 15.0242 103.939 16.0458L102.523 17.4612C101.933 18.0517 102.345 19.064 103.18 19.064H106.545C107.06 19.064 107.482 18.6422 107.482 18.1267V14.7617C107.482 13.9275 106.47 13.5057 105.879 14.0962L105.279 14.7055Z" fill="#6B6C6E"/>
<g opacity="0.6">
<rect x="128" y="4" width="264" height="32" rx="16" fill="#E5E6E8"/>
</g>
<rect x="408" y="8" width="24" height="24" rx="4" fill="#E5E6E8"/>
<path d="M426.924 18.8584H425.855V14.1448H421.142V13.0763C421.142 12.0472 420.403 11.1123 419.382 11.0102C418.203 10.8924 417.214 11.8115 417.214 12.9663V14.1448H412.508V18.7012H413.6C414.629 18.7012 415.564 19.3926 415.76 20.3982C416.02 21.7494 414.99 22.9435 413.678 22.9435H412.5V27.5H417.056V26.4002C417.056 25.371 417.748 24.4361 418.753 24.2397C420.105 23.9805 421.299 25.0096 421.299 26.3216V27.5H425.855V22.7864H427.034C428.188 22.7864 429.108 21.7965 428.99 20.6181C428.888 19.5968 427.945 18.8584 426.924 18.8584Z" fill="#1C1B1F" fill-opacity="0.8"/>
</g>
<g filter="url(#filter0_dd_740_4053)">
<rect x="178" y="40" width="270" height="40" rx="4" fill="white"/>
<path fill-rule="evenodd" clip-rule="evenodd" d="M197.239 67.5C197.261 67.5 197.261 67.5 197.294 67.5C197.392 67.5 197.469 67.4235 197.469 67.325C197.469 67.2485 197.414 67.1501 197.316 67.1501H197.261L197.141 67.1282C195.117 66.7345 193.618 64.9302 193.618 62.8197C193.618 61.923 193.891 61.07 194.362 60.3811C194.438 60.2827 194.559 60.2061 194.69 60.3264L197.884 63.5633C197.906 63.5852 197.961 63.618 198.005 63.618C198.059 63.618 198.103 63.5961 198.125 63.5633L201.341 60.3483C201.462 60.228 201.571 60.2499 201.637 60.3702C202.107 61.07 202.381 61.912 202.381 62.8087C202.381 63.9351 201.954 64.9521 201.254 65.7285C201.232 65.7503 201.199 65.7832 201.177 65.805C201.177 65.8269 201.155 65.8597 201.155 65.8816C201.155 65.98 201.232 66.0565 201.33 66.0565H201.352C201.374 66.0565 201.407 66.0347 201.429 66.0347C205.696 64.2413 205.499 59.9984 205.499 59.9984C205.499 57.5817 204.35 55.4055 202.578 54.0386C202.501 53.9839 202.381 53.9839 202.326 54.0605L198.136 58.3034C198.059 58.3799 197.939 58.3799 197.863 58.3034L193.64 54.0605C193.563 53.9839 193.465 53.9839 193.388 54.0386C191.649 55.4055 190.5 57.5489 190.5 59.9984C190.5 63.8913 193.443 67.1063 197.239 67.5Z" fill="#1C1B1F"/>
<path d="M219.572 55.0469H220.851L224.111 63.1611L227.365 55.0469H228.65L224.604 65H223.605L219.572 55.0469ZM219.155 55.0469H220.283L220.468 61.1172V65H219.155V55.0469ZM227.933 55.0469H229.061V65H227.748V61.1172L227.933 55.0469ZM235.798 63.7354V59.9277C235.798 59.6361 235.739 59.3831 235.62 59.1689C235.506 58.9502 235.333 58.7816 235.101 58.6631C234.868 58.5446 234.581 58.4854 234.239 58.4854C233.92 58.4854 233.64 58.54 233.398 58.6494C233.161 58.7588 232.975 58.9023 232.838 59.0801C232.706 59.2578 232.64 59.4492 232.64 59.6543H231.375C231.375 59.39 231.443 59.1279 231.58 58.8682C231.717 58.6084 231.913 58.3737 232.168 58.1641C232.428 57.9499 232.738 57.7812 233.098 57.6582C233.462 57.5306 233.868 57.4668 234.314 57.4668C234.852 57.4668 235.326 57.5579 235.736 57.7402C236.151 57.9225 236.475 58.1982 236.707 58.5674C236.944 58.932 237.062 59.39 237.062 59.9414V63.3867C237.062 63.6328 237.083 63.8949 237.124 64.1729C237.17 64.4508 237.236 64.6901 237.322 64.8906V65H236.003C235.939 64.8542 235.889 64.6605 235.853 64.4189C235.816 64.1729 235.798 63.945 235.798 63.7354ZM236.017 60.5156L236.03 61.4043H234.752C234.392 61.4043 234.071 61.4339 233.788 61.4932C233.506 61.5479 233.269 61.6322 233.077 61.7461C232.886 61.86 232.74 62.0036 232.64 62.1768C232.539 62.3454 232.489 62.5436 232.489 62.7715C232.489 63.0039 232.542 63.2158 232.646 63.4072C232.751 63.5986 232.909 63.7513 233.118 63.8652C233.332 63.9746 233.594 64.0293 233.904 64.0293C234.292 64.0293 234.633 63.9473 234.93 63.7832C235.226 63.6191 235.461 63.4186 235.634 63.1816C235.812 62.9447 235.907 62.7145 235.921 62.4912L236.461 63.0996C236.429 63.291 236.342 63.5029 236.201 63.7354C236.06 63.9678 235.871 64.1911 235.634 64.4053C235.401 64.6149 235.123 64.7904 234.8 64.9316C234.481 65.0684 234.121 65.1367 233.72 65.1367C233.218 65.1367 232.779 65.0387 232.4 64.8428C232.027 64.6468 231.735 64.3848 231.525 64.0566C231.32 63.724 231.218 63.3525 231.218 62.9424C231.218 62.5459 231.295 62.1973 231.45 61.8965C231.605 61.5911 231.828 61.3382 232.12 61.1377C232.412 60.9326 232.763 60.7777 233.173 60.6729C233.583 60.568 234.041 60.5156 234.547 60.5156H236.017ZM240.676 54.5V65H239.404V54.5H240.676ZM244.829 63.6875L246.729 57.6035H247.563L247.399 58.8135L245.465 65H244.651L244.829 63.6875ZM243.551 57.6035L245.171 63.7559L245.287 65H244.433L242.286 57.6035H243.551ZM249.382 63.708L250.927 57.6035H252.185L250.038 65H249.19L249.382 63.708ZM247.748 57.6035L249.607 63.585L249.819 65H249.013L247.023 58.7998L246.859 57.6035H247.748ZM258.095 63.7354V59.9277C258.095 59.6361 258.035 59.3831 257.917 59.1689C257.803 58.9502 257.63 58.7816 257.397 58.6631C257.165 58.5446 256.878 58.4854 256.536 58.4854C256.217 58.4854 255.937 58.54 255.695 58.6494C255.458 58.7588 255.271 58.9023 255.135 59.0801C255.003 59.2578 254.937 59.4492 254.937 59.6543H253.672C253.672 59.39 253.74 59.1279 253.877 58.8682C254.014 58.6084 254.21 58.3737 254.465 58.1641C254.725 57.9499 255.035 57.7812 255.395 57.6582C255.759 57.5306 256.165 57.4668 256.611 57.4668C257.149 57.4668 257.623 57.5579 258.033 57.7402C258.448 57.9225 258.771 58.1982 259.004 58.5674C259.241 58.932 259.359 59.39 259.359 59.9414V63.3867C259.359 63.6328 259.38 63.8949 259.421 64.1729C259.466 64.4508 259.533 64.6901 259.619 64.8906V65H258.3C258.236 64.8542 258.186 64.6605 258.149 64.4189C258.113 64.1729 258.095 63.945 258.095 63.7354ZM258.313 60.5156L258.327 61.4043H257.049C256.689 61.4043 256.368 61.4339 256.085 61.4932C255.802 61.5479 255.565 61.6322 255.374 61.7461C255.183 61.86 255.037 62.0036 254.937 62.1768C254.836 62.3454 254.786 62.5436 254.786 62.7715C254.786 63.0039 254.839 63.2158 254.943 63.4072C255.048 63.5986 255.205 63.7513 255.415 63.8652C255.629 63.9746 255.891 64.0293 256.201 64.0293C256.589 64.0293 256.93 63.9473 257.227 63.7832C257.523 63.6191 257.757 63.4186 257.931 63.1816C258.108 62.9447 258.204 62.7145 258.218 62.4912L258.758 63.0996C258.726 63.291 258.639 63.5029 258.498 63.7354C258.357 63.9678 258.168 64.1911 257.931 64.4053C257.698 64.6149 257.42 64.7904 257.097 64.9316C256.778 65.0684 256.418 65.1367 256.017 65.1367C255.515 65.1367 255.076 65.0387 254.697 64.8428C254.324 64.6468 254.032 64.3848 253.822 64.0566C253.617 63.724 253.515 63.3525 253.515 62.9424C253.515 62.5459 253.592 62.1973 253.747 61.8965C253.902 61.5911 254.125 61.3382 254.417 61.1377C254.709 60.9326 255.06 60.7777 255.47 60.6729C255.88 60.568 256.338 60.5156 256.844 60.5156H258.313ZM262.863 58.7656V65H261.599V57.6035H262.829L262.863 58.7656ZM265.174 57.5625L265.167 58.7383C265.062 58.7155 264.962 58.7018 264.866 58.6973C264.775 58.6882 264.67 58.6836 264.552 58.6836C264.26 58.6836 264.003 58.7292 263.779 58.8203C263.556 58.9115 263.367 59.0391 263.212 59.2031C263.057 59.3672 262.934 59.5632 262.843 59.791C262.756 60.0143 262.699 60.2604 262.672 60.5293L262.316 60.7344C262.316 60.2878 262.36 59.8685 262.446 59.4766C262.537 59.0846 262.676 58.7383 262.863 58.4375C263.05 58.1322 263.287 57.8952 263.574 57.7266C263.866 57.5534 264.212 57.4668 264.613 57.4668C264.704 57.4668 264.809 57.4782 264.928 57.501C265.046 57.5192 265.128 57.5397 265.174 57.5625ZM269.525 65.1367C269.01 65.1367 268.543 65.0501 268.124 64.877C267.709 64.6992 267.352 64.4508 267.051 64.1318C266.755 63.8128 266.527 63.4346 266.367 62.9971C266.208 62.5596 266.128 62.0811 266.128 61.5615V61.2744C266.128 60.6729 266.217 60.1374 266.395 59.668C266.572 59.194 266.814 58.793 267.119 58.4648C267.424 58.1367 267.771 57.8883 268.158 57.7197C268.546 57.5511 268.947 57.4668 269.361 57.4668C269.89 57.4668 270.346 57.5579 270.729 57.7402C271.116 57.9225 271.433 58.1777 271.679 58.5059C271.925 58.8294 272.107 59.2122 272.226 59.6543C272.344 60.0918 272.403 60.5703 272.403 61.0898V61.6572H266.88V60.625H271.139V60.5293C271.12 60.2012 271.052 59.8822 270.934 59.5723C270.82 59.2624 270.637 59.0072 270.387 58.8066C270.136 58.6061 269.794 58.5059 269.361 58.5059C269.074 58.5059 268.81 58.5674 268.568 58.6904C268.327 58.8089 268.119 58.9867 267.946 59.2236C267.773 59.4606 267.639 59.75 267.543 60.0918C267.447 60.4336 267.399 60.8278 267.399 61.2744V61.5615C267.399 61.9124 267.447 62.2428 267.543 62.5527C267.643 62.8581 267.787 63.127 267.974 63.3594C268.165 63.5918 268.395 63.7741 268.664 63.9062C268.938 64.0384 269.247 64.1045 269.594 64.1045C270.04 64.1045 270.419 64.0133 270.729 63.8311C271.038 63.6488 271.31 63.4049 271.542 63.0996L272.308 63.708C272.148 63.9495 271.945 64.1797 271.699 64.3984C271.453 64.6172 271.15 64.7949 270.79 64.9316C270.435 65.0684 270.013 65.1367 269.525 65.1367ZM274.123 54.5H275.395V63.5645L275.285 65H274.123V54.5ZM280.392 61.2402V61.3838C280.392 61.9215 280.328 62.4206 280.2 62.8809C280.073 63.3366 279.886 63.7331 279.64 64.0703C279.394 64.4076 279.093 64.6696 278.737 64.8564C278.382 65.0433 277.974 65.1367 277.514 65.1367C277.044 65.1367 276.632 65.057 276.276 64.8975C275.925 64.7334 275.629 64.4987 275.388 64.1934C275.146 63.888 274.952 63.5189 274.807 63.0859C274.665 62.653 274.567 62.1654 274.513 61.623V60.9941C274.567 60.4473 274.665 59.9574 274.807 59.5244C274.952 59.0915 275.146 58.7223 275.388 58.417C275.629 58.1071 275.925 57.8724 276.276 57.7129C276.627 57.5488 277.035 57.4668 277.5 57.4668C277.965 57.4668 278.377 57.5579 278.737 57.7402C279.097 57.918 279.398 58.1732 279.64 58.5059C279.886 58.8385 280.073 59.2373 280.2 59.7021C280.328 60.1624 280.392 60.6751 280.392 61.2402ZM279.12 61.3838V61.2402C279.12 60.8711 279.086 60.5247 279.018 60.2012C278.949 59.873 278.84 59.5859 278.689 59.3398C278.539 59.0892 278.341 58.8932 278.095 58.752C277.849 58.6061 277.546 58.5332 277.186 58.5332C276.867 58.5332 276.589 58.5879 276.352 58.6973C276.119 58.8066 275.921 58.9548 275.757 59.1416C275.593 59.3239 275.458 59.5335 275.354 59.7705C275.253 60.0029 275.178 60.2445 275.128 60.4951V62.1426C275.201 62.4616 275.319 62.7692 275.483 63.0654C275.652 63.3571 275.875 63.5964 276.153 63.7832C276.436 63.9701 276.785 64.0635 277.199 64.0635C277.541 64.0635 277.833 63.9951 278.074 63.8584C278.32 63.7171 278.519 63.5234 278.669 63.2773C278.824 63.0312 278.938 62.7464 279.011 62.4229C279.084 62.0993 279.12 61.7529 279.12 61.3838ZM284.237 64.2344L286.295 57.6035H287.648L284.682 66.1416C284.613 66.3239 284.522 66.5199 284.408 66.7295C284.299 66.9437 284.158 67.1465 283.984 67.3379C283.811 67.5293 283.602 67.6842 283.355 67.8027C283.114 67.9258 282.825 67.9873 282.487 67.9873C282.387 67.9873 282.259 67.9736 282.104 67.9463C281.95 67.9189 281.84 67.8962 281.776 67.8779L281.77 66.8525C281.806 66.8571 281.863 66.8617 281.94 66.8662C282.022 66.8753 282.079 66.8799 282.111 66.8799C282.398 66.8799 282.642 66.8411 282.843 66.7637C283.043 66.6908 283.212 66.5654 283.349 66.3877C283.49 66.2145 283.611 65.9753 283.711 65.6699L284.237 64.2344ZM282.727 57.6035L284.647 63.3457L284.976 64.6787L284.066 65.1436L281.346 57.6035H282.727ZM292.137 57.6035V58.5742H288.138V57.6035H292.137ZM289.491 55.8057H290.756V63.168C290.756 63.4186 290.795 63.6077 290.872 63.7354C290.95 63.863 291.05 63.9473 291.173 63.9883C291.296 64.0293 291.428 64.0498 291.569 64.0498C291.674 64.0498 291.784 64.0407 291.897 64.0225C292.016 63.9997 292.105 63.9814 292.164 63.9678L292.171 65C292.071 65.0319 291.938 65.0615 291.774 65.0889C291.615 65.1208 291.421 65.1367 291.193 65.1367C290.883 65.1367 290.599 65.0752 290.339 64.9521C290.079 64.8291 289.872 64.624 289.717 64.3369C289.566 64.0452 289.491 63.6533 289.491 63.1611V55.8057ZM296.939 65.1367C296.424 65.1367 295.957 65.0501 295.538 64.877C295.123 64.6992 294.766 64.4508 294.465 64.1318C294.169 63.8128 293.941 63.4346 293.781 62.9971C293.622 62.5596 293.542 62.0811 293.542 61.5615V61.2744C293.542 60.6729 293.631 60.1374 293.809 59.668C293.986 59.194 294.228 58.793 294.533 58.4648C294.839 58.1367 295.185 57.8883 295.572 57.7197C295.96 57.5511 296.361 57.4668 296.775 57.4668C297.304 57.4668 297.76 57.5579 298.143 57.7402C298.53 57.9225 298.847 58.1777 299.093 58.5059C299.339 58.8294 299.521 59.2122 299.64 59.6543C299.758 60.0918 299.817 60.5703 299.817 61.0898V61.6572H294.294V60.625H298.553V60.5293C298.535 60.2012 298.466 59.8822 298.348 59.5723C298.234 59.2624 298.051 59.0072 297.801 58.8066C297.55 58.6061 297.208 58.5059 296.775 58.5059C296.488 58.5059 296.224 58.5674 295.982 58.6904C295.741 58.8089 295.534 58.9867 295.36 59.2236C295.187 59.4606 295.053 59.75 294.957 60.0918C294.861 60.4336 294.813 60.8278 294.813 61.2744V61.5615C294.813 61.9124 294.861 62.2428 294.957 62.5527C295.057 62.8581 295.201 63.127 295.388 63.3594C295.579 63.5918 295.809 63.7741 296.078 63.9062C296.352 64.0384 296.661 64.1045 297.008 64.1045C297.454 64.1045 297.833 64.0133 298.143 63.8311C298.452 63.6488 298.724 63.4049 298.956 63.0996L299.722 63.708C299.562 63.9495 299.359 64.1797 299.113 64.3984C298.867 64.6172 298.564 64.7949 298.204 64.9316C297.849 65.0684 297.427 65.1367 296.939 65.1367ZM305.851 63.0381C305.851 62.8558 305.81 62.6872 305.728 62.5322C305.65 62.3727 305.488 62.2292 305.242 62.1016C305.001 61.9694 304.636 61.8555 304.148 61.7598C303.738 61.6732 303.367 61.5706 303.034 61.4521C302.706 61.3337 302.426 61.1901 302.193 61.0215C301.965 60.8529 301.79 60.6546 301.667 60.4268C301.544 60.1989 301.482 59.9323 301.482 59.627C301.482 59.3353 301.546 59.0596 301.674 58.7998C301.806 58.54 301.991 58.3099 302.228 58.1094C302.469 57.9089 302.758 57.7516 303.096 57.6377C303.433 57.5238 303.809 57.4668 304.224 57.4668C304.816 57.4668 305.322 57.5716 305.741 57.7812C306.16 57.9909 306.482 58.2712 306.705 58.6221C306.928 58.9684 307.04 59.3535 307.04 59.7773H305.775C305.775 59.5723 305.714 59.374 305.591 59.1826C305.472 58.9867 305.297 58.8249 305.064 58.6973C304.837 58.5697 304.556 58.5059 304.224 58.5059C303.873 58.5059 303.588 58.5605 303.369 58.6699C303.155 58.7747 302.998 58.9092 302.897 59.0732C302.802 59.2373 302.754 59.4105 302.754 59.5928C302.754 59.7295 302.777 59.8525 302.822 59.9619C302.872 60.0667 302.959 60.1647 303.082 60.2559C303.205 60.3424 303.378 60.4245 303.602 60.502C303.825 60.5794 304.11 60.6569 304.456 60.7344C305.062 60.8711 305.561 61.0352 305.953 61.2266C306.345 61.418 306.637 61.6527 306.828 61.9307C307.02 62.2087 307.115 62.5459 307.115 62.9424C307.115 63.266 307.047 63.5622 306.91 63.8311C306.778 64.0999 306.584 64.3324 306.329 64.5283C306.078 64.7197 305.778 64.8701 305.427 64.9795C305.08 65.0843 304.691 65.1367 304.258 65.1367C303.606 65.1367 303.055 65.0205 302.604 64.7881C302.152 64.5557 301.811 64.2549 301.578 63.8857C301.346 63.5166 301.229 63.127 301.229 62.7168H302.501C302.519 63.0632 302.619 63.3389 302.802 63.5439C302.984 63.7445 303.207 63.888 303.472 63.9746C303.736 64.0566 303.998 64.0977 304.258 64.0977C304.604 64.0977 304.894 64.0521 305.126 63.9609C305.363 63.8698 305.543 63.7445 305.666 63.585C305.789 63.4255 305.851 63.2432 305.851 63.0381ZM316.488 60.3447H313.966L313.952 59.2852H316.242C316.62 59.2852 316.951 59.2214 317.233 59.0938C317.516 58.9661 317.735 58.7839 317.89 58.5469C318.049 58.3053 318.129 58.0182 318.129 57.6855C318.129 57.321 318.058 57.0247 317.917 56.7969C317.78 56.5645 317.568 56.3958 317.281 56.291C316.999 56.1816 316.639 56.127 316.201 56.127H314.26V65H312.94V55.0469H316.201C316.712 55.0469 317.167 55.0993 317.568 55.2041C317.969 55.3044 318.309 55.4639 318.587 55.6826C318.869 55.8968 319.084 56.1702 319.229 56.5029C319.375 56.8356 319.448 57.2344 319.448 57.6992C319.448 58.1094 319.343 58.4808 319.134 58.8135C318.924 59.1416 318.632 59.4105 318.259 59.6201C317.89 59.8298 317.457 59.9642 316.96 60.0234L316.488 60.3447ZM316.427 65H313.446L314.191 63.9268H316.427C316.846 63.9268 317.201 63.8538 317.493 63.708C317.789 63.5622 318.015 63.3571 318.17 63.0928C318.325 62.8239 318.402 62.5072 318.402 62.1426C318.402 61.7734 318.336 61.4544 318.204 61.1855C318.072 60.9167 317.865 60.7093 317.582 60.5635C317.299 60.4176 316.935 60.3447 316.488 60.3447H314.608L314.622 59.2852H317.192L317.473 59.668C317.951 59.709 318.357 59.8457 318.689 60.0781C319.022 60.306 319.275 60.5977 319.448 60.9531C319.626 61.3086 319.715 61.7005 319.715 62.1289C319.715 62.7487 319.578 63.2728 319.305 63.7012C319.036 64.125 318.655 64.4486 318.163 64.6719C317.671 64.8906 317.092 65 316.427 65ZM322.986 58.7656V65H321.722V57.6035H322.952L322.986 58.7656ZM325.297 57.5625L325.29 58.7383C325.185 58.7155 325.085 58.7018 324.989 58.6973C324.898 58.6882 324.793 58.6836 324.675 58.6836C324.383 58.6836 324.126 58.7292 323.902 58.8203C323.679 58.9115 323.49 59.0391 323.335 59.2031C323.18 59.3672 323.057 59.5632 322.966 59.791C322.879 60.0143 322.822 60.2604 322.795 60.5293L322.439 60.7344C322.439 60.2878 322.483 59.8685 322.569 59.4766C322.66 59.0846 322.799 58.7383 322.986 58.4375C323.173 58.1322 323.41 57.8952 323.697 57.7266C323.989 57.5534 324.335 57.4668 324.736 57.4668C324.827 57.4668 324.932 57.4782 325.051 57.501C325.169 57.5192 325.251 57.5397 325.297 57.5625ZM326.244 61.3838V61.2266C326.244 60.6934 326.322 60.1989 326.477 59.7432C326.632 59.2829 326.855 58.8841 327.146 58.5469C327.438 58.2051 327.791 57.9408 328.206 57.7539C328.621 57.5625 329.086 57.4668 329.601 57.4668C330.12 57.4668 330.587 57.5625 331.002 57.7539C331.421 57.9408 331.777 58.2051 332.068 58.5469C332.365 58.8841 332.59 59.2829 332.745 59.7432C332.9 60.1989 332.978 60.6934 332.978 61.2266V61.3838C332.978 61.917 332.9 62.4115 332.745 62.8672C332.59 63.3229 332.365 63.7217 332.068 64.0635C331.777 64.4007 331.424 64.665 331.009 64.8564C330.599 65.0433 330.134 65.1367 329.614 65.1367C329.095 65.1367 328.628 65.0433 328.213 64.8564C327.798 64.665 327.443 64.4007 327.146 64.0635C326.855 63.7217 326.632 63.3229 326.477 62.8672C326.322 62.4115 326.244 61.917 326.244 61.3838ZM327.509 61.2266V61.3838C327.509 61.7529 327.552 62.1016 327.639 62.4297C327.725 62.7533 327.855 63.0404 328.028 63.291C328.206 63.5417 328.427 63.7399 328.691 63.8857C328.956 64.027 329.263 64.0977 329.614 64.0977C329.961 64.0977 330.264 64.027 330.523 63.8857C330.788 63.7399 331.007 63.5417 331.18 63.291C331.353 63.0404 331.483 62.7533 331.569 62.4297C331.66 62.1016 331.706 61.7529 331.706 61.3838V61.2266C331.706 60.862 331.66 60.5179 331.569 60.1943C331.483 59.8662 331.351 59.5768 331.173 59.3262C331 59.071 330.781 58.8704 330.517 58.7246C330.257 58.5788 329.951 58.5059 329.601 58.5059C329.254 58.5059 328.949 58.5788 328.685 58.7246C328.425 58.8704 328.206 59.071 328.028 59.3262C327.855 59.5768 327.725 59.8662 327.639 60.1943C327.552 60.5179 327.509 60.862 327.509 61.2266ZM336.687 63.6875L338.587 57.6035H339.421L339.257 58.8135L337.322 65H336.509L336.687 63.6875ZM335.408 57.6035L337.028 63.7559L337.145 65H336.29L334.144 57.6035H335.408ZM341.239 63.708L342.784 57.6035H344.042L341.896 65H341.048L341.239 63.708ZM339.605 57.6035L341.465 63.585L341.677 65H340.87L338.881 58.7998L338.717 57.6035H339.605ZM349.897 63.0381C349.897 62.8558 349.856 62.6872 349.774 62.5322C349.697 62.3727 349.535 62.2292 349.289 62.1016C349.048 61.9694 348.683 61.8555 348.195 61.7598C347.785 61.6732 347.414 61.5706 347.081 61.4521C346.753 61.3337 346.473 61.1901 346.24 61.0215C346.012 60.8529 345.837 60.6546 345.714 60.4268C345.591 60.1989 345.529 59.9323 345.529 59.627C345.529 59.3353 345.593 59.0596 345.721 58.7998C345.853 58.54 346.037 58.3099 346.274 58.1094C346.516 57.9089 346.805 57.7516 347.143 57.6377C347.48 57.5238 347.856 57.4668 348.271 57.4668C348.863 57.4668 349.369 57.5716 349.788 57.7812C350.207 57.9909 350.529 58.2712 350.752 58.6221C350.975 58.9684 351.087 59.3535 351.087 59.7773H349.822C349.822 59.5723 349.761 59.374 349.638 59.1826C349.519 58.9867 349.344 58.8249 349.111 58.6973C348.883 58.5697 348.603 58.5059 348.271 58.5059C347.92 58.5059 347.635 58.5605 347.416 58.6699C347.202 58.7747 347.045 58.9092 346.944 59.0732C346.849 59.2373 346.801 59.4105 346.801 59.5928C346.801 59.7295 346.824 59.8525 346.869 59.9619C346.919 60.0667 347.006 60.1647 347.129 60.2559C347.252 60.3424 347.425 60.4245 347.648 60.502C347.872 60.5794 348.157 60.6569 348.503 60.7344C349.109 60.8711 349.608 61.0352 350 61.2266C350.392 61.418 350.684 61.6527 350.875 61.9307C351.066 62.2087 351.162 62.5459 351.162 62.9424C351.162 63.266 351.094 63.5622 350.957 63.8311C350.825 64.0999 350.631 64.3324 350.376 64.5283C350.125 64.7197 349.825 64.8701 349.474 64.9795C349.127 65.0843 348.738 65.1367 348.305 65.1367C347.653 65.1367 347.102 65.0205 346.65 64.7881C346.199 64.5557 345.857 64.2549 345.625 63.8857C345.393 63.5166 345.276 63.127 345.276 62.7168H346.548C346.566 63.0632 346.666 63.3389 346.849 63.5439C347.031 63.7445 347.254 63.888 347.519 63.9746C347.783 64.0566 348.045 64.0977 348.305 64.0977C348.651 64.0977 348.94 64.0521 349.173 63.9609C349.41 63.8698 349.59 63.7445 349.713 63.585C349.836 63.4255 349.897 63.2432 349.897 63.0381ZM356.143 65.1367C355.628 65.1367 355.16 65.0501 354.741 64.877C354.326 64.6992 353.969 64.4508 353.668 64.1318C353.372 63.8128 353.144 63.4346 352.984 62.9971C352.825 62.5596 352.745 62.0811 352.745 61.5615V61.2744C352.745 60.6729 352.834 60.1374 353.012 59.668C353.189 59.194 353.431 58.793 353.736 58.4648C354.042 58.1367 354.388 57.8883 354.775 57.7197C355.163 57.5511 355.564 57.4668 355.979 57.4668C356.507 57.4668 356.963 57.5579 357.346 57.7402C357.733 57.9225 358.05 58.1777 358.296 58.5059C358.542 58.8294 358.724 59.2122 358.843 59.6543C358.961 60.0918 359.021 60.5703 359.021 61.0898V61.6572H353.497V60.625H357.756V60.5293C357.738 60.2012 357.669 59.8822 357.551 59.5723C357.437 59.2624 357.255 59.0072 357.004 58.8066C356.753 58.6061 356.411 58.5059 355.979 58.5059C355.691 58.5059 355.427 58.5674 355.186 58.6904C354.944 58.8089 354.737 58.9867 354.563 59.2236C354.39 59.4606 354.256 59.75 354.16 60.0918C354.064 60.4336 354.017 60.8278 354.017 61.2744V61.5615C354.017 61.9124 354.064 62.2428 354.16 62.5527C354.26 62.8581 354.404 63.127 354.591 63.3594C354.782 63.5918 355.012 63.7741 355.281 63.9062C355.555 64.0384 355.865 64.1045 356.211 64.1045C356.658 64.1045 357.036 64.0133 357.346 63.8311C357.656 63.6488 357.927 63.4049 358.159 63.0996L358.925 63.708C358.765 63.9495 358.562 64.1797 358.316 64.3984C358.07 64.6172 357.767 64.7949 357.407 64.9316C357.052 65.0684 356.63 65.1367 356.143 65.1367ZM362.012 58.7656V65H360.747V57.6035H361.978L362.012 58.7656ZM364.322 57.5625L364.315 58.7383C364.211 58.7155 364.11 58.7018 364.015 58.6973C363.924 58.6882 363.819 58.6836 363.7 58.6836C363.409 58.6836 363.151 58.7292 362.928 58.8203C362.704 58.9115 362.515 59.0391 362.36 59.2031C362.205 59.3672 362.082 59.5632 361.991 59.791C361.905 60.0143 361.848 60.2604 361.82 60.5293L361.465 60.7344C361.465 60.2878 361.508 59.8685 361.595 59.4766C361.686 59.0846 361.825 58.7383 362.012 58.4375C362.199 58.1322 362.436 57.8952 362.723 57.7266C363.014 57.5534 363.361 57.4668 363.762 57.4668C363.853 57.4668 363.958 57.4782 364.076 57.501C364.195 57.5192 364.277 57.5397 364.322 57.5625ZM377.011 60.0439V63.6875C376.888 63.8698 376.692 64.0749 376.423 64.3027C376.154 64.526 375.783 64.722 375.309 64.8906C374.839 65.0547 374.233 65.1367 373.49 65.1367C372.884 65.1367 372.326 65.0319 371.815 64.8223C371.31 64.6081 370.87 64.2982 370.496 63.8926C370.127 63.4824 369.84 62.9857 369.635 62.4023C369.434 61.8145 369.334 61.1491 369.334 60.4062V59.6338C369.334 58.891 369.421 58.2279 369.594 57.6445C369.771 57.0612 370.031 56.5667 370.373 56.1611C370.715 55.751 371.134 55.4411 371.631 55.2314C372.128 55.0173 372.697 54.9102 373.34 54.9102C374.101 54.9102 374.737 55.0423 375.247 55.3066C375.762 55.5664 376.163 55.9264 376.45 56.3867C376.742 56.847 376.929 57.3711 377.011 57.959H375.691C375.632 57.599 375.514 57.2708 375.336 56.9746C375.163 56.6784 374.914 56.4414 374.591 56.2637C374.267 56.0814 373.85 55.9902 373.34 55.9902C372.88 55.9902 372.481 56.0745 372.144 56.2432C371.806 56.4118 371.528 56.6533 371.31 56.9678C371.091 57.2822 370.927 57.6628 370.817 58.1094C370.713 58.556 370.66 59.0596 370.66 59.6201V60.4062C370.66 60.9805 370.726 61.4932 370.858 61.9443C370.995 62.3955 371.189 62.7806 371.439 63.0996C371.69 63.4141 371.989 63.6533 372.335 63.8174C372.686 63.9814 373.073 64.0635 373.497 64.0635C373.966 64.0635 374.347 64.0247 374.639 63.9473C374.93 63.8652 375.158 63.7695 375.322 63.6602C375.486 63.5462 375.612 63.4391 375.698 63.3389V61.1104H373.395V60.0439H377.011ZM383.782 63.291V57.6035H385.054V65H383.844L383.782 63.291ZM384.021 61.7324L384.548 61.7188C384.548 62.2109 384.495 62.6667 384.391 63.0859C384.29 63.5007 384.126 63.8607 383.898 64.166C383.671 64.4714 383.372 64.7106 383.003 64.8838C382.634 65.0524 382.185 65.1367 381.656 65.1367C381.296 65.1367 380.966 65.0843 380.665 64.9795C380.369 64.8747 380.114 64.7129 379.899 64.4941C379.685 64.2754 379.519 63.9906 379.4 63.6396C379.286 63.2887 379.229 62.8672 379.229 62.375V57.6035H380.494V62.3887C380.494 62.7214 380.531 62.9971 380.604 63.2158C380.681 63.43 380.784 63.6009 380.911 63.7285C381.043 63.8516 381.189 63.9382 381.349 63.9883C381.513 64.0384 381.681 64.0635 381.854 64.0635C382.392 64.0635 382.818 63.9609 383.133 63.7559C383.447 63.5462 383.673 63.266 383.81 62.915C383.951 62.5596 384.021 62.1654 384.021 61.7324ZM391.593 63.7354V59.9277C391.593 59.6361 391.534 59.3831 391.415 59.1689C391.301 58.9502 391.128 58.7816 390.896 58.6631C390.663 58.5446 390.376 58.4854 390.034 58.4854C389.715 58.4854 389.435 58.54 389.193 58.6494C388.956 58.7588 388.77 58.9023 388.633 59.0801C388.501 59.2578 388.435 59.4492 388.435 59.6543H387.17C387.17 59.39 387.238 59.1279 387.375 58.8682C387.512 58.6084 387.708 58.3737 387.963 58.1641C388.223 57.9499 388.533 57.7812 388.893 57.6582C389.257 57.5306 389.663 57.4668 390.109 57.4668C390.647 57.4668 391.121 57.5579 391.531 57.7402C391.946 57.9225 392.27 58.1982 392.502 58.5674C392.739 58.932 392.857 59.39 392.857 59.9414V63.3867C392.857 63.6328 392.878 63.8949 392.919 64.1729C392.965 64.4508 393.031 64.6901 393.117 64.8906V65H391.798C391.734 64.8542 391.684 64.6605 391.647 64.4189C391.611 64.1729 391.593 63.945 391.593 63.7354ZM391.812 60.5156L391.825 61.4043H390.547C390.187 61.4043 389.866 61.4339 389.583 61.4932C389.3 61.5479 389.063 61.6322 388.872 61.7461C388.681 61.86 388.535 62.0036 388.435 62.1768C388.334 62.3454 388.284 62.5436 388.284 62.7715C388.284 63.0039 388.337 63.2158 388.441 63.4072C388.546 63.5986 388.703 63.7513 388.913 63.8652C389.127 63.9746 389.389 64.0293 389.699 64.0293C390.087 64.0293 390.428 63.9473 390.725 63.7832C391.021 63.6191 391.256 63.4186 391.429 63.1816C391.606 62.9447 391.702 62.7145 391.716 62.4912L392.256 63.0996C392.224 63.291 392.137 63.5029 391.996 63.7354C391.855 63.9678 391.666 64.1911 391.429 64.4053C391.196 64.6149 390.918 64.7904 390.595 64.9316C390.276 65.0684 389.916 65.1367 389.515 65.1367C389.013 65.1367 388.574 65.0387 388.195 64.8428C387.822 64.6468 387.53 64.3848 387.32 64.0566C387.115 63.724 387.013 63.3525 387.013 62.9424C387.013 62.5459 387.09 62.1973 387.245 61.8965C387.4 61.5911 387.623 61.3382 387.915 61.1377C388.207 60.9326 388.558 60.7777 388.968 60.6729C389.378 60.568 389.836 60.5156 390.342 60.5156H391.812ZM396.361 58.7656V65H395.097V57.6035H396.327L396.361 58.7656ZM398.672 57.5625L398.665 58.7383C398.56 58.7155 398.46 58.7018 398.364 58.6973C398.273 58.6882 398.168 58.6836 398.05 58.6836C397.758 58.6836 397.501 58.7292 397.277 58.8203C397.054 58.9115 396.865 59.0391 396.71 59.2031C396.555 59.3672 396.432 59.5632 396.341 59.791C396.254 60.0143 396.197 60.2604 396.17 60.5293L395.814 60.7344C395.814 60.2878 395.858 59.8685 395.944 59.4766C396.035 59.0846 396.174 58.7383 396.361 58.4375C396.548 58.1322 396.785 57.8952 397.072 57.7266C397.364 57.5534 397.71 57.4668 398.111 57.4668C398.202 57.4668 398.307 57.4782 398.426 57.501C398.544 57.5192 398.626 57.5397 398.672 57.5625ZM404.616 63.5645V54.5H405.888V65H404.726L404.616 63.5645ZM399.64 61.3838V61.2402C399.64 60.6751 399.708 60.1624 399.845 59.7021C399.986 59.2373 400.184 58.8385 400.439 58.5059C400.699 58.1732 401.007 57.918 401.362 57.7402C401.722 57.5579 402.123 57.4668 402.565 57.4668C403.03 57.4668 403.436 57.5488 403.782 57.7129C404.133 57.8724 404.429 58.1071 404.671 58.417C404.917 58.7223 405.111 59.0915 405.252 59.5244C405.393 59.9574 405.491 60.4473 405.546 60.9941V61.623C405.496 62.1654 405.398 62.653 405.252 63.0859C405.111 63.5189 404.917 63.888 404.671 64.1934C404.429 64.4987 404.133 64.7334 403.782 64.8975C403.431 65.057 403.021 65.1367 402.552 65.1367C402.119 65.1367 401.722 65.0433 401.362 64.8564C401.007 64.6696 400.699 64.4076 400.439 64.0703C400.184 63.7331 399.986 63.3366 399.845 62.8809C399.708 62.4206 399.64 61.9215 399.64 61.3838ZM400.911 61.2402V61.3838C400.911 61.7529 400.948 62.0993 401.021 62.4229C401.098 62.7464 401.216 63.0312 401.376 63.2773C401.535 63.5234 401.738 63.7171 401.984 63.8584C402.23 63.9951 402.524 64.0635 402.866 64.0635C403.285 64.0635 403.63 63.9746 403.898 63.7969C404.172 63.6191 404.391 63.3844 404.555 63.0928C404.719 62.8011 404.846 62.4844 404.938 62.1426V60.4951C404.883 60.2445 404.803 60.0029 404.698 59.7705C404.598 59.5335 404.466 59.3239 404.302 59.1416C404.142 58.9548 403.944 58.8066 403.707 58.6973C403.475 58.5879 403.199 58.5332 402.88 58.5332C402.534 58.5332 402.235 58.6061 401.984 58.752C401.738 58.8932 401.535 59.0892 401.376 59.3398C401.216 59.5859 401.098 59.873 401.021 60.2012C400.948 60.5247 400.911 60.8711 400.911 61.2402Z" fill="#1C1B1F" fill-opacity="0.8"/>
<rect x="416" y="48" width="24" height="24" rx="4" fill="#F6F7F7"/>
<path fill-rule="evenodd" clip-rule="evenodd" d="M432 53H424V55H425V60L423 63V64H425H427L427 68L428 69L429 68V64H431H433V63L431 60V55H432V53Z" fill="#0D3ECC"/>
<rect x="177.5" y="39.5" width="271" height="41" rx="4.5" stroke="#E5E6E8"/>
</g>
<defs>
<filter id="filter0_dd_740_4053" x="166" y="32" width="294" height="64" filterUnits="userSpaceOnUse" color-interpolation-filters="sRGB">
<feFlood flood-opacity="0" result="BackgroundImageFix"/>
<feColorMatrix in="SourceAlpha" type="matrix" values="0 0 0 0 0 0 0 0 0 0 0 0 0 0 0 0 0 0 127 0" result="hardAlpha"/>
<feOffset dy="1"/>
<feGaussianBlur stdDeviation="1.5"/>
<feColorMatrix type="matrix" values="0 0 0 0 0 0 0 0 0 0 0 0 0 0 0 0 0 0 0.1 0"/>
<feBlend mode="normal" in2="BackgroundImageFix" result="effect1_dropShadow_740_4053"/>
<feColorMatrix in="SourceAlpha" type="matrix" values="0 0 0 0 0 0 0 0 0 0 0 0 0 0 0 0 0 0 127 0" result="hardAlpha"/>
<feMorphology radius="3" operator="dilate" in="SourceAlpha" result="effect2_dropShadow_740_4053"/>
<feOffset dy="4"/>
<feGaussianBlur stdDeviation="4"/>
<feColorMatrix type="matrix" values="0 0 0 0 0 0 0 0 0 0 0 0 0 0 0 0 0 0 0.08 0"/>
<feBlend mode="normal" in2="effect1_dropShadow_740_4053" result="effect2_dropShadow_740_4053"/>
<feBlend mode="normal" in="SourceGraphic" in2="effect2_dropShadow_740_4053" result="shape"/>
</filter>
<clipPath id="clip0_740_4053">
<path d="M0 3.2C0 2.0799 0 1.51984 0.217987 1.09202C0.409734 0.715695 0.715695 0.409734 1.09202 0.217987C1.51984 0 2.0799 0 3.2 0H444.8C445.92 0 446.48 0 446.908 0.217987C447.284 0.409734 447.59 0.715695 447.782 1.09202C448 1.51984 448 2.0799 448 3.2V36.8C448 37.9201 448 38.4802 447.782 38.908C447.59 39.2843 447.284 39.5903 446.908 39.782C446.48 40 445.92 40 444.8 40H3.20002C2.0799 40 1.51984 40 1.09202 39.782C0.715695 39.5903 0.409734 39.2843 0.217987 38.908C0 38.4802 0 37.9201 0 36.8V3.2Z" fill="white"/>
</clipPath>
</defs>
</svg>
