<svg width="448" height="46" viewBox="0 0 448 46" fill="none" xmlns="http://www.w3.org/2000/svg">
<g clip-path="url(#clip0_740_4520)">
<path d="M0 3.2C0 2.0799 0 1.51984 0.217987 1.09202C0.409734 0.715695 0.715695 0.409734 1.09202 0.217987C1.51984 0 2.0799 0 3.2 0H444.8C445.92 0 446.48 0 446.908 0.217987C447.284 0.409734 447.59 0.715695 447.782 1.09202C448 1.51984 448 2.0799 448 3.2V36.8C448 37.9201 448 38.4802 447.782 38.908C447.59 39.2843 447.284 39.5903 446.908 39.782C446.48 40 445.92 40 444.8 40H3.20002C2.0799 40 1.51984 40 1.09202 39.782C0.715695 39.5903 0.409734 39.2843 0.217987 38.908C0 38.4802 0 37.9201 0 36.8V3.2Z" fill="white"/>
<rect width="448" height="40" fill="#282A32"/>
<path d="M35 19H23.83L28.71 14.12C29.1 13.73 29.1 13.09 28.71 12.7C28.32 12.31 27.69 12.31 27.3 12.7L20.71 19.29C20.32 19.68 20.32 20.31 20.71 20.7L27.3 27.29C27.69 27.68 28.32 27.68 28.71 27.29C29.1 26.9 29.1 26.27 28.71 25.88L23.83 21H35C35.55 21 36 20.55 36 20C36 19.45 35.55 19 35 19Z" fill="#6B6C6E"/>
<path d="M56.7599 21H67.9299L63.0499 25.88C62.6599 26.27 62.6599 26.91 63.0499 27.3C63.4399 27.69 64.0699 27.69 64.4599 27.3L71.0499 20.71C71.4399 20.32 71.4399 19.69 71.0499 19.3L64.4699 12.7C64.0799 12.31 63.4499 12.31 63.0599 12.7C62.6699 13.09 62.6699 13.72 63.0599 14.11L67.9299 19H56.7599C56.2099 19 55.7599 19.45 55.7599 20C55.7599 20.55 56.2099 21 56.7599 21Z" fill="#6B6C6E"/>
<path d="M105.279 14.7055C103.751 13.1776 101.586 12.2965 99.2053 12.5402C95.7653 12.887 92.9346 15.6803 92.5503 19.1203C92.0348 23.6663 95.5498 27.5 99.9833 27.5C102.973 27.5 105.542 25.7472 106.741 23.2258C107.041 22.5978 106.591 21.876 105.898 21.876C105.551 21.876 105.223 22.0635 105.073 22.3728C104.014 24.6505 101.474 26.094 98.6992 25.4754C96.6183 25.0161 94.9405 23.3195 94.4999 21.2386C93.7126 17.6018 96.4777 14.3774 99.9833 14.3774C101.539 14.3774 102.927 15.0242 103.939 16.0458L102.523 17.4612C101.933 18.0517 102.345 19.064 103.18 19.064H106.545C107.06 19.064 107.482 18.6422 107.482 18.1267V14.7617C107.482 13.9275 106.47 13.5057 105.879 14.0962L105.279 14.7055Z" fill="#6B6C6E"/>
<g opacity="0.5">
<rect x="128" y="4" width="264" height="32" rx="16" fill="#414451"/>
</g>
<rect x="408" y="8" width="24" height="24" rx="4" fill="#1C1B1F"/>
<path fill-rule="evenodd" clip-rule="evenodd" d="M419.239 27.5C419.261 27.5 419.261 27.5 419.294 27.5C419.392 27.5 419.469 27.4235 419.469 27.325C419.469 27.2485 419.414 27.1501 419.316 27.1501H419.261L419.141 27.1282C417.117 26.7345 415.618 24.9302 415.618 22.8197C415.618 21.923 415.891 21.07 416.362 20.3811C416.438 20.2827 416.559 20.2061 416.69 20.3264L419.884 23.5633C419.906 23.5852 419.961 23.618 420.005 23.618C420.059 23.618 420.103 23.5961 420.125 23.5633L423.341 20.3483C423.462 20.228 423.571 20.2499 423.637 20.3702C424.107 21.07 424.381 21.912 424.381 22.8087C424.381 23.9351 423.954 24.9521 423.254 25.7285C423.232 25.7503 423.199 25.7832 423.177 25.805C423.177 25.8269 423.155 25.8597 423.155 25.8816C423.155 25.98 423.232 26.0565 423.33 26.0565H423.352C423.374 26.0565 423.407 26.0347 423.429 26.0347C427.696 24.2413 427.499 19.9984 427.499 19.9984C427.499 17.5817 426.35 15.4055 424.578 14.0386C424.501 13.9839 424.381 13.9839 424.326 14.0605L420.136 18.3034C420.059 18.3799 419.939 18.3799 419.863 18.3034L415.64 14.0605C415.563 13.9839 415.465 13.9839 415.388 14.0386C413.649 15.4055 412.5 17.5489 412.5 19.9984C412.5 23.8913 415.443 27.1063 419.239 27.5Z" fill="white" fill-opacity="0.95"/>
</g>
<g filter="url(#filter0_d_740_4520)">
<path fill-rule="evenodd" clip-rule="evenodd" d="M431 27V39L434 36L436.5 41H437.5C437.5 41 438.146 40.3496 438 40C437.312 38.3496 435.5 35 435.5 35H439L431 27Z" fill="black"/>
<path d="M431.354 26.6464L430.5 25.7929V27V39V40.2071L431.354 39.3536L433.863 36.8441L436.053 41.2236L436.191 41.5H436.5H437.5H437.708L437.855 41.3523L437.5 41C437.855 41.3523 437.855 41.3522 437.855 41.3521L437.855 41.352L437.855 41.3516L437.856 41.3507L437.859 41.3482L437.866 41.3403C437.873 41.3339 437.881 41.325 437.892 41.3139C437.912 41.2918 437.941 41.2607 437.975 41.2225C438.041 41.1472 438.13 41.0397 438.215 40.9162C438.299 40.7963 438.392 40.6421 438.453 40.4746C438.51 40.3185 438.569 40.066 438.462 39.8077C438.109 38.9611 437.475 37.6941 436.936 36.6517C436.712 36.217 436.502 35.8181 436.334 35.5H439H440.207L439.354 34.6464L431.354 26.6464Z" stroke="white"/>
</g>
<defs>
<filter id="filter0_d_740_4520" x="427" y="22.5857" width="17.4142" height="23.4143" filterUnits="userSpaceOnUse" color-interpolation-filters="sRGB">
<feFlood flood-opacity="0" result="BackgroundImageFix"/>
<feColorMatrix in="SourceAlpha" type="matrix" values="0 0 0 0 0 0 0 0 0 0 0 0 0 0 0 0 0 0 127 0" result="hardAlpha"/>
<feOffset dy="1"/>
<feGaussianBlur stdDeviation="1.5"/>
<feColorMatrix type="matrix" values="0 0 0 0 0 0 0 0 0 0 0 0 0 0 0 0 0 0 0.290893 0"/>
<feBlend mode="normal" in2="BackgroundImageFix" result="effect1_dropShadow_740_4520"/>
<feBlend mode="normal" in="SourceGraphic" in2="effect1_dropShadow_740_4520" result="shape"/>
</filter>
<clipPath id="clip0_740_4520">
<path d="M0 3.2C0 2.0799 0 1.51984 0.217987 1.09202C0.409734 0.715695 0.715695 0.409734 1.09202 0.217987C1.51984 0 2.0799 0 3.2 0H444.8C445.92 0 446.48 0 446.908 0.217987C447.284 0.409734 447.59 0.715695 447.782 1.09202C448 1.51984 448 2.0799 448 3.2V36.8C448 37.9201 448 38.4802 447.782 38.908C447.59 39.2843 447.284 39.5903 446.908 39.782C446.48 40 445.92 40 444.8 40H3.20002C2.0799 40 1.51984 40 1.09202 39.782C0.715695 39.5903 0.409734 39.2843 0.217987 38.908C0 38.4802 0 37.9201 0 36.8V3.2Z" fill="white"/>
</clipPath>
</defs>
</svg>
