<svg xmlns="http://www.w3.org/2000/svg" width="106" height="106"><g fill="none" fill-rule="evenodd"><path d="M0 0h106v106H0z"/><path fill="#737A86" d="M53 8.833c24.393 0 44.167 19.774 44.167 44.167S77.393 97.167 53 97.167 8.833 77.393 8.833 53 28.607 8.833 53 8.833zm0 8.834c-19.514 0-35.333 15.819-35.333 35.333 0 19.514 15.819 35.333 35.333 35.333 19.514 0 35.333-15.819 35.333-35.333 0-19.514-15.819-35.333-35.333-35.333zm17.667 17.666v35.334h-8.834V35.333h8.834zm-26.5 0v35.334h-8.834V35.333h8.834z"/></g></svg>