<svg width="352" height="20" viewBox="0 0 352 20" fill="none" xmlns="http://www.w3.org/2000/svg">
<rect x="0.5" y="0.5" width="351" height="19" rx="4.5" stroke="#8ED788"/>
<rect x="3.74512" y="4" width="344.511" height="12" rx="3" fill="#414451"/>
<path d="M4 13C4 14.6569 5.34315 16 7 16H243.447V4H7C5.34315 4 4 5.34315 4 7V13Z" fill="#8ED788"/>
<mask id="mask0_1233_38" style="mask-type:alpha" maskUnits="userSpaceOnUse" x="3" y="4" width="346" height="12">
<path d="M3.74512 14C3.74512 15.1046 4.64055 16 5.74512 16H348.256V4H5.74511C4.64054 4 3.74512 4.89543 3.74512 6V14Z" fill="#0D3ECC"/>
</mask>
<g mask="url(#mask0_1233_38)">
<g opacity="0.2">
<path d="M3.84766 18.0488H11.7608L17.0363 4.00006H9.12312L3.84766 18.0488Z" fill="#1C1B1F"/>
<path d="M30.2236 18.0488H38.1368L43.4123 4.00006H35.4991L30.2236 18.0488Z" fill="#1C1B1F"/>
<path d="M56.5996 18.0488H64.5128L69.7883 4.00006H61.8751L56.5996 18.0488Z" fill="#1C1B1F"/>
<path d="M82.9766 18.0488H90.8898L96.1652 4.00006H88.252L82.9766 18.0488Z" fill="#1C1B1F"/>
<path d="M109.353 18.0488H117.266L122.541 4.00006H114.628L109.353 18.0488Z" fill="#1C1B1F"/>
<path d="M135.729 18.0488H143.643L148.918 4.00006H141.005L135.729 18.0488Z" fill="#1C1B1F"/>
<path d="M162.105 18.0488H170.019L175.294 4.00006H167.381L162.105 18.0488Z" fill="#1C1B1F"/>
<path d="M188.481 18.0488H196.395L201.67 4.00006H193.757L188.481 18.0488Z" fill="#1C1B1F"/>
<path d="M214.858 18.0488H222.772L228.047 4.00006H220.134L214.858 18.0488Z" fill="#1C1B1F"/>
<path d="M241.234 18.0488H249.148L254.423 4.00006H246.51L241.234 18.0488Z" fill="#1C1B1F"/>
<path d="M267.61 18.0488H275.524L280.799 4.00006H272.886L267.61 18.0488Z" fill="#1C1B1F"/>
<path d="M293.987 18.0488H301.9L307.176 4.00006H299.263L293.987 18.0488Z" fill="#1C1B1F"/>
<path d="M320.363 18.0488H328.276L333.552 4.00006H325.639L320.363 18.0488Z" fill="#1C1B1F"/>
<path d="M346.74 18.0488H354.653L359.929 4.00006H352.016L346.74 18.0488Z" fill="#1C1B1F"/>
<path d="M17.0361 18.0488H24.9493L30.2248 4.00006H22.3116L17.0361 18.0488Z" fill="#1C1B1F"/>
<path d="M43.4121 18.0488H51.3253L56.6008 4.00006H48.6876L43.4121 18.0488Z" fill="#1C1B1F"/>
<path d="M69.7881 18.0488H77.7013L82.9767 4.00006H75.0635L69.7881 18.0488Z" fill="#1C1B1F"/>
<path d="M96.165 18.0488H104.078L109.354 4.00006H101.44L96.165 18.0488Z" fill="#1C1B1F"/>
<path d="M122.541 18.0488H130.454L135.73 4.00006H127.816L122.541 18.0488Z" fill="#1C1B1F"/>
<path d="M148.917 18.0488H156.83L162.106 4.00006H154.192L148.917 18.0488Z" fill="#1C1B1F"/>
<path d="M175.294 18.0488H183.207L188.483 4.00006H180.569L175.294 18.0488Z" fill="#1C1B1F"/>
<path d="M201.67 18.0488H209.583L214.859 4.00006H206.945L201.67 18.0488Z" fill="#1C1B1F"/>
<path d="M228.046 18.0488H235.959L241.235 4.00006H233.321L228.046 18.0488Z" fill="#1C1B1F"/>
<path d="M254.423 18.0488H262.336L267.612 4.00006H259.698L254.423 18.0488Z" fill="#1C1B1F"/>
<path d="M280.799 18.0488H288.712L293.987 4.00006H286.074L280.799 18.0488Z" fill="#1C1B1F"/>
<path d="M307.175 18.0488H315.088L320.363 4.00006H312.45L307.175 18.0488Z" fill="#1C1B1F"/>
<path d="M333.552 18.0488H341.465L346.74 4.00006H338.827L333.552 18.0488Z" fill="#1C1B1F"/>
</g>
</g>
</svg>
