<svg xmlns="http://www.w3.org/2000/svg" xmlns:xlink="http://www.w3.org/1999/xlink" width="24" height="24"><defs><path id="a" d="m7 6.9 5.382-2.883L7 1.134 1.618 4.017 7 6.901zm-.5 6.697V7.831L1 4.884v5.767l5.5 2.946zm1 0 1.839-.985c.12.338.267.658.445.96l-2.56 1.37a.468.468 0 0 1-.448 0l-6.5-3.481A.54.54 0 0 1 0 10.98V4.018c0-.097.027-.19.072-.27.015-.026.04-.043.06-.067.033-.04.06-.088.105-.118.007-.005.016-.003.023-.008.007-.004.01-.012.016-.016l6.5-3.482a.474.474 0 0 1 .448 0l6.5 3.482c.006.004.009.012.016.015.007.006.016.004.023.009.045.03.072.077.105.118.02.024.045.04.06.067.045.08.072.173.072.27v1.34a4.65 4.65 0 0 0-1 .108v-.58L7.5 7.83v5.766zm7.914-4.398a.564.564 0 0 1 0 .757l-.707.758.707.757a.564.564 0 0 1 0 .758.477.477 0 0 1-.707 0L14 11.47l-.707.758a.477.477 0 0 1-.707 0 .564.564 0 0 1 0-.758l.707-.757-.707-.758a.564.564 0 0 1 0-.757.477.477 0 0 1 .707 0l.707.757.707-.757a.477.477 0 0 1 .707 0zM14 13.929c1.654 0 3-1.443 3-3.215C17 8.942 15.654 7.5 14 7.5s-3 1.442-3 3.214 1.346 3.214 3 3.214zm0-7.5c2.209 0 4 1.918 4 4.285S16.209 15 14 15s-4-1.92-4-4.286c0-2.367 1.791-4.286 4-4.286z"/></defs><g fill="none" fill-rule="evenodd"><path fill="#000" fill-rule="nonzero" d="m10 11.9 5.382-2.883L10 6.134 4.618 9.017 10 11.901zm-.5 6.697v-5.766L4 9.884v5.767l5.5 2.946zm1 0 1.839-.985c.12.338.267.658.445.96l-2.56 1.37a.468.468 0 0 1-.448 0l-6.5-3.481A.54.54 0 0 1 3 15.98V9.018c0-.097.027-.19.072-.27.015-.026.04-.043.06-.067.033-.04.06-.088.105-.118.007-.005.016-.003.023-.008.007-.004.01-.012.016-.016l6.5-3.482a.474.474 0 0 1 .448 0l6.5 3.482c.006.004.009.012.016.015.007.006.016.004.023.009.045.03.072.077.105.118.02.024.045.04.06.067.045.08.072.173.072.27v1.34a4.65 4.65 0 0 0-1 .108v-.58l-5.5 2.946v5.766zm7.914-4.398a.564.564 0 0 1 0 .757l-.707.758.707.757a.564.564 0 0 1 0 .758.477.477 0 0 1-.707 0L17 16.47l-.707.758a.477.477 0 0 1-.707 0 .564.564 0 0 1 0-.758l.707-.757-.707-.758a.564.564 0 0 1 0-.757.477.477 0 0 1 .707 0l.707.757.707-.757a.477.477 0 0 1 .707 0zM17 18.929c1.654 0 3-1.443 3-3.215 0-1.772-1.346-3.214-3-3.214s-3 1.442-3 3.214 1.346 3.214 3 3.214zm0-7.5c2.209 0 4 1.918 4 4.285S19.209 20 17 20s-4-1.92-4-4.286c0-2.367 1.791-4.286 4-4.286z"/><g transform="translate(3 5)"><mask id="b" fill="#fff"><use xlink:href="#a"/></mask><g fill="#0D3ECC" fill-rule="nonzero" mask="url(#b)"><path d="M-3-5.357h24v25.714H-3z"/></g></g></g></svg>