<svg width="20" height="18" viewBox="0 0 20 18" fill="none" xmlns="http://www.w3.org/2000/svg">
<path fill-rule="evenodd" clip-rule="evenodd" d="M6 0C6.55228 0 7 0.447715 7 1V2H17.9756C19.0937 2 20 2.90634 20 4.02437V15.9756C20 17.0937 19.0937 18 17.9756 18H2.02437C0.90634 18 0 17.0937 0 15.9756V4.02437C0 2.90634 0.90634 2 2.02437 2H5V1C5 0.447715 5.44772 0 6 0ZM18 4H2V16H18V4ZM14.8891 5.73683C14.9609 5.82657 15 5.93807 15 6.05299V10C15 12.7614 12.7614 15 10 15C7.23858 15 5 12.7614 5 10V7C5 6.44772 5.44772 6 6 6C6.51284 6 6.93551 6.38604 6.99327 6.88338L7 7V10C7 11.6569 8.34315 13 10 13C11.6569 13 13 11.6569 13 10L12.999 9H11.4428C11.1632 9 10.9367 8.77341 10.9367 8.49391C10.9367 8.34017 11.0066 8.19476 11.1266 8.09872L14.1778 5.6578C14.396 5.48319 14.7145 5.51858 14.8891 5.73683Z" fill="#1C1B1F"/>
</svg>
