<svg width="20" height="20" viewBox="0 0 20 20" fill="none" xmlns="http://www.w3.org/2000/svg">
<path fill-rule="evenodd" clip-rule="evenodd" d="M7.5 0C11.6421 0 15 3.35786 15 7.5C15 9.21015 14.4276 10.7866 13.464 12.0483L19.4853 18.0711C19.8758 18.4616 19.8758 19.0948 19.4853 19.4853C19.0948 19.8758 18.4616 19.8758 18.0711 19.4853L12.0483 13.464C10.7866 14.4276 9.21015 15 7.5 15C3.35786 15 0 11.6421 0 7.5C0 3.35786 3.35786 0 7.5 0ZM7.5 13C10.5376 13 13 10.5376 13 7.5C13 4.46243 10.5376 2 7.5 2C4.46243 2 2 4.46243 2 7.5C2 10.5376 4.46243 13 7.5 13Z" fill="#1C1B1F"/>
</svg>
