<svg xmlns="http://www.w3.org/2000/svg" xmlns:xlink="http://www.w3.org/1999/xlink" width="26" height="30"><defs><path id="a" d="M0 .026h12.181V27.98H0z"/></defs><g fill="none" fill-rule="evenodd"><path d="m1.4 4.128.001.198c.005.537.013 1.135.025 1.78.035 1.84.098 3.68.196 5.396.173 3.017.436 5.319.793 6.569.812 2.843 2.702 5.275 5.356 7.304a23.639 23.639 0 0 0 5.741 3.208 21.313 21.313 0 0 0 1.648-.732 23.063 23.063 0 0 0 3.985-2.495c2.582-2.025 4.43-4.45 5.24-7.285.357-1.25.62-3.552.792-6.569.099-1.715.162-3.556.197-5.397.012-.644.02-1.242.024-1.78l.002-.196-5.871-1.71-6.142-1.79-6.129 1.79L1.4 4.128" fill="#F6F8FE"/><g transform="translate(1.4 .603)"><mask id="b" fill="#fff"><use xlink:href="#a"/></mask><path fill="#EDF1FE" d="M12.056.026 5.892 1.815 0 3.525l.001.198c.005.537.013 1.135.025 1.78.035 1.84.099 3.68.198 5.396.173 3.018.437 5.319.797 6.569.816 2.843 2.717 5.275 5.386 7.304a23.788 23.788 0 0 0 5.774 3.208" mask="url(#b)"/></g><path fill="#C1C3CD" d="m2.4 5.16.001.182c.004.495.012 1.047.023 1.64.032 1.697.09 3.392.18 4.974.158 2.78.399 4.9.726 6.052.745 2.62 2.478 4.862 4.91 6.731a21.66 21.66 0 0 0 5.263 2.956 19.884 19.884 0 0 0 1.511-.674 21.066 21.066 0 0 0 3.652-2.3c2.368-1.865 4.061-4.1 4.804-6.713.327-1.152.568-3.272.726-6.052.09-1.582.148-3.277.18-4.974.011-.593.019-1.145.023-1.64l.001-.181-5.382-1.577-5.63-1.648L7.77 3.584 2.4 5.16"/><path fill="#737A86" d="M13.508 1.936 7.886 3.584 2.51 5.16l.001.182c.004.495.012 1.047.023 1.64.032 1.697.09 3.392.18 4.973.158 2.78.4 4.901.727 6.053.745 2.62 2.48 4.862 4.914 6.731a21.645 21.645 0 0 0 5.266 2.956"/></g></svg>