<svg xmlns="http://www.w3.org/2000/svg" width="25" height="24"><g fill="#0D3ECC" fill-rule="evenodd"><path d="M12.5 18c-.575 0-1.042-.428-1.042-.963v-6.074c0-.535.467-.963 1.042-.963s1.042.428 1.042.963v6.074c0 .535-.467.963-1.042.963M11.458 7c0-.552.467-1 1.042-1s1.042.448 1.042 1-.467 1-1.042 1-1.042-.448-1.042-1"/><path d="M12.5 2C6.756 2 2.083 6.485 2.083 12S6.756 22 12.5 22s10.417-4.485 10.417-10S18.244 2 12.5 2zm0 22C5.607 24 0 18.615 0 12S5.607 0 12.5 0 25 5.385 25 12s-5.607 12-12.5 12z"/></g></svg>