<svg width="24" height="24" viewBox="0 0 24 24" fill="none" xmlns="http://www.w3.org/2000/svg">
<g clip-path="url(#clip0_9_2146)">
<path fill-rule="evenodd" clip-rule="evenodd" d="M11.9908 1L22 3.79224L21.9815 5.94698L21.9705 6.58885C21.9459 7.83661 21.9012 9.02603 21.8364 10.1078L21.8119 10.4993C21.8035 10.6276 21.7949 10.7536 21.7859 10.8773L21.7289 11.5926C21.7088 11.822 21.6876 12.0423 21.6651 12.2536L21.594 12.8603L21.5153 13.4126C21.4327 13.9377 21.3383 14.3811 21.2303 14.7425C20.5771 16.9317 19.131 18.8292 17.0245 20.4105C16.0874 21.1083 15.0837 21.7101 14.0345 22.2038C13.625 22.3982 13.2077 22.5756 12.7837 22.7354L12.082 23L11.3782 22.7409C10.9475 22.5824 10.5234 22.4063 10.1144 22.2166C9.04435 21.7258 8.02481 21.1298 7.06348 20.4321C4.90719 18.8528 3.42643 16.9479 2.76691 14.7415C2.62364 14.2597 2.50402 13.6324 2.40433 12.86L2.33325 12.2535C2.31076 12.0423 2.28946 11.822 2.26929 11.5927L2.21211 10.8775L2.16136 10.1081C2.09627 9.00728 2.05135 7.81219 2.02812 6.59167L2.0168 5.9471L2 3.79268L11.9908 1ZM11.9913 3.05776L4.00793 5.28929L4.01444 5.91972L4.02551 6.55009C4.04789 7.72501 4.09104 8.8975 4.15577 9.9922L4.20174 10.6918L4.25335 11.346C4.26243 11.4512 4.27174 11.5543 4.28129 11.6554L4.34142 12.2371L4.40728 12.7674C4.48746 13.3549 4.57936 13.8322 4.6832 14.1814C5.22501 15.994 6.48365 17.5449 8.25054 18.8389C9.0982 19.4541 10.0034 19.9833 10.9532 20.419C11.3204 20.5892 11.6941 20.7444 12.0736 20.8841C12.4457 20.7438 12.812 20.5881 13.1716 20.4174C14.1058 19.9777 14.9946 19.4449 15.8247 18.8268C17.5453 17.5352 18.7751 15.9883 19.3146 14.1806C19.389 13.9314 19.4572 13.6168 19.5194 13.2433L19.5911 12.7671L19.6569 12.2369L19.717 11.6551L19.7713 11.0243C19.7799 10.9152 19.7882 10.8041 19.7963 10.6912L19.842 9.99138C19.9075 8.8975 19.9499 7.7242 19.973 6.55009C19.9815 6.12987 19.9874 5.70959 19.9906 5.28929L11.9913 3.05776ZM13.1937 13.5126C12.925 14.4108 12.5187 15.2462 12 16C11.4813 15.2462 11.075 14.4108 10.8063 13.5126H13.1937ZM9.51876 13.5126C9.71876 14.2977 10.0063 15.0515 10.3813 15.7487C9.23126 15.353 8.27501 14.5553 7.67501 13.5126H9.51876ZM16.325 13.5126C15.725 14.549 14.7687 15.353 13.6187 15.7487C13.9937 15.0515 14.2812 14.2977 14.4812 13.5126H16.325ZM9.27501 9.74372C9.22501 10.1583 9.18751 10.5729 9.18751 11C9.18751 11.4271 9.22501 11.8417 9.27501 12.2563H7.16252C7.06252 11.8543 7.00002 11.4334 7.00002 11C7.00002 10.5666 7.06252 10.1457 7.16252 9.74372H9.27501ZM13.4625 9.74372C13.5187 10.152 13.5625 10.5729 13.5625 11C13.5625 11.4271 13.5187 11.8417 13.4625 12.2563H10.5375C10.4813 11.8417 10.4375 11.4271 10.4375 11C10.4375 10.5729 10.4813 10.152 10.5375 9.74372H13.4625ZM16.8375 9.74372C16.9375 10.1457 17 10.5666 17 11C17 11.4334 16.9375 11.8543 16.8375 12.2563H14.725C14.775 11.8417 14.8125 11.4271 14.8125 11C14.8125 10.5729 14.775 10.1583 14.725 9.74372H16.8375ZM13.6187 6.25126C14.7687 6.64699 15.725 7.45101 16.325 8.48744H14.4812C14.2812 7.70226 13.9937 6.94849 13.6187 6.25126ZM12 6C12.5187 6.75377 12.925 7.5892 13.1937 8.48744H10.8063C11.075 7.5892 11.4813 6.75377 12 6ZM10.3813 6.25126C10.0063 6.94849 9.71876 7.70226 9.51876 8.48744H7.67501C8.27501 7.44472 9.23126 6.64699 10.3813 6.25126Z" fill="#1C1B1F"/>
</g>
<defs>
<clipPath id="clip0_9_2146">
<rect width="24" height="24" fill="white"/>
</clipPath>
</defs>
</svg>
