<svg width="40" height="40" viewBox="0 0 40 40" fill="none" xmlns="http://www.w3.org/2000/svg">
<path opacity="0.15" d="M20 40C31.0457 40 40 31.0457 40 20C40 8.9543 31.0457 0 20 0C8.9543 0 0 8.9543 0 20C0 31.0457 8.9543 40 20 40Z" fill="#FF8F00"/>
<g clip-path="url(#clip0_2439_16965)">
<path d="M20 10C24.4315 10 28 13.7706 28 18.3942C28 21.4849 25.5266 25.1146 20.6631 29.4139C20.2841 29.7489 19.7159 29.7489 19.3377 29.4145C14.4734 25.1146 12 21.4849 12 18.3942C12 13.7706 15.5685 10 20 10ZM20 11.9958C16.6995 11.9958 14 14.8481 14 18.3942C14 20.6292 15.9741 23.6409 20 27.3236C23.9173 23.7403 25.8918 20.7925 25.9957 18.5771L26 18.3942C26 14.8481 23.3005 11.9958 20 11.9958ZM20 15C21.6569 15 23 16.3431 23 18C23 19.6569 21.6569 21 20 21C18.3431 21 17 19.6569 17 18C17 16.3431 18.3431 15 20 15ZM20 17C19.4477 17 19 17.4477 19 18C19 18.5523 19.4477 19 20 19C20.5523 19 21 18.5523 21 18C21 17.4477 20.5523 17 20 17Z" fill="#FF8F00"/>
</g>
<defs>
<clipPath id="clip0_2439_16965">
<rect width="24" height="24" fill="white" transform="translate(8 8)"/>
</clipPath>
</defs>
</svg>
