<svg width="24" height="24" viewBox="0 0 24 24" fill="none" xmlns="http://www.w3.org/2000/svg">
<path fill-rule="evenodd" clip-rule="evenodd" d="M11.98 5.16304L19.3859 19.9997H4.57419L11.98 5.16304ZM11.98 2.00375C11.5735 1.98843 11.1984 2.2218 11.0318 2.59362L2.10889 20.4596C1.94369 20.7974 1.96775 21.1973 2.17227 21.5128C2.37679 21.8283 2.7317 22.013 3.10699 21.9993H20.893C21.2683 22.013 21.6232 21.8283 21.8277 21.5128C22.0322 21.1973 22.0563 20.7974 21.8911 20.4596L12.9781 2.59362C12.8051 2.20385 12.4043 1.96696 11.98 2.00375ZM12.9781 15.0008V10.002C12.9781 9.4498 12.5313 9.00218 11.98 9.00218C11.4288 9.00218 10.9819 9.4498 10.9819 10.002V15.0008C10.9819 15.553 11.4288 16.0006 11.98 16.0006C12.5313 16.0006 12.9781 15.553 12.9781 15.0008ZM12.9781 18.0002C12.9781 17.448 12.5313 17.0004 11.98 17.0004C11.4288 17.0004 10.9819 17.448 10.9819 18.0002C10.9819 18.5523 11.4288 19 11.98 19C12.5313 19 12.9781 18.5523 12.9781 18.0002Z" fill="#E60000"/>
</svg>
