<svg width="255" height="255" viewBox="0 0 255 255" fill="none" xmlns="http://www.w3.org/2000/svg">
<path opacity="0.15" fill-rule="evenodd" clip-rule="evenodd" d="M54.2981 155.513C50.1436 162.59 47.7615 170.832 47.7615 179.63C47.7615 205.975 69.1184 227.332 95.4635 227.332C115.16 227.332 132.069 215.395 139.348 198.36C145.96 200.142 152.914 201.093 160.089 201.093C203.987 201.093 239.573 165.507 239.573 121.609C239.573 77.7119 203.987 42.126 160.089 42.126C146.309 42.126 133.348 45.6327 122.05 51.8025C111.32 43.0389 97.6136 37.7825 82.6795 37.7825C48.2835 37.7825 20.4 65.666 20.4 100.062C20.4 124.235 34.1722 145.192 54.2981 155.513Z" fill="white"/>
<path d="M74.1115 172.788C74.12 172.584 74.1285 172.38 74.1285 172.176C74.1285 166.022 69.139 161.041 62.9935 161.041C62.7725 161.041 62.56 161.041 62.3475 161.058C61.4975 154.59 55.9725 149.6 49.266 149.6C42.5595 149.6 36.703 154.904 36.125 161.653C34.5525 160.99 32.8185 160.625 30.9995 160.625C24.055 160.625 18.377 165.988 17.85 172.788H74.1115Z" fill="#FFEFBE"/>
<rect x="51.85" y="92.6499" width="151.3" height="50.15" fill="#E4AE02"/>
<path d="M165.982 51.6389L127.5 73.8324L202.911 117.327L235.392 98.5983C238.061 97.0592 238.061 93.2072 235.392 91.668L165.982 51.6389Z" fill="#FFDE77"/>
<path d="M89.0114 51.6389L127.501 73.8324L52.0815 117.327L19.6079 98.5983C16.9391 97.0591 16.939 93.2075 19.6078 91.6682L89.0114 51.6389Z" fill="#FFDE77"/>
<path d="M61.2 75.7158C61.2 66.6115 66.3514 58.2911 74.501 54.2325L116.376 33.3783C123.114 30.0227 131.036 30.0227 137.774 33.3783L179.649 54.2325C187.798 58.2911 192.95 66.6116 192.95 75.7158V82.2127C192.95 121.19 172.686 157.364 139.448 177.722L135.432 180.182C130.303 183.323 123.847 183.323 118.718 180.182L114.702 177.722C81.464 157.364 61.2 121.19 61.2 82.2127V75.7158Z" fill="#0F68EE"/>
<path d="M66.598 66.516C68.1806 64.8931 70.0471 63.5207 72.1465 62.4808L118.021 39.7577C123.726 36.9315 130.425 36.9315 136.13 39.7578L182.004 62.4808C184.103 63.5204 185.969 64.8923 187.551 66.5145C185.62 62.3887 182.326 58.9458 178.085 56.8578L136.087 36.1773C130.405 33.3794 123.745 33.3794 118.063 36.1773L76.0648 56.8578C71.824 58.946 68.5289 62.3896 66.598 66.516Z" fill="#3F87F3"/>
<path d="M236.28 84.9902C236.29 84.7927 236.3 84.5853 236.3 84.3878C236.3 78.3047 231.326 73.367 225.197 73.367C224.978 73.367 224.77 73.367 224.551 73.3868C223.705 66.9877 218.194 62.05 211.518 62.05C204.843 62.05 198.993 67.2938 198.416 73.9793C196.844 73.3177 195.123 72.9622 193.312 72.9622C186.398 72.9622 180.727 78.2652 180.2 85H236.28V84.9902Z" fill="#FFEFBE"/>
<path fill-rule="evenodd" clip-rule="evenodd" d="M101.749 57.4859C101.749 56.547 102.51 55.7859 103.449 55.7859H157.042C168.28 55.7859 177.964 63.3644 177.964 73.3658C177.964 83.3672 168.28 90.9457 157.042 90.9457H73.2382C72.2993 90.9457 71.5382 90.1846 71.5382 89.2457C71.5382 88.3069 72.2993 87.5457 73.2382 87.5457H157.042C167.039 87.5457 174.564 80.9104 174.564 73.3658C174.564 65.8212 167.039 59.1859 157.042 59.1859H103.449C102.51 59.1859 101.749 58.4248 101.749 57.4859Z" fill="#3F87F3"/>
<path fill-rule="evenodd" clip-rule="evenodd" d="M133.632 163.227L120.347 163.227C109.109 163.227 99.4249 155.648 99.4249 145.647C99.4249 135.645 109.109 128.067 120.347 128.067L172.778 128.067C173.717 128.067 174.478 128.828 174.478 129.767C174.478 130.706 173.717 131.467 172.778 131.467L120.347 131.467C110.35 131.467 102.825 138.102 102.825 145.647C102.825 153.191 110.35 159.827 120.347 159.827L133.632 159.827C134.571 159.827 135.332 160.588 135.332 161.527C135.332 162.465 134.571 163.227 133.632 163.227Z" fill="#3F87F3"/>
<path d="M175.514 76.3395C172.95 76.3395 170.863 74.2528 170.863 71.6888C170.863 69.1248 172.95 67.0381 175.514 67.0381C178.078 67.0381 180.165 69.1248 180.165 71.6888C180.165 74.2528 178.078 76.3395 175.514 76.3395Z" fill="#0F68EE"/>
<path fill-rule="evenodd" clip-rule="evenodd" d="M175.514 68.7381C173.889 68.7381 172.563 70.0638 172.563 71.6889C172.563 73.314 173.889 74.6396 175.514 74.6396C177.139 74.6396 178.465 73.314 178.465 71.6889C178.465 70.0638 177.139 68.7381 175.514 68.7381ZM169.163 71.6889C169.163 68.186 172.011 65.3381 175.514 65.3381C179.017 65.3381 181.865 68.186 181.865 71.6889C181.865 75.1917 179.017 78.0396 175.514 78.0396C172.011 78.0396 169.163 75.1917 169.163 71.6889Z" fill="#3F87F3"/>
<path d="M83.3082 94.1337C80.7442 94.1337 78.6575 92.047 78.6575 89.483C78.6575 86.919 80.7442 84.8323 83.3082 84.8323C85.8722 84.8323 87.9589 86.919 87.9589 89.483C87.9589 92.047 85.8722 94.1337 83.3082 94.1337Z" fill="#0F68EE"/>
<path fill-rule="evenodd" clip-rule="evenodd" d="M83.3083 86.5323C81.6832 86.5323 80.3575 87.858 80.3575 89.4831C80.3575 91.1081 81.6832 92.4338 83.3083 92.4338C84.9333 92.4338 86.259 91.1081 86.259 89.4831C86.259 87.858 84.9333 86.5323 83.3083 86.5323ZM76.9575 89.4831C76.9575 85.9802 79.8054 83.1323 83.3083 83.1323C86.8111 83.1323 89.659 85.9802 89.659 89.4831C89.659 92.9859 86.8111 95.8338 83.3083 95.8338C79.8054 95.8338 76.9575 92.9859 76.9575 89.4831Z" fill="#3F87F3"/>
<path fill-rule="evenodd" clip-rule="evenodd" d="M79.2845 109.386C79.2845 108.447 80.0457 107.686 80.9845 107.686H176.264V111.086H80.9845C80.0457 111.086 79.2845 110.325 79.2845 109.386Z" fill="#3F87F3"/>
<path d="M101.128 139.597C103.692 139.597 105.779 141.683 105.779 144.247C105.779 146.811 103.692 148.898 101.128 148.898C98.5641 148.898 96.4773 146.811 96.4773 144.247C96.4773 141.683 98.5641 139.597 101.128 139.597Z" fill="#0F68EE"/>
<path fill-rule="evenodd" clip-rule="evenodd" d="M101.128 147.198C102.753 147.198 104.079 145.872 104.079 144.247C104.079 142.622 102.753 141.297 101.128 141.297C99.5029 141.297 98.1773 142.622 98.1773 144.247C98.1773 145.872 99.5029 147.198 101.128 147.198ZM107.479 144.247C107.479 147.75 104.631 150.598 101.128 150.598C97.6252 150.598 94.7773 147.75 94.7773 144.247C94.7773 140.745 97.6252 137.897 101.128 137.897C104.631 137.897 107.479 140.745 107.479 144.247Z" fill="#3F87F3"/>
<path d="M173.94 114.04C171.376 114.04 169.289 111.953 169.289 109.389C169.289 106.825 171.376 104.738 173.94 104.738C176.504 104.738 178.591 106.825 178.591 109.389C178.591 111.953 176.504 114.04 173.94 114.04Z" fill="#0F68EE"/>
<path fill-rule="evenodd" clip-rule="evenodd" d="M173.94 106.438C172.315 106.438 170.989 107.764 170.989 109.389C170.989 111.014 172.315 112.34 173.94 112.34C175.565 112.34 176.891 111.014 176.891 109.389C176.891 107.764 175.565 106.438 173.94 106.438ZM167.589 109.389C167.589 105.886 170.437 103.038 173.94 103.038C177.443 103.038 180.291 105.886 180.291 109.389C180.291 112.892 177.443 115.74 173.94 115.74C170.437 115.74 167.589 112.892 167.589 109.389Z" fill="#3F87F3"/>
<path fill-rule="evenodd" clip-rule="evenodd" d="M127.501 220.596V160.815L202.9 117.328V177.109L127.501 220.596Z" fill="#E4AE02"/>
<path fill-rule="evenodd" clip-rule="evenodd" d="M127.501 220.466V160.685L127.262 160.823L51.8509 117.328V177.109L127.262 220.603L127.501 220.466Z" fill="#FFCC28"/>
<path d="M85.015 180.714C87.4884 182.141 90.5346 182.141 93.0081 180.715L127.501 160.826L52.0815 117.331L19.6079 136.06C16.9391 137.599 16.939 141.451 19.6078 142.99L85.015 180.714Z" fill="#FFDE77"/>
<path d="M169.978 180.714C167.505 182.141 164.458 182.141 161.985 180.714L127.5 160.826L202.911 117.331L235.392 136.06C238.061 137.599 238.061 141.451 235.392 142.99L169.978 180.714Z" fill="#FFDE77"/>
<path fill-rule="evenodd" clip-rule="evenodd" d="M124.435 141.325C125.05 141.325 125.362 141.031 125.362 140.442C125.362 140.147 125.05 139.853 124.747 139.558H123.82C112.665 137.488 105.225 126.853 107.399 116.217C108.014 113.852 108.949 111.193 110.499 109.123C110.811 108.534 111.426 108.534 112.05 108.829L127.233 123.302H128.471L143.654 108.829C144.269 108.24 144.581 108.24 144.892 108.829C150.158 116.511 149.232 126.264 143.03 133.063H142.719C142.719 133.357 143.03 133.946 143.645 133.946H144.26C155.727 129.512 163.47 118.581 163.47 106.759C163.47 96.1145 158.516 86.0764 149.838 79.5719C149.526 79.2775 149.214 79.2775 148.911 79.5719L128.766 98.7735C128.454 99.068 128.151 99.3624 127.527 99.068C127.527 99.068 127.215 99.068 127.215 98.7735L107.07 79.5719C106.758 79.2775 106.455 79.2775 106.143 79.5719C97.1614 86.0677 91.8868 96.4177 92.1986 107.053C92.5104 124.783 106.143 139.558 124.426 141.325" fill="#0F68EE"/>
<path fill-rule="evenodd" clip-rule="evenodd" d="M124.435 135.074C125.05 135.074 125.362 134.78 125.362 134.191C125.362 133.896 125.05 133.602 124.747 133.307H123.82C112.665 131.237 105.225 120.602 107.399 109.966C108.014 107.601 108.949 104.942 110.499 102.872C110.811 102.284 111.426 102.284 112.05 102.578L127.233 117.051H128.471L143.654 102.578C144.269 101.989 144.581 101.989 144.892 102.578C150.158 110.26 149.232 120.013 143.03 126.812H142.719C142.719 127.106 143.03 127.695 143.645 127.695H144.26C155.727 123.261 163.47 112.33 163.47 100.508C163.47 89.8636 158.516 79.8254 149.838 73.321C149.526 73.0265 149.214 73.0265 148.911 73.321L128.766 92.5225C128.454 92.817 128.151 93.1115 127.527 92.817C127.527 92.817 127.215 92.817 127.215 92.5225L107.07 73.321C106.758 73.0265 106.455 73.0265 106.143 73.321C97.1614 79.8167 91.8868 90.1667 92.1986 100.802C92.5104 118.532 106.143 133.307 124.426 135.074" fill="white"/>
</svg>
