<svg width="600" height="331" viewBox="0 0 600 331" fill="none" xmlns="http://www.w3.org/2000/svg">
<path opacity="0.1" fill-rule="evenodd" clip-rule="evenodd" d="M-87.3018 182.573C-96.0597 165.451 -101 146.052 -101 125.5C-101 56.1883 -44.8117 0 24.5 0C81.6975 0 129.958 38.2637 145.081 90.59C152.279 88.8961 159.785 88 167.5 88C202.046 88 232.396 105.967 249.715 133.066C269.248 123.42 291.241 118 314.5 118C339.675 118 363.367 124.35 384.061 135.536C384.021 135.029 384 134.517 384 134C384 123.507 392.507 115 403 115C408.79 115 413.975 117.59 417.46 121.674C433.677 56.9409 492.24 9 562 9C644.29 9 711 75.7096 711 158C711 213.663 680.477 262.197 635.255 287.778C651.307 312.208 660.644 341.443 660.644 372.858C660.644 458.541 591.185 528 505.502 528C464.958 528 428.047 512.448 400.408 486.983C372.013 518.482 330.89 538.284 285.142 538.284C204.811 538.284 138.739 477.229 130.8 398.993C130.367 398.997 129.934 399 129.5 399C101.007 399 75.0332 388.216 55.4369 370.507C33.0279 402.327 -3.99348 423.115 -45.8703 423.115C-114.255 423.115 -169.692 367.678 -169.692 299.293C-169.692 245.439 -135.312 199.615 -87.3018 182.573Z" fill="#7A95E3"/>
</svg>
