<svg width="370" height="25" viewBox="0 0 370 25" fill="none" xmlns="http://www.w3.org/2000/svg">
<path fill-rule="evenodd" clip-rule="evenodd" d="M109.341 9.7345V14.7686C109.341 16.6303 108.77 17.7844 105.928 17.7844C104.979 17.7844 104.05 17.7178 103.17 17.5866L103.116 17.5782V8.62622L103.152 8.60967C103.968 8.22088 105.7 7.56247 107.015 7.56247C108.623 7.56247 109.341 8.23232 109.341 9.7345ZM103.209 6.5553L103.116 6.60375V0.243849C103.116 0.0954966 102.982 -0.0185513 102.833 0.00251293L101.052 0.252275C100.93 0.269728 100.839 0.372341 100.839 0.494213V19.0223C100.839 19.1373 100.919 19.2372 101.034 19.261C102.601 19.5902 104.552 19.7406 105.756 19.7406C110.908 19.7406 111.618 17.3107 111.618 14.6843V9.81876C111.618 7.02383 110.262 5.6062 107.588 5.6062C105.705 5.6062 104.091 6.0967 103.209 6.5553Z" fill="white"/>
<path fill-rule="evenodd" clip-rule="evenodd" d="M114.635 5.8875H112.916C112.747 5.8875 112.628 6.0494 112.679 6.20648L117.001 19.291C117.034 19.3915 117.129 19.4595 117.236 19.4595H117.753C117.923 19.4595 118.043 19.6244 117.987 19.783L116.268 24.6762C116.212 24.8351 116.332 25 116.503 25H118.105C118.211 25 118.305 24.9344 118.34 24.8369L120.242 19.501L124.715 6.20768C124.768 6.0503 124.649 5.8875 124.479 5.8875H122.762C122.654 5.8875 122.559 5.95581 122.526 6.05662L118.908 17.1151C118.834 17.3413 118.508 17.3404 118.435 17.1141L114.871 6.05752C114.839 5.95641 114.743 5.8875 114.635 5.8875Z" fill="white"/>
<path fill-rule="evenodd" clip-rule="evenodd" d="M138.28 10.4938C138.28 8.38891 139.245 7.45005 141.407 7.45005C143.526 7.45005 144.39 8.33174 144.39 10.4938V11.4375C144.39 11.5723 144.279 11.681 144.142 11.681H138.529C138.392 11.681 138.28 11.5723 138.28 11.4375V10.4938ZM136.003 10.6626V14.769C136.003 18.1609 137.738 19.7407 141.465 19.7407C143.054 19.7407 144.809 19.4756 146.12 19.042C146.234 19.0041 146.303 18.8891 146.283 18.7727L146.065 17.4712C146.042 17.3304 145.9 17.2404 145.759 17.275C144.232 17.6503 142.856 17.8407 141.665 17.8407C138.787 17.8407 138.28 16.8408 138.28 14.7404V13.7693C138.28 13.6345 138.392 13.525 138.529 13.525H146.334C146.471 13.525 146.582 13.416 146.582 13.2815V10.7189C146.582 7.27823 144.889 5.60663 141.407 5.60663C137.821 5.60663 136.003 7.30741 136.003 10.6626Z" fill="white"/>
<path fill-rule="evenodd" clip-rule="evenodd" d="M153.297 11.7075C150.94 11.143 150.873 10.8643 150.873 9.2845C150.873 7.9725 151.237 7.50638 153.284 7.50638C154.274 7.50638 155.655 7.63818 156.825 7.8398C156.968 7.86477 157.102 7.76246 157.115 7.62013L157.234 6.27412C157.244 6.15586 157.166 6.04573 157.048 6.01684C155.971 5.75504 154.647 5.60608 153.369 5.60608C149.91 5.60608 148.624 6.58798 148.624 9.22823C148.624 12.0424 148.945 12.7246 152.354 13.5551C155.129 14.2223 155.322 14.3772 155.322 15.9219C155.322 17.3849 154.958 17.8405 152.682 17.8405C151.582 17.8405 150.18 17.6557 149.014 17.3626C148.874 17.3274 148.733 17.4186 148.709 17.5591L148.494 18.8296C148.474 18.9479 148.543 19.0625 148.659 19.101C149.779 19.4715 151.508 19.7405 152.826 19.7405C156.837 19.7405 157.571 18.4261 157.571 15.8376C157.571 12.9476 157.034 12.6256 153.297 11.7075Z" fill="white"/>
<path fill-rule="evenodd" clip-rule="evenodd" d="M47.6319 19.3186L45.1473 6.11464C45.1191 5.96478 45.2361 5.82666 45.3915 5.82666H48.1497C48.2695 5.82666 48.3724 5.91061 48.3939 6.02617L49.887 13.993C49.9341 14.2448 50.2945 14.2638 50.3689 14.0182L52.7981 6.00089C52.8293 5.89737 52.9261 5.82666 53.0361 5.82666H56.3005C56.4105 5.82666 56.5076 5.89767 56.5386 6.00149L58.9404 14.0113C59.0143 14.2575 59.3755 14.2388 59.4227 13.9866L60.9146 6.02617C60.936 5.91061 61.0387 5.82666 61.1588 5.82666H63.917C64.0723 5.82666 64.1894 5.96478 64.1612 6.11464L61.6766 19.3186C61.6548 19.4345 61.5522 19.5181 61.4324 19.5181H57.7887C57.6784 19.5181 57.5816 19.4468 57.5503 19.343L54.8923 10.4728C54.8224 10.2396 54.486 10.2396 54.4161 10.4728L51.7581 19.343C51.7269 19.4468 51.6301 19.5181 51.5198 19.5181H47.8758C47.7563 19.5181 47.6536 19.4345 47.6319 19.3186Z" fill="white"/>
<path fill-rule="evenodd" clip-rule="evenodd" d="M43.6002 16.988C42.3406 16.988 41.9687 16.4535 41.9687 14.9074V4.97774V1.07453C41.9687 0.926179 41.8354 0.812432 41.6862 0.832594L38.6902 1.24274C38.5676 1.2596 38.4763 1.36281 38.4763 1.48438V1.61137V4.97774V15.273C38.4763 18.3939 40.3944 19.7432 42.9706 19.7432C43.2338 19.7432 44.1573 19.7035 44.6368 19.658C44.7636 19.646 44.8598 19.5404 44.8598 19.4152V17.2194C44.8598 17.081 44.7434 16.9702 44.6028 16.9759C44.2789 16.988 43.8169 16.988 43.6002 16.988Z" fill="white"/>
<path fill-rule="evenodd" clip-rule="evenodd" d="M85.914 8.76681C84.6841 9.31719 83.661 9.89705 82.5013 10.6181C82.4293 10.6629 82.3852 10.7411 82.3852 10.8248V19.2743C82.3852 19.4088 82.2742 19.5183 82.137 19.5183H79.1413C79.0041 19.5183 78.8928 19.4088 78.8928 19.2743V6.53099C78.8928 6.41273 78.9798 6.31132 79.099 6.29085L81.5907 5.86897C81.7282 5.8455 81.8582 5.93848 81.8787 6.07359L82.0138 6.97003C82.0402 7.14426 82.2393 7.23483 82.391 7.14125C83.1677 6.66038 84.4105 5.97579 85.443 5.63425C85.5925 5.5849 85.7497 5.68601 85.7669 5.84008L86.0589 8.51915C86.0705 8.62357 86.0114 8.72347 85.914 8.76681Z" fill="white"/>
<path fill-rule="evenodd" clip-rule="evenodd" d="M132.4 17.8687C131.009 17.8687 130.906 17.2425 130.906 16.2876V7.97509C130.906 7.84058 131.016 7.73135 131.154 7.73135H134.436C134.564 7.73135 134.671 7.63656 134.684 7.51168L134.821 6.15574C134.836 6.0122 134.722 5.88762 134.575 5.88762H131.154C131.016 5.88762 130.906 5.77809 130.906 5.64358V2.46558C130.906 2.31753 130.772 2.20288 130.621 2.22425L128.841 2.47431C128.718 2.49116 128.627 2.59438 128.627 2.71565V5.64358C128.627 5.77809 128.516 5.88762 128.379 5.88762H126.414C126.277 5.88762 126.166 5.99686 126.166 6.13137V7.4873C126.166 7.62211 126.277 7.73135 126.414 7.73135H128.379C128.516 7.73135 128.627 7.84058 128.627 7.97509V16.6812C128.627 18.8539 129.613 19.7407 132.028 19.7407C132.568 19.7407 133.126 19.685 133.67 19.58C133.785 19.5574 133.867 19.456 133.867 19.3402V18.0005C133.867 17.8491 133.728 17.7354 133.576 17.7609C133.144 17.8344 132.765 17.8687 132.4 17.8687Z" fill="white"/>
<path fill-rule="evenodd" clip-rule="evenodd" d="M95.5317 11.3839C95.5317 11.5188 95.4208 11.6277 95.2836 11.6277H90.8408H90.8405V10.4288C90.8405 9.13549 91.4416 8.23605 93.1596 8.23605C93.3658 8.23605 93.5558 8.24989 93.732 8.27456C95.024 8.45843 95.5317 9.29076 95.5317 10.4288V11.3839ZM96.0106 5.93162C95.2655 5.60843 94.3227 5.42457 93.1305 5.42457C91.7728 5.42457 90.7075 5.65176 89.8808 6.04807C87.9876 6.95474 87.3481 8.75122 87.3481 10.7662V14.3928C87.3481 17.6084 88.7996 19.587 92.9562 19.6745C93.2644 19.6914 93.5956 19.6784 93.925 19.6784C95.0476 19.6784 96.2147 19.5602 97.318 19.4022C97.4535 19.3826 97.5466 19.2584 97.527 19.1254L97.5092 19.0071L97.2286 17.1423C96.1902 17.2503 95.2388 17.2931 94.19 17.294C91.6135 17.294 90.8408 16.563 90.8408 15.0449V14.5668C90.8408 14.565 90.8405 14.5631 90.8405 14.5616V13.9056H90.8408H98.35C98.4873 13.9056 98.5985 13.7964 98.5985 13.6619V12.627V10.935C98.5985 8.77078 98.0577 6.81993 96.0106 5.93162Z" fill="white"/>
<path fill-rule="evenodd" clip-rule="evenodd" d="M10.5325 21.8358C10.5551 21.8383 10.5778 21.8413 10.6005 21.8431C10.7494 21.8539 10.8931 21.7164 10.8931 21.5611C10.8931 21.4317 10.8098 21.3086 10.6783 21.2906L10.61 21.2798L10.4292 21.2515C7.28831 20.6271 4.92352 17.8974 4.92352 14.6247C4.92352 13.232 5.35187 11.9375 6.086 10.8617C6.1914 10.7079 6.41722 10.5981 6.60627 10.7714L11.5852 15.7504C11.6422 15.7982 11.7158 15.8277 11.7976 15.8277C11.8794 15.8277 11.9529 15.7982 12.0099 15.7504L17.0422 10.8189C17.2411 10.6447 17.3875 10.6829 17.5101 10.8617C18.247 11.936 18.6729 13.232 18.6729 14.6247C18.6729 16.3528 18.0135 17.9299 16.9285 19.1249C16.8927 19.1646 16.8562 19.2034 16.8192 19.2422C16.8035 19.2756 16.7949 19.3127 16.7949 19.3518C16.7949 19.4965 16.9138 19.6133 17.0609 19.6133C17.0753 19.6133 17.0894 19.6121 17.1032 19.6103C17.1418 19.594 17.1801 19.5784 17.2184 19.5624C23.8691 16.7855 23.5946 10.3017 23.5946 10.3017C23.5946 6.57059 21.8033 3.25116 19.0206 1.12879C18.9005 1.03731 18.7268 1.05025 18.6199 1.15527L12.0127 7.65239C11.8947 7.76854 11.6998 7.76854 11.5819 7.65239L4.975 1.15527C4.86806 1.05025 4.69403 1.03731 4.57423 1.12879C1.79213 3.25056 0.0012256 6.56848 0 10.2981V10.3038C0.0012256 16.2896 4.61283 21.2151 10.5325 21.8358Z" fill="white"/>
<path fill-rule="evenodd" clip-rule="evenodd" d="M32.5517 14.4014C32.5517 16.1163 31.3782 17.2688 29.5175 17.2688C28.0863 17.2688 27.3417 16.735 27.3417 15.6102C27.3417 14.3734 28.1148 13.8952 29.5175 13.8952H32.3036C32.4405 13.8952 32.5517 14.0045 32.5517 14.139V14.4014ZM29.5175 5.54536C28.3084 5.54536 27.0225 5.63955 25.8312 5.81348C25.6967 5.83304 25.6045 5.95641 25.6231 6.08882L25.9145 8.17177C25.9351 8.30117 26.0478 8.41882 26.1811 8.40378C27.2991 8.28221 28.0722 8.24429 29.2025 8.24429C31.779 8.24429 32.5517 8.97522 32.5517 10.4934V11.4024C32.5517 11.5369 32.4405 11.6462 32.3036 11.6462H29.0668C26.2041 11.6462 24.5437 13.0521 24.5437 15.6384C24.5437 18.0283 26.433 19.715 29.2383 19.715C31.0127 19.715 31.6908 19.4517 32.2702 18.8962C32.4289 18.7439 32.6948 18.8492 32.6948 19.0674V19.2465C32.6948 19.3807 32.8064 19.4902 32.943 19.4902H35.7959C35.9332 19.4902 36.0441 19.3807 36.0441 19.2465V10.5779C36.0441 7.17603 33.611 5.54536 29.5175 5.54536Z" fill="white"/>
<path fill-rule="evenodd" clip-rule="evenodd" d="M72.9787 14.4014C72.9787 16.1163 71.8052 17.2688 69.9445 17.2688C68.5133 17.2688 67.7687 16.735 67.7687 15.6102C67.7687 14.3734 68.5418 13.8952 69.9445 13.8952H72.7306C72.8675 13.8952 72.9787 14.0045 72.9787 14.139V14.4014ZM69.9445 5.54536C68.7354 5.54536 67.4495 5.63955 66.2582 5.81348C66.1237 5.83304 66.0315 5.95641 66.0498 6.08882L66.3415 8.17177C66.3621 8.30117 66.4748 8.41882 66.6081 8.40378C67.7261 8.28221 68.4992 8.24429 69.6295 8.24429C72.206 8.24429 72.9787 8.97522 72.9787 10.4934V11.4024C72.9787 11.5369 72.8675 11.6462 72.7306 11.6462H69.4938C66.6311 11.6462 64.9707 13.0521 64.9707 15.6384C64.9707 18.0283 66.86 19.715 69.6654 19.715C71.4397 19.715 72.1178 19.4517 72.6972 18.8962C72.8559 18.7439 73.1218 18.8492 73.1218 19.0674V19.2465C73.1218 19.3807 73.2334 19.4902 73.37 19.4902H76.2229C76.3602 19.4902 76.4714 19.3807 76.4714 19.2465V10.5779C76.4714 7.17603 74.038 5.54536 69.9445 5.54536Z" fill="white"/>
<path d="M170.78 24.138V0.917271H169.722V24.138H170.78ZM190.719 20.4187C194.366 20.4187 196.712 18.7852 196.712 15.3926V15.292C196.712 12.9549 195.717 11.623 193.065 10.9947C195.156 10.291 195.819 8.83344 195.819 7.19995V7.09942C195.819 3.556 193.346 2.45024 189.954 2.45024H184.471V20.4187H190.719ZM189.954 10.291H186.638V4.15913H189.903C192.453 4.15913 193.652 4.98845 193.652 7.02403V7.12456C193.652 9.33606 192.631 10.291 189.954 10.291ZM190.668 18.7098H186.638V11.9999H190.362C193.295 11.9999 194.544 13.0554 194.544 15.2669V15.3674C194.544 17.5538 193.32 18.7098 190.668 18.7098ZM203.359 20.4187V13.2062C203.359 9.96433 205.068 9.13501 207.746 9.00936V7.04916C205.349 7.12456 204.201 8.15491 203.359 9.63763V7.27534H201.243V20.4187H203.359ZM217.046 20.6449C220.846 20.6449 223.625 17.9056 223.625 13.935V13.7339C223.625 9.78841 220.846 7.04916 217.071 7.04916C213.297 7.04916 210.517 9.81354 210.517 13.7591V13.9601C210.517 17.8051 213.246 20.6449 217.046 20.6449ZM217.071 18.9109C214.368 18.9109 212.71 16.9507 212.71 13.9601V13.7591C212.71 10.7434 214.393 8.78318 217.071 8.78318C219.723 8.78318 221.432 10.7434 221.432 13.7842V13.9601C221.432 16.9255 219.749 18.9109 217.071 18.9109ZM232.721 20.4187L235.832 10.5675L238.612 20.4187H240.958L245.115 7.27534H242.948L239.811 17.8554L236.776 7.27534H234.94L231.701 17.8554L228.59 7.27534H226.295L230.4 20.4187H232.721ZM253.165 20.6449C256.404 20.6449 258.062 19.0365 258.062 16.6491C258.062 13.8596 256.124 13.2564 253.369 12.7538C250.921 12.3266 250.258 11.8491 250.258 10.668C250.258 9.5371 251.253 8.78318 252.783 8.78318C254.466 8.78318 255.282 9.41145 255.588 10.8439H257.628C257.271 8.00413 255.206 7.04916 252.808 7.04916C250.717 7.04916 248.294 8.3057 248.294 10.7434C248.294 13.0303 249.468 13.9852 252.936 14.6135C255.002 14.9905 256.047 15.4428 256.047 16.825C256.047 18.2323 255.155 18.9109 253.14 18.9109C250.998 18.9109 250.156 17.9308 250.003 16.3727H247.937C248.065 19.0616 249.978 20.6449 253.165 20.6449ZM267.795 20.6449C270.805 20.6449 273.023 19.2627 273.482 16.624H271.366C271.085 18.1569 269.886 18.9109 267.821 18.9109C265.092 18.9109 263.638 17.2522 263.536 14.2617H273.584V13.5831C273.584 8.8837 270.677 7.04916 267.591 7.04916C263.919 7.04916 261.343 9.81354 261.343 13.7842V13.9852C261.343 18.0313 264.021 20.6449 267.795 20.6449ZM271.417 12.5779H263.613C263.97 10.2408 265.424 8.78318 267.591 8.78318C269.784 8.78318 271.213 9.8638 271.417 12.5779ZM280.002 20.4187V13.2062C280.002 9.96433 281.711 9.13501 284.389 9.00936V7.04916C281.992 7.12456 280.844 8.15491 280.002 9.63763V7.27534H277.886V20.4187H280.002ZM304.442 20.6449C309.109 20.6449 312.348 17.8805 312.348 12.6784V11.3465H304.85V13.1559H310.18C310.104 16.3475 308.395 18.8857 304.442 18.8857C300.158 18.8857 297.913 15.9706 297.913 11.5224V11.3214C297.913 6.92351 300.311 3.90782 304.493 3.90782C307.145 3.90782 309.134 5.01358 309.644 7.87848H311.863C311.302 3.83243 308.063 2.17381 304.442 2.17381C299.214 2.17381 295.618 6.0942 295.618 11.3465V11.5476C295.618 16.7999 298.832 20.6449 304.442 20.6449ZM321.495 20.6449C323.637 20.6449 325.116 19.5643 325.728 18.3329V20.4187H327.845V7.27534H325.728V15.2418C325.728 17.6041 323.943 18.8355 322.056 18.8355C319.964 18.8355 318.97 17.8051 318.97 15.4931V7.27534H316.853V15.5936C316.853 19.2124 318.842 20.6449 321.495 20.6449ZM336.532 20.6449C338.496 20.6449 339.695 19.9915 340.689 18.7601V20.4187H342.806V11.7486C342.806 8.07952 340.485 7.04916 337.935 7.04916C335.359 7.04916 332.937 8.15491 332.656 11.1455H334.773C334.977 9.5371 335.997 8.78318 337.833 8.78318C339.873 8.78318 340.689 9.66276 340.689 11.7486V12.7036H338.777C335.359 12.7036 332.095 13.7339 332.095 16.7747C332.095 19.4637 334.059 20.6449 336.532 20.6449ZM336.736 18.9862C334.875 18.9862 334.212 18.1318 334.212 16.7747C334.212 14.8397 336.175 14.1863 338.853 14.1863H340.689V15.8198C340.689 17.8554 338.981 18.9862 336.736 18.9862ZM350.142 20.4187V13.2062C350.142 9.96433 351.851 9.13501 354.529 9.00936V7.04916C352.131 7.12456 350.984 8.15491 350.142 9.63763V7.27534H348.025V20.4187H350.142ZM363.318 20.6449C365.256 20.6449 367.118 19.4386 367.883 18.1569V20.4187H370V0.992663H367.883V9.38632C367.118 8.10465 365.741 7.04916 363.522 7.04916C359.85 7.04916 357.3 9.88893 357.3 13.9098V14.1109C357.3 18.2072 359.824 20.6449 363.318 20.6449ZM363.548 18.9109C361.304 18.9109 359.493 17.3276 359.493 14.0104V13.8093C359.493 10.6177 361.074 8.78318 363.726 8.78318C366.328 8.78318 367.96 10.3664 367.96 13.7339V13.935C367.96 17.3025 366.022 18.9109 363.548 18.9109Z" fill="white"/>
</svg>
