<svg width="300" height="300" viewBox="0 0 300 300" fill="none" xmlns="http://www.w3.org/2000/svg">
<path opacity="0.15" fill-rule="evenodd" clip-rule="evenodd" d="M63.8801 182.957C58.9924 191.282 56.1899 200.978 56.1899 211.33C56.1899 242.324 81.3157 267.45 112.31 267.45C135.482 267.45 155.375 253.405 163.939 233.364C171.718 235.461 179.898 236.58 188.34 236.58C239.984 236.58 281.85 194.714 281.85 143.07C281.85 91.4257 239.984 49.5598 188.34 49.5598C172.128 49.5598 156.88 53.6854 143.588 60.944C130.965 50.6338 114.84 44.4498 97.27 44.4498C56.8041 44.4498 24 77.2539 24 117.72C24 146.159 40.2025 170.814 63.8801 182.957Z" fill="#FFCC28"/>
<path d="M87.19 203.28C87.2 203.04 87.21 202.8 87.21 202.56C87.21 195.32 81.34 189.46 74.11 189.46C73.85 189.46 73.6 189.46 73.35 189.48C72.35 181.87 65.85 176 57.96 176C50.07 176 43.18 182.24 42.5 190.18C40.65 189.4 38.61 188.97 36.47 188.97C28.3 188.97 21.62 195.28 21 203.28H87.19Z" fill="#FFEFBE"/>
<rect x="61" y="109" width="178" height="59" fill="#E4AE02"/>
<path d="M195.272 60.7517L150 86.8617L238.719 138.032L277.992 115.387C280.661 113.847 280.661 109.995 277.992 108.456L195.272 60.7517Z" fill="#FFDE77"/>
<path d="M104.719 60.7517L150.001 86.8617L61.2724 138.032L22.0079 115.387C19.3391 113.847 19.3391 109.996 22.0078 108.457L104.719 60.7517Z" fill="#FFDE77"/>
<path d="M72 86.4552C72 77.3509 77.1515 69.0305 85.301 64.9719L138.801 38.3282C145.539 34.9726 153.461 34.9726 160.199 38.3282L213.699 64.9719C221.849 69.0305 227 77.3509 227 86.4552V107.793C227 146.77 206.736 182.944 173.498 203.302L157.857 212.882C152.728 216.023 146.272 216.023 141.143 212.882L125.502 203.302C92.264 182.944 72 146.77 72 107.793V86.4552Z" fill="#0F68EE"/>
<path d="M78.3506 78.2542C80.2125 76.3449 82.4083 74.7303 84.8783 73.5068L138.848 46.7738C145.56 43.4488 153.441 43.4488 160.153 46.7738L214.123 73.5068C216.592 74.7299 218.787 76.3439 220.649 78.2524C218.377 73.3985 214.501 69.3479 209.512 66.8915L160.102 42.5616C153.417 39.2698 145.583 39.2698 138.898 42.5616L89.488 66.8915C84.4988 69.3483 80.6222 73.3995 78.3506 78.2542Z" fill="#3F87F3"/>
<path d="M277.977 99.9884C277.988 99.756 278 99.512 278 99.2797C278 92.1231 272.148 86.3141 264.938 86.3141C264.681 86.3141 264.435 86.3141 264.177 86.3373C263.182 78.8089 256.698 73 248.845 73C240.991 73 234.109 79.1691 233.43 87.0344C231.581 86.256 229.556 85.8378 227.426 85.8378C219.292 85.8378 212.62 92.0766 212 100H277.977V99.9884Z" fill="#FFEFBE"/>
<path fill-rule="evenodd" clip-rule="evenodd" d="M119.704 67.6306C119.704 66.526 120.6 65.6306 121.704 65.6306H184.755C197.977 65.6306 209.369 74.5466 209.369 86.3129C209.369 98.0792 197.977 106.995 184.755 106.995H86.1626C85.058 106.995 84.1626 106.1 84.1626 104.995C84.1626 103.891 85.058 102.995 86.1626 102.995H184.755C196.517 102.995 205.369 95.1889 205.369 86.3129C205.369 77.4369 196.517 69.6306 184.755 69.6306H121.704C120.6 69.6306 119.704 68.7352 119.704 67.6306Z" fill="#3F87F3"/>
<path fill-rule="evenodd" clip-rule="evenodd" d="M157.214 192.031L141.585 192.031C128.363 192.031 116.97 183.115 116.97 171.349C116.97 159.583 128.363 150.667 141.585 150.667L203.269 150.667C204.373 150.667 205.269 151.562 205.269 152.667C205.269 153.771 204.373 154.667 203.269 154.667L141.585 154.667C129.823 154.667 120.97 162.473 120.97 171.349C120.97 180.225 129.823 188.031 141.585 188.031L157.214 188.031C158.319 188.031 159.214 188.927 159.214 190.031C159.214 191.136 158.319 192.031 157.214 192.031Z" fill="#3F87F3"/>
<path d="M206.487 89.8114C203.471 89.8114 201.016 87.3564 201.016 84.34C201.016 81.3235 203.471 78.8685 206.487 78.8685C209.504 78.8685 211.959 81.3235 211.959 84.34C211.959 87.3564 209.504 89.8114 206.487 89.8114Z" fill="#0F68EE"/>
<path fill-rule="evenodd" clip-rule="evenodd" d="M206.487 80.8685C204.575 80.8685 203.016 82.4281 203.016 84.34C203.016 86.2518 204.575 87.8114 206.487 87.8114C208.399 87.8114 209.959 86.2518 209.959 84.34C209.959 82.4281 208.399 80.8685 206.487 80.8685ZM199.016 84.34C199.016 80.219 202.366 76.8685 206.487 76.8685C210.608 76.8685 213.959 80.219 213.959 84.34C213.959 88.461 210.608 91.8114 206.487 91.8114C202.366 91.8114 199.016 88.461 199.016 84.34Z" fill="#3F87F3"/>
<path d="M98.0098 110.746C94.9933 110.746 92.5383 108.291 92.5383 105.274C92.5383 102.258 94.9933 99.8027 98.0098 99.8027C101.026 99.8027 103.481 102.258 103.481 105.274C103.481 108.291 101.026 110.746 98.0098 110.746Z" fill="#0F68EE"/>
<path fill-rule="evenodd" clip-rule="evenodd" d="M98.0098 101.803C96.0979 101.803 94.5383 103.362 94.5383 105.274C94.5383 107.186 96.0979 108.746 98.0098 108.746C99.9216 108.746 101.481 107.186 101.481 105.274C101.481 103.362 99.9216 101.803 98.0098 101.803ZM90.5383 105.274C90.5383 101.153 93.8888 97.8027 98.0098 97.8027C102.131 97.8027 105.481 101.153 105.481 105.274C105.481 109.395 102.131 112.746 98.0098 112.746C93.8888 112.746 90.5383 109.395 90.5383 105.274Z" fill="#3F87F3"/>
<path fill-rule="evenodd" clip-rule="evenodd" d="M93.2759 128.69C93.2759 127.585 94.1713 126.69 95.2759 126.69H207.369V130.69H95.2759C94.1713 130.69 93.2759 129.794 93.2759 128.69Z" fill="#3F87F3"/>
<path d="M118.974 164.232C121.991 164.232 124.446 166.687 124.446 169.703C124.446 172.72 121.991 175.175 118.974 175.175C115.958 175.175 113.503 172.72 113.503 169.703C113.503 166.687 115.958 164.232 118.974 164.232Z" fill="#0F68EE"/>
<path fill-rule="evenodd" clip-rule="evenodd" d="M118.974 173.175C120.886 173.175 122.446 171.615 122.446 169.703C122.446 167.791 120.886 166.232 118.974 166.232C117.062 166.232 115.503 167.791 115.503 169.703C115.503 171.615 117.062 173.175 118.974 173.175ZM126.446 169.703C126.446 173.824 123.095 177.175 118.974 177.175C114.853 177.175 111.503 173.824 111.503 169.703C111.503 165.582 114.853 162.232 118.974 162.232C123.095 162.232 126.446 165.582 126.446 169.703Z" fill="#3F87F3"/>
<path d="M204.636 134.165C201.619 134.165 199.164 131.71 199.164 128.693C199.164 125.677 201.619 123.222 204.636 123.222C207.652 123.222 210.107 125.677 210.107 128.693C210.107 131.71 207.652 134.165 204.636 134.165Z" fill="#0F68EE"/>
<path fill-rule="evenodd" clip-rule="evenodd" d="M204.636 125.222C202.724 125.222 201.164 126.781 201.164 128.693C201.164 130.605 202.724 132.165 204.636 132.165C206.547 132.165 208.107 130.605 208.107 128.693C208.107 126.781 206.547 125.222 204.636 125.222ZM197.164 128.693C197.164 124.572 200.515 121.222 204.636 121.222C208.757 121.222 212.107 124.572 212.107 128.693C212.107 132.814 208.757 136.165 204.636 136.165C200.515 136.165 197.164 132.814 197.164 128.693Z" fill="#3F87F3"/>
<path fill-rule="evenodd" clip-rule="evenodd" d="M150.001 259.525V189.194L238.706 138.033V208.363L150.001 259.525Z" fill="#E4AE02"/>
<path fill-rule="evenodd" clip-rule="evenodd" d="M150.001 259.371V189.041L149.72 189.203L61.001 138.033V208.363L149.72 259.533L150.001 259.371Z" fill="#FFCC28"/>
<path d="M100.723 213.012C103.196 214.438 106.242 214.438 108.716 213.012L150.001 189.207L61.2724 138.037L22.0079 160.682C19.3391 162.221 19.3391 166.072 22.0078 167.612L100.723 213.012Z" fill="#FFDE77"/>
<path d="M199.269 213.012C196.796 214.438 193.749 214.438 191.276 213.011L150 189.207L238.719 138.037L277.992 160.682C280.661 162.221 280.661 166.073 277.992 167.612L199.269 213.012Z" fill="#FFDE77"/>
<path fill-rule="evenodd" clip-rule="evenodd" d="M146.394 166.265C147.118 166.265 147.485 165.919 147.485 165.226C147.485 164.879 147.118 164.533 146.761 164.186H145.671C132.547 161.751 123.794 149.238 126.352 136.726C127.075 133.944 128.175 130.816 129.999 128.381C130.366 127.688 131.09 127.688 131.823 128.034L149.685 145.061H151.143L169.005 128.034C169.728 127.341 170.095 127.341 170.462 128.034C176.657 137.072 175.567 148.546 168.271 156.544H167.904C167.904 156.891 168.271 157.584 168.994 157.584H169.718C183.209 152.367 192.318 139.507 192.318 125.599C192.318 113.076 186.49 101.266 176.28 93.6141C175.913 93.2676 175.546 93.2676 175.19 93.6141L151.489 116.204C151.122 116.551 150.766 116.897 150.032 116.551C150.032 116.551 149.665 116.551 149.665 116.204L125.964 93.6141C125.598 93.2676 125.241 93.2676 124.874 93.6141C114.308 101.256 108.102 113.433 108.469 125.945C108.836 146.803 124.874 164.186 146.384 166.265" fill="#0C54C0"/>
<path fill-rule="evenodd" clip-rule="evenodd" d="M146.394 158.911C147.118 158.911 147.485 158.564 147.485 157.871C147.485 157.525 147.118 157.179 146.761 156.832H145.671C132.547 154.397 123.794 141.884 126.352 129.371C127.075 126.59 128.175 123.462 129.999 121.026C130.366 120.333 131.09 120.333 131.823 120.68L149.685 137.706H151.143L169.005 120.68C169.728 119.987 170.095 119.987 170.462 120.68C176.657 129.718 175.567 141.191 168.271 149.19H167.904C167.904 149.536 168.271 150.229 168.994 150.229H169.718C183.209 145.012 192.318 132.153 192.318 118.245C192.318 105.722 186.49 93.9121 176.28 86.2598C175.913 85.9134 175.546 85.9134 175.19 86.2598L151.489 108.85C151.122 109.196 150.766 109.543 150.032 109.196C150.032 109.196 149.665 109.196 149.665 108.85L125.964 86.2598C125.598 85.9134 125.241 85.9134 124.874 86.2598C114.308 93.9019 108.102 106.078 108.469 118.591C108.836 139.449 124.874 156.832 146.384 158.911" fill="white"/>
</svg>
