<svg width="225" height="190" viewBox="0 0 225 190" fill="none" xmlns="http://www.w3.org/2000/svg">
<path d="M59.7091 142.819C59.7175 142.618 59.7259 142.416 59.7259 142.215C59.7259 136.143 54.8026 131.228 48.7385 131.228C48.5205 131.228 48.3108 131.228 48.1011 131.244C47.2624 124.862 41.8106 119.938 35.1931 119.938C28.5755 119.938 22.7966 125.172 22.2263 131.832C20.6746 131.177 18.9636 130.817 17.1688 130.817C10.3163 130.817 4.71362 136.109 4.1936 142.819H59.7091Z" fill="#CFD8F5"/>
<rect x="37.7428" y="63.7435" width="149.294" height="49.4851" fill="#E4AE02"/>
<path d="M150.361 23.2762L112.39 45.1754L186.801 88.0931L218.771 69.6588C221.441 68.1198 221.441 64.2678 218.772 62.7286L150.361 23.2762Z" fill="#FFDE77"/>
<path d="M74.4115 23.2762L112.391 45.1754L37.9713 88.0931L6.00789 69.6588C3.33911 68.1197 3.33907 64.2681 6.00781 62.7288L74.4115 23.2762Z" fill="#FFDE77"/>
<path d="M46.9689 47.2308C46.9689 38.1265 52.1203 29.8061 60.2699 25.7475L101.271 5.32822C108.009 1.97262 115.931 1.97262 122.669 5.32821L163.671 25.7475C171.82 29.8061 176.972 38.1265 176.972 47.2308V52.6126C176.972 91.5899 156.708 127.764 123.47 148.122L120.327 150.047C115.199 153.188 108.742 153.188 103.614 150.047L100.471 148.122C67.2328 127.764 46.9689 91.5899 46.9689 52.6126V47.2308Z" fill="#0F68EE"/>
<path d="M52.2953 37.956C53.8569 36.3546 55.6986 35.0004 57.7702 33.9743L103.036 11.5525C108.666 8.76372 115.275 8.76372 120.906 11.5525L166.171 33.9743C168.242 35.0001 170.084 36.3538 171.645 37.9545C169.739 33.8834 166.488 30.4861 162.304 28.4258L120.863 8.01957C115.256 5.25871 108.685 5.25872 103.078 8.01958L61.6366 28.4258C57.4519 30.4864 54.2006 33.8843 52.2953 37.956Z" fill="#3F87F3"/>
<path d="M219.728 56.1851C219.737 55.9902 219.747 55.7856 219.747 55.5907C219.747 49.5883 214.839 44.7161 208.792 44.7161C208.576 44.7161 208.37 44.7161 208.154 44.7356C207.319 38.4213 201.881 33.5492 195.294 33.5492C188.707 33.5492 182.935 38.7234 182.365 45.3203C180.814 44.6674 179.116 44.3166 177.329 44.3166C170.507 44.3166 164.911 49.5493 164.391 56.1949H219.728V56.1851Z" fill="#B6C5F0"/>
<path fill-rule="evenodd" clip-rule="evenodd" d="M86.9801 29.0457C86.9801 28.1192 87.7311 27.3682 88.6575 27.3682H141.54C152.629 27.3682 162.185 34.8463 162.185 44.715C162.185 54.5838 152.629 62.0619 141.54 62.0619H58.8475C57.9211 62.0619 57.17 61.3108 57.17 60.3844C57.17 59.458 57.9211 58.7069 58.8475 58.7069H141.54C151.405 58.7069 158.83 52.1596 158.83 44.715C158.83 37.2704 151.405 30.7231 141.54 30.7231H88.6575C87.7311 30.7231 86.9801 29.9721 86.9801 29.0457Z" fill="#3F87F3"/>
<path fill-rule="evenodd" clip-rule="evenodd" d="M118.44 133.384L105.331 133.384C94.2424 133.384 84.6869 125.906 84.6869 116.037C84.6869 106.169 94.2424 98.6906 105.331 98.6906L157.068 98.6906C157.994 98.6906 158.745 99.4416 158.745 100.368C158.745 101.295 157.994 102.046 157.068 102.046L105.331 102.046C95.467 102.046 88.0418 108.593 88.0418 116.037C88.0418 123.482 95.467 130.029 105.331 130.029L118.44 130.029C119.367 130.029 120.118 130.78 120.118 131.707C120.118 132.633 119.367 133.384 118.44 133.384Z" fill="#3F87F3"/>
<path d="M159.767 47.6493C157.237 47.6493 155.178 45.5903 155.178 43.0603C155.178 40.5303 157.237 38.4712 159.767 38.4712C162.297 38.4712 164.356 40.5303 164.356 43.0603C164.356 45.5903 162.297 47.6493 159.767 47.6493Z" fill="#0F68EE"/>
<path fill-rule="evenodd" clip-rule="evenodd" d="M159.767 40.1487C158.164 40.1487 156.856 41.4568 156.856 43.0603C156.856 44.6638 158.164 45.9719 159.767 45.9719C161.371 45.9719 162.679 44.6638 162.679 43.0603C162.679 41.4568 161.371 40.1487 159.767 40.1487ZM153.501 43.0603C153.501 39.6039 156.311 36.7938 159.767 36.7938C163.224 36.7938 166.034 39.6039 166.034 43.0603C166.034 46.5167 163.224 49.3268 159.767 49.3268C156.311 49.3268 153.501 46.5167 153.501 43.0603Z" fill="#3F87F3"/>
<path d="M68.7839 65.2076C66.2539 65.2076 64.1948 63.1485 64.1948 60.6185C64.1948 58.0885 66.2539 56.0294 68.7839 56.0294C71.3139 56.0294 73.373 58.0885 73.373 60.6185C73.373 63.1485 71.3139 65.2076 68.7839 65.2076Z" fill="#0F68EE"/>
<path fill-rule="evenodd" clip-rule="evenodd" d="M68.784 57.7069C67.1804 57.7069 65.8724 59.0149 65.8724 60.6185C65.8724 62.222 67.1804 63.5301 68.784 63.5301C70.3875 63.5301 71.6956 62.222 71.6956 60.6185C71.6956 59.0149 70.3875 57.7069 68.784 57.7069ZM62.5175 60.6185C62.5175 57.1621 65.3276 54.352 68.784 54.352C72.2404 54.352 75.0505 57.1621 75.0505 60.6185C75.0505 64.0749 72.2404 66.885 68.784 66.885C65.3276 66.885 62.5175 64.0749 62.5175 60.6185Z" fill="#3F87F3"/>
<path fill-rule="evenodd" clip-rule="evenodd" d="M64.8136 80.2578C64.8136 79.3313 65.5646 78.5803 66.4911 78.5803H160.507V81.9352H66.4911C65.5646 81.9352 64.8136 81.1842 64.8136 80.2578Z" fill="#3F87F3"/>
<path d="M86.3676 110.068C88.8976 110.068 90.9567 112.127 90.9567 114.657C90.9567 117.187 88.8976 119.246 86.3676 119.246C83.8376 119.246 81.7785 117.187 81.7785 114.657C81.7785 112.127 83.8376 110.068 86.3676 110.068Z" fill="#0F68EE"/>
<path fill-rule="evenodd" clip-rule="evenodd" d="M86.3675 117.568C87.971 117.568 89.2791 116.26 89.2791 114.657C89.2791 113.053 87.971 111.745 86.3675 111.745C84.764 111.745 83.4559 113.053 83.4559 114.657C83.4559 116.26 84.764 117.568 86.3675 117.568ZM92.634 114.657C92.634 118.113 89.8239 120.923 86.3675 120.923C82.9111 120.923 80.101 118.113 80.101 114.657C80.101 111.2 82.9111 108.39 86.3675 108.39C89.8239 108.39 92.634 111.2 92.634 114.657Z" fill="#3F87F3"/>
<path d="M158.214 84.8497C155.684 84.8497 153.625 82.7906 153.625 80.2606C153.625 77.7306 155.684 75.6715 158.214 75.6715C160.744 75.6715 162.803 77.7306 162.803 80.2606C162.803 82.7906 160.744 84.8497 158.214 84.8497Z" fill="#0F68EE"/>
<path fill-rule="evenodd" clip-rule="evenodd" d="M158.214 77.349C156.611 77.349 155.303 78.6571 155.303 80.2606C155.303 81.8641 156.611 83.1722 158.214 83.1722C159.818 83.1722 161.126 81.8641 161.126 80.2606C161.126 78.6571 159.818 77.349 158.214 77.349ZM151.948 80.2606C151.948 76.8042 154.758 73.9941 158.214 73.9941C161.671 73.9941 164.481 76.8042 164.481 80.2606C164.481 83.717 161.671 86.5271 158.214 86.5271C154.758 86.5271 151.948 83.717 151.948 80.2606Z" fill="#3F87F3"/>
<path fill-rule="evenodd" clip-rule="evenodd" d="M112.391 189.993V131.005L186.79 88.0943V147.082L112.391 189.993Z" fill="#E4AE02"/>
<path fill-rule="evenodd" clip-rule="evenodd" d="M112.391 189.864V130.876L112.155 131.012L37.7437 88.0943V147.082L112.155 190L112.391 189.864Z" fill="#FFCC28"/>
<path d="M70.4151 150.609C72.8885 152.036 75.9347 152.036 78.4082 150.61L112.391 131.015L37.9713 88.0974L6.00789 106.532C3.33911 108.071 3.33907 111.922 6.00781 113.462L70.4151 150.609Z" fill="#FFDE77"/>
<path d="M154.358 150.609C151.884 152.036 148.838 152.036 146.364 150.609L112.39 131.015L186.801 88.0973L218.771 106.532C221.441 108.071 221.441 111.923 218.772 113.462L154.358 150.609Z" fill="#FFDE77"/>
<path fill-rule="evenodd" clip-rule="evenodd" d="M109.366 111.773C109.972 111.773 110.28 111.483 110.28 110.902C110.28 110.611 109.972 110.32 109.673 110.03H108.759C97.7512 107.987 90.41 97.4926 92.5551 86.9979C93.1619 84.6648 94.0849 82.0411 95.6146 79.9985C95.9223 79.4174 96.5291 79.4174 97.1444 79.708L112.126 93.9887H113.348L128.33 79.708C128.936 79.1268 129.244 79.1268 129.552 79.708C134.748 87.2885 133.833 96.9115 127.714 103.62H127.407C127.407 103.911 127.714 104.492 128.321 104.492H128.928C140.243 100.116 147.883 89.331 147.883 77.6654C147.883 67.1621 142.995 57.2571 134.432 50.8389C134.124 50.5483 133.816 50.5483 133.517 50.8389L113.639 69.7858C113.331 70.0764 113.032 70.367 112.417 70.0764C112.417 70.0764 112.109 70.0764 112.109 69.7858L92.2303 50.8389C91.9227 50.5483 91.6236 50.5483 91.3159 50.8389C82.4535 57.2485 77.2488 67.4612 77.5565 77.956C77.8642 95.4501 91.3159 110.03 109.357 111.773" fill="#0C54C0"/>
<path fill-rule="evenodd" clip-rule="evenodd" d="M109.366 105.605C109.972 105.605 110.28 105.315 110.28 104.733C110.28 104.443 109.972 104.152 109.673 103.862H108.759C97.7512 101.819 90.41 91.3244 92.5551 80.8296C93.1619 78.4965 94.0849 75.8728 95.6146 73.8303C95.9223 73.2491 96.5291 73.2491 97.1444 73.5397L112.126 87.8204H113.348L128.33 73.5397C128.936 72.9585 129.244 72.9585 129.552 73.5397C134.748 81.1202 133.833 90.7432 127.714 97.452H127.407C127.407 97.7426 127.714 98.3237 128.321 98.3237H128.928C140.243 93.948 147.883 83.1627 147.883 71.4971C147.883 60.9938 142.995 51.0888 134.432 44.6706C134.124 44.38 133.816 44.38 133.517 44.6706L113.639 63.6175C113.331 63.9081 113.032 64.1987 112.417 63.9081C112.417 63.9081 112.109 63.9081 112.109 63.6175L92.2303 44.6706C91.9227 44.38 91.6236 44.38 91.3159 44.6706C82.4535 51.0802 77.2488 61.293 77.5565 71.7877C77.8642 89.2818 91.3159 103.862 109.357 105.605" fill="white"/>
</svg>
