<svg width="370" height="25" viewBox="0 0 370 25" fill="none" xmlns="http://www.w3.org/2000/svg">
<path fill-rule="evenodd" clip-rule="evenodd" d="M108.973 9.7345V14.7686C108.973 16.6303 108.404 17.7844 105.571 17.7844C104.625 17.7844 103.7 17.7178 102.823 17.5866L102.769 17.5782V8.62622L102.804 8.60967C103.618 8.22088 105.344 7.56247 106.655 7.56247C108.258 7.56247 108.973 8.23232 108.973 9.7345ZM102.862 6.5553L102.769 6.60375V0.243849C102.769 0.0954966 102.635 -0.0185513 102.487 0.00251293L100.711 0.252275C100.59 0.269728 100.5 0.372341 100.5 0.494213V19.0223C100.5 19.1373 100.58 19.2372 100.693 19.261C102.256 19.5902 104.2 19.7406 105.4 19.7406C110.534 19.7406 111.242 17.3107 111.242 14.6843V9.81876C111.242 7.02383 109.891 5.6062 107.226 5.6062C105.349 5.6062 103.741 6.0967 102.862 6.5553Z" fill="#0D3ECC"/>
<path fill-rule="evenodd" clip-rule="evenodd" d="M114.249 5.8875H112.536C112.368 5.8875 112.248 6.0494 112.3 6.20648L116.607 19.291C116.64 19.3915 116.735 19.4595 116.842 19.4595H117.356C117.526 19.4595 117.645 19.6244 117.59 19.783L115.876 24.6762C115.821 24.8351 115.941 25 116.111 25H117.708C117.813 25 117.907 24.9344 117.941 24.8369L119.837 19.501L124.295 6.20768C124.348 6.0503 124.229 5.8875 124.06 5.8875H122.348C122.241 5.8875 122.146 5.95581 122.114 6.05662L118.507 17.1151C118.434 17.3413 118.109 17.3404 118.036 17.1141L114.484 6.05752C114.452 5.95641 114.357 5.8875 114.249 5.8875Z" fill="#0D3ECC"/>
<path fill-rule="evenodd" clip-rule="evenodd" d="M137.815 10.4938C137.815 8.38891 138.776 7.45005 140.931 7.45005C143.043 7.45005 143.904 8.33174 143.904 10.4938V11.4375C143.904 11.5723 143.793 11.681 143.657 11.681H138.062C137.926 11.681 137.815 11.5723 137.815 11.4375V10.4938ZM135.545 10.6626V14.769C135.545 18.1609 137.274 19.7407 140.989 19.7407C142.573 19.7407 144.322 19.4756 145.628 19.042C145.742 19.0041 145.81 18.8891 145.79 18.7727L145.574 17.4712C145.55 17.3304 145.409 17.2404 145.268 17.275C143.746 17.6503 142.375 17.8407 141.188 17.8407C138.32 17.8407 137.815 16.8408 137.815 14.7404V13.7693C137.815 13.6345 137.926 13.525 138.062 13.525H145.841C145.978 13.525 146.089 13.416 146.089 13.2815V10.7189C146.089 7.27823 144.401 5.60663 140.931 5.60663C137.357 5.60663 135.545 7.30741 135.545 10.6626Z" fill="#0D3ECC"/>
<path fill-rule="evenodd" clip-rule="evenodd" d="M152.781 11.7075C150.432 11.143 150.365 10.8643 150.365 9.2845C150.365 7.9725 150.728 7.50638 152.768 7.50638C153.754 7.50638 155.131 7.63818 156.297 7.8398C156.44 7.86477 156.573 7.76246 156.586 7.62013L156.704 6.27412C156.715 6.15586 156.637 6.04573 156.519 6.01684C155.446 5.75504 154.126 5.60608 152.853 5.60608C149.405 5.60608 148.124 6.58798 148.124 9.22823C148.124 12.0424 148.444 12.7246 151.842 13.5551C154.606 14.2223 154.799 14.3772 154.799 15.9219C154.799 17.3849 154.437 17.8405 152.168 17.8405C151.072 17.8405 149.674 17.6557 148.512 17.3626C148.373 17.3274 148.233 17.4186 148.209 17.5591L147.994 18.8296C147.974 18.9479 148.043 19.0625 148.159 19.101C149.274 19.4715 150.998 19.7405 152.311 19.7405C156.309 19.7405 157.041 18.4261 157.041 15.8376C157.041 12.9476 156.505 12.6256 152.781 11.7075Z" fill="#0D3ECC"/>
<path fill-rule="evenodd" clip-rule="evenodd" d="M47.4715 19.3186L44.9953 6.11464C44.9672 5.96478 45.0838 5.82666 45.2387 5.82666H47.9876C48.107 5.82666 48.2096 5.91061 48.231 6.02617L49.719 13.993C49.766 14.2448 50.1251 14.2638 50.1993 14.0182L52.6203 6.00089C52.6514 5.89737 52.7479 5.82666 52.8576 5.82666H56.111C56.2206 5.82666 56.3174 5.89767 56.3482 6.00149L58.742 14.0113C58.8156 14.2575 59.1756 14.2388 59.2226 13.9866L60.7095 6.02617C60.7309 5.91061 60.8331 5.82666 60.9529 5.82666H63.7018C63.8566 5.82666 63.9732 5.96478 63.9452 6.11464L61.4689 19.3186C61.4472 19.4345 61.3449 19.5181 61.2255 19.5181H57.5941C57.4842 19.5181 57.3877 19.4468 57.3565 19.343L54.7075 10.4728C54.6379 10.2396 54.3026 10.2396 54.2329 10.4728L51.5839 19.343C51.5527 19.4468 51.4562 19.5181 51.3463 19.5181H47.7146C47.5955 19.5181 47.4932 19.4345 47.4715 19.3186Z" fill="#0D3ECC"/>
<path fill-rule="evenodd" clip-rule="evenodd" d="M43.4533 16.988C42.198 16.988 41.8273 16.4535 41.8273 14.9074V4.97774V1.07453C41.8273 0.926179 41.6944 0.812432 41.5457 0.832594L38.5598 1.24274C38.4377 1.2596 38.3467 1.36281 38.3467 1.48438V1.61137V4.97774V15.273C38.3467 18.3939 40.2583 19.7432 42.8258 19.7432C43.0881 19.7432 44.0085 19.7035 44.4864 19.658C44.6128 19.646 44.7087 19.5404 44.7087 19.4152V17.2194C44.7087 17.081 44.5927 16.9702 44.4525 16.9759C44.1297 16.988 43.6692 16.988 43.4533 16.988Z" fill="#0D3ECC"/>
<path fill-rule="evenodd" clip-rule="evenodd" d="M85.6247 8.76681C84.3989 9.31719 83.3793 9.89705 82.2235 10.6181C82.1517 10.6629 82.1078 10.7411 82.1078 10.8248V19.2743C82.1078 19.4088 81.9972 19.5183 81.8604 19.5183H78.8748C78.738 19.5183 78.6272 19.4088 78.6272 19.2743V6.53099C78.6272 6.41273 78.7139 6.31132 78.8327 6.29085L81.316 5.86897C81.4531 5.8455 81.5825 5.93848 81.603 6.07359L81.7377 6.97003C81.7639 7.14426 81.9624 7.23483 82.1136 7.14125C82.8877 6.66038 84.1262 5.97579 85.1553 5.63425C85.3044 5.5849 85.461 5.68601 85.4781 5.84008L85.7691 8.51915C85.7807 8.62357 85.7218 8.72347 85.6247 8.76681Z" fill="#0D3ECC"/>
<path fill-rule="evenodd" clip-rule="evenodd" d="M131.954 17.8687C130.568 17.8687 130.465 17.2425 130.465 16.2876V7.97509C130.465 7.84058 130.575 7.73135 130.712 7.73135H133.984C134.111 7.73135 134.218 7.63656 134.23 7.51168L134.367 6.15574C134.382 6.0122 134.268 5.88762 134.122 5.88762H130.712C130.575 5.88762 130.465 5.77809 130.465 5.64358V2.46558C130.465 2.31753 130.331 2.20288 130.182 2.22425L128.407 2.47431C128.285 2.49116 128.194 2.59438 128.194 2.71565V5.64358C128.194 5.77809 128.084 5.88762 127.947 5.88762H125.989C125.852 5.88762 125.741 5.99686 125.741 6.13137V7.4873C125.741 7.62211 125.852 7.73135 125.989 7.73135H127.947C128.084 7.73135 128.194 7.84058 128.194 7.97509V16.6812C128.194 18.8539 129.176 19.7407 131.584 19.7407C132.121 19.7407 132.678 19.685 133.22 19.58C133.335 19.5574 133.417 19.456 133.417 19.3402V18.0005C133.417 17.8491 133.278 17.7354 133.126 17.7609C132.696 17.8344 132.318 17.8687 131.954 17.8687Z" fill="#0D3ECC"/>
<path fill-rule="evenodd" clip-rule="evenodd" d="M95.2101 11.3839C95.2101 11.5188 95.0996 11.6277 94.9628 11.6277H90.535H90.5347V10.4288C90.5347 9.13549 91.1338 8.23605 92.846 8.23605C93.0515 8.23605 93.2408 8.24989 93.4164 8.27456C94.7041 8.45843 95.2101 9.29076 95.2101 10.4288V11.3839ZM95.6874 5.93162C94.9448 5.60843 94.0052 5.42457 92.817 5.42457C91.4639 5.42457 90.4021 5.65176 89.5782 6.04807C87.6914 6.95474 87.0541 8.75122 87.0541 10.7662V14.3928C87.0541 17.6084 88.5006 19.587 92.6432 19.6745C92.9504 19.6914 93.2805 19.6784 93.6088 19.6784C94.7276 19.6784 95.8908 19.5602 96.9904 19.4022C97.1254 19.3826 97.2182 19.2584 97.1987 19.1254L97.181 19.0071L96.9013 17.1423C95.8664 17.2503 94.9182 17.2931 93.8729 17.294C91.3051 17.294 90.535 16.563 90.535 15.0449V14.5668C90.535 14.565 90.5347 14.5631 90.5347 14.5616V13.9056H90.535H98.0189C98.1557 13.9056 98.2666 13.7964 98.2666 13.6619V12.627V10.935C98.2666 8.77078 97.7276 6.81993 95.6874 5.93162Z" fill="#0D3ECC"/>
<path fill-rule="evenodd" clip-rule="evenodd" d="M10.497 21.8358C10.5196 21.8383 10.5422 21.8413 10.5648 21.8431C10.7132 21.8539 10.8564 21.7164 10.8564 21.5611C10.8564 21.4317 10.7734 21.3086 10.6424 21.2906L10.5743 21.2798L10.3941 21.2515C7.26377 20.6271 4.90695 17.8974 4.90695 14.6247C4.90695 13.232 5.33385 11.9375 6.06551 10.8617C6.17056 10.7079 6.39561 10.5981 6.58402 10.7714L11.5462 15.7504C11.603 15.7982 11.6763 15.8277 11.7579 15.8277C11.8394 15.8277 11.9127 15.7982 11.9695 15.7504L16.9848 10.8189C17.183 10.6447 17.329 10.6829 17.4511 10.8617C18.1855 11.936 18.61 13.232 18.61 14.6247C18.61 16.3528 17.9528 17.9299 16.8715 19.1249C16.8358 19.1646 16.7995 19.2034 16.7625 19.2422C16.747 19.2756 16.7384 19.3127 16.7384 19.3518C16.7384 19.4965 16.8569 19.6133 17.0035 19.6133C17.0178 19.6133 17.0319 19.6121 17.0456 19.6103C17.0841 19.594 17.1222 19.5784 17.1604 19.5624C23.7887 16.7855 23.5151 10.3017 23.5151 10.3017C23.5151 6.57059 21.7299 3.25116 18.9566 1.12879C18.8369 1.03731 18.6637 1.05025 18.5572 1.15527L11.9722 7.65239C11.8547 7.76854 11.6604 7.76854 11.5429 7.65239L4.95825 1.15527C4.85167 1.05025 4.67823 1.03731 4.55883 1.12879C1.78609 3.25056 0.00122147 6.56848 0 10.2981V10.3038C0.00122147 16.2896 4.5973 21.2151 10.497 21.8358Z" fill="#0D3ECC"/>
<path fill-rule="evenodd" clip-rule="evenodd" d="M32.4421 14.4014C32.4421 16.1163 31.2726 17.2688 29.4181 17.2688C27.9917 17.2688 27.2497 16.735 27.2497 15.6102C27.2497 14.3734 28.0201 13.8952 29.4181 13.8952H32.1948C32.3313 13.8952 32.4421 14.0045 32.4421 14.139V14.4014ZM29.4181 5.54536C28.2131 5.54536 26.9315 5.63955 25.7442 5.81348C25.6102 5.83304 25.5182 5.95641 25.5369 6.08882L25.8273 8.17177C25.8477 8.30117 25.9601 8.41882 26.0929 8.40378C27.2072 8.28221 27.9777 8.24429 29.1042 8.24429C31.672 8.24429 32.4421 8.97522 32.4421 10.4934V11.4024C32.4421 11.5369 32.3313 11.6462 32.1948 11.6462H28.9689C26.1158 11.6462 24.4611 13.0521 24.4611 15.6384C24.4611 18.0283 26.344 19.715 29.1399 19.715C30.9083 19.715 31.5841 19.4517 32.1615 18.8962C32.3197 18.7439 32.5847 18.8492 32.5847 19.0674V19.2465C32.5847 19.3807 32.6959 19.4902 32.8321 19.4902H35.6754C35.8122 19.4902 35.9227 19.3807 35.9227 19.2465V10.5779C35.9227 7.17603 33.4978 5.54536 29.4181 5.54536Z" fill="#0D3ECC"/>
<path fill-rule="evenodd" clip-rule="evenodd" d="M72.733 14.4014C72.733 16.1163 71.5635 17.2688 69.709 17.2688C68.2826 17.2688 67.5406 16.735 67.5406 15.6102C67.5406 14.3734 68.311 13.8952 69.709 13.8952H72.4857C72.6222 13.8952 72.733 14.0045 72.733 14.139V14.4014ZM69.709 5.54536C68.504 5.54536 67.2224 5.63955 66.0351 5.81348C65.9011 5.83304 65.8091 5.95641 65.8275 6.08882L66.1182 8.17177C66.1386 8.30117 66.251 8.41882 66.3838 8.40378C67.4981 8.28221 68.2686 8.24429 69.3951 8.24429C71.9629 8.24429 72.733 8.97522 72.733 10.4934V11.4024C72.733 11.5369 72.6222 11.6462 72.4857 11.6462H69.2598C66.4067 11.6462 64.752 13.0521 64.752 15.6384C64.752 18.0283 66.6348 19.715 69.4308 19.715C71.1992 19.715 71.875 19.4517 72.4524 18.8962C72.6106 18.7439 72.8756 18.8492 72.8756 19.0674V19.2465C72.8756 19.3807 72.9868 19.4902 73.123 19.4902H75.9663C76.1031 19.4902 76.2139 19.3807 76.2139 19.2465V10.5779C76.2139 7.17603 73.7887 5.54536 69.709 5.54536Z" fill="#0D3ECC"/>
<path d="M170.78 24.138V0.917271H169.722V24.138H170.78ZM190.719 20.4187C194.366 20.4187 196.712 18.7852 196.712 15.3926V15.292C196.712 12.9549 195.717 11.623 193.065 10.9947C195.156 10.291 195.819 8.83344 195.819 7.19995V7.09942C195.819 3.556 193.346 2.45024 189.954 2.45024H184.471V20.4187H190.719ZM189.954 10.291H186.639V4.15913H189.903C192.453 4.15913 193.652 4.98845 193.652 7.02403V7.12456C193.652 9.33606 192.632 10.291 189.954 10.291ZM190.668 18.7098H186.639V11.9999H190.362C193.295 11.9999 194.544 13.0554 194.544 15.2669V15.3674C194.544 17.5538 193.32 18.7098 190.668 18.7098ZM203.36 20.4187V13.2062C203.36 9.96433 205.068 9.13501 207.746 9.00936V7.04916C205.349 7.12456 204.201 8.15491 203.36 9.63763V7.27534H201.243V20.4187H203.36ZM217.046 20.6449C220.846 20.6449 223.625 17.9056 223.625 13.935V13.7339C223.625 9.78841 220.846 7.04916 217.071 7.04916C213.297 7.04916 210.517 9.81354 210.517 13.7591V13.9601C210.517 17.8051 213.246 20.6449 217.046 20.6449ZM217.071 18.9109C214.368 18.9109 212.71 16.9507 212.71 13.9601V13.7591C212.71 10.7434 214.394 8.78318 217.071 8.78318C219.724 8.78318 221.432 10.7434 221.432 13.7842V13.9601C221.432 16.9255 219.749 18.9109 217.071 18.9109ZM232.721 20.4187L235.832 10.5675L238.612 20.4187H240.958L245.115 7.27534H242.948L239.811 17.8554L236.776 7.27534H234.94L231.701 17.8554L228.59 7.27534H226.295L230.401 20.4187H232.721ZM253.166 20.6449C256.404 20.6449 258.062 19.0365 258.062 16.6491C258.062 13.8596 256.124 13.2564 253.37 12.7538C250.921 12.3266 250.258 11.8491 250.258 10.668C250.258 9.5371 251.253 8.78318 252.783 8.78318C254.466 8.78318 255.282 9.41145 255.588 10.8439H257.628C257.271 8.00413 255.206 7.04916 252.809 7.04916C250.717 7.04916 248.295 8.3057 248.295 10.7434C248.295 13.0303 249.468 13.9852 252.936 14.6135C255.002 14.9905 256.047 15.4428 256.047 16.825C256.047 18.2323 255.155 18.9109 253.14 18.9109C250.998 18.9109 250.156 17.9308 250.003 16.3727H247.938C248.065 19.0616 249.978 20.6449 253.166 20.6449ZM267.795 20.6449C270.805 20.6449 273.023 19.2627 273.482 16.624H271.366C271.085 18.1569 269.887 18.9109 267.821 18.9109C265.092 18.9109 263.638 17.2522 263.536 14.2617H273.584V13.5831C273.584 8.8837 270.677 7.04916 267.591 7.04916C263.919 7.04916 261.343 9.81354 261.343 13.7842V13.9852C261.343 18.0313 264.021 20.6449 267.795 20.6449ZM271.417 12.5779H263.613C263.97 10.2408 265.424 8.78318 267.591 8.78318C269.785 8.78318 271.213 9.8638 271.417 12.5779ZM280.002 20.4187V13.2062C280.002 9.96433 281.711 9.13501 284.389 9.00936V7.04916C281.992 7.12456 280.844 8.15491 280.002 9.63763V7.27534H277.886V20.4187H280.002ZM304.442 20.6449C309.109 20.6449 312.348 17.8805 312.348 12.6784V11.3465H304.85V13.1559H310.18C310.104 16.3475 308.395 18.8857 304.442 18.8857C300.158 18.8857 297.914 15.9706 297.914 11.5224V11.3214C297.914 6.92351 300.311 3.90782 304.493 3.90782C307.145 3.90782 309.135 5.01358 309.645 7.87848H311.863C311.302 3.83243 308.063 2.17381 304.442 2.17381C299.214 2.17381 295.618 6.0942 295.618 11.3465V11.5476C295.618 16.7999 298.832 20.6449 304.442 20.6449ZM321.495 20.6449C323.637 20.6449 325.116 19.5643 325.728 18.3329V20.4187H327.845V7.27534H325.728V15.2418C325.728 17.6041 323.943 18.8355 322.056 18.8355C319.965 18.8355 318.97 17.8051 318.97 15.4931V7.27534H316.853V15.5936C316.853 19.2124 318.842 20.6449 321.495 20.6449ZM336.533 20.6449C338.496 20.6449 339.695 19.9915 340.689 18.7601V20.4187H342.806V11.7486C342.806 8.07952 340.485 7.04916 337.935 7.04916C335.359 7.04916 332.937 8.15491 332.656 11.1455H334.773C334.977 9.5371 335.997 8.78318 337.833 8.78318C339.873 8.78318 340.689 9.66276 340.689 11.7486V12.7036H338.777C335.359 12.7036 332.095 13.7339 332.095 16.7747C332.095 19.4637 334.059 20.6449 336.533 20.6449ZM336.737 18.9862C334.875 18.9862 334.212 18.1318 334.212 16.7747C334.212 14.8397 336.176 14.1863 338.853 14.1863H340.689V15.8198C340.689 17.8554 338.981 18.9862 336.737 18.9862ZM350.142 20.4187V13.2062C350.142 9.96433 351.851 9.13501 354.529 9.00936V7.04916C352.131 7.12456 350.984 8.15491 350.142 9.63763V7.27534H348.026V20.4187H350.142ZM363.318 20.6449C365.257 20.6449 367.118 19.4386 367.883 18.1569V20.4187H370V0.992663H367.883V9.38632C367.118 8.10465 365.741 7.04916 363.522 7.04916C359.85 7.04916 357.3 9.88893 357.3 13.9098V14.1109C357.3 18.2072 359.825 20.6449 363.318 20.6449ZM363.548 18.9109C361.304 18.9109 359.493 17.3276 359.493 14.0104V13.8093C359.493 10.6177 361.074 8.78318 363.726 8.78318C366.328 8.78318 367.96 10.3664 367.96 13.7339V13.935C367.96 17.3025 366.022 18.9109 363.548 18.9109Z" fill="#0D3ECC"/>
</svg>
