<svg width="18" height="18" viewBox="0 0 18 18" fill="none" xmlns="http://www.w3.org/2000/svg">
<path fill-rule="evenodd" clip-rule="evenodd" d="M7.36569 3.71772C7.65858 3.42482 8.13345 3.42482 8.42635 3.71772C8.71924 4.01061 8.71924 4.48548 8.42635 4.77838L4.95455 8.2493L14.9814 8.24989C15.4058 8.24989 15.7499 8.59395 15.7499 9.01837C15.7499 9.44279 15.4058 9.78685 14.9814 9.78685L4.95005 9.7868L8.42635 13.2637C8.69671 13.534 8.71751 13.9594 8.48874 14.2537L8.42635 14.3243C8.13345 14.6172 7.65858 14.6172 7.36569 14.3243L2.59272 9.55135C2.29982 9.25845 2.29982 8.78358 2.59272 8.49069L7.36569 3.71772Z" fill="#7A95E3"/>
</svg>
