<svg width="292" height="20" viewBox="0 0 292 20" fill="none" xmlns="http://www.w3.org/2000/svg">
<path fill-rule="evenodd" clip-rule="evenodd" d="M85.9079 7.7876V11.8148C85.9079 13.3043 85.4594 14.2275 83.2264 14.2275C82.4806 14.2275 81.7514 14.1743 81.0598 14.0693L81.0174 14.0626V6.90097L81.0453 6.88773C81.6869 6.5767 83.0478 6.04998 84.081 6.04998C85.3444 6.04998 85.9079 6.58585 85.9079 7.7876ZM81.0903 5.24424L81.0174 5.283V0.195079C81.0174 0.0763972 80.912 -0.0148411 80.7947 0.00201034L79.3953 0.20182C79.2995 0.215782 79.2283 0.297873 79.2283 0.39537V15.2179C79.2283 15.3098 79.2913 15.3897 79.3811 15.4088C80.6127 15.6721 82.1455 15.7925 83.0916 15.7925C87.1393 15.7925 87.6973 13.8486 87.6973 11.7474V7.855C87.6973 5.61906 86.6321 4.48496 84.5309 4.48496C83.0514 4.48496 81.7834 4.87736 81.0903 5.24424Z" fill="#FFFFFF"/>
<path fill-rule="evenodd" clip-rule="evenodd" d="M90.0672 4.70999H88.7167C88.5843 4.70999 88.4901 4.83951 88.5308 4.96517L91.9259 15.4328C91.9519 15.5132 92.027 15.5676 92.1113 15.5676H92.5169C92.6505 15.5676 92.7446 15.6995 92.7011 15.8264L91.35 19.741C91.3065 19.8681 91.4008 20 91.5349 20H92.794C92.877 20 92.9507 19.9475 92.9781 19.8695L94.4726 15.6008L97.9869 4.96613C98.0287 4.84023 97.9349 4.70999 97.802 4.70999H96.4524C96.3679 4.70999 96.2928 4.76464 96.2673 4.84528L93.4242 13.692C93.3662 13.8731 93.1103 13.8723 93.0528 13.6913L90.2528 4.84601C90.2273 4.76512 90.1522 4.70999 90.0672 4.70999Z" fill="#FFFFFF"/>
<path fill-rule="evenodd" clip-rule="evenodd" d="M108.645 8.39506C108.645 6.71112 109.403 5.96003 111.102 5.96003C112.767 5.96003 113.446 6.66538 113.446 8.39506V9.15C113.446 9.25785 113.358 9.34475 113.251 9.34475H108.841C108.733 9.34475 108.645 9.25785 108.645 9.15V8.39506ZM106.856 8.53011V11.8152C106.856 14.5287 108.219 15.7926 111.147 15.7926C112.396 15.7926 113.775 15.5805 114.805 15.2336C114.894 15.2033 114.948 15.1113 114.933 15.0181L114.762 13.977C114.743 13.8643 114.632 13.7923 114.521 13.82C113.321 14.1202 112.24 14.2726 111.304 14.2726C109.043 14.2726 108.645 13.4726 108.645 11.7923V11.0154C108.645 10.9076 108.733 10.82 108.841 10.82H114.973C115.08 10.82 115.168 10.7328 115.168 10.6252V8.57513C115.168 5.82257 113.838 4.48529 111.102 4.48529C108.284 4.48529 106.856 5.84592 106.856 8.53011Z" fill="#FFFFFF"/>
<path fill-rule="evenodd" clip-rule="evenodd" d="M120.444 9.36599C118.592 8.91437 118.539 8.69145 118.539 7.4276C118.539 6.378 118.825 6.0051 120.433 6.0051C121.211 6.0051 122.297 6.11054 123.216 6.27183C123.328 6.29181 123.434 6.20997 123.443 6.0961L123.537 5.01929C123.545 4.92468 123.484 4.83658 123.391 4.81347C122.545 4.60403 121.505 4.48486 120.501 4.48486C117.783 4.48486 116.772 5.27038 116.772 7.38258C116.772 9.63393 117.025 10.1797 119.703 10.8441C121.883 11.3778 122.035 11.5018 122.035 12.7375C122.035 13.9079 121.749 14.2724 119.961 14.2724C119.096 14.2724 117.995 14.1246 117.079 13.8901C116.969 13.8619 116.858 13.9349 116.84 14.0473L116.67 15.0637C116.655 15.1583 116.709 15.25 116.8 15.2808C117.679 15.5772 119.038 15.7924 120.074 15.7924C123.226 15.7924 123.802 14.7409 123.802 12.6701C123.802 10.3581 123.38 10.1005 120.444 9.36599Z" fill="#FFFFFF"/>
<path fill-rule="evenodd" clip-rule="evenodd" d="M37.4239 15.4549L35.4718 4.8917C35.4497 4.77181 35.5416 4.66132 35.6637 4.66132H37.8308C37.9249 4.66132 38.0058 4.72848 38.0226 4.82092L39.1957 11.1944C39.2328 11.3959 39.5159 11.411 39.5744 11.2146L41.4829 4.8007C41.5075 4.71789 41.5836 4.66132 41.67 4.66132H44.2348C44.3212 4.66132 44.3975 4.71813 44.4218 4.80118L46.3089 11.209C46.367 11.406 46.6508 11.391 46.6879 11.1893L47.86 4.82092C47.8769 4.72848 47.9575 4.66132 48.0519 4.66132H50.219C50.341 4.66132 50.433 4.77181 50.4108 4.8917L48.4587 15.4549C48.4416 15.5476 48.361 15.6145 48.2668 15.6145H45.404C45.3174 15.6145 45.2413 15.5574 45.2167 15.4744L43.1284 8.37825C43.0735 8.19168 42.8091 8.19168 42.7543 8.37825L40.6659 15.4744C40.6413 15.5574 40.5653 15.6145 40.4786 15.6145H37.6155C37.5217 15.6145 37.441 15.5476 37.4239 15.4549Z" fill="#FFFFFF"/>
<path fill-rule="evenodd" clip-rule="evenodd" d="M34.2563 13.5904C33.2666 13.5904 32.9744 13.1628 32.9744 11.9259V3.98219V0.859622C32.9744 0.74094 32.8696 0.649943 32.7524 0.666072L30.3985 0.994193C30.3022 1.00767 30.2305 1.09025 30.2305 1.1875V1.28909V3.98219V12.2184C30.2305 14.7151 31.7375 15.7945 33.7616 15.7945C33.9684 15.7945 34.6939 15.7628 35.0707 15.7264C35.1703 15.7168 35.2459 15.6323 35.2459 15.5321V13.7755C35.2459 13.6648 35.1544 13.5762 35.044 13.5807C34.7895 13.5904 34.4265 13.5904 34.2563 13.5904Z" fill="#FFFFFF"/>
<path fill-rule="evenodd" clip-rule="evenodd" d="M67.5015 7.01345C66.5352 7.45375 65.7314 7.91764 64.8202 8.49444C64.7637 8.53031 64.729 8.5929 64.729 8.65983V15.4194C64.729 15.527 64.6418 15.6146 64.534 15.6146H62.1803C62.0725 15.6146 61.9851 15.527 61.9851 15.4194V5.22479C61.9851 5.13018 62.0535 5.04905 62.1471 5.03268L64.1048 4.69517C64.2129 4.6764 64.3149 4.75078 64.3311 4.85887L64.4372 5.57602C64.4579 5.71541 64.6144 5.78787 64.7336 5.713C65.3438 5.32831 66.3202 4.78063 67.1315 4.5074C67.249 4.46792 67.3725 4.54881 67.386 4.67206L67.6154 6.81532C67.6245 6.89886 67.5781 6.97878 67.5015 7.01345Z" fill="#FFFFFF"/>
<path fill-rule="evenodd" clip-rule="evenodd" d="M104.025 14.2949C102.933 14.2949 102.851 13.794 102.851 13.0301V6.38007C102.851 6.27246 102.938 6.18508 103.046 6.18508H105.625C105.725 6.18508 105.81 6.10925 105.82 6.00934L105.928 4.92459C105.939 4.80976 105.849 4.7101 105.734 4.7101H103.046C102.938 4.7101 102.851 4.62247 102.851 4.51486V1.97247C102.851 1.85403 102.746 1.76231 102.628 1.7794L101.229 1.97945C101.133 1.99293 101.061 2.0755 101.061 2.17252V4.51486C101.061 4.62247 100.974 4.7101 100.866 4.7101H99.3224C99.2146 4.7101 99.127 4.79748 99.127 4.90509V5.98984C99.127 6.09769 99.2146 6.18508 99.3224 6.18508H100.866C100.974 6.18508 101.061 6.27246 101.061 6.38007V13.345C101.061 15.0831 101.835 15.7925 103.733 15.7925C104.157 15.7925 104.595 15.748 105.023 15.664C105.114 15.6459 105.178 15.5648 105.178 15.4721V14.4004C105.178 14.2793 105.069 14.1883 104.949 14.2088C104.61 14.2675 104.312 14.2949 104.025 14.2949Z" fill="#FFFFFF"/>
<path fill-rule="evenodd" clip-rule="evenodd" d="M75.0582 9.10716C75.0582 9.21501 74.971 9.30216 74.8632 9.30216H71.3725H71.3723V8.34307C71.3723 7.3084 71.8446 6.58884 73.1944 6.58884C73.3564 6.58884 73.5057 6.59991 73.6441 6.61965C74.6593 6.76674 75.0582 7.43261 75.0582 8.34307V9.10716ZM75.4345 4.7453C74.849 4.48675 74.1082 4.33966 73.1716 4.33966C72.1049 4.33966 71.2678 4.52142 70.6183 4.83846C69.1308 5.56379 68.6284 7.00098 68.6284 8.61293V11.5143C68.6284 14.0868 69.7688 15.6696 73.0346 15.7396C73.2768 15.7531 73.537 15.7428 73.7958 15.7428C74.6778 15.7428 75.5948 15.6482 76.4617 15.5218C76.5681 15.5061 76.6413 15.4067 76.6258 15.3003L76.6119 15.2057L76.3914 13.7139C75.5755 13.8003 74.828 13.8345 74.004 13.8352C71.9797 13.8352 71.3725 13.2504 71.3725 12.0359V11.6534C71.3725 11.652 71.3723 11.6505 71.3723 11.6493V11.1245H71.3725H77.2725C77.3803 11.1245 77.4677 11.0371 77.4677 10.9295V10.1016V8.74799C77.4677 7.01663 77.0428 5.45595 75.4345 4.7453Z" fill="#FFFFFF"/>
<path fill-rule="evenodd" clip-rule="evenodd" d="M8.27524 17.4687C8.29306 17.4706 8.31087 17.473 8.32868 17.4745C8.44568 17.4831 8.55859 17.3731 8.55859 17.2489C8.55859 17.1454 8.49311 17.0469 8.38983 17.0325L8.33615 17.0238L8.19411 17.0012C5.72635 16.5017 3.86836 14.318 3.86836 11.6997C3.86836 10.5856 4.20491 9.54998 4.7817 8.68935C4.86452 8.56634 5.04194 8.47847 5.19047 8.61713L9.1024 12.6003C9.14718 12.6386 9.20496 12.6622 9.26923 12.6622C9.33351 12.6622 9.39128 12.6386 9.43606 12.6003L13.3899 8.65517C13.5461 8.51578 13.6612 8.54636 13.7575 8.68935C14.3364 9.54878 14.6711 10.5856 14.6711 11.6997C14.6711 13.0823 14.153 14.344 13.3006 15.2999C13.2724 15.3317 13.2438 15.3627 13.2146 15.3938C13.2023 15.4205 13.1956 15.4501 13.1956 15.4814C13.1956 15.5972 13.289 15.6906 13.4046 15.6906C13.4159 15.6906 13.427 15.6897 13.4378 15.6882C13.4681 15.6752 13.4982 15.6627 13.5283 15.6499C18.7537 13.4284 18.538 8.24135 18.538 8.24135C18.538 5.25648 17.1307 2.60094 14.9443 0.903045C14.8499 0.829862 14.7134 0.840213 14.6294 0.924229L9.43823 6.12192C9.34555 6.21485 9.19244 6.21485 9.09976 6.12192L3.9088 0.924229C3.82479 0.840213 3.68805 0.829862 3.59392 0.903045C1.40805 2.60046 0.000962937 5.2548 0 8.23846V8.24303C0.000962937 13.0317 3.62425 16.9721 8.27524 17.4687Z" fill="#FFFFFF"/>
<path fill-rule="evenodd" clip-rule="evenodd" d="M25.5755 11.5211C25.5755 12.893 24.6535 13.815 23.1915 13.815C22.0671 13.815 21.4821 13.388 21.4821 12.4881C21.4821 11.4987 22.0894 11.1162 23.1915 11.1162H25.3805C25.4881 11.1162 25.5755 11.2036 25.5755 11.3112V11.5211ZM23.1915 4.43628C22.2416 4.43628 21.2312 4.51163 20.2953 4.65077C20.1896 4.66642 20.1171 4.76512 20.1318 4.87105L20.3607 6.53741C20.3769 6.64092 20.4655 6.73505 20.5702 6.72301C21.4486 6.62576 22.056 6.59543 22.9441 6.59543C24.9684 6.59543 25.5755 7.18017 25.5755 8.39467V9.12193C25.5755 9.22954 25.4881 9.31693 25.3805 9.31693H22.8374C20.5882 9.31693 19.2837 10.4416 19.2837 12.5107C19.2837 14.4227 20.7681 15.772 22.9722 15.772C24.3663 15.772 24.8991 15.5613 25.3543 15.1169C25.479 14.9951 25.6879 15.0794 25.6879 15.2539V15.3972C25.6879 15.5045 25.7756 15.5921 25.8829 15.5921H28.1244C28.2323 15.5921 28.3194 15.5045 28.3194 15.3972V8.46232C28.3194 5.74082 26.4077 4.43628 23.1915 4.43628Z" fill="#FFFFFF"/>
<path fill-rule="evenodd" clip-rule="evenodd" d="M57.3387 11.5211C57.3387 12.893 56.4167 13.815 54.9547 13.815C53.8302 13.815 53.2453 13.388 53.2453 12.4881C53.2453 11.4987 53.8526 11.1162 54.9547 11.1162H57.1437C57.2513 11.1162 57.3387 11.2036 57.3387 11.3112V11.5211ZM54.9547 4.43628C54.0048 4.43628 52.9944 4.51163 52.0584 4.65077C51.9528 4.66642 51.8803 4.76512 51.8947 4.87105L52.1239 6.53741C52.14 6.64092 52.2286 6.73505 52.3334 6.72301C53.2118 6.62576 53.8192 6.59543 54.7072 6.59543C56.7316 6.59543 57.3387 7.18017 57.3387 8.39467V9.12193C57.3387 9.22954 57.2513 9.31693 57.1437 9.31693H54.6006C52.3514 9.31693 51.0469 10.4416 51.0469 12.5107C51.0469 14.4227 52.5312 15.772 54.7354 15.772C56.1295 15.772 56.6622 15.5613 57.1175 15.1169C57.2422 14.9951 57.4511 15.0794 57.4511 15.2539V15.3972C57.4511 15.5045 57.5388 15.5921 57.6461 15.5921H59.8876C59.9954 15.5921 60.0828 15.5045 60.0828 15.3972V8.46232C60.0828 5.74082 58.1709 4.43628 54.9547 4.43628Z" fill="#FFFFFF"/>
<path d="M134.634 19.3104V0.733826H133.799V19.3104H134.634ZM150.352 16.335C153.227 16.335 155.077 15.0282 155.077 12.3141V12.2336C155.077 10.3639 154.293 9.29837 152.202 8.79576C153.85 8.23283 154.373 7.06676 154.373 5.75997V5.67955C154.373 2.84481 152.423 1.9602 149.749 1.9602H145.426V16.335H150.352ZM149.749 8.23283H147.135V3.32731H149.709C151.719 3.32731 152.664 3.99077 152.664 5.61924V5.69965C152.664 7.46886 151.86 8.23283 149.749 8.23283ZM150.312 14.9679H147.135V9.59994H150.071C152.383 9.59994 153.368 10.4443 153.368 12.2135V12.294C153.368 14.043 152.403 14.9679 150.312 14.9679ZM160.317 16.335V10.565C160.317 7.97147 161.664 7.30802 163.775 7.2075V5.63934C161.885 5.69965 160.981 6.52394 160.317 7.71011V5.82028H158.649V16.335H160.317ZM171.107 16.5159C174.102 16.5159 176.294 14.3245 176.294 11.148V10.9872C176.294 7.83074 174.102 5.63934 171.127 5.63934C168.151 5.63934 165.96 7.85084 165.96 11.0073V11.1681C165.96 14.2441 168.111 16.5159 171.107 16.5159ZM171.127 15.1287C168.996 15.1287 167.689 13.5605 167.689 11.1681V11.0073C167.689 8.59471 169.016 7.02656 171.127 7.02656C173.218 7.02656 174.565 8.59471 174.565 11.0274V11.1681C174.565 13.5404 173.238 15.1287 171.127 15.1287ZM183.464 16.335L185.917 8.45398L188.108 16.335H189.958L193.235 5.82028H191.526L189.053 14.2843L186.661 5.82028H185.213L182.66 14.2843L180.207 5.82028H178.398L181.635 16.335H183.464ZM199.581 16.5159C202.135 16.5159 203.442 15.2292 203.442 13.3193C203.442 11.0877 201.914 10.6052 199.742 10.2031C197.812 9.8613 197.29 9.47931 197.29 8.5344C197.29 7.62969 198.074 7.02656 199.28 7.02656C200.607 7.02656 201.25 7.52917 201.491 8.67513H203.1C202.818 6.40331 201.19 5.63934 199.3 5.63934C197.651 5.63934 195.741 6.64457 195.741 8.59471C195.741 10.4242 196.666 11.1882 199.401 11.6908C201.029 11.9924 201.853 12.3543 201.853 13.46C201.853 14.5859 201.15 15.1287 199.561 15.1287C197.873 15.1287 197.209 14.3446 197.088 13.0981H195.46C195.561 15.2493 197.068 16.5159 199.581 16.5159ZM211.115 16.5159C213.487 16.5159 215.236 15.4102 215.598 13.2992H213.929C213.708 14.5256 212.763 15.1287 211.135 15.1287C208.984 15.1287 207.838 13.8018 207.757 11.4094H215.678V10.8665C215.678 7.10697 213.387 5.63934 210.954 5.63934C208.059 5.63934 206.028 7.85084 206.028 11.0274V11.1882C206.028 14.425 208.139 16.5159 211.115 16.5159ZM213.97 10.0623H207.818C208.099 8.19262 209.245 7.02656 210.954 7.02656C212.683 7.02656 213.809 7.89105 213.97 10.0623ZM220.738 16.335V10.565C220.738 7.97147 222.085 7.30802 224.196 7.2075V5.63934C222.306 5.69965 221.402 6.52394 220.738 7.71011V5.82028H219.069V16.335H220.738ZM240.005 16.5159C243.684 16.5159 246.237 14.3044 246.237 10.1428V9.07722H240.327V10.5247H244.529C244.468 13.078 243.121 15.1086 240.005 15.1086C236.627 15.1086 234.858 12.7765 234.858 9.21795V9.05712C234.858 5.53882 236.748 3.12627 240.045 3.12627C242.136 3.12627 243.704 4.01087 244.106 6.30279H245.855C245.413 3.06596 242.86 1.73905 240.005 1.73905C235.884 1.73905 233.049 4.87537 233.049 9.07722V9.23806C233.049 13.4399 235.582 16.5159 240.005 16.5159ZM253.448 16.5159C255.137 16.5159 256.303 15.6514 256.786 14.6663V16.335H258.454V5.82028H256.786V12.1934C256.786 14.0833 255.378 15.0684 253.891 15.0684C252.242 15.0684 251.458 14.2441 251.458 12.3945V5.82028H249.789V12.4749C249.789 15.37 251.357 16.5159 253.448 16.5159ZM265.303 16.5159C266.851 16.5159 267.796 15.9932 268.58 15.0081V16.335H270.249V9.39889C270.249 6.46363 268.419 5.63934 266.409 5.63934C264.378 5.63934 262.469 6.52394 262.247 8.91638H263.916C264.077 7.62969 264.881 7.02656 266.329 7.02656C267.937 7.02656 268.58 7.73022 268.58 9.39889V10.1629H267.072C264.378 10.1629 261.805 10.9872 261.805 13.4198C261.805 15.571 263.353 16.5159 265.303 16.5159ZM265.464 15.189C263.996 15.189 263.474 14.5055 263.474 13.4198C263.474 11.8718 265.022 11.349 267.133 11.349H268.58V12.6558C268.58 14.2843 267.233 15.189 265.464 15.189ZM276.032 16.335V10.565C276.032 7.97147 277.379 7.30802 279.49 7.2075V5.63934C277.601 5.69965 276.696 6.52394 276.032 7.71011V5.82028H274.364V16.335H276.032ZM286.42 16.5159C287.948 16.5159 289.415 15.5509 290.018 14.5256V16.335H291.687V0.794139H290.018V7.50906C289.415 6.48373 288.33 5.63934 286.581 5.63934C283.686 5.63934 281.675 7.91116 281.675 11.1279V11.2887C281.675 14.5658 283.665 16.5159 286.42 16.5159ZM286.601 15.1287C284.832 15.1287 283.404 13.8621 283.404 11.2083V11.0475C283.404 8.49419 284.651 7.02656 286.741 7.02656C288.792 7.02656 290.079 8.29314 290.079 10.9872V11.148C290.079 13.842 288.551 15.1287 286.601 15.1287Z" fill="#FFFFFF"/>
</svg>
