<svg width="24" height="24" viewBox="0 0 24 24" fill="none" xmlns="http://www.w3.org/2000/svg">
<g clip-path="url(#clip0_3292_6888)">
<path fill-rule="evenodd" clip-rule="evenodd" d="M12 16.9622C13.1046 16.9622 14 17.8661 14 18.9811C14 20.0961 13.1046 21 12 21C10.8954 21 10 20.0961 10 18.9811C10 17.8661 10.8954 16.9622 12 16.9622ZM12 9.9811C13.1046 9.9811 14 10.885 14 12C14 13.115 13.1046 14.0189 12 14.0189C10.8954 14.0189 10 13.115 10 12C10 10.885 10.8954 9.9811 12 9.9811ZM12 3C13.1046 3 14 3.90389 14 5.0189C14 6.13391 13.1046 7.0378 12 7.0378C10.8954 7.0378 10 6.13391 10 5.0189C10 3.90389 10.8954 3 12 3Z" fill="white"/>
</g>
<defs>
<clipPath id="clip0_3292_6888">
<rect width="24" height="24" fill="#1C1B1F"/>
</clipPath>
</defs>
</svg>
