<svg width="18" height="18" viewBox="0 0 18 18" fill="none" xmlns="http://www.w3.org/2000/svg">
<g clip-path="url(#clip0_3256_16889)">
<path fill-rule="evenodd" clip-rule="evenodd" d="M8.88362 13.9195C9.39782 13.9195 9.81465 14.3293 9.81465 14.8347C9.81465 15.3402 9.39782 15.75 8.88362 15.75C8.36942 15.75 7.95259 15.3402 7.95259 14.8347C7.95259 14.3293 8.36942 13.9195 8.88362 13.9195ZM12.9982 12.1868C13.5445 12.1868 13.9874 12.6222 13.9874 13.1593C13.9874 13.6963 13.5445 14.1317 12.9982 14.1317C12.4519 14.1317 12.009 13.6963 12.009 13.1593C12.009 12.6222 12.4519 12.1868 12.9982 12.1868ZM4.76903 12.3012C5.25109 12.3012 5.64188 12.6854 5.64188 13.1593C5.64188 13.6331 5.25109 14.0173 4.76903 14.0173C4.28697 14.0173 3.89619 13.6331 3.89619 13.1593C3.89619 12.6854 4.28697 12.3012 4.76903 12.3012ZM14.7026 8.08475C15.2811 8.08475 15.75 8.54574 15.75 9.11441C15.75 9.68307 15.2811 10.1441 14.7026 10.1441C14.1241 10.1441 13.6552 9.68307 13.6552 9.11441C13.6552 8.54574 14.1241 8.08475 14.7026 8.08475ZM3.06466 8.31356C3.51458 8.31356 3.87931 8.67211 3.87931 9.11441C3.87931 9.5567 3.51458 9.91525 3.06466 9.91525C2.61473 9.91525 2.25 9.5567 2.25 9.11441C2.25 8.67211 2.61473 8.31356 3.06466 8.31356ZM12.9982 3.98269C13.6088 3.98269 14.1038 4.4693 14.1038 5.06955C14.1038 5.66981 13.6088 6.15642 12.9982 6.15642C12.3876 6.15642 11.8926 5.66981 11.8926 5.06955C11.8926 4.4693 12.3876 3.98269 12.9982 3.98269ZM4.76903 4.32591C5.18681 4.32591 5.5255 4.65885 5.5255 5.06955C5.5255 5.48026 5.18681 5.8132 4.76903 5.8132C4.35125 5.8132 4.01256 5.48026 4.01256 5.06955C4.01256 4.65885 4.35125 4.32591 4.76903 4.32591ZM8.88362 2.25C9.52637 2.25 10.0474 2.76222 10.0474 3.39407C10.0474 4.02592 9.52637 4.53814 8.88362 4.53814C8.24088 4.53814 7.71983 4.02592 7.71983 3.39407C7.71983 2.76222 8.24088 2.25 8.88362 2.25Z" fill="#7A95E3"/>
</g>
<defs>
<clipPath id="clip0_3256_16889">
<rect width="18" height="18" fill="#1C1B1F"/>
</clipPath>
</defs>
</svg>
