<svg width="25" height="24" viewBox="0 0 25 24" fill="none" xmlns="http://www.w3.org/2000/svg">
<path fill-rule="evenodd" clip-rule="evenodd" d="M10.6448 6.21764C10.6448 5.50798 11.1985 4.93268 11.8815 4.93268H21.7758C22.4588 4.93268 23.0126 5.50798 23.0126 6.21764V13.6062C23.0126 14.3159 22.4588 14.8912 21.7758 14.8912H11.8815C11.1985 14.8912 10.6448 14.3159 10.6448 13.6062V6.21764ZM20.5578 7.16188C20.7389 7.35006 20.7389 7.65516 20.5578 7.84334L16.0744 12.5013C15.8933 12.6895 15.5997 12.6895 15.4185 12.5013L13.0996 10.092C12.9184 9.90384 12.9184 9.59875 13.0996 9.41057C13.2807 9.22239 13.5743 9.22239 13.7555 9.41057L15.7465 11.4791L19.9019 7.16188C20.083 6.9737 20.3766 6.9737 20.5578 7.16188ZM2.60569 6.53891H9.68614V9.5907H3.84247C3.58633 9.5907 3.37868 9.80644 3.37868 10.0726C3.37868 10.3387 3.58633 10.5544 3.84247 10.5544H9.68614V13.8897C9.68614 14.9542 10.5167 15.8172 11.5413 15.8172H19.3022V18.4248C19.3022 18.7797 19.0253 19.0673 18.6838 19.0673H2.60569C2.26417 19.0673 1.9873 18.7797 1.9873 18.4248V7.1814C1.9873 6.82656 2.26417 6.53891 2.60569 6.53891Z" fill="white"/>
</svg>
