<svg width="16" height="16" viewBox="0 0 16 16" fill="none" xmlns="http://www.w3.org/2000/svg">
<path fill-rule="evenodd" clip-rule="evenodd" d="M0.833252 7.99998C0.833252 4.04384 4.04378 0.833313 7.99992 0.833313C11.9561 0.833313 15.1666 4.04384 15.1666 7.99998C15.1666 11.9561 11.9561 15.1666 7.99992 15.1666C4.04378 15.1666 0.833252 11.9561 0.833252 7.99998ZM7.99992 1.83331C4.59606 1.83331 1.83325 4.59612 1.83325 7.99998C1.83325 11.4038 4.59606 14.1666 7.99992 14.1666C11.4038 14.1666 14.1666 11.4038 14.1666 7.99998C14.1666 4.59612 11.4038 1.83331 7.99992 1.83331Z" fill="#7A8691"/>
<path fill-rule="evenodd" clip-rule="evenodd" d="M8.6048 12.2343H7.39502V11.0245H8.6048V12.2343Z" fill="#7A8691"/>
<path fill-rule="evenodd" clip-rule="evenodd" d="M9.85691 7.54632L9.31251 8.10282C8.87698 8.54439 8.60478 8.90733 8.60478 9.81467H7.395V9.51222C7.395 8.84684 7.6672 8.24195 8.10272 7.80038L8.85279 7.03821C9.0766 6.82045 9.20967 6.51801 9.20967 6.18532C9.20967 5.51993 8.66527 4.97553 7.99989 4.97553C7.33451 4.97553 6.79011 5.51993 6.79011 6.18532H5.58032C5.58032 4.8485 6.66308 3.76575 7.99989 3.76575C9.3367 3.76575 10.4195 4.8485 10.4195 6.18532C10.4195 6.71762 10.2017 7.20153 9.85691 7.54632Z" fill="#7A8691"/>
</svg>
