<svg viewBox="0 0 11 12" fill="none" xmlns="http://www.w3.org/2000/svg">
    <path fill-rule="evenodd" clip-rule="evenodd"
        d="M10.1667 6.66663L6.16675 6.66663L6.16675 10.6666C6.16675 11.0348 5.86827 11.3333 5.50008 11.3333C5.13189 11.3333 4.83341 11.0348 4.83341 10.6666L4.83341 6.66663L0.833415 6.66663C0.465225 6.66663 0.166748 6.36815 0.166748 5.99996C0.166748 5.63177 0.465225 5.33329 0.833415 5.33329L4.83341 5.33329L4.83341 1.33329C4.83341 0.965103 5.13189 0.666626 5.50008 0.666626C5.86827 0.666626 6.16675 0.965103 6.16675 1.33329L6.16675 5.33329L10.1667 5.33329C10.5349 5.33329 10.8334 5.63177 10.8334 5.99996C10.8334 6.36815 10.5349 6.66663 10.1667 6.66663Z"
        fill="#0D3ECC" />
</svg>