<svg width="19" height="18" viewBox="0 0 19 18" fill="none" xmlns="http://www.w3.org/2000/svg">
<path d="M15.7801 9.90951C16.0768 9.62044 16.5516 9.62659 16.8407 9.92326L16.8624 9.94555C17.1472 10.2378 17.146 10.7042 16.8598 10.9951L12.8163 15.1031C12.6639 15.2527 12.4265 15.2505 12.2814 15.1027L10.3905 13.1758C10.1042 12.884 10.1042 12.4168 10.3905 12.1251L10.4114 12.1038C10.4147 12.1004 10.4181 12.0971 10.4214 12.0938C10.7171 11.8037 11.1919 11.8082 11.4821 12.1038L12.5481 13.1901L15.7692 9.92033L15.7801 9.90951ZM8 12C8.41421 12 8.75 12.3358 8.75 12.75C8.75 13.1642 8.41421 13.5 8 13.5H3.5C3.08579 13.5 2.75 13.1642 2.75 12.75C2.75 12.3358 3.08579 12 3.5 12H8ZM11.75 8.25C12.1642 8.25 12.5 8.58579 12.5 9C12.5 9.41421 12.1642 9.75 11.75 9.75L3.5 9.75C3.08579 9.75 2.75 9.41421 2.75 9C2.75 8.58579 3.08579 8.25 3.5 8.25L11.75 8.25ZM15.5 4.5C15.9142 4.5 16.25 4.83579 16.25 5.25C16.25 5.66421 15.9142 6 15.5 6L3.5 6C3.08579 6 2.75 5.66421 2.75 5.25C2.75 4.83579 3.08579 4.5 3.5 4.5L15.5 4.5Z" fill="#0D3ECC"/>
</svg>
