<svg width="24" height="24" viewBox="0 0 24 24" fill="none" xmlns="http://www.w3.org/2000/svg">
<g clip-path="url(#clip0_3246_8455)">
<path fill-rule="evenodd" clip-rule="evenodd" d="M9.5 2C13.6421 2 17 5.35786 17 9.5C17 11.2101 16.4276 12.7866 15.464 14.0483L21.4853 20.0711C21.8758 20.4616 21.8758 21.0948 21.4853 21.4853C21.0948 21.8758 20.4616 21.8758 20.0711 21.4853L14.0483 15.464C12.7866 16.4276 11.2101 17 9.5 17C5.35786 17 2 13.6421 2 9.5C2 5.35786 5.35786 2 9.5 2ZM9.5 15C12.5376 15 15 12.5376 15 9.5C15 6.46243 12.5376 4 9.5 4C6.46243 4 4 6.46243 4 9.5C4 12.5376 6.46243 15 9.5 15Z" fill="#0D3ECC"/>
</g>
<defs>
<clipPath id="clip0_3246_8455">
<rect width="24" height="24" fill="white"/>
</clipPath>
</defs>
</svg>
