<svg width="14" height="12" viewBox="0 0 14 12" fill="none" xmlns="http://www.w3.org/2000/svg">
<path fill-rule="evenodd" clip-rule="evenodd" d="M5.36569 0.717808C5.65858 0.424915 6.13345 0.424915 6.42635 0.717808C6.71924 1.0107 6.71924 1.48558 6.42635 1.77847L2.95455 5.24939L12.9814 5.24998C13.4058 5.24998 13.7499 5.59404 13.7499 6.01846C13.7499 6.44288 13.4058 6.78694 12.9814 6.78694L2.95005 6.78689L6.42635 10.2638C6.69671 10.5341 6.71751 10.9595 6.48874 11.2538L6.42635 11.3244C6.13345 11.6173 5.65858 11.6173 5.36569 11.3244L0.592717 6.55144C0.299824 6.25855 0.299824 5.78367 0.592717 5.49078L5.36569 0.717808Z" fill="white" fill-opacity="0.9"/>
</svg>
