<svg width="20" height="20" viewBox="0 0 20 20" fill="none" xmlns="http://www.w3.org/2000/svg">
<path d="M17.4846 11C17.4846 10.7 17.5866 10.4 17.5866 10C17.5866 9.7 17.5866 9.3 17.4846 9L19.6269 7.4C19.831 7.3 19.831 7 19.729 6.8L17.6887 3.3C17.6887 3.1 17.4846 3 17.2806 3H17.0766L14.5262 4C14.0161 3.6 13.404 3.3 12.7919 3L12.3839 0.3C12.4859 0.2 12.2818 0 11.9758 0H7.89519C7.69116 0 7.38512 0.2 7.38512 0.4L6.97706 3.1C6.36496 3.3 5.85489 3.7 5.2428 4.1L2.79443 3.1C2.69242 3 2.5904 3 2.5904 3C2.38637 3 2.18234 3.1 2.08033 3.3L0.0400211 6.8C-0.0619942 7 0.0400211 7.2 0.244052 7.4L2.38637 9C2.38637 9.3 2.28436 9.6 2.28436 10C2.28436 10.3 2.28436 10.7 2.38637 11L0.244052 12.6C0.0400211 12.7 0.0400211 13 0.142036 13.2L2.18234 16.7C2.18234 16.9 2.38637 17 2.5904 17H2.79443L5.34481 16C5.85489 16.4 6.46698 16.7 7.07907 17L7.48713 19.6C7.48713 19.8 7.69116 20 7.99721 20H12.0778C12.2818 20 12.5879 19.8 12.5879 19.6L12.996 17C13.608 16.8 14.2201 16.4 14.7302 16L17.2806 17H17.4846C17.6887 17 17.7907 16.9 17.8927 16.8L19.933 13.3C20.035 13.1 20.035 12.8 19.831 12.7L17.4846 11ZM15.5463 9.3V10.7L15.4443 11.8L16.3625 12.5L17.4846 13.3L16.7705 14.5L15.4443 14L14.4242 13.6L13.506 14.3C13.098 14.6 12.6899 14.9 12.2818 15L11.1597 15.4L10.9557 16.5L10.6496 18H9.22139L9.01736 16.7L8.91535 15.5L7.79318 15.1C7.38512 14.9 6.97706 14.7 6.569 14.4L5.65086 13.7L4.52869 14.1L3.20249 14.6L2.48839 13.4L3.61055 12.6L4.52869 11.9L4.42668 10.8C4.42668 10.5 4.32466 10.3 4.32466 10.1C4.32466 9.9 4.32466 9.7 4.42668 9.4L4.52869 8.3L3.61055 7.4L2.48839 6.6L3.20249 5.4L4.52869 5.9L5.54884 6.3L6.46698 5.6C6.87504 5.3 7.2831 5 7.69116 4.9L8.81333 4.5L9.01736 3.4L9.22139 2H10.6496L10.8536 3.3L10.9557 4.5L12.0778 4.9C12.4859 5.1 12.8939 5.3 13.302 5.6L14.2201 6.3L15.3423 5.9L16.6685 5.4L17.3826 6.6L16.2604 7.5L15.3423 8.2C15.3423 8.1 15.5463 9.3 15.5463 9.3ZM9.9355 6C7.69116 6 5.85489 7.8 5.85489 10C5.85489 12.2 7.69116 14 9.9355 14C12.1798 14 14.0161 12.2 14.0161 10C14.0161 7.8 12.1798 6 9.9355 6ZM9.9355 12C8.81333 12 7.89519 11.1 7.89519 10C7.89519 8.9 8.81333 8 9.9355 8C11.0577 8 11.9758 8.9 11.9758 10C11.9758 11.1 11.0577 12 9.9355 12Z" fill="#1C1B1F"/>
</svg>
