<svg width="18" height="18" viewBox="0 0 18 18" fill="none" xmlns="http://www.w3.org/2000/svg">
<g clip-path="url(#clip0_2842_2404)">
<path d="M9 1.5C13.1421 1.5 16.5 4.85786 16.5 9C16.5 13.1421 13.1421 16.5 9 16.5C4.85786 16.5 1.5 13.1421 1.5 9C1.5 4.85786 4.85786 1.5 9 1.5ZM10.6522 12.0003H7.18348C7.56822 12.993 8.14424 13.9921 8.91452 14.9989C9.69141 13.9921 10.2674 12.993 10.6522 12.0003ZM14.1968 12.0009L12.2447 12.0006C11.9518 12.8936 11.5283 13.7828 10.9757 14.6676C12.3409 14.1916 13.4825 13.2353 14.1968 12.0009ZM5.59092 12.0006L3.8032 12.0009C4.47963 13.1698 5.53913 14.0893 6.81001 14.5878C6.28209 13.7296 5.87508 12.8669 5.59092 12.0006ZM5.22232 7.5005L3.1889 7.50048C3.06559 7.97977 3 8.48222 3 9C3 9.51805 3.06565 10.0208 3.1891 10.5003L5.22244 10.5003C5.14089 10.0012 5.1 9.50108 5.1 9C5.1 8.49917 5.14085 7.9993 5.22232 7.5005ZM11.0894 7.50015L6.74629 7.50015C6.64863 8.00154 6.6 8.50143 6.6 9C6.6 9.49882 6.64868 9.99896 6.74643 10.5006L11.0892 10.5006C11.187 9.99896 11.2357 9.49882 11.2357 9C11.2357 8.50143 11.187 8.00154 11.0894 7.50015ZM14.8111 7.50048L12.6133 7.5005C12.6948 7.9993 12.7357 8.49917 12.7357 9C12.7357 9.50108 12.6948 10.0012 12.6132 10.5003L14.8109 10.5003C14.9343 10.0208 15 9.51805 15 9C15 8.48222 14.9344 7.97977 14.8111 7.50048ZM6.81067 3.41187L6.70524 3.45447C5.48065 3.96177 4.46051 4.86289 3.80276 5.99988L5.59068 6.00014C5.87484 5.13361 6.28194 4.27067 6.81067 3.41187ZM8.92113 3.00111C8.14404 4.00819 7.56793 5.00752 7.18319 6.00042L10.6525 6.00042C10.2677 5.00752 9.69161 4.00819 8.92113 3.00111ZM10.9743 3.33241L11.037 3.43136C11.5599 4.28372 11.963 5.14017 12.245 6.00014L14.1972 5.99988C13.4829 4.7651 12.3412 3.80851 10.9743 3.33241Z" fill="#0D3ECC"/>
</g>
<defs>
<clipPath id="clip0_2842_2404">
<rect width="18" height="18" fill="white"/>
</clipPath>
</defs>
</svg>
