<svg width="234" height="16" viewBox="0 0 234 16" fill="none" xmlns="http://www.w3.org/2000/svg">
<path fill-rule="evenodd" clip-rule="evenodd" d="M68.7263 6.23008V9.45187C68.7263 10.6434 68.3675 11.382 66.5811 11.382C65.9844 11.382 65.4011 11.3394 64.8478 11.2555L64.8139 11.2501V5.52078L64.8362 5.51019C65.3495 5.26136 66.4382 4.83998 67.2647 4.83998C68.2754 4.83998 68.7263 5.26868 68.7263 6.23008ZM64.8722 4.19539L64.8139 4.2264V0.156063C64.8139 0.0611178 64.7295 -0.0118728 64.6357 0.00160828L63.5162 0.161456C63.4396 0.172626 63.3826 0.238298 63.3826 0.316296V12.1743C63.3826 12.2479 63.433 12.3118 63.5049 12.327C64.4901 12.5377 65.7163 12.634 66.4732 12.634C69.7114 12.634 70.1578 11.0789 70.1578 9.39795V6.284C70.1578 4.49525 69.3056 3.58797 67.6247 3.58797C66.441 3.58797 65.4267 3.90189 64.8722 4.19539Z" fill="#0D3ECC"/>
<path fill-rule="evenodd" clip-rule="evenodd" d="M72.0539 3.76807H70.9735C70.8676 3.76807 70.7922 3.87168 70.8248 3.97221L73.5409 12.3463C73.5617 12.4106 73.6217 12.4541 73.6891 12.4541H74.0137C74.1205 12.4541 74.1958 12.5597 74.161 12.6612L73.0802 15.7928C73.0453 15.8945 73.1208 16.0001 73.2281 16.0001H74.2353C74.3018 16.0001 74.3607 15.9581 74.3827 15.8957L75.5782 12.4807L78.3896 3.97298C78.4231 3.87226 78.348 3.76807 78.2417 3.76807H77.1621C77.0945 3.76807 77.0344 3.81178 77.014 3.8763L74.7395 10.9537C74.6931 11.0985 74.4884 11.0979 74.4424 10.9531L72.2024 3.87688C72.182 3.81217 72.1219 3.76807 72.0539 3.76807Z" fill="#0D3ECC"/>
<path fill-rule="evenodd" clip-rule="evenodd" d="M86.9164 6.71619C86.9164 5.36904 87.5224 4.76817 88.8815 4.76817C90.2135 4.76817 90.7568 5.33245 90.7568 6.71619V7.32015C90.7568 7.40642 90.6868 7.47595 90.6008 7.47595H87.0726C86.9863 7.47595 86.9164 7.40642 86.9164 7.32015V6.71619ZM85.4849 6.82423V9.45228C85.4849 11.6231 86.5755 12.6342 88.9179 12.6342C89.9171 12.6342 91.0202 12.4645 91.8437 12.187C91.9156 12.1628 91.9587 12.0892 91.9464 12.0147L91.8096 11.1817C91.7948 11.0916 91.7056 11.034 91.6168 11.0561C90.6572 11.2963 89.7925 11.4182 89.0435 11.4182C87.2347 11.4182 86.9164 10.7782 86.9164 9.43399V8.81251C86.9164 8.72623 86.9863 8.65612 87.0726 8.65612H91.9783C92.0644 8.65612 92.1345 8.58641 92.1345 8.50032V6.86025C92.1345 4.6582 91.0703 3.58838 88.8815 3.58838C86.6275 3.58838 85.4849 4.67688 85.4849 6.82423Z" fill="#0D3ECC"/>
<path fill-rule="evenodd" clip-rule="evenodd" d="M96.3551 7.49279C94.8735 7.1315 94.8313 6.95316 94.8313 5.94208C94.8313 5.1024 95.0601 4.80408 96.3468 4.80408C96.969 4.80408 97.8372 4.88843 98.5727 5.01747C98.6626 5.03345 98.7468 4.96797 98.7547 4.87688L98.8296 4.01543C98.8362 3.93975 98.7872 3.86926 98.7129 3.85077C98.036 3.68322 97.2036 3.58789 96.4007 3.58789C94.2262 3.58789 93.4179 4.2163 93.4179 5.90607C93.4179 7.70714 93.6199 8.14374 95.7627 8.67528C97.5063 9.10225 97.6281 9.20143 97.6281 10.19C97.6281 11.1263 97.3995 11.4179 95.9687 11.4179C95.2772 11.4179 94.3957 11.2997 93.6631 11.1121C93.5749 11.0896 93.4867 11.1479 93.4716 11.2378L93.3361 12.051C93.3237 12.1266 93.3673 12.2 93.4401 12.2247C94.1436 12.4617 95.2307 12.6339 96.0591 12.6339C98.5804 12.6339 99.0416 11.7927 99.0416 10.1361C99.0416 8.28645 98.704 8.08038 96.3551 7.49279Z" fill="#0D3ECC"/>
<path fill-rule="evenodd" clip-rule="evenodd" d="M29.9391 12.3639L28.3774 3.91331C28.3597 3.8174 28.4332 3.729 28.5309 3.729H30.2646C30.3399 3.729 30.4046 3.78274 30.4181 3.85669L31.3565 8.95544C31.3862 9.11664 31.6127 9.12877 31.6595 8.97162L33.1863 3.84051C33.206 3.77426 33.2668 3.729 33.3359 3.729H35.3878C35.4569 3.729 35.518 3.77445 35.5374 3.8409L37.0471 8.96719C37.0935 9.12473 37.3206 9.11278 37.3502 8.9514L38.2879 3.85669C38.3014 3.78274 38.3659 3.729 38.4414 3.729H40.1751C40.2728 3.729 40.3463 3.8174 40.3286 3.91331L38.7669 12.3639C38.7532 12.438 38.6887 12.4915 38.6134 12.4915H36.3232C36.2538 12.4915 36.193 12.4459 36.1733 12.3795L34.5026 6.70255C34.4587 6.5533 34.2473 6.5533 34.2034 6.70255L32.5327 12.3795C32.513 12.4459 32.4522 12.4915 32.3828 12.4915H30.0924C30.0173 12.4915 29.9528 12.438 29.9391 12.3639Z" fill="#0D3ECC"/>
<path fill-rule="evenodd" clip-rule="evenodd" d="M27.405 10.8722C26.6132 10.8722 26.3794 10.5301 26.3794 9.54063V3.18563V0.687576C26.3794 0.59263 26.2957 0.519832 26.2019 0.532735L24.3188 0.795232C24.2417 0.806017 24.1843 0.872074 24.1843 0.94988V1.03115V3.18563V9.77462C24.1843 11.7719 25.3899 12.6355 27.0092 12.6355C27.1746 12.6355 27.7551 12.6101 28.0565 12.581C28.1362 12.5733 28.1967 12.5057 28.1967 12.4256V11.0203C28.1967 10.9317 28.1235 10.8608 28.0351 10.8645C27.8315 10.8722 27.5411 10.8722 27.405 10.8722Z" fill="#0D3ECC"/>
<path fill-rule="evenodd" clip-rule="evenodd" d="M54.0013 5.61056C53.2282 5.9628 52.5852 6.33392 51.8562 6.79536C51.811 6.82405 51.7832 6.87413 51.7832 6.92767V12.3353C51.7832 12.4214 51.7135 12.4915 51.6272 12.4915H49.7443C49.658 12.4915 49.5881 12.4214 49.5881 12.3353V4.17964C49.5881 4.10395 49.6428 4.03905 49.7177 4.02595L51.2839 3.75594C51.3703 3.74092 51.452 3.80043 51.4649 3.8869L51.5498 4.46062C51.5664 4.57213 51.6916 4.6301 51.7869 4.5702C52.2751 4.26245 53.0562 3.82431 53.7053 3.60573C53.7992 3.57414 53.898 3.63885 53.9088 3.73746L54.0924 5.45206C54.0997 5.51889 54.0625 5.58283 54.0013 5.61056Z" fill="#0D3ECC"/>
<path fill-rule="evenodd" clip-rule="evenodd" d="M83.2203 11.4359C82.3461 11.4359 82.2808 11.0352 82.2808 10.4241V5.10406C82.2808 5.01797 82.3504 4.94806 82.4368 4.94806H84.5002C84.5803 4.94806 84.6477 4.8874 84.6556 4.80747L84.7421 3.93967C84.7515 3.84781 84.6795 3.76808 84.5871 3.76808H82.4368C82.3504 3.76808 82.2808 3.69798 82.2808 3.61189V1.57797C82.2808 1.48322 82.1967 1.40985 82.1023 1.42352L80.9832 1.58356C80.9062 1.59434 80.849 1.6604 80.849 1.73801V3.61189C80.849 3.69798 80.779 3.76808 80.693 3.76808H79.4579C79.3716 3.76808 79.3015 3.83799 79.3015 3.92407V4.79187C79.3015 4.87815 79.3716 4.94806 79.4579 4.94806H80.693C80.779 4.94806 80.849 5.01797 80.849 5.10406V10.676C80.849 12.0665 81.4681 12.634 82.9865 12.634C83.3256 12.634 83.6763 12.5984 84.0182 12.5312C84.0908 12.5167 84.1426 12.4518 84.1426 12.3777V11.5203C84.1426 11.4234 84.0548 11.3506 83.9594 11.367C83.6877 11.414 83.4498 11.4359 83.2203 11.4359Z" fill="#0D3ECC"/>
<path fill-rule="evenodd" clip-rule="evenodd" d="M60.0467 7.28568C60.0467 7.37196 59.9769 7.44168 59.8907 7.44168H57.0981H57.0979V6.67441C57.0979 5.84667 57.4758 5.27102 58.5556 5.27102C58.6852 5.27102 58.8047 5.27988 58.9154 5.29568C59.7275 5.41335 60.0467 5.94604 60.0467 6.67441V7.28568ZM60.3477 3.79619C59.8793 3.58935 59.2867 3.47168 58.5373 3.47168C57.684 3.47168 57.0144 3.61708 56.4948 3.87072C55.3048 4.45099 54.9028 5.60073 54.9028 6.8903V9.21136C54.9028 11.2694 55.8151 12.5356 58.4278 12.5917C58.6215 12.6024 58.8297 12.5942 59.0367 12.5942C59.7424 12.5942 60.4759 12.5185 61.1694 12.4174C61.2546 12.4048 61.3131 12.3253 61.3008 12.2402L61.2896 12.1645L61.1132 10.971C60.4605 11.0402 59.8625 11.0675 59.2033 11.0681C57.5838 11.0681 57.0981 10.6003 57.0981 9.6287V9.32268C57.0981 9.32152 57.0979 9.32037 57.0979 9.31941V8.89956H57.0981H61.8181C61.9043 8.89956 61.9743 8.82965 61.9743 8.74357V8.08126V6.99834C61.9743 5.61325 61.6343 4.36471 60.3477 3.79619Z" fill="#0D3ECC"/>
<path fill-rule="evenodd" clip-rule="evenodd" d="M6.62019 13.9748C6.63444 13.9763 6.6487 13.9783 6.66295 13.9794C6.75654 13.9863 6.84687 13.8983 6.84687 13.799C6.84687 13.7161 6.79448 13.6374 6.71186 13.6258L6.66892 13.6189L6.55529 13.6008C4.58108 13.2012 3.09469 11.4542 3.09469 9.35962C3.09469 8.46832 3.36392 7.63981 3.82536 6.95131C3.89161 6.8529 4.03355 6.78261 4.15238 6.89354L7.28192 10.0801C7.31774 10.1107 7.36397 10.1296 7.41539 10.1296C7.46681 10.1296 7.51303 10.1107 7.54885 10.0801L10.7119 6.92397C10.8369 6.81246 10.929 6.83692 11.006 6.95131C11.4692 7.63885 11.7369 8.46832 11.7369 9.35962C11.7369 10.4656 11.3224 11.475 10.6405 12.2398C10.6179 12.2652 10.595 12.29 10.5717 12.3149C10.5619 12.3362 10.5565 12.3599 10.5565 12.385C10.5565 12.4776 10.6312 12.5523 10.7237 12.5523C10.7327 12.5523 10.7416 12.5516 10.7502 12.5504C10.7745 12.54 10.7986 12.53 10.8226 12.5198C15.0029 10.7426 14.8304 6.59291 14.8304 6.59291C14.8304 4.20502 13.7045 2.08058 11.9554 0.722265C11.8799 0.663718 11.7708 0.672 11.7035 0.739213L7.55058 4.89737C7.47644 4.97171 7.35395 4.97171 7.2798 4.89737L3.12704 0.739213C3.05983 0.672 2.95044 0.663718 2.87514 0.722265C1.12644 2.0802 0.00077035 4.20367 0 6.5906V6.59426C0.00077035 10.4252 2.8994 13.5775 6.62019 13.9748Z" fill="#0D3ECC"/>
<path fill-rule="evenodd" clip-rule="evenodd" d="M20.4605 9.21668C20.4605 10.3142 19.7229 11.0518 18.5533 11.0518C17.6537 11.0518 17.1857 10.7102 17.1857 9.9903C17.1857 9.19877 17.6716 8.89274 18.5533 8.89274H20.3045C20.3906 8.89274 20.4605 8.96265 20.4605 9.04874V9.21668ZM18.5533 3.54883C17.7933 3.54883 16.985 3.60911 16.2363 3.72042C16.1517 3.73294 16.0937 3.8119 16.1055 3.89664L16.2886 5.22973C16.3015 5.31254 16.3724 5.38785 16.4562 5.37822C17.1589 5.30041 17.6448 5.27614 18.3553 5.27614C19.9748 5.27614 20.4605 5.74394 20.4605 6.71554V7.29735C20.4605 7.38344 20.3906 7.45335 20.3045 7.45335H18.27C16.4706 7.45335 15.427 8.35311 15.427 10.0084C15.427 11.5379 16.6145 12.6174 18.3778 12.6174C19.4931 12.6174 19.9193 12.4489 20.2835 12.0934C20.3832 11.9959 20.5504 12.0633 20.5504 12.2029V12.3175C20.5504 12.4034 20.6205 12.4735 20.7064 12.4735H22.4996C22.5859 12.4735 22.6556 12.4034 22.6556 12.3175V6.76966C22.6556 4.59246 21.1262 3.54883 18.5533 3.54883Z" fill="#0D3ECC"/>
<path fill-rule="evenodd" clip-rule="evenodd" d="M45.8709 9.21668C45.8709 10.3142 45.1333 11.0518 43.9637 11.0518C43.0641 11.0518 42.5961 10.7102 42.5961 9.9903C42.5961 9.19877 43.082 8.89274 43.9637 8.89274H45.7149C45.801 8.89274 45.8709 8.96265 45.8709 9.04874V9.21668ZM43.9637 3.54883C43.2037 3.54883 42.3954 3.60911 41.6467 3.72042C41.5621 3.73294 41.5041 3.8119 41.5157 3.89664L41.699 5.22973C41.7119 5.31254 41.7828 5.38785 41.8666 5.37822C42.5693 5.30041 43.0552 5.27614 43.7657 5.27614C45.3852 5.27614 45.8709 5.74394 45.8709 6.71554V7.29735C45.8709 7.38344 45.801 7.45335 45.7149 7.45335H43.6804C41.881 7.45335 40.8374 8.35311 40.8374 10.0084C40.8374 11.5379 42.0249 12.6174 43.7882 12.6174C44.9035 12.6174 45.3297 12.4489 45.6939 12.0934C45.7936 11.9959 45.9608 12.0633 45.9608 12.2029V12.3175C45.9608 12.4034 46.0309 12.4735 46.1168 12.4735H47.91C47.9963 12.4735 48.0662 12.4034 48.0662 12.3175V6.76966C48.0662 4.59246 46.5366 3.54883 43.9637 3.54883Z" fill="#0D3ECC"/>
<path d="M107.707 15.4482V0.586914H107.039V15.4482H107.707ZM120.282 13.0678C122.581 13.0678 124.061 12.0224 124.061 9.8511V9.78676C124.061 8.29098 123.434 7.43855 121.761 7.03646C123.08 6.58612 123.498 5.65326 123.498 4.60783V4.54349C123.498 2.2757 121.938 1.56802 119.799 1.56802H116.341V13.0678H120.282ZM119.799 6.58612H117.708V2.66171H119.767C121.375 2.66171 122.131 3.19247 122.131 4.49524V4.55958C122.131 5.97494 121.488 6.58612 119.799 6.58612ZM120.249 11.9741H117.708V7.6798H120.056C121.906 7.6798 122.694 8.35532 122.694 9.77068V9.83501C122.694 11.2343 121.922 11.9741 120.249 11.9741ZM128.254 13.0678V8.45182C128.254 6.37703 129.331 5.84627 131.02 5.76585V4.51133C129.508 4.55958 128.784 5.21901 128.254 6.16794V4.65608H126.919V13.0678H128.254ZM136.885 13.2126C139.282 13.2126 141.035 11.4595 141.035 8.91825V8.78958C141.035 6.26444 139.282 4.51133 136.901 4.51133C134.521 4.51133 132.768 6.28053 132.768 8.80566V8.93433C132.768 11.3951 134.489 13.2126 136.885 13.2126ZM136.901 12.1028C135.196 12.1028 134.151 10.8483 134.151 8.93433V8.80566C134.151 6.87562 135.213 5.6211 136.901 5.6211C138.574 5.6211 139.652 6.87562 139.652 8.82174V8.93433C139.652 10.8322 138.59 12.1028 136.901 12.1028ZM146.771 13.0678L148.733 6.76304L150.487 13.0678H151.966L154.588 4.65608H153.221L151.243 11.4273L149.329 4.65608H148.171L146.128 11.4273L144.166 4.65608H142.718L145.308 13.0678H146.771ZM159.665 13.2126C161.708 13.2126 162.753 12.1832 162.753 10.6553C162.753 8.86999 161.531 8.48399 159.794 8.16231C158.25 7.88889 157.831 7.5833 157.831 6.82737C157.831 6.10361 158.459 5.6211 159.424 5.6211C160.485 5.6211 161 6.02319 161.193 6.93996H162.48C162.254 5.1225 160.952 4.51133 159.44 4.51133C158.121 4.51133 156.593 5.31551 156.593 6.87562C156.593 8.33923 157.333 8.95041 159.52 9.3525C160.823 9.59376 161.482 9.88327 161.482 10.7679C161.482 11.6686 160.92 12.1028 159.649 12.1028C158.298 12.1028 157.767 11.4755 157.671 10.4784H156.368C156.448 12.1993 157.655 13.2126 159.665 13.2126ZM168.892 13.2126C170.79 13.2126 172.189 12.328 172.478 10.6392H171.143C170.966 11.6203 170.211 12.1028 168.908 12.1028C167.187 12.1028 166.27 11.0413 166.206 9.12733H172.543V8.69308C172.543 5.68543 170.709 4.51133 168.763 4.51133C166.447 4.51133 164.823 6.28053 164.823 8.82174V8.95041C164.823 11.5399 166.511 13.2126 168.892 13.2126ZM171.176 8.04973H166.254C166.479 6.55395 167.396 5.6211 168.763 5.6211C170.146 5.6211 171.047 6.31269 171.176 8.04973ZM176.59 13.0678V8.45182C176.59 6.37703 177.668 5.84627 179.357 5.76585V4.51133C177.845 4.55958 177.121 5.21901 176.59 6.16794V4.65608H175.255V13.0678H176.59ZM192.004 13.2126C194.947 13.2126 196.99 11.4434 196.99 8.11406V7.26163H192.261V8.41965H195.623C195.574 10.4623 194.497 12.0867 192.004 12.0867C189.302 12.0867 187.886 10.221 187.886 7.37422V7.24555C187.886 4.43091 189.398 2.50087 192.036 2.50087C193.709 2.50087 194.963 3.20855 195.285 5.04209H196.684C196.33 2.45262 194.288 1.3911 192.004 1.3911C188.707 1.3911 186.439 3.90015 186.439 7.26163V7.3903C186.439 10.7518 188.465 13.2126 192.004 13.2126ZM202.758 13.2126C204.11 13.2126 205.042 12.521 205.428 11.7329V13.0678H206.763V4.65608H205.428V9.7546C205.428 11.2665 204.303 12.0546 203.112 12.0546C201.793 12.0546 201.166 11.3951 201.166 9.91543V4.65608H199.831V9.97977C199.831 12.2958 201.086 13.2126 202.758 13.2126ZM212.242 13.2126C213.481 13.2126 214.237 12.7944 214.864 12.0063V13.0678H216.199V7.51897C216.199 5.17075 214.735 4.51133 213.127 4.51133C211.503 4.51133 209.975 5.21901 209.798 7.13296H211.133C211.261 6.10361 211.905 5.6211 213.063 5.6211C214.349 5.6211 214.864 6.18403 214.864 7.51897V8.13015H213.658C211.503 8.13015 209.444 8.78958 209.444 10.7357C209.444 12.4566 210.682 13.2126 212.242 13.2126ZM212.371 12.1511C211.197 12.1511 210.779 11.6042 210.779 10.7357C210.779 9.49726 212.017 9.07908 213.706 9.07908H214.864V10.1245C214.864 11.4273 213.787 12.1511 212.371 12.1511ZM220.826 13.0678V8.45182C220.826 6.37703 221.903 5.84627 223.592 5.76585V4.51133C222.08 4.55958 221.357 5.21901 220.826 6.16794V4.65608H219.491V13.0678H220.826ZM229.136 13.2126C230.358 13.2126 231.532 12.4406 232.015 11.6203V13.0678H233.35V0.635165H232.015V6.0071C231.532 5.18684 230.664 4.51133 229.264 4.51133C226.948 4.51133 225.34 6.32878 225.34 8.90216V9.03083C225.34 11.6525 226.932 13.2126 229.136 13.2126ZM229.28 12.1028C227.865 12.1028 226.723 11.0895 226.723 8.9665V8.83783C226.723 6.7952 227.72 5.6211 229.393 5.6211C231.034 5.6211 232.063 6.63437 232.063 8.78958V8.91825C232.063 11.0735 230.841 12.1028 229.28 12.1028Z" fill="#0D3ECC"/>
</svg>
