<svg width="111" height="93" viewBox="0 0 111 93" fill="none" xmlns="http://www.w3.org/2000/svg">
<path fill-rule="evenodd" clip-rule="evenodd" d="M14.5083 45.266C6.20726 49.1363 0.454102 57.5556 0.454102 67.3187C0.454102 80.7495 11.3419 91.6373 24.7728 91.6373C34.3188 91.6373 42.5801 86.1371 46.5606 78.1329C53.3611 83.6762 62.0424 87 71.5 87C93.3153 87 111 69.3152 111 47.5C111 25.6848 93.3153 8 71.5 8C66.4709 8 61.6614 8.93984 57.2374 10.6535C52.2066 4.17148 44.3404 0 35.5 0C20.3122 0 8 12.3122 8 27.5C8 34.2728 10.4484 40.4737 14.5083 45.266Z" fill="#CFD8F5"/>
<path d="M53.4362 92C53.4451 91.8163 53.4541 91.6325 53.4541 91.4488C53.4541 85.8784 48.9343 81.3611 43.3608 81.3611C43.1635 81.3611 42.9662 81.37 42.7734 81.379C42.0022 75.5218 36.9937 71 30.9225 71C24.8512 71 19.5378 75.7996 19.0132 81.9168C17.5873 81.3163 16.0179 80.9802 14.3723 80.9802C8.08141 80.9802 2.9294 85.8335 2.4541 92H53.4407H53.4362Z" fill="#3D65D6"/>
<path d="M20.1093 37.2345C20.1093 32.2045 22.9554 27.6076 27.4579 25.3652L42.9936 17.6283C49.7316 14.2727 57.6536 14.2727 64.3915 17.6283L79.9273 25.3652C84.4298 27.6076 87.2759 32.2045 87.2759 37.2345V37.8359C87.2759 58.9967 76.2746 78.6356 58.2295 89.6879C55.4453 91.3932 51.9399 91.3932 49.1557 89.6879C31.1106 78.6356 20.1093 58.9967 20.1093 37.8359V37.2345Z" fill="#0D3ECC"/>
<path d="M22.8612 31.9101C23.668 31.0828 24.6196 30.3831 25.6899 29.853L49.0766 18.2687C51.9854 16.8278 55.4002 16.8278 58.309 18.2687L81.6958 29.853C82.7658 30.383 83.717 31.0823 84.5237 31.9094C83.5393 29.806 81.8596 28.0508 79.6978 26.9863L58.2869 16.4433C55.3901 15.0169 51.9951 15.0169 49.0983 16.4433L27.6874 26.9863C25.5254 28.0509 23.8456 29.8065 22.8612 31.9101Z" fill="#3D65D6"/>
<path fill-rule="evenodd" clip-rule="evenodd" d="M40.7812 27.3066C40.7812 26.828 41.1693 26.4399 41.6479 26.4399H68.97C74.6992 26.4399 79.6361 30.3035 79.6361 35.4023C79.6361 40.501 74.6992 44.3646 68.97 44.3646H26.2464C25.7678 44.3646 25.3798 43.9766 25.3798 43.4979C25.3798 43.0193 25.7678 42.6312 26.2464 42.6312H68.97C74.0665 42.6312 77.9027 39.2485 77.9027 35.4023C77.9027 31.556 74.0665 28.1733 68.97 28.1733H41.6479C41.1693 28.1733 40.7812 27.7853 40.7812 27.3066Z" fill="#3D65D6"/>
<path fill-rule="evenodd" clip-rule="evenodd" d="M57.0353 81.2136L50.2626 81.2136C44.5334 81.2136 39.5965 77.35 39.5965 72.2513C39.5965 67.1526 44.5334 63.289 50.2626 63.289L76.9923 63.289C77.471 63.289 77.859 63.677 77.859 64.1557C77.859 64.6343 77.471 65.0223 76.9923 65.0223L50.2626 65.0223C45.1661 65.0223 41.3298 68.405 41.3298 72.2513C41.3298 76.0976 45.1661 79.4803 50.2626 79.4803L57.0353 79.4803C57.514 79.4803 57.902 79.8683 57.902 80.347C57.902 80.8256 57.514 81.2136 57.0353 81.2136Z" fill="#3D65D6"/>
<path d="M78.3871 36.9183C77.08 36.9183 76.0161 35.8545 76.0161 34.5474C76.0161 33.2402 77.08 32.1764 78.3871 32.1764C79.6942 32.1764 80.758 33.2402 80.758 34.5474C80.758 35.8545 79.6942 36.9183 78.3871 36.9183Z" fill="#0D3ECC"/>
<path fill-rule="evenodd" clip-rule="evenodd" d="M78.387 33.043C77.5586 33.043 76.8827 33.7188 76.8827 34.5473C76.8827 35.3758 77.5586 36.0516 78.387 36.0516C79.2155 36.0516 79.8913 35.3758 79.8913 34.5473C79.8913 33.7188 79.2155 33.043 78.387 33.043ZM75.1494 34.5473C75.1494 32.7616 76.6013 31.3097 78.387 31.3097C80.1728 31.3097 81.6247 32.7616 81.6247 34.5473C81.6247 36.3331 80.1728 37.785 78.387 37.785C76.6013 37.785 75.1494 36.3331 75.1494 34.5473Z" fill="#3D65D6"/>
<path d="M31.3802 45.9898C30.0731 45.9898 29.0093 44.926 29.0093 43.6189C29.0093 42.3118 30.0731 41.2479 31.3802 41.2479C32.6874 41.2479 33.7512 42.3118 33.7512 43.6189C33.7512 44.926 32.6874 45.9898 31.3802 45.9898Z" fill="#0D3ECC"/>
<path fill-rule="evenodd" clip-rule="evenodd" d="M31.3802 42.1146C30.5517 42.1146 29.8759 42.7904 29.8759 43.6189C29.8759 44.4473 30.5517 45.1231 31.3802 45.1231C32.2087 45.1231 32.8845 44.4473 32.8845 43.6189C32.8845 42.7904 32.2087 42.1146 31.3802 42.1146ZM28.1426 43.6189C28.1426 41.8331 29.5944 40.3812 31.3802 40.3812C33.166 40.3812 34.6178 41.8331 34.6178 43.6189C34.6178 45.4046 33.166 46.8565 31.3802 46.8565C29.5944 46.8565 28.1426 45.4046 28.1426 43.6189Z" fill="#3D65D6"/>
<path fill-rule="evenodd" clip-rule="evenodd" d="M29.3289 53.7655C29.3289 53.2869 29.7169 52.8989 30.1955 52.8989H78.7694V54.6322H30.1955C29.7169 54.6322 29.3289 54.2442 29.3289 53.7655Z" fill="#3D65D6"/>
<path d="M40.4647 69.1671C41.7719 69.1671 42.8357 70.2309 42.8357 71.538C42.8357 72.8452 41.7719 73.909 40.4647 73.909C39.1576 73.909 38.0938 72.8452 38.0938 71.538C38.0938 70.2309 39.1576 69.1671 40.4647 69.1671Z" fill="#0D3ECC"/>
<path fill-rule="evenodd" clip-rule="evenodd" d="M40.4648 73.0423C41.2932 73.0423 41.9691 72.3665 41.9691 71.538C41.9691 70.7095 41.2932 70.0337 40.4648 70.0337C39.6363 70.0337 38.9605 70.7095 38.9605 71.538C38.9605 72.3665 39.6363 73.0423 40.4648 73.0423ZM43.7024 71.538C43.7024 73.3238 42.2505 74.7756 40.4648 74.7756C38.679 74.7756 37.2271 73.3238 37.2271 71.538C37.2271 69.7522 38.679 68.3004 40.4648 68.3004C42.2505 68.3004 43.7024 69.7522 43.7024 71.538Z" fill="#3D65D6"/>
<path d="M77.5847 56.138C76.2776 56.138 75.2137 55.0741 75.2137 53.767C75.2137 52.4599 76.2776 51.3961 77.5847 51.3961C78.8918 51.3961 79.9557 52.4599 79.9557 53.767C79.9557 55.0741 78.8918 56.138 77.5847 56.138Z" fill="#0D3ECC"/>
<path fill-rule="evenodd" clip-rule="evenodd" d="M77.5847 52.2628C76.7562 52.2628 76.0804 52.9386 76.0804 53.767C76.0804 54.5955 76.7562 55.2713 77.5847 55.2713C78.4131 55.2713 79.089 54.5955 79.089 53.767C79.089 52.9386 78.4131 52.2628 77.5847 52.2628ZM74.347 53.767C74.347 51.9813 75.7989 50.5294 77.5847 50.5294C79.3704 50.5294 80.8223 51.9813 80.8223 53.767C80.8223 55.5528 79.3704 57.0047 77.5847 57.0047C75.7989 57.0047 74.347 55.5528 74.347 53.767Z" fill="#3D65D6"/>
<path fill-rule="evenodd" clip-rule="evenodd" d="M52.3468 71.0482C52.6603 71.0482 52.8193 70.898 52.8193 70.5978C52.8193 70.4477 52.6603 70.2975 52.5058 70.1474H52.0333C46.3462 69.0921 42.5534 63.67 43.6617 58.2478C43.9751 57.0424 44.452 55.6869 45.2424 54.6316C45.4013 54.3313 45.7148 54.3313 46.0327 54.4814L53.773 61.8596H54.4044L62.1447 54.4814C62.4582 54.1812 62.6171 54.1812 62.7761 54.4814C65.4607 58.3979 64.9882 63.3697 61.8268 66.8358H61.6678C61.6678 66.986 61.8268 67.2862 62.1403 67.2862H62.4538C68.2998 65.0255 72.2472 59.4532 72.2472 53.4261C72.2472 47.9996 69.7216 42.8821 65.2973 39.5661C65.1383 39.416 64.9794 39.416 64.8249 39.5661L54.5545 49.3551C54.3956 49.5052 54.241 49.6554 53.9231 49.5052C53.9231 49.5052 53.7642 49.5052 53.7642 49.3551L43.4939 39.5661C43.3349 39.416 43.1804 39.416 43.0214 39.5661C38.4426 42.8777 35.7536 48.1541 35.9126 53.5763C36.0715 62.6147 43.0214 70.1474 52.3424 71.0482" fill="#0A32A3"/>
<path fill-rule="evenodd" clip-rule="evenodd" d="M52.3468 67.8614C52.6603 67.8614 52.8193 67.7113 52.8193 67.411C52.8193 67.2609 52.6603 67.1108 52.5058 66.9606H52.0333C46.3462 65.9054 42.5534 60.4832 43.6617 55.061C43.9751 53.8556 44.452 52.5001 45.2424 51.4448C45.4013 51.1445 45.7148 51.1445 46.0327 51.2947L53.773 58.6729H54.4044L62.1447 51.2947C62.4582 50.9944 62.6171 50.9944 62.7761 51.2947C65.4607 55.2112 64.9882 60.1829 61.8268 63.6491H61.6678C61.6678 63.7992 61.8268 64.0994 62.1403 64.0994H62.4538C68.2998 61.8387 72.2472 56.2665 72.2472 50.2394C72.2472 44.8128 69.7216 39.6953 65.2973 36.3793C65.1383 36.2292 64.9794 36.2292 64.8249 36.3793L54.5545 46.1683C54.3956 46.3185 54.241 46.4686 53.9231 46.3185C53.9231 46.3185 53.7642 46.3185 53.7642 46.1683L43.4939 36.3793C43.3349 36.2292 43.1804 36.2292 43.0214 36.3793C38.4426 39.6909 35.7536 44.9673 35.9126 50.3895C36.0715 59.4279 43.0214 66.9606 52.3424 67.8614" fill="white"/>
<path d="M73 17L73.4248 19.1428C73.8114 21.0969 75.2217 22.621 77.0221 23.0398L79 23.5L77.0221 23.9602C75.2182 24.379 73.8114 25.9069 73.4248 27.8572L73 30L72.5752 27.8572C72.1886 25.9031 70.7783 24.379 68.9779 23.9602L67 23.5L68.9779 23.0398C70.7818 22.621 72.1886 21.0932 72.5752 19.1428L73 17Z" fill="white"/>
<path d="M109.432 91.9955C109.445 91.7418 109.454 91.4881 109.454 91.2299C109.454 83.5383 103.255 77.3052 95.6046 77.3052C95.3343 77.3052 95.0639 77.3143 94.7981 77.3324C93.7394 69.2466 86.8642 63 78.5292 63C70.1943 63 62.9046 69.6271 62.1837 78.0753C60.2239 77.2463 58.0703 76.7843 55.8131 76.7843C47.1808 76.7843 40.1074 83.4884 39.4541 92H109.432V91.9955Z" fill="#7A95E3"/>
</svg>
