<svg width="24" height="24" viewBox="0 0 24 24" fill="none" xmlns="http://www.w3.org/2000/svg">
<g clip-path="url(#clip0_3085_10862)">
<path fill-rule="evenodd" clip-rule="evenodd" d="M10.5858 13.4142L9.18881 12.0172C8.39825 11.2266 8.39825 9.94487 9.18881 9.15431L14.8112 3.53191C15.6018 2.74135 16.8835 2.74135 17.6741 3.53191L20.4681 6.32588C21.2586 7.11644 21.2586 8.3982 20.4681 9.18877L17.6655 11.9913C17.2702 12.3866 16.6293 12.3866 16.234 11.9913L15.5363 11.2936L19.0711 7.75732L16.2427 4.9289L10.5858 10.5858L12 12L10.5858 13.4142ZM9.18881 20.468C8.39825 21.2586 7.11649 21.2586 6.32593 20.468L3.53196 17.674C2.7414 16.8835 2.7414 15.6017 3.53196 14.8112L6.33454 12.0086C6.72982 11.6133 7.3707 11.6133 7.76599 12.0086L8.46589 12.7071L4.92894 16.2426L7.75737 19.071L13.4142 13.4142L12 12L13.4142 10.5858L14.8112 11.9827C15.6018 12.7733 15.6018 14.0551 14.8112 14.8456L9.18881 20.468Z" fill="#1C1B1F" fill-opacity="0.7"/>
</g>
<defs>
<clipPath id="clip0_3085_10862">
<rect width="24" height="24" fill="white"/>
</clipPath>
</defs>
</svg>
