<svg width="18" height="18" viewBox="0 0 18 18" fill="none" xmlns="http://www.w3.org/2000/svg">
<g clip-path="url(#clip0_681_2023)">
<path d="M13.725 4.28254C13.4325 3.99004 12.96 3.99004 12.6675 4.28254L8.99998 7.94254L5.33248 4.27504C5.03998 3.98254 4.56748 3.98254 4.27498 4.27504C3.98248 4.56754 3.98248 5.04004 4.27498 5.33254L7.94248 9.00004L4.27498 12.6675C3.98248 12.96 3.98248 13.4325 4.27498 13.725C4.56748 14.0175 5.03998 14.0175 5.33248 13.725L8.99998 10.0575L12.6675 13.725C12.96 14.0175 13.4325 14.0175 13.725 13.725C14.0175 13.4325 14.0175 12.96 13.725 12.6675L10.0575 9.00004L13.725 5.33254C14.01 5.04754 14.01 4.56754 13.725 4.28254Z" fill="#3C454D"/>
</g>
<defs>
<clipPath id="clip0_681_2023">
<rect width="18" height="18" fill="white"/>
</clipPath>
</defs>
</svg>
