<svg width="264" height="90" viewBox="0 0 264 90" fill="none" xmlns="http://www.w3.org/2000/svg">
<g filter="url(#filter0_d_6045_32675)">
<path d="M118.225 -5.28918C119.412 -6.70351 121.588 -6.7035 122.775 -5.28918L127.569 0.423201C128.481 1.50951 130.033 1.79972 131.276 1.1161L137.81 -2.47874C139.427 -3.36879 141.456 -2.58268 142.052 -0.835086L144.459 6.22334C144.917 7.56563 146.259 8.39707 147.665 8.20846L155.056 7.21666C156.886 6.9711 158.494 8.43713 158.419 10.282L158.113 17.7332C158.055 19.1502 159.007 20.4105 160.386 20.7424L167.636 22.4876C169.431 22.9197 170.401 24.8677 169.664 26.5606L166.688 33.3982C166.121 34.6985 166.554 36.2176 167.719 37.0252L173.85 41.2717C175.368 42.323 175.568 44.4899 174.27 45.8023L169.024 51.1029C168.026 52.1109 167.881 53.6835 168.676 54.8577L172.858 61.032C173.894 62.5606 173.298 64.6537 171.613 65.4083L164.807 68.456C163.513 69.0356 162.809 70.4494 163.126 71.8316L164.796 79.0997C165.209 80.8993 163.898 82.6358 162.054 82.7307L154.606 83.1139C153.19 83.1868 152.023 84.2508 151.819 85.6544L150.751 93.0348C150.486 94.8622 148.636 96.0078 146.882 95.4301L139.799 93.0971C138.452 92.6534 136.979 93.2239 136.283 94.4593L132.62 100.955C131.713 102.564 129.574 102.963 128.147 101.791L122.385 97.0571C121.29 96.1568 119.71 96.1568 118.615 97.0571L112.853 101.791C111.426 102.963 109.287 102.564 108.38 100.955L104.717 94.4593C104.021 93.2239 102.548 92.6534 101.201 93.0971L94.1179 95.4301C92.3642 96.0078 90.514 94.8622 90.2494 93.0348L89.1806 85.6544C88.9774 84.2508 87.8102 83.1868 86.3939 83.1139L78.9463 82.7307C77.1024 82.6358 75.7909 80.8993 76.2043 79.0997L77.8739 71.8316C78.1913 70.4494 77.4874 69.0356 76.193 68.456L69.3868 65.4083C67.7016 64.6537 67.1061 62.5606 68.1416 61.0319L72.324 54.8577C73.1193 53.6835 72.9736 52.1109 71.976 51.1029L66.7304 45.8023C65.4316 44.4899 65.6324 42.323 67.1502 41.2717L73.2805 37.0252C74.4463 36.2176 74.8785 34.6985 74.3125 33.3982L71.3358 26.5606C70.5989 24.8677 71.5688 22.9197 73.364 22.4876L80.6143 20.7424C81.9931 20.4105 82.9449 19.1502 82.8868 17.7332L82.5812 10.282C82.5056 8.43714 84.1137 6.9711 85.9437 7.21666L93.3349 8.20846C94.7405 8.39707 96.0833 7.56563 96.541 6.22334L98.9477 -0.835089C99.5436 -2.58269 101.573 -3.36879 103.19 -2.47874L109.724 1.1161C110.967 1.79972 112.519 1.50951 113.431 0.4232L118.225 -5.28918Z" fill="white"/>
</g>
<path d="M97.3238 62.9361C95.6116 63.3314 93.9037 63.4853 92.2002 63.3976C90.5143 63.2819 89.0996 62.9351 87.9563 62.3575L88.7988 57.2575C89.9667 57.7333 91.1495 58.0133 92.3472 58.0975C93.5449 58.1816 94.7374 58.0867 95.9245 57.8126C97.1573 57.528 98.0345 57.1091 98.556 56.5558C99.0723 55.9798 99.2329 55.2694 99.0379 54.4247C98.8534 53.6256 98.431 53.098 97.7707 52.8416C97.1331 52.58 96.2665 52.5757 95.1707 52.8287L90.9243 53.809L89.7859 48.8778L93.4158 48.0398C94.3975 47.8131 95.1262 47.4285 95.6021 46.8858C96.0727 46.3202 96.2184 45.6494 96.0392 44.8732C95.8653 44.1198 95.4596 43.6123 94.822 43.3507C94.1845 43.0891 93.3407 43.0795 92.2905 43.3219C90.0989 43.8279 88.2734 44.9828 86.8142 46.7865L83.8371 42.6404C84.6694 41.5586 85.7863 40.6154 87.1876 39.8109C88.5837 38.9837 90.0922 38.3829 91.7131 38.0087C94.407 37.3867 96.6558 37.4928 98.4595 38.3268C100.258 39.138 101.397 40.5823 101.877 42.6598C102.198 44.0524 102.075 45.3432 101.508 46.5322C100.964 47.7159 100.044 48.6257 98.7476 49.2616L98.637 48.7821C100.293 48.6643 101.704 49.0479 102.87 49.9329C104.031 50.7951 104.799 52.0366 105.173 53.6575C105.679 55.8492 105.235 57.7793 103.841 59.4478C102.441 61.0934 100.269 62.2562 97.3238 62.9361ZM117.172 58.3537C114.204 59.0389 111.671 58.4816 109.572 56.6817C107.491 54.8537 105.989 51.9421 105.067 47.9469C104.134 43.9061 104.213 40.6536 105.303 38.1896C106.416 35.7203 108.457 34.1431 111.425 33.4579C114.415 32.7675 116.941 33.2906 119.001 35.0272C121.061 36.7639 122.555 39.6412 123.483 43.6593C124.41 47.6773 124.328 50.9666 123.236 53.5272C122.161 56.0597 120.14 57.6686 117.172 58.3537ZM116.01 53.3198C117.106 53.0668 117.779 52.2861 118.03 50.9777C118.304 49.6641 118.138 47.6946 117.532 45.0692C116.921 42.4209 116.212 40.6007 115.406 39.6085C114.617 38.5883 113.675 38.2046 112.579 38.4576C111.483 38.7106 110.793 39.4711 110.509 40.7391C110.242 41.979 110.411 43.9116 111.018 46.537C111.629 49.1853 112.334 51.0424 113.133 52.1083C113.955 53.169 114.914 53.5728 116.01 53.3198ZM137.995 53.1496L132.927 54.3197L141.462 26.92L146.53 25.7499L137.995 53.1496ZM131.188 44.4414C129.133 44.9157 127.379 44.6112 125.927 43.5278C124.469 42.4215 123.482 40.7497 122.966 38.5124C122.444 36.2523 122.603 34.3398 123.444 32.775C124.303 31.1821 125.748 30.151 127.78 29.682C129.812 29.2129 131.554 29.52 133.007 30.6035C134.459 31.6869 135.438 33.3244 135.944 35.5161C136.461 37.7534 136.306 39.6887 135.481 41.322C134.651 42.9325 133.219 43.9723 131.188 44.4414ZM130.334 40.743C130.859 40.6217 131.195 40.2555 131.343 39.6444C131.508 39.0051 131.432 38.0006 131.116 36.6308C130.8 35.261 130.432 34.3479 130.014 33.8913C129.596 33.4347 129.136 33.2644 128.634 33.3804C128.086 33.5069 127.733 33.8529 127.575 34.4184C127.417 34.9839 127.502 35.9743 127.828 37.3898C128.155 38.8052 128.519 39.7553 128.919 40.2399C129.314 40.7018 129.786 40.8695 130.334 40.743ZM151.677 50.3876C149.646 50.8567 147.903 50.5495 146.451 49.4661C144.993 48.3598 144.006 46.6881 143.49 44.4508C142.968 42.1906 143.127 40.2781 143.969 38.7133C144.827 37.1204 146.261 36.092 148.27 35.6282C150.325 35.1538 152.067 35.461 153.496 36.5497C154.949 37.6331 155.928 39.2706 156.434 41.4623C156.951 43.6996 156.796 45.6349 155.971 47.2682C155.163 48.8735 153.732 49.9132 151.677 50.3876ZM150.824 46.6892C151.372 46.5627 151.719 46.1939 151.867 45.5827C152.009 44.9487 151.922 43.9468 151.606 42.577C151.289 41.2073 150.922 40.2941 150.504 39.8375C150.109 39.3757 149.649 39.2054 149.124 39.3266C148.599 39.4478 148.248 39.8052 148.073 40.3988C147.915 40.9643 147.997 41.9434 148.318 43.336C148.645 44.7515 149.008 45.7015 149.409 46.1862C149.827 46.6427 150.299 46.8104 150.824 46.6892Z" fill="#EE305C"/>
<path d="M114.317 68.9398C114.106 68.0266 114.094 67.1945 114.279 66.4435C114.47 65.6822 114.847 65.0401 115.408 64.517C115.969 63.9939 116.694 63.6299 117.582 63.4248C118.471 63.2197 119.282 63.2292 120.015 63.4533C120.749 63.6774 121.369 64.0895 121.875 64.6898C122.387 65.2798 122.748 66.0273 122.956 66.9321C123.169 67.8536 123.176 68.696 122.976 69.4591C122.782 70.2121 122.406 70.8542 121.847 71.3856C121.285 71.9087 120.561 72.2727 119.672 72.4778C118.784 72.6829 117.973 72.6734 117.239 72.4493C116.512 72.215 115.895 71.7977 115.389 71.1975C114.884 70.5972 114.526 69.8447 114.317 68.9398ZM116.347 68.4712C116.556 69.3761 116.907 70.0427 117.399 70.4712C117.898 70.8894 118.529 71.0104 119.293 70.8341C120.04 70.6616 120.55 70.2771 120.823 69.6806C121.095 69.0758 121.126 68.321 120.917 67.4161C120.706 66.5029 120.348 65.8423 119.843 65.4343C119.344 65.016 118.717 64.8941 117.962 65.0685C117.198 65.2448 116.684 65.6303 116.419 66.2249C116.16 66.8092 116.136 67.558 116.347 68.4712ZM125.617 70.9611L123.59 62.182L129.555 60.8049L129.903 62.3117L125.881 63.2403L126.375 65.3821L130.111 64.5197L130.456 66.014L126.72 66.8765L127.56 70.5126L125.617 70.9611ZM132.941 69.2703L130.914 60.4912L136.879 59.1141L137.226 60.6209L133.204 61.5495L133.699 63.6913L137.435 62.8289L137.78 64.3232L134.044 65.1857L134.883 68.8218L132.941 69.2703Z" fill="#EE305C"/>
<g filter="url(#filter1_d_6045_32675)">
<path d="M183.724 10.9838C181.951 11.1031 180.915 9.02396 182.077 7.68L189.711 -1.14708C190.76 -2.36069 192.74 -1.90646 193.155 -0.356678L195.344 7.80932C195.671 9.02626 194.804 10.2381 193.547 10.3227L183.724 10.9838Z" fill="white"/>
</g>
<g filter="url(#filter2_d_6045_32675)">
<path d="M202.003 85.7343C200.877 84.3598 201.968 82.3091 203.737 82.4758L215.356 83.5707C216.954 83.7213 217.732 85.597 216.711 86.8347L211.331 93.3561C210.529 94.328 209.04 94.3254 208.241 93.3507L202.003 85.7343Z" fill="white"/>
</g>
<g filter="url(#filter3_d_6045_32675)">
<path d="M45.8958 75.5519C47.6376 75.201 48.9379 77.1262 47.962 78.611L41.5522 88.3633C40.6709 89.7041 38.6489 89.5136 38.0337 88.0317L34.7922 80.2235C34.3091 79.0598 35.0093 77.7448 36.2444 77.496L45.8958 75.5519Z" fill="white"/>
</g>
<g filter="url(#filter4_d_6045_32675)">
<path d="M231.068 35.4075C228.897 35.6788 227.929 32.7676 229.83 31.6849L237.676 27.217C238.304 26.8596 239.075 26.8683 239.695 27.2399L244.505 30.126C246.135 31.1038 245.611 33.5899 243.725 33.8256L231.068 35.4075Z" fill="white"/>
</g>
<g filter="url(#filter5_d_6045_32675)">
<path d="M19.5576 48.8984C21.6364 48.8984 22.3354 51.6764 20.5042 52.6603L11.1457 57.6883C10.2962 58.1447 9.24196 57.93 8.63873 57.1776L4.6075 52.1495C3.55786 50.8403 4.4899 48.8984 6.1679 48.8984L19.5576 48.8984Z" fill="white"/>
</g>
<g filter="url(#filter6_d_6045_32675)">
<path d="M246 2.5L252.5 0" stroke="white" stroke-width="2" stroke-linecap="round"/>
</g>
<g filter="url(#filter7_d_6045_32675)">
<path d="M254 62L259 63" stroke="white" stroke-width="2" stroke-linecap="round"/>
</g>
<g filter="url(#filter8_d_6045_32675)">
<path d="M31.1289 8.5625L35.8711 10.4365" stroke="white" stroke-width="2" stroke-linecap="round"/>
</g>
<defs>
<filter id="filter0_d_6045_32675" x="61.8711" y="-10.3516" width="117.258" height="116.82" filterUnits="userSpaceOnUse" color-interpolation-filters="sRGB">
<feFlood flood-opacity="0" result="BackgroundImageFix"/>
<feColorMatrix in="SourceAlpha" type="matrix" values="0 0 0 0 0 0 0 0 0 0 0 0 0 0 0 0 0 0 127 0" result="hardAlpha"/>
<feOffset/>
<feGaussianBlur stdDeviation="2"/>
<feComposite in2="hardAlpha" operator="out"/>
<feColorMatrix type="matrix" values="0 0 0 0 1 0 0 0 0 0.889679 0 0 0 0 0.691667 0 0 0 0.8 0"/>
<feBlend mode="normal" in2="BackgroundImageFix" result="effect1_dropShadow_6045_32675"/>
<feBlend mode="normal" in="SourceGraphic" in2="effect1_dropShadow_6045_32675" result="shape"/>
</filter>
<filter id="filter1_d_6045_32675" x="177.584" y="-5.83984" width="21.8301" height="20.8281" filterUnits="userSpaceOnUse" color-interpolation-filters="sRGB">
<feFlood flood-opacity="0" result="BackgroundImageFix"/>
<feColorMatrix in="SourceAlpha" type="matrix" values="0 0 0 0 0 0 0 0 0 0 0 0 0 0 0 0 0 0 127 0" result="hardAlpha"/>
<feOffset/>
<feGaussianBlur stdDeviation="2"/>
<feComposite in2="hardAlpha" operator="out"/>
<feColorMatrix type="matrix" values="0 0 0 0 1 0 0 0 0 0.889679 0 0 0 0 0.691667 0 0 0 0.8 0"/>
<feBlend mode="normal" in2="BackgroundImageFix" result="effect1_dropShadow_6045_32675"/>
<feBlend mode="normal" in="SourceGraphic" in2="effect1_dropShadow_6045_32675" result="shape"/>
</filter>
<filter id="filter2_d_6045_32675" x="197.545" y="78.4648" width="23.627" height="19.6172" filterUnits="userSpaceOnUse" color-interpolation-filters="sRGB">
<feFlood flood-opacity="0" result="BackgroundImageFix"/>
<feColorMatrix in="SourceAlpha" type="matrix" values="0 0 0 0 0 0 0 0 0 0 0 0 0 0 0 0 0 0 127 0" result="hardAlpha"/>
<feOffset/>
<feGaussianBlur stdDeviation="2"/>
<feComposite in2="hardAlpha" operator="out"/>
<feColorMatrix type="matrix" values="0 0 0 0 1 0 0 0 0 0.889679 0 0 0 0 0.691667 0 0 0 0.8 0"/>
<feBlend mode="normal" in2="BackgroundImageFix" result="effect1_dropShadow_6045_32675"/>
<feBlend mode="normal" in="SourceGraphic" in2="effect1_dropShadow_6045_32675" result="shape"/>
</filter>
<filter id="filter3_d_6045_32675" x="30.6387" y="71.5117" width="21.6582" height="21.7539" filterUnits="userSpaceOnUse" color-interpolation-filters="sRGB">
<feFlood flood-opacity="0" result="BackgroundImageFix"/>
<feColorMatrix in="SourceAlpha" type="matrix" values="0 0 0 0 0 0 0 0 0 0 0 0 0 0 0 0 0 0 127 0" result="hardAlpha"/>
<feOffset/>
<feGaussianBlur stdDeviation="2"/>
<feComposite in2="hardAlpha" operator="out"/>
<feColorMatrix type="matrix" values="0 0 0 0 1 0 0 0 0 0.889679 0 0 0 0 0.691667 0 0 0 0.8 0"/>
<feBlend mode="normal" in2="BackgroundImageFix" result="effect1_dropShadow_6045_32675"/>
<feBlend mode="normal" in="SourceGraphic" in2="effect1_dropShadow_6045_32675" result="shape"/>
</filter>
<filter id="filter4_d_6045_32675" x="224.814" y="22.9531" width="24.6641" height="16.4727" filterUnits="userSpaceOnUse" color-interpolation-filters="sRGB">
<feFlood flood-opacity="0" result="BackgroundImageFix"/>
<feColorMatrix in="SourceAlpha" type="matrix" values="0 0 0 0 0 0 0 0 0 0 0 0 0 0 0 0 0 0 127 0" result="hardAlpha"/>
<feOffset/>
<feGaussianBlur stdDeviation="2"/>
<feComposite in2="hardAlpha" operator="out"/>
<feColorMatrix type="matrix" values="0 0 0 0 1 0 0 0 0 0.889679 0 0 0 0 0.691667 0 0 0 0.8 0"/>
<feBlend mode="normal" in2="BackgroundImageFix" result="effect1_dropShadow_6045_32675"/>
<feBlend mode="normal" in="SourceGraphic" in2="effect1_dropShadow_6045_32675" result="shape"/>
</filter>
<filter id="filter5_d_6045_32675" x="0.164062" y="44.8984" width="25.3965" height="17.0273" filterUnits="userSpaceOnUse" color-interpolation-filters="sRGB">
<feFlood flood-opacity="0" result="BackgroundImageFix"/>
<feColorMatrix in="SourceAlpha" type="matrix" values="0 0 0 0 0 0 0 0 0 0 0 0 0 0 0 0 0 0 127 0" result="hardAlpha"/>
<feOffset/>
<feGaussianBlur stdDeviation="2"/>
<feComposite in2="hardAlpha" operator="out"/>
<feColorMatrix type="matrix" values="0 0 0 0 1 0 0 0 0 0.889679 0 0 0 0 0.691667 0 0 0 0.8 0"/>
<feBlend mode="normal" in2="BackgroundImageFix" result="effect1_dropShadow_6045_32675"/>
<feBlend mode="normal" in="SourceGraphic" in2="effect1_dropShadow_6045_32675" result="shape"/>
</filter>
<filter id="filter6_d_6045_32675" x="241" y="-5" width="16.5" height="12.5" filterUnits="userSpaceOnUse" color-interpolation-filters="sRGB">
<feFlood flood-opacity="0" result="BackgroundImageFix"/>
<feColorMatrix in="SourceAlpha" type="matrix" values="0 0 0 0 0 0 0 0 0 0 0 0 0 0 0 0 0 0 127 0" result="hardAlpha"/>
<feOffset/>
<feGaussianBlur stdDeviation="2"/>
<feComposite in2="hardAlpha" operator="out"/>
<feColorMatrix type="matrix" values="0 0 0 0 1 0 0 0 0 0.889679 0 0 0 0 0.691667 0 0 0 1 0"/>
<feBlend mode="normal" in2="BackgroundImageFix" result="effect1_dropShadow_6045_32675"/>
<feBlend mode="normal" in="SourceGraphic" in2="effect1_dropShadow_6045_32675" result="shape"/>
</filter>
<filter id="filter7_d_6045_32675" x="249" y="57" width="15" height="11" filterUnits="userSpaceOnUse" color-interpolation-filters="sRGB">
<feFlood flood-opacity="0" result="BackgroundImageFix"/>
<feColorMatrix in="SourceAlpha" type="matrix" values="0 0 0 0 0 0 0 0 0 0 0 0 0 0 0 0 0 0 127 0" result="hardAlpha"/>
<feOffset/>
<feGaussianBlur stdDeviation="2"/>
<feComposite in2="hardAlpha" operator="out"/>
<feColorMatrix type="matrix" values="0 0 0 0 1 0 0 0 0 0.889679 0 0 0 0 0.691667 0 0 0 1 0"/>
<feBlend mode="normal" in2="BackgroundImageFix" result="effect1_dropShadow_6045_32675"/>
<feBlend mode="normal" in="SourceGraphic" in2="effect1_dropShadow_6045_32675" result="shape"/>
</filter>
<filter id="filter8_d_6045_32675" x="26.1289" y="3.5625" width="14.7422" height="11.875" filterUnits="userSpaceOnUse" color-interpolation-filters="sRGB">
<feFlood flood-opacity="0" result="BackgroundImageFix"/>
<feColorMatrix in="SourceAlpha" type="matrix" values="0 0 0 0 0 0 0 0 0 0 0 0 0 0 0 0 0 0 127 0" result="hardAlpha"/>
<feOffset/>
<feGaussianBlur stdDeviation="2"/>
<feComposite in2="hardAlpha" operator="out"/>
<feColorMatrix type="matrix" values="0 0 0 0 1 0 0 0 0 0.889679 0 0 0 0 0.691667 0 0 0 1 0"/>
<feBlend mode="normal" in2="BackgroundImageFix" result="effect1_dropShadow_6045_32675"/>
<feBlend mode="normal" in="SourceGraphic" in2="effect1_dropShadow_6045_32675" result="shape"/>
</filter>
</defs>
</svg>
