<svg width="264" height="90" viewBox="0 0 264 90" fill="none" xmlns="http://www.w3.org/2000/svg">
<g filter="url(#filter0_d_6045_32674)">
<path d="M118.225 -5.28918C119.412 -6.70351 121.588 -6.7035 122.775 -5.28918L127.569 0.423201C128.481 1.50951 130.033 1.79972 131.276 1.1161L137.81 -2.47874C139.427 -3.36879 141.456 -2.58268 142.052 -0.835086L144.459 6.22334C144.917 7.56563 146.259 8.39707 147.665 8.20846L155.056 7.21666C156.886 6.9711 158.494 8.43713 158.419 10.282L158.113 17.7332C158.055 19.1502 159.007 20.4105 160.386 20.7424L167.636 22.4876C169.431 22.9197 170.401 24.8677 169.664 26.5606L166.688 33.3982C166.121 34.6985 166.554 36.2176 167.719 37.0252L173.85 41.2717C175.368 42.323 175.568 44.4899 174.27 45.8023L169.024 51.1029C168.026 52.1109 167.881 53.6835 168.676 54.8577L172.858 61.032C173.894 62.5606 173.298 64.6537 171.613 65.4083L164.807 68.456C163.513 69.0356 162.809 70.4494 163.126 71.8316L164.796 79.0997C165.209 80.8993 163.898 82.6358 162.054 82.7307L154.606 83.1139C153.19 83.1868 152.023 84.2508 151.819 85.6544L150.751 93.0349C150.486 94.8622 148.636 96.0078 146.882 95.4301L139.799 93.0971C138.452 92.6534 136.979 93.2239 136.283 94.4593L132.62 100.955C131.713 102.564 129.574 102.963 128.147 101.791L122.385 97.0571C121.29 96.1568 119.71 96.1568 118.615 97.0571L112.853 101.791C111.426 102.963 109.287 102.564 108.38 100.955L104.717 94.4593C104.021 93.2239 102.548 92.6534 101.201 93.0971L94.1179 95.4301C92.3642 96.0078 90.514 94.8622 90.2494 93.0348L89.1806 85.6544C88.9774 84.2508 87.8102 83.1868 86.3939 83.1139L78.9463 82.7307C77.1024 82.6358 75.7909 80.8993 76.2043 79.0997L77.8739 71.8316C78.1913 70.4494 77.4874 69.0356 76.193 68.456L69.3868 65.4083C67.7016 64.6537 67.1061 62.5606 68.1416 61.032L72.324 54.8577C73.1193 53.6835 72.9736 52.1109 71.976 51.1029L66.7304 45.8023C65.4316 44.4899 65.6324 42.323 67.1502 41.2717L73.2805 37.0252C74.4463 36.2176 74.8785 34.6985 74.3125 33.3982L71.3358 26.5606C70.5989 24.8677 71.5688 22.9197 73.364 22.4876L80.6143 20.7424C81.9931 20.4105 82.9449 19.1502 82.8868 17.7332L82.5812 10.282C82.5056 8.43714 84.1137 6.9711 85.9437 7.21666L93.3349 8.20846C94.7405 8.39707 96.0833 7.56563 96.541 6.22334L98.9477 -0.835089C99.5436 -2.58268 101.573 -3.36879 103.19 -2.47874L109.724 1.1161C110.967 1.79972 112.519 1.50951 113.431 0.423201L118.225 -5.28918Z" fill="white"/>
</g>
<path d="M89.977 64.2355L88.9097 59.6125L94.475 50.2841C95.1545 49.1653 95.6093 48.2187 95.8392 47.4442C96.0692 46.6697 96.1025 45.9286 95.9391 45.2209C95.7389 44.3534 95.2919 43.7712 94.5981 43.4745C93.9273 43.1725 93.0439 43.148 91.9481 43.401C91.0349 43.6118 90.1384 43.9991 89.2586 44.5629C88.3964 45.0987 87.5702 45.8425 86.78 46.7944L83.7686 42.6563C84.6519 41.5867 85.7916 40.6382 87.1876 39.8109C88.5837 38.9837 90.0808 38.3855 91.6789 38.0166C94.4869 37.3683 96.7612 37.4805 98.5016 38.3531C100.265 39.2205 101.41 40.7957 101.937 43.0787C102.274 44.5398 102.256 46.0229 101.882 47.5279C101.526 49.0049 100.745 50.676 99.5409 52.5411L95.1897 59.3169L94.8181 57.7074L105.674 55.2012L106.86 60.3379L89.977 64.2355ZM117.172 58.3537C114.204 59.0389 111.671 58.4816 109.572 56.6817C107.491 54.8537 105.989 51.9421 105.067 47.9469C104.134 43.9061 104.213 40.6536 105.303 38.1896C106.416 35.7203 108.457 34.1431 111.425 33.4579C114.415 32.7675 116.941 33.2906 119.001 35.0272C121.061 36.7639 122.555 39.6412 123.483 43.6593C124.41 47.6773 124.328 50.9666 123.236 53.5272C122.161 56.0597 120.14 57.6686 117.172 58.3537ZM116.01 53.3198C117.106 53.0668 117.779 52.2861 118.03 50.9777C118.304 49.6641 118.138 47.6946 117.532 45.0692C116.921 42.4209 116.212 40.6007 115.406 39.6085C114.617 38.5883 113.675 38.2046 112.579 38.4576C111.483 38.7106 110.793 39.4711 110.509 40.7391C110.242 41.979 110.411 43.9116 111.018 46.537C111.629 49.1853 112.334 51.0424 113.133 52.1083C113.955 53.169 114.914 53.5728 116.01 53.3198ZM137.995 53.1496L132.927 54.3197L141.462 26.92L146.53 25.7499L137.995 53.1496ZM131.188 44.4414C129.133 44.9157 127.379 44.6112 125.927 43.5278C124.469 42.4215 123.482 40.7497 122.966 38.5124C122.444 36.2523 122.603 34.3398 123.444 32.775C124.303 31.1821 125.748 30.151 127.78 29.682C129.812 29.2129 131.554 29.52 133.007 30.6035C134.459 31.6869 135.438 33.3244 135.944 35.5161C136.461 37.7534 136.306 39.6887 135.481 41.322C134.651 42.9325 133.219 43.9723 131.188 44.4414ZM130.334 40.743C130.859 40.6217 131.195 40.2555 131.343 39.6444C131.508 39.0051 131.432 38.0006 131.116 36.6308C130.8 35.261 130.432 34.3479 130.014 33.8913C129.596 33.4347 129.136 33.2644 128.634 33.3804C128.086 33.5069 127.733 33.8529 127.575 34.4184C127.417 34.9839 127.502 35.9743 127.828 37.3898C128.155 38.8052 128.519 39.7553 128.919 40.2399C129.314 40.7018 129.786 40.8695 130.334 40.743ZM151.677 50.3876C149.646 50.8567 147.903 50.5495 146.451 49.4661C144.993 48.3598 144.006 46.6881 143.49 44.4508C142.968 42.1906 143.127 40.2781 143.969 38.7133C144.827 37.1204 146.261 36.092 148.27 35.6282C150.325 35.1538 152.067 35.461 153.496 36.5497C154.949 37.6331 155.928 39.2706 156.434 41.4623C156.951 43.6996 156.796 45.6349 155.971 47.2682C155.163 48.8735 153.732 49.9132 151.677 50.3876ZM150.824 46.6892C151.372 46.5627 151.719 46.1939 151.867 45.5827C152.009 44.9487 151.922 43.9468 151.606 42.577C151.289 41.2073 150.922 40.2941 150.504 39.8375C150.109 39.3757 149.649 39.2054 149.124 39.3266C148.599 39.4478 148.248 39.8052 148.073 40.3988C147.915 40.9643 147.997 41.9434 148.318 43.336C148.645 44.7515 149.008 45.7015 149.409 46.1862C149.827 46.6427 150.299 46.8104 150.824 46.6892Z" fill="#3C454D"/>
<path d="M114.316 68.9398C114.105 68.0266 114.093 67.1945 114.278 66.4435C114.469 65.6822 114.846 65.0401 115.407 64.517C115.968 63.9939 116.693 63.6299 117.581 63.4248C118.47 63.2197 119.281 63.2292 120.014 63.4533C120.748 63.6774 121.368 64.0895 121.874 64.6898C122.386 65.2798 122.747 66.0273 122.955 66.9321C123.168 67.8536 123.175 68.696 122.975 69.4591C122.781 70.2121 122.405 70.8542 121.846 71.3856C121.284 71.9087 120.56 72.2727 119.671 72.4778C118.783 72.6829 117.972 72.6734 117.238 72.4493C116.511 72.215 115.894 71.7977 115.388 71.1975C114.883 70.5972 114.525 69.8447 114.316 68.9398ZM116.346 68.4712C116.555 69.3761 116.906 70.0427 117.398 70.4712C117.897 70.8894 118.528 71.0104 119.292 70.8341C120.039 70.6616 120.549 70.2771 120.822 69.6806C121.094 69.0758 121.125 68.321 120.916 67.4161C120.705 66.5029 120.347 65.8423 119.842 65.4343C119.343 65.016 118.716 64.8941 117.961 65.0685C117.197 65.2448 116.683 65.6303 116.418 66.2249C116.159 66.8092 116.135 67.558 116.346 68.4712ZM125.616 70.9611L123.589 62.182L129.554 60.8049L129.902 62.3117L125.88 63.2403L126.374 65.3821L130.11 64.5197L130.455 66.014L126.719 66.8765L127.559 70.5126L125.616 70.9611ZM132.94 69.2703L130.913 60.4912L136.878 59.1141L137.225 60.6209L133.203 61.5495L133.698 63.6913L137.434 62.8289L137.779 64.3232L134.043 65.1857L134.882 68.8218L132.94 69.2703Z" fill="#3C454D"/>
<g filter="url(#filter1_d_6045_32674)">
<path d="M183.723 10.9838C181.95 11.1031 180.914 9.02396 182.076 7.68L189.71 -1.14708C190.759 -2.36069 192.739 -1.90646 193.154 -0.356679L195.343 7.80932C195.67 9.02626 194.803 10.2381 193.546 10.3227L183.723 10.9838Z" fill="white"/>
</g>
<g filter="url(#filter2_d_6045_32674)">
<path d="M202.002 85.7343C200.876 84.3598 201.968 82.3091 203.737 82.4758L215.355 83.5707C216.953 83.7213 217.731 85.597 216.71 86.8347L211.33 93.3561C210.528 94.328 209.039 94.3254 208.24 93.3507L202.002 85.7343Z" fill="white"/>
</g>
<g filter="url(#filter3_d_6045_32674)">
<path d="M45.8967 75.5519C47.6386 75.201 48.9389 77.1262 47.963 78.611L41.5532 88.3633C40.6719 89.7041 38.6499 89.5135 38.0347 88.0317L34.7932 80.2235C34.3101 79.0598 35.0103 77.7448 36.2454 77.496L45.8967 75.5519Z" fill="white"/>
</g>
<g filter="url(#filter4_d_6045_32674)">
<path d="M231.068 35.4075C228.897 35.6788 227.929 32.7676 229.83 31.6849L237.676 27.217C238.304 26.8596 239.075 26.8683 239.695 27.2399L244.505 30.126C246.135 31.1038 245.611 33.5899 243.725 33.8256L231.068 35.4075Z" fill="white"/>
</g>
<g filter="url(#filter5_d_6045_32674)">
<path d="M19.5566 48.8984C21.6354 48.8984 22.3344 51.6764 20.5032 52.6603L11.1447 57.6883C10.2952 58.1447 9.24099 57.93 8.63775 57.1776L4.60652 52.1495C3.55689 50.8403 4.48892 48.8984 6.16693 48.8984L19.5566 48.8984Z" fill="white"/>
</g>
<g filter="url(#filter6_d_6045_32674)">
<path d="M246 2.5L252.5 0" stroke="white" stroke-width="2" stroke-linecap="round"/>
</g>
<g filter="url(#filter7_d_6045_32674)">
<path d="M254 62L259 63" stroke="white" stroke-width="2" stroke-linecap="round"/>
</g>
<g filter="url(#filter8_d_6045_32674)">
<path d="M31.1289 8.5625L35.8711 10.4365" stroke="white" stroke-width="2" stroke-linecap="round"/>
</g>
<defs>
<filter id="filter0_d_6045_32674" x="61.8711" y="-10.3516" width="117.258" height="116.82" filterUnits="userSpaceOnUse" color-interpolation-filters="sRGB">
<feFlood flood-opacity="0" result="BackgroundImageFix"/>
<feColorMatrix in="SourceAlpha" type="matrix" values="0 0 0 0 0 0 0 0 0 0 0 0 0 0 0 0 0 0 127 0" result="hardAlpha"/>
<feOffset/>
<feGaussianBlur stdDeviation="2"/>
<feComposite in2="hardAlpha" operator="out"/>
<feColorMatrix type="matrix" values="0 0 0 0 1 0 0 0 0 0.889679 0 0 0 0 0.691667 0 0 0 0.8 0"/>
<feBlend mode="normal" in2="BackgroundImageFix" result="effect1_dropShadow_6045_32674"/>
<feBlend mode="normal" in="SourceGraphic" in2="effect1_dropShadow_6045_32674" result="shape"/>
</filter>
<filter id="filter1_d_6045_32674" x="177.584" y="-5.83984" width="21.8291" height="20.8281" filterUnits="userSpaceOnUse" color-interpolation-filters="sRGB">
<feFlood flood-opacity="0" result="BackgroundImageFix"/>
<feColorMatrix in="SourceAlpha" type="matrix" values="0 0 0 0 0 0 0 0 0 0 0 0 0 0 0 0 0 0 127 0" result="hardAlpha"/>
<feOffset/>
<feGaussianBlur stdDeviation="2"/>
<feComposite in2="hardAlpha" operator="out"/>
<feColorMatrix type="matrix" values="0 0 0 0 1 0 0 0 0 0.889679 0 0 0 0 0.691667 0 0 0 0.8 0"/>
<feBlend mode="normal" in2="BackgroundImageFix" result="effect1_dropShadow_6045_32674"/>
<feBlend mode="normal" in="SourceGraphic" in2="effect1_dropShadow_6045_32674" result="shape"/>
</filter>
<filter id="filter2_d_6045_32674" x="197.544" y="78.4648" width="23.626" height="19.6172" filterUnits="userSpaceOnUse" color-interpolation-filters="sRGB">
<feFlood flood-opacity="0" result="BackgroundImageFix"/>
<feColorMatrix in="SourceAlpha" type="matrix" values="0 0 0 0 0 0 0 0 0 0 0 0 0 0 0 0 0 0 127 0" result="hardAlpha"/>
<feOffset/>
<feGaussianBlur stdDeviation="2"/>
<feComposite in2="hardAlpha" operator="out"/>
<feColorMatrix type="matrix" values="0 0 0 0 1 0 0 0 0 0.889679 0 0 0 0 0.691667 0 0 0 0.8 0"/>
<feBlend mode="normal" in2="BackgroundImageFix" result="effect1_dropShadow_6045_32674"/>
<feBlend mode="normal" in="SourceGraphic" in2="effect1_dropShadow_6045_32674" result="shape"/>
</filter>
<filter id="filter3_d_6045_32674" x="30.6396" y="71.5117" width="21.6582" height="21.7539" filterUnits="userSpaceOnUse" color-interpolation-filters="sRGB">
<feFlood flood-opacity="0" result="BackgroundImageFix"/>
<feColorMatrix in="SourceAlpha" type="matrix" values="0 0 0 0 0 0 0 0 0 0 0 0 0 0 0 0 0 0 127 0" result="hardAlpha"/>
<feOffset/>
<feGaussianBlur stdDeviation="2"/>
<feComposite in2="hardAlpha" operator="out"/>
<feColorMatrix type="matrix" values="0 0 0 0 1 0 0 0 0 0.889679 0 0 0 0 0.691667 0 0 0 0.8 0"/>
<feBlend mode="normal" in2="BackgroundImageFix" result="effect1_dropShadow_6045_32674"/>
<feBlend mode="normal" in="SourceGraphic" in2="effect1_dropShadow_6045_32674" result="shape"/>
</filter>
<filter id="filter4_d_6045_32674" x="224.814" y="22.9531" width="24.6641" height="16.4727" filterUnits="userSpaceOnUse" color-interpolation-filters="sRGB">
<feFlood flood-opacity="0" result="BackgroundImageFix"/>
<feColorMatrix in="SourceAlpha" type="matrix" values="0 0 0 0 0 0 0 0 0 0 0 0 0 0 0 0 0 0 127 0" result="hardAlpha"/>
<feOffset/>
<feGaussianBlur stdDeviation="2"/>
<feComposite in2="hardAlpha" operator="out"/>
<feColorMatrix type="matrix" values="0 0 0 0 1 0 0 0 0 0.889679 0 0 0 0 0.691667 0 0 0 0.8 0"/>
<feBlend mode="normal" in2="BackgroundImageFix" result="effect1_dropShadow_6045_32674"/>
<feBlend mode="normal" in="SourceGraphic" in2="effect1_dropShadow_6045_32674" result="shape"/>
</filter>
<filter id="filter5_d_6045_32674" x="0.163086" y="44.8984" width="25.3965" height="17.0273" filterUnits="userSpaceOnUse" color-interpolation-filters="sRGB">
<feFlood flood-opacity="0" result="BackgroundImageFix"/>
<feColorMatrix in="SourceAlpha" type="matrix" values="0 0 0 0 0 0 0 0 0 0 0 0 0 0 0 0 0 0 127 0" result="hardAlpha"/>
<feOffset/>
<feGaussianBlur stdDeviation="2"/>
<feComposite in2="hardAlpha" operator="out"/>
<feColorMatrix type="matrix" values="0 0 0 0 1 0 0 0 0 0.889679 0 0 0 0 0.691667 0 0 0 0.8 0"/>
<feBlend mode="normal" in2="BackgroundImageFix" result="effect1_dropShadow_6045_32674"/>
<feBlend mode="normal" in="SourceGraphic" in2="effect1_dropShadow_6045_32674" result="shape"/>
</filter>
<filter id="filter6_d_6045_32674" x="241" y="-5" width="16.5" height="12.5" filterUnits="userSpaceOnUse" color-interpolation-filters="sRGB">
<feFlood flood-opacity="0" result="BackgroundImageFix"/>
<feColorMatrix in="SourceAlpha" type="matrix" values="0 0 0 0 0 0 0 0 0 0 0 0 0 0 0 0 0 0 127 0" result="hardAlpha"/>
<feOffset/>
<feGaussianBlur stdDeviation="2"/>
<feComposite in2="hardAlpha" operator="out"/>
<feColorMatrix type="matrix" values="0 0 0 0 1 0 0 0 0 0.889679 0 0 0 0 0.691667 0 0 0 1 0"/>
<feBlend mode="normal" in2="BackgroundImageFix" result="effect1_dropShadow_6045_32674"/>
<feBlend mode="normal" in="SourceGraphic" in2="effect1_dropShadow_6045_32674" result="shape"/>
</filter>
<filter id="filter7_d_6045_32674" x="249" y="57" width="15" height="11" filterUnits="userSpaceOnUse" color-interpolation-filters="sRGB">
<feFlood flood-opacity="0" result="BackgroundImageFix"/>
<feColorMatrix in="SourceAlpha" type="matrix" values="0 0 0 0 0 0 0 0 0 0 0 0 0 0 0 0 0 0 127 0" result="hardAlpha"/>
<feOffset/>
<feGaussianBlur stdDeviation="2"/>
<feComposite in2="hardAlpha" operator="out"/>
<feColorMatrix type="matrix" values="0 0 0 0 1 0 0 0 0 0.889679 0 0 0 0 0.691667 0 0 0 1 0"/>
<feBlend mode="normal" in2="BackgroundImageFix" result="effect1_dropShadow_6045_32674"/>
<feBlend mode="normal" in="SourceGraphic" in2="effect1_dropShadow_6045_32674" result="shape"/>
</filter>
<filter id="filter8_d_6045_32674" x="26.1289" y="3.5625" width="14.7422" height="11.875" filterUnits="userSpaceOnUse" color-interpolation-filters="sRGB">
<feFlood flood-opacity="0" result="BackgroundImageFix"/>
<feColorMatrix in="SourceAlpha" type="matrix" values="0 0 0 0 0 0 0 0 0 0 0 0 0 0 0 0 0 0 127 0" result="hardAlpha"/>
<feOffset/>
<feGaussianBlur stdDeviation="2"/>
<feComposite in2="hardAlpha" operator="out"/>
<feColorMatrix type="matrix" values="0 0 0 0 1 0 0 0 0 0.889679 0 0 0 0 0.691667 0 0 0 1 0"/>
<feBlend mode="normal" in2="BackgroundImageFix" result="effect1_dropShadow_6045_32674"/>
<feBlend mode="normal" in="SourceGraphic" in2="effect1_dropShadow_6045_32674" result="shape"/>
</filter>
</defs>
</svg>
