<svg width="57" height="57" viewBox="0 0 57 57" fill="none" xmlns="http://www.w3.org/2000/svg">
<rect x="9.97461" y="47.0254" width="24.225" height="37.05" rx="1.425" transform="rotate(-90 9.97461 47.0254)" fill="#FFF7E9"/>
<rect x="9.97461" y="45.5996" width="24.225" height="37.05" rx="2.85" transform="rotate(-90 9.97461 45.5996)" fill="#FFF7E9"/>
<rect x="14.25" y="39.9004" width="7.125" height="1.425" rx="0.7125" fill="#F6AE2D"/>
<rect x="14.25" y="29.9248" width="12.825" height="1.425" rx="0.7125" fill="#3C454D"/>
<rect x="14.25" y="32.7754" width="12.825" height="1.425" rx="0.7125" fill="#3C454D"/>
<rect x="14.25" y="35.625" width="8.55" height="1.425" rx="0.7125" fill="#3C454D"/>
<path d="M9.97461 22.8C9.97461 22.013 10.6126 21.375 11.3996 21.375H44.1746C45.7486 21.375 47.0246 22.651 47.0246 24.225C47.0246 25.012 46.3866 25.65 45.5996 25.65H11.3996C10.6126 25.65 9.97461 25.012 9.97461 24.225V22.8Z" fill="#FFE3B0"/>
<rect x="5.7002" y="52.7246" width="4.275" height="45.6" rx="1.425" transform="rotate(-90 5.7002 52.7246)" fill="#FFE3B0"/>
<path d="M9.97461 45.6V24.225C9.97461 22.651 11.2506 21.375 12.8246 21.375H35.6246" stroke="#3C454D" stroke-width="1.425" stroke-linecap="round"/>
<path d="M18.9656 49.1627C19.3592 49.1627 19.6781 48.8437 19.6781 48.4502C19.6781 48.0567 19.3592 47.7377 18.9656 47.7377V49.1627ZM5.7002 48.4502V47.7377H4.9877V48.4502H5.7002ZM51.3002 48.4502H52.0127V47.7377H51.3002V48.4502ZM23.9402 47.7377C23.5467 47.7377 23.2277 48.0567 23.2277 48.4502C23.2277 48.8437 23.5467 49.1627 23.9402 49.1627V47.7377ZM18.9656 47.7377H5.7002V49.1627H18.9656V47.7377ZM8.55019 52.0127H48.4502V50.5877H8.55019V52.0127ZM51.3002 47.7377H23.9402V49.1627H51.3002V47.7377ZM48.4502 52.0127C50.4177 52.0127 52.0127 50.4177 52.0127 48.4502H50.5877C50.5877 49.6307 49.6307 50.5877 48.4502 50.5877V52.0127ZM4.9877 48.4502C4.9877 50.4177 6.58268 52.0127 8.55019 52.0127V50.5877C7.36969 50.5877 6.4127 49.6307 6.4127 48.4502H4.9877Z" fill="#FFF7E9"/>
<path d="M18.9656 48.4502H5.7002V49.8752C5.7002 51.4492 6.97618 52.7252 8.5502 52.7252H48.4502C50.0242 52.7252 51.3002 51.4492 51.3002 49.8752V48.4502H23.9402" stroke="#3C454D" stroke-width="1.425" stroke-linecap="round"/>
<path d="M2.84961 52.7246L54.1496 52.7246" stroke="#3C454D" stroke-width="1.425" stroke-linecap="round"/>
<rect x="31.3496" y="29.9248" width="11.4" height="11.4" rx="2.85" fill="white" stroke="#F6AE2D" stroke-width="1.425" stroke-linecap="round" stroke-dasharray="1.43 2.85"/>
<path d="M47.0254 45.6V35.0812V24.225C47.0254 22.651 45.7494 21.375 44.1754 21.375H39.9004" stroke="#3C454D" stroke-width="1.425" stroke-linecap="round"/>
<rect x="29.9248" y="5.84863" width="1.425" height="1.425" rx="0.7125" fill="#F6AE2D"/>
<rect x="48.4502" y="5.84863" width="1.425" height="1.425" rx="0.7125" fill="#F6AE2D"/>
<path fill-rule="evenodd" clip-rule="evenodd" d="M34.9117 10.124C34.5182 10.124 34.1992 10.443 34.1992 10.8365V11.5486H33.4869C33.0934 11.5486 32.7744 11.8676 32.7744 12.2611C32.7744 12.6546 33.0934 12.9736 33.4869 12.9736H34.1992V13.6865C34.1992 14.08 34.5182 14.399 34.9117 14.399C35.3052 14.399 35.6242 14.08 35.6242 13.6865V12.9736H36.3369C36.7304 12.9736 37.0494 12.6546 37.0494 12.2611C37.0494 11.8676 36.7304 11.5486 36.3369 11.5486H35.6242V10.8365C35.6242 10.443 35.3052 10.124 34.9117 10.124Z" fill="#F6AE2D"/>
<rect x="43.1787" y="8.40039" width="4.275" height="6.80402" rx="1.425" transform="rotate(128.875 43.1787 8.40039)" fill="white"/>
<rect x="55.5186" y="18.3477" width="4.275" height="15.8527" rx="1.425" transform="rotate(128.875 55.5186 18.3477)" fill="#F6AE2D"/>
<rect x="54.5167" y="18.4552" width="2.85" height="21.2296" rx="0.7125" transform="rotate(128.875 54.5167 18.4552)" stroke="#3C454D" stroke-width="1.425"/>
</svg>
