<svg width="50" height="50" viewBox="0 0 50 50" fill="none" xmlns="http://www.w3.org/2000/svg">
<rect x="8.92578" y="38.25" width="21.675" height="33.15" rx="1.275" transform="rotate(-90 8.92578 38.25)" fill="#F3F5FF"/>
<rect x="8.92578" y="36.9766" width="21.675" height="33.15" rx="2.55" transform="rotate(-90 8.92578 36.9766)" fill="#F3F5FF"/>
<rect x="12.75" y="31.875" width="6.375" height="1.275" rx="0.6375" fill="#5B96EE"/>
<rect x="12.75" y="22.9492" width="11.475" height="1.275" rx="0.6375" fill="#3C454D"/>
<rect x="12.75" y="25.5" width="11.475" height="1.275" rx="0.6375" fill="#3C454D"/>
<rect x="12.75" y="28.0508" width="7.65" height="1.275" rx="0.6375" fill="#3C454D"/>
<path d="M8.92578 16.5758C8.92578 15.8716 9.49662 15.3008 10.2008 15.3008H39.5258C40.9341 15.3008 42.0758 16.4425 42.0758 17.8508C42.0758 18.5549 41.5049 19.1258 40.8008 19.1258H10.2008C9.49662 19.1258 8.92578 18.5549 8.92578 17.8508V16.5758Z" fill="#DDE8F9"/>
<rect x="5.09961" y="43.3516" width="3.825" height="40.8" rx="1.275" transform="rotate(-90 5.09961 43.3516)" fill="#DDE8F9"/>
<path d="M8.92578 36.9758V17.8508C8.92578 16.4425 10.0675 15.3008 11.4758 15.3008H31.8758" stroke="#3C454D" stroke-width="1.275" stroke-linecap="round"/>
<path d="M16.9687 40.1609C17.3208 40.1609 17.6062 39.8755 17.6062 39.5234C17.6062 39.1714 17.3208 38.8859 16.9687 38.8859V40.1609ZM5.09961 39.5234V38.8859H4.46211V39.5234H5.09961ZM45.8996 39.5234H46.5371V38.8859H45.8996V39.5234ZM21.4196 38.8859C21.0675 38.8859 20.7821 39.1714 20.7821 39.5234C20.7821 39.8755 21.0675 40.1609 21.4196 40.1609V38.8859ZM16.9687 38.8859H5.09961V40.1609H16.9687V38.8859ZM7.64961 42.7109H43.3496V41.4359H7.64961V42.7109ZM45.8996 38.8859H21.4196V40.1609H45.8996V38.8859ZM43.3496 42.7109C45.11 42.7109 46.5371 41.2838 46.5371 39.5234H45.2621C45.2621 40.5797 44.4059 41.4359 43.3496 41.4359V42.7109ZM4.46211 39.5234C4.46211 41.2838 5.8892 42.7109 7.64961 42.7109V41.4359C6.59336 41.4359 5.73711 40.5797 5.73711 39.5234H4.46211Z" fill="#F3F5FF"/>
<path d="M16.9687 39.5234H5.09961V40.7984C5.09961 42.2068 6.24128 43.3484 7.64961 43.3484H43.3496C44.7579 43.3484 45.8996 42.2068 45.8996 40.7984V39.5234H21.4196" stroke="#3C454D" stroke-width="1.275" stroke-linecap="round"/>
<path d="M2.55078 43.3516L48.4508 43.3516" stroke="#3C454D" stroke-width="1.275" stroke-linecap="round"/>
<rect x="28.0508" y="22.9492" width="10.2" height="10.2" rx="2.55" fill="white" stroke="#5B96EE" stroke-width="1.275" stroke-linecap="round" stroke-dasharray="1.27 2.55"/>
<path d="M42.0742 36.9758V27.5643V17.3008C42.0742 16.1962 41.1788 15.3008 40.0742 15.3008H35.6992" stroke="#3C454D" stroke-width="1.275" stroke-linecap="round"/>
<rect x="26.7754" y="1.41016" width="1.275" height="1.275" rx="0.6375" fill="#5B96EE"/>
<rect x="43.3496" y="1.41016" width="1.275" height="1.275" rx="0.6375" fill="#5B96EE"/>
<path fill-rule="evenodd" clip-rule="evenodd" d="M31.2365 5.23447C30.8844 5.23447 30.599 5.51989 30.599 5.87197V6.50947H29.9615C29.6094 6.50947 29.324 6.79489 29.324 7.14697C29.324 7.49905 29.6094 7.78447 29.9615 7.78447H30.599V8.42197C30.599 8.77405 30.8844 9.05947 31.2365 9.05947C31.5886 9.05947 31.874 8.77405 31.874 8.42197V7.78447H32.5115C32.8636 7.78447 33.149 7.49905 33.149 7.14697C33.149 6.79489 32.8636 6.50947 32.5115 6.50947H31.874V5.87197C31.874 5.51989 31.5886 5.23447 31.2365 5.23447Z" fill="#5B96EE"/>
<rect x="38.6328" y="3.6875" width="3.825" height="6.08781" rx="1.275" transform="rotate(128.875 38.6328 3.6875)" fill="white"/>
<rect x="49.6738" y="12.5898" width="3.825" height="14.184" rx="1.275" transform="rotate(128.875 49.6738 12.5898)" fill="#5B96EE"/>
<rect x="48.7774" y="12.686" width="2.55" height="18.9949" rx="0.6375" transform="rotate(128.875 48.7774 12.686)" stroke="#3C454D" stroke-width="1.275"/>
</svg>
