<svg width="40" height="40" viewBox="0 0 40 40" fill="none" xmlns="http://www.w3.org/2000/svg">
<rect x="6" y="11" width="28" height="19" rx="2" fill="#FFF7E9"/>
<rect x="30" y="13" width="2" height="2" rx="1" fill="#FFC866"/>
<path d="M17.5 11H8C6.89543 11 6 11.8954 6 13V27C6 28.1046 6.89543 29 8 29H14" stroke="#FFD892" stroke-linecap="round"/>
<path d="M28.739 11H31.9998C33.1044 11 33.9998 11.8954 33.9998 13V27C33.9998 28.1046 33.1044 29 31.9998 29H23.3164" stroke="#FFD892" stroke-linecap="round"/>
<path d="M18 11H8C6.89543 11 6 11.8954 6 13V28C6 29.1046 6.89543 30 8 30H13.5" stroke="#3C454D" stroke-linecap="round"/>
<path d="M27.0003 11H32.0003C33.1049 11 34.0003 11.8954 34.0003 13V28C34.0003 29.1046 33.1049 30 32.0003 30H22.6914" stroke="#3C454D" stroke-linecap="round"/>
<path d="M25.1492 7.8772L13.2901 20.9381L19.872 23.176L16.1101 33.2924L27.9692 20.2315L21.3873 17.9935L25.1492 7.8772Z" fill="#F6AE2D"/>
<path d="M21.6103 18L25.6014 7.47954C25.6403 7.37683 25.5093 7.29553 25.4346 7.37607L12.9113 20.8808C12.8606 20.9355 12.8854 21.0243 12.957 21.0449L19.7557 23" stroke="#F6AE2D" stroke-linecap="round"/>
<path d="M19.7559 23L15.7648 33.5205C15.7259 33.6232 15.857 33.7045 15.9317 33.6239L28.4549 20.1192C28.5056 20.0645 28.4808 19.9757 28.4092 19.9551L21.6105 18" stroke="#F6AE2D" stroke-linecap="round"/>
</svg>
