<svg width="14" height="14" viewBox="0 0 14 14" fill="none" xmlns="http://www.w3.org/2000/svg">
<path d="M4.32224 5.0566C4.32224 4.27298 4.6316 3.52104 5.18305 2.96429C5.74143 2.40054 6.50199 2.08337 7.29547 2.08337H7.50002C8.4244 2.08337 9.31044 2.45287 9.96094 3.10963L10.063 3.21266C10.4568 3.6103 10.6778 4.14735 10.6778 4.70703V5.80963C10.6778 6.43096 10.7953 7.04668 11.0242 7.62433L11.6466 9.19533C11.7362 9.42146 11.5696 9.66671 11.3263 9.66671H3.16669L4.14406 7.19978C4.26179 6.90264 4.32224 6.5859 4.32224 6.26628V5.0566Z" fill="#9BBDF1"/>
<path d="M3.95132 4.88266C3.95132 4.16113 4.24 3.4696 4.75301 2.96223C5.25866 2.46213 5.94115 2.18164 6.65234 2.18164H6.86806C7.71746 2.18164 8.53258 2.51664 9.1365 3.11392L9.20984 3.18646C9.57776 3.55034 9.78481 4.0463 9.78481 4.56378V5.88947C9.78481 6.21416 9.81496 6.53814 9.87488 6.85725L10.2772 9H2.89069L3.78762 6.78232C3.89574 6.51498 3.95132 6.22931 3.95132 5.94094V4.88266Z" fill="#E9F0FA"/>
<path d="M8.43892 12.375C8.34369 12.5392 8.20701 12.6754 8.04255 12.7702C7.87809 12.8649 7.69163 12.9147 7.50184 12.9147C7.31205 12.9147 7.12559 12.8649 6.96114 12.7702C6.79668 12.6754 6.65999 12.5392 6.56476 12.375" stroke="#3C454D" stroke-linecap="round" stroke-linejoin="round"/>
<path d="M11.0925 8.04171C10.8515 7.15955 10.7366 6.24773 10.7512 5.33337" stroke="#3C454D" stroke-linecap="round" stroke-linejoin="round"/>
<path d="M4.39083 4.39172C4.29673 4.69701 4.24925 5.01476 4.25 5.33422C4.25 9.12589 2.625 10.2092 2.625 10.2092H10.2083" stroke="#3C454D" stroke-linecap="round" stroke-linejoin="round"/>
<path d="M10.751 5.33392C10.7519 4.74517 10.5928 4.16723 10.2908 3.66185C9.98874 3.15647 9.5551 2.74262 9.03616 2.46452C8.51723 2.18642 7.93249 2.05451 7.34442 2.08288C6.75635 2.11125 6.18702 2.29883 5.69727 2.62559" stroke="#3C454D" stroke-linecap="round" stroke-linejoin="round"/>
<path d="M1.8125 1.8125L12.375 12.375" stroke="#3C454D" stroke-linecap="round" stroke-linejoin="round"/>
</svg>
