<svg width="40" height="40" viewBox="0 0 40 40" fill="none" xmlns="http://www.w3.org/2000/svg">
<rect x="7" y="11" width="28" height="19" rx="2" fill="#FFF7E9"/>
<rect x="31" y="13" width="2" height="2" rx="1" fill="#FFC866"/>
<path d="M18.5 11H9C7.89543 11 7 11.8954 7 13V27C7 28.1046 7.89543 29 9 29H15" stroke="#FFD892" stroke-linecap="round"/>
<path d="M29.739 11H32.9998C34.1044 11 34.9998 11.8954 34.9998 13V27C34.9998 28.1046 34.1044 29 32.9998 29H24.3164" stroke="#FFD892" stroke-linecap="round"/>
<path d="M19 11H9C7.89543 11 7 11.8954 7 13V28C7 29.1046 7.89543 30 9 30H14.5" stroke="#3C454D" stroke-linecap="round"/>
<path d="M28.0003 11H33.0003C34.1049 11 35.0003 11.8954 35.0003 13V28C35.0003 29.1046 34.1049 30 33.0003 30H23.6914" stroke="#3C454D" stroke-linecap="round"/>
<path d="M26.1492 7.8772L14.2901 20.9381L20.872 23.176L17.1101 33.2924L28.9692 20.2315L22.3873 17.9935L26.1492 7.8772Z" fill="#F6AE2D"/>
<path d="M22.6103 18L26.6014 7.47954C26.6403 7.37683 26.5093 7.29553 26.4346 7.37607L13.9113 20.8808C13.8606 20.9355 13.8854 21.0243 13.957 21.0449L20.7557 23" stroke="#F6AE2D" stroke-linecap="round"/>
<path d="M20.7559 23L16.7648 33.5205C16.7259 33.6232 16.857 33.7045 16.9317 33.6239L29.4549 20.1192C29.5056 20.0645 29.4808 19.9757 29.4092 19.9551L22.6105 18" stroke="#F6AE2D" stroke-linecap="round"/>
</svg>
