<svg width="18" height="18" viewBox="0 0 18 18" fill="none" xmlns="http://www.w3.org/2000/svg">
<path d="M13.725 4.28251C13.4325 3.99001 12.96 3.99001 12.6675 4.28251L9.00004 7.94251L5.33254 4.27501C5.04004 3.98251 4.56754 3.98251 4.27504 4.27501C3.98254 4.56751 3.98254 5.04001 4.27504 5.33251L7.94254 9.00001L4.27504 12.6675C3.98254 12.96 3.98254 13.4325 4.27504 13.725C4.56754 14.0175 5.04004 14.0175 5.33254 13.725L9.00004 10.0575L12.6675 13.725C12.96 14.0175 13.4325 14.0175 13.725 13.725C14.0175 13.4325 14.0175 12.96 13.725 12.6675L10.0575 9.00001L13.725 5.33251C14.01 5.04751 14.01 4.56751 13.725 4.28251Z" fill="#627280"/>
</svg>
