<svg width="16" height="16" viewBox="0 0 16 16" fill="none" xmlns="http://www.w3.org/2000/svg">
<path d="M5 12.6497C4.72222 12.6497 4.48611 12.5525 4.29167 12.3581C4.09722 12.1636 4 11.9275 4 11.6497V2.31641C4 2.03863 4.09722 1.80252 4.29167 1.60807C4.48611 1.41363 4.72222 1.31641 5 1.31641H12.3333C12.6111 1.31641 12.8472 1.41363 13.0417 1.60807C13.2361 1.80252 13.3333 2.03863 13.3333 2.31641V11.6497C13.3333 11.9275 13.2361 12.1636 13.0417 12.3581C12.8472 12.5525 12.6111 12.6497 12.3333 12.6497H5ZM5 11.6497H12.3333V2.31641H5V11.6497ZM3 14.6497C2.72222 14.6497 2.48611 14.5525 2.29167 14.3581C2.09722 14.1636 2 13.9275 2 13.6497V4.09974C2 3.9553 2.04722 3.83585 2.14167 3.74141C2.23611 3.64696 2.35556 3.59974 2.5 3.59974C2.64444 3.59974 2.76389 3.64696 2.85833 3.74141C2.95278 3.83585 3 3.9553 3 4.09974V13.6497H10.4C10.5444 13.6497 10.6639 13.697 10.7583 13.7914C10.8528 13.8859 10.9 14.0053 10.9 14.1497C10.9 14.2942 10.8528 14.4136 10.7583 14.5081C10.6639 14.6025 10.5444 14.6497 10.4 14.6497H3ZM5 2.31641V11.6497V2.31641Z" fill="#3C454D"/>
</svg>
