<svg width="54" height="54" viewBox="0 0 54 54" fill="none" xmlns="http://www.w3.org/2000/svg">
<path d="M48.3719 39.3341L50.4716 37.9032C50.9895 37.5502 51.2994 36.964 51.2994 36.3372V31.8201C51.2994 18.6161 40.5955 7.91211 27.3914 7.91211V7.91211C14.1874 7.91211 3.4834 18.6161 3.4834 31.8201V36.6648C3.4834 37.3848 3.88681 38.044 4.52787 38.3716L6.41091 39.3341" stroke="#FFF7E9" stroke-width="1.36617" stroke-linecap="round"/>
<rect x="12.1494" y="22.9512" width="29.7" height="22.95" rx="2.7" fill="white"/>
<path d="M35.2067 23.166H39.6887C41.1798 23.166 42.3887 24.3748 42.3887 25.866V41.7555C42.3887 43.2467 41.1798 44.4555 39.6887 44.4555H15.3347C13.8435 44.4555 12.6347 43.2467 12.6347 41.7555V34.6391" stroke="#FFF7E9" stroke-width="1.35" stroke-linecap="round"/>
<path d="M35.2067 23.166H39.6887C41.1798 23.166 42.3887 24.3748 42.3887 25.866V43.038C42.3887 44.5292 41.1798 45.738 39.6887 45.738H15.3347C13.8435 45.738 12.6347 44.5292 12.6347 43.038V34.452" stroke="#3C454D" stroke-width="1.35" stroke-linecap="round"/>
<rect x="44.5352" y="40.6328" width="14.1305" height="2.7748" rx="1.35" transform="rotate(-90.7528 44.5352 40.6328)" fill="#F6AE2D"/>
<rect x="47.6846" y="39.1836" width="11.8046" height="2.7748" rx="1.35" transform="rotate(-90.7528 47.6846 39.1836)" fill="#FFF7E9"/>
<rect x="4.58301" y="39.1836" width="11.8046" height="2.7748" rx="1.35" transform="rotate(-90.7528 4.58301 39.1836)" fill="#FFF7E9"/>
<rect x="7.69141" y="40.6328" width="14.1305" height="2.7748" rx="1.35" transform="rotate(-90.7528 7.69141 40.6328)" fill="#F6AE2D"/>
<path d="M14.6876 28.2949L40.3375 28.2949" stroke="#3C454D" stroke-width="1.35" stroke-linecap="round"/>
<path d="M14.6876 29.6465L40.3375 29.6465" stroke="#FFF7E9" stroke-width="1.35" stroke-linecap="round"/>
<rect x="14.6875" y="25.2168" width="1.026" height="1.026" rx="0.513" fill="#3C454D"/>
<rect x="16.7393" y="25.2168" width="1.026" height="1.026" rx="0.513" fill="#3C454D"/>
<rect x="18.791" y="25.2168" width="1.026" height="1.026" rx="0.513" fill="#3C454D"/>
<path d="M8.5332 45.7383L23.9232 45.7383" stroke="#3C454D" stroke-width="1.35" stroke-linecap="round"/>
<path d="M1.35059 45.7383L5.45459 45.7383" stroke="#3C454D" stroke-width="1.35" stroke-linecap="round"/>
<path d="M30.0791 45.7383H44.4431" stroke="#3C454D" stroke-width="1.35" stroke-linecap="round"/>
<path d="M46.4941 45.7383H52.6501" stroke="#3C454D" stroke-width="1.35" stroke-linecap="round"/>
<path d="M12.6357 32.2266V25.8667C12.6357 24.3755 13.8445 23.1667 15.3357 23.1667H32.2256" stroke="#3C454D" stroke-width="1.35" stroke-linecap="round"/>
<path d="M4.35449 29.6117L4.80095 27.3874C6.97053 16.5784 16.4644 8.80078 27.489 8.80078V8.80078C39.2087 8.80078 49.0781 17.5625 50.4666 29.1997L50.5158 29.6117" stroke="#3C454D" stroke-width="1.35" stroke-linecap="round"/>
<path d="M44.4424 33.4261V39.0691C44.4424 39.9191 45.1314 40.6081 45.9814 40.6081V40.6081C46.8313 40.6081 47.5204 39.9191 47.5204 39.0691V27.7831C47.5204 26.9332 46.8313 26.2441 45.9814 26.2441V26.2441C45.1314 26.2441 44.4424 26.9332 44.4424 27.7831V30.8145" stroke="#3C454D" stroke-width="1.35" stroke-linecap="round"/>
<path d="M10.585 27.7824L10.585 33.4254L10.585 39.0684C10.585 39.9184 9.89593 40.6074 9.04596 40.6074C8.19599 40.6074 7.50696 39.9184 7.50696 39.0684L7.50696 27.7824C7.50696 26.9325 8.19599 26.2434 9.04596 26.2434C9.89593 26.2434 10.585 26.9325 10.585 27.7824Z" stroke="#3C454D" stroke-width="1.35" stroke-linecap="round"/>
<path d="M47.5186 27.2695L48.4823 27.4837C49.7176 27.7582 50.5966 28.8539 50.5966 30.1194V36.7317C50.5966 37.9972 49.7176 39.0929 48.4823 39.3674L47.5186 39.5815" stroke="#3C454D" stroke-width="1.35" stroke-linecap="round"/>
<path d="M7.50586 39.5801L6.54215 39.3659C5.3068 39.0914 4.42786 37.9957 4.42786 36.7302L4.42786 34.4501" stroke="#3C454D" stroke-width="1.35" stroke-linecap="round"/>
<path d="M4.42786 32.3984L4.42786 30.1183C4.42786 28.8529 5.3068 27.7572 6.54215 27.4826L7.50586 27.2685" stroke="#3C454D" stroke-width="1.35" stroke-linecap="round"/>
<path d="M49.572 39.069L51.7824 37.5954C52.3244 37.234 52.65 36.6257 52.65 35.9743V31.887C52.65 18.0042 41.3958 6.75 27.513 6.75V6.75C13.6302 6.75 2.37598 18.0042 2.37598 31.887V36.312C2.37598 37.0585 2.79773 37.7409 3.46541 38.0747L5.45398 39.069" stroke="#3C454D" stroke-width="1.35" stroke-linecap="round"/>
<path d="M14.8506 36.4484L15.0338 36.4518L15.217 36.456L15.4002 36.4608L15.5834 36.4656L15.7667 36.4697L15.9499 36.4722L16.1331 36.4721L16.3163 36.4685L16.4995 36.4608L16.6827 36.4484L16.8659 36.4318L17.0492 36.4118L17.2324 36.3902L17.4156 36.3696L17.5988 36.3532L17.782 36.3446L17.9652 36.3475L18.1484 36.3648L18.3317 36.3984L18.5149 36.4484L18.6981 36.5126L18.8813 36.5863L19.0645 36.6621L19.2477 36.7306L19.3564 36.7604C19.406 36.774 19.4566 36.7838 19.5077 36.7897L19.5279 36.792C19.5852 36.7985 19.6431 36.7989 19.7005 36.7932V36.7932C19.7649 36.7868 19.8282 36.7727 19.8892 36.7513L19.8939 36.7497C19.9515 36.7294 20.0068 36.7031 20.0588 36.671L20.0858 36.6544C20.1377 36.6224 20.187 36.5864 20.2332 36.5465L20.347 36.4484L20.5302 36.2555L20.7134 36.0445L20.8967 35.8378L21.0278 35.712C21.0624 35.6787 21.1002 35.6489 21.1407 35.6231L21.1982 35.5863C21.241 35.5589 21.2888 35.5401 21.3389 35.531V35.531C21.4092 35.5183 21.4815 35.5251 21.5482 35.5507L21.5503 35.5515C21.6025 35.5715 21.6499 35.6024 21.6895 35.642L21.7488 35.7015C21.7913 35.7441 21.8288 35.7913 21.8605 35.8424L21.9959 36.06L22.1792 36.4484L22.3624 36.8997L22.5456 37.3702L22.7288 37.8075L22.8809 38.0964C22.9016 38.1357 22.9269 38.1723 22.9564 38.2054L23.0418 38.3015C23.0762 38.3402 23.1236 38.3648 23.175 38.3708V38.3708C23.2402 38.3784 23.3052 38.3552 23.3508 38.308L23.4141 38.2426C23.4456 38.2101 23.4712 38.1724 23.4899 38.1312L23.6449 37.7896L23.8281 37.1925L24.0113 36.4484L24.1945 35.6261L24.3777 34.8103L24.5609 34.0929L24.7269 33.6127C24.7383 33.5795 24.7542 33.548 24.774 33.519L24.8644 33.3866C24.9023 33.331 24.9706 33.3046 25.0361 33.3202V33.3202C25.0833 33.3314 25.1229 33.3631 25.1443 33.4067L25.2624 33.6476C25.2833 33.6902 25.3 33.7348 25.3122 33.7806L25.477 34.3969L25.6602 35.3384L25.8434 36.4484L26.0267 37.6153L26.2099 38.7157L26.3931 39.6281L26.564 40.2062C26.5722 40.2336 26.5849 40.2594 26.6018 40.2825L26.6475 40.3451C26.7081 40.428 26.8262 40.4422 26.9046 40.376V40.376C26.9295 40.3549 26.9482 40.3274 26.9584 40.2964L27.1259 39.7911L27.3092 38.8923L27.4924 37.7381L27.6756 36.4484L27.8588 35.1588L28.042 34.0046L28.2252 33.1057L28.3927 32.6004C28.403 32.5695 28.4216 32.5419 28.4466 32.5209V32.5209C28.525 32.4547 28.6431 32.4689 28.7036 32.5517L28.7494 32.6144C28.7662 32.6375 28.779 32.6633 28.7871 32.6907L28.9581 33.2688L29.1413 34.1812L29.3245 35.2815L29.5077 36.4484L29.6909 37.5584L29.8742 38.4999L30.0389 39.1163C30.0512 39.1621 30.0679 39.2067 30.0888 39.2493L30.2069 39.4902C30.2282 39.5337 30.2679 39.5654 30.3151 39.5767V39.5767C30.3806 39.5923 30.4489 39.5659 30.4868 39.5103L30.5772 39.3779C30.597 39.3489 30.6128 39.3174 30.6243 39.2842L30.7902 38.804L30.9734 38.0866L31.1567 37.2707L31.3399 36.4484L31.5231 35.7044L31.7063 35.1072L31.8612 34.7657C31.88 34.7245 31.9056 34.6868 31.9371 34.6542L32.0003 34.5889C32.046 34.5417 32.111 34.5185 32.1761 34.5261V34.5261C32.2275 34.5321 32.2749 34.5567 32.3093 34.5954L32.3948 34.6915C32.4243 34.7246 32.4496 34.7612 32.4703 34.8004L32.6224 35.0894L32.8056 35.5266L32.9888 35.9971L33.172 36.4484L33.3552 36.8369L33.4906 37.0545C33.5224 37.1055 33.5599 37.1528 33.6024 37.1954L33.6617 37.2549C33.7012 37.2945 33.7487 37.3254 33.8009 37.3454L33.803 37.3462C33.8696 37.3718 33.942 37.3786 34.0123 37.3658V37.3658C34.0623 37.3568 34.1101 37.338 34.153 37.3106L34.2105 37.2738C34.2509 37.2479 34.2887 37.2182 34.3234 37.1849L34.4545 37.0591L34.6377 36.8524L34.8209 36.6413L35.0042 36.4484L35.118 36.3504C35.1642 36.3105 35.2135 36.2744 35.2654 36.2424L35.2924 36.2258C35.3444 36.1938 35.3996 36.1674 35.4573 36.1472L35.462 36.1455C35.523 36.1241 35.5863 36.1101 35.6506 36.1037V36.1037C35.7081 36.0979 35.7659 36.0984 35.8233 36.1049L35.8434 36.1072C35.8946 36.1131 35.9452 36.1228 35.9948 36.1364L36.1034 36.1663L36.2867 36.2347L36.4699 36.3106L36.6531 36.3842L36.8363 36.4484L37.0195 36.4984L37.2027 36.5321L37.3859 36.5494L37.5692 36.5522L37.7524 36.5437L37.9356 36.5273L38.1188 36.5067L38.302 36.4851L38.4852 36.4651L38.6684 36.4484L38.8517 36.4361L39.0349 36.4283L39.2181 36.4248L39.4013 36.4247L39.5845 36.4272L39.7677 36.4313L39.9509 36.4361L40.1342 36.4409L40.3174 36.4451L40.5006 36.4484" stroke="#F6AE2D" stroke-width="1.35" stroke-linecap="round"/>
</svg>
