<svg width="15" height="15" viewBox="0 0 15 15" fill="none" xmlns="http://www.w3.org/2000/svg">
<g clip-path="url(#clip0_4447_25742)">
<path d="M1.60645 7.30698C1.7212 8.34402 2.11455 9.33066 2.74477 10.1622C3.37499 10.9937 4.21856 11.6391 5.18598 12.0299C6.15339 12.4208 7.20856 12.5424 8.23952 12.3819C9.27048 12.2215 10.2388 11.7849 11.0416 11.1185C11.8445 10.4522 12.452 9.58094 12.7997 8.5972C13.1474 7.61347 13.2223 6.55395 13.0164 5.53109C12.8106 4.50823 12.3316 3.56018 11.6305 2.78753C10.9293 2.01488 10.032 1.44646 9.03391 1.14258L8.63494 2.49742L7.67172 3.13957L7.35065 4.42386L6.7085 5.70815H4.46099C4.05675 5.91027 3.58094 5.91027 3.17669 5.70815L2.85562 6.99245L1.60645 7.30698Z" fill="#FFE3B0"/>
<path d="M2.51562 7.15998C2.59918 7.92948 2.8856 8.66157 3.34448 9.27857C3.80336 9.89558 4.4176 10.3745 5.12201 10.6645C5.82641 10.9545 6.59472 11.0447 7.34539 10.9256C8.09607 10.8066 8.80112 10.4826 9.38572 9.9882C9.97032 9.49377 10.4127 8.84728 10.6658 8.11734C10.919 7.3874 10.9735 6.60123 10.8236 5.84226C10.6737 5.08328 10.325 4.37982 9.81447 3.8065C9.30392 3.23319 8.6506 2.81142 7.92382 2.58594L7.63332 3.59124L6.93196 4.06772L6.69818 5.02068L6.23061 5.97364H4.59412C4.30037 6.12331 3.95272 6.12331 3.65898 5.97364L3.42519 6.9266L2.51562 7.15998Z" fill="#FFF7E9"/>
<mask id="path-3-inside-1_4447_25742" fill="white">
<path d="M4.53572 11.7007C4.41436 11.9265 4.49844 12.2098 4.73291 12.3134C5.72532 12.7521 6.82062 12.9161 7.90333 12.7839C9.14005 12.6329 10.2997 12.1027 11.223 11.2662C12.1463 10.4297 12.788 9.32778 13.0599 8.11191C13.298 7.04746 13.2424 5.94134 12.9035 4.91059C12.8234 4.66706 12.5499 4.55553 12.3132 4.65409C12.0766 4.75264 11.9668 5.02395 12.0434 5.26858C12.3106 6.12125 12.3501 7.03199 12.1539 7.90929C11.9238 8.93807 11.3809 9.87039 10.5997 10.5782C9.81843 11.286 8.83722 11.7346 7.7908 11.8624C6.89846 11.9714 5.99601 11.8425 5.17376 11.4927C4.93786 11.3924 4.65707 11.4749 4.53572 11.7007Z"/>
</mask>
<path d="M4.53572 11.7007C4.41436 11.9265 4.49844 12.2098 4.73291 12.3134C5.72532 12.7521 6.82062 12.9161 7.90333 12.7839C9.14005 12.6329 10.2997 12.1027 11.223 11.2662C12.1463 10.4297 12.788 9.32778 13.0599 8.11191C13.298 7.04746 13.2424 5.94134 12.9035 4.91059C12.8234 4.66706 12.5499 4.55553 12.3132 4.65409C12.0766 4.75264 11.9668 5.02395 12.0434 5.26858C12.3106 6.12125 12.3501 7.03199 12.1539 7.90929C11.9238 8.93807 11.3809 9.87039 10.5997 10.5782C9.81843 11.286 8.83722 11.7346 7.7908 11.8624C6.89846 11.9714 5.99601 11.8425 5.17376 11.4927C4.93786 11.3924 4.65707 11.4749 4.53572 11.7007Z" fill="#3C454D" stroke="#3C454D" stroke-width="2.39735" mask="url(#path-3-inside-1_4447_25742)"/>
<mask id="path-4-inside-2_4447_25742" fill="white">
<path d="M1.63126 6.73648C1.3594 6.7336 1.13459 6.952 1.15388 7.22319C1.20389 7.92616 1.37678 8.61625 1.66594 9.26172C1.9551 9.90719 2.35497 10.4956 2.84624 11.0009C3.03577 11.1958 3.3484 11.1735 3.52723 10.9687C3.70607 10.7639 3.68301 10.4544 3.49661 10.2565C3.11084 9.8469 2.79544 9.37481 2.56446 8.8592C2.33347 8.34359 2.19115 7.79396 2.14229 7.23341C2.11869 6.96256 1.90312 6.73935 1.63126 6.73648Z"/>
</mask>
<path d="M1.63126 6.73648C1.3594 6.7336 1.13459 6.952 1.15388 7.22319C1.20389 7.92616 1.37678 8.61625 1.66594 9.26172C1.9551 9.90719 2.35497 10.4956 2.84624 11.0009C3.03577 11.1958 3.3484 11.1735 3.52723 10.9687C3.70607 10.7639 3.68301 10.4544 3.49661 10.2565C3.11084 9.8469 2.79544 9.37481 2.56446 8.8592C2.33347 8.34359 2.19115 7.79396 2.14229 7.23341C2.11869 6.96256 1.90312 6.73935 1.63126 6.73648Z" fill="#3C454D" stroke="#3C454D" stroke-width="2.39735" mask="url(#path-4-inside-2_4447_25742)"/>
<mask id="path-5-inside-3_4447_25742" fill="white">
<path d="M11.6249 3.44337C11.8279 3.29059 11.8699 3.00084 11.7021 2.81009C11.0051 2.01775 10.1122 1.42194 9.11304 1.08247C8.8725 1.00074 8.62104 1.15069 8.55787 1.39676C8.4947 1.64283 8.64392 1.89154 8.88332 1.97656C9.68132 2.25996 10.3966 2.73729 10.9646 3.36539C11.135 3.55382 11.422 3.59615 11.6249 3.44337Z"/>
</mask>
<path d="M11.6249 3.44337C11.8279 3.29059 11.8699 3.00084 11.7021 2.81009C11.0051 2.01775 10.1122 1.42194 9.11304 1.08247C8.8725 1.00074 8.62104 1.15069 8.55787 1.39676C8.4947 1.64283 8.64392 1.89154 8.88332 1.97656C9.68132 2.25996 10.3966 2.73729 10.9646 3.36539C11.135 3.55382 11.422 3.59615 11.6249 3.44337Z" fill="#3C454D" stroke="#3C454D" stroke-width="2.39735" mask="url(#path-5-inside-3_4447_25742)"/>
<circle cx="8.56598" cy="9.69879" r="0.642147" fill="#3C454D"/>
<circle cx="9.79254" cy="4.89996" r="0.642147" fill="#3C454D"/>
<circle cx="6.03668" cy="8.50152" r="0.642147" fill="#3C454D"/>
<path d="M8.86933 1.4707C8.945 2.18051 8.5901 2.89031 7.52539 2.89031" stroke="#3C454D" stroke-linecap="round"/>
<path d="M3.14997 5.9707C3.22564 6.68051 2.92897 7.25641 1.86426 7.25641" stroke="#3C454D" stroke-linecap="round"/>
<path d="M7.52672 2.89062C7.77811 3.89618 7.52672 6.08475 4.6875 5.9073" stroke="#3C454D" stroke-linecap="round"/>
</g>
<defs>
<clipPath id="clip0_4447_25742">
<rect width="14" height="14" fill="white" transform="translate(0.138672 0.261719)"/>
</clipPath>
</defs>
</svg>
