<svg width="57" height="57" viewBox="0 0 57 57" fill="none" xmlns="http://www.w3.org/2000/svg">
<rect x="4.27539" y="42.75" width="29.925" height="41.325" rx="1.425" transform="rotate(-90 4.27539 42.75)" fill="#FFF7E9"/>
<path d="M4.27539 14.2502C4.27539 13.4632 4.91338 12.8252 5.70039 12.8252H44.1754C44.9624 12.8252 45.6004 13.4632 45.6004 14.2502V18.5252H4.27539V14.2502Z" fill="#FFE3B0"/>
<path d="M7.83789 12.8252H7.12539C5.55138 12.8252 4.27539 14.1012 4.27539 15.6752V39.9002C4.27539 41.4742 5.55138 42.7502 7.12539 42.7502H42.7504C44.3244 42.7502 45.6004 41.4742 45.6004 39.9002V34.9127" stroke="#FFE3B0" stroke-width="1.425" stroke-linecap="round"/>
<path d="M8.77534 12.8252H7.12539C5.55138 12.8252 4.27539 14.1012 4.27539 15.6752V41.3252C4.27539 42.8992 5.55138 44.1752 7.12539 44.1752H42.7504C44.3244 44.1752 45.6004 42.8992 45.6004 41.3252V28.5002" stroke="#3C454D" stroke-width="1.425" stroke-linecap="round"/>
<circle cx="44.8877" cy="14.9629" r="9.975" fill="white" stroke="#3C454D" stroke-width="1.425"/>
<path d="M34.9121 44.1748H49.1621" stroke="#3C454D" stroke-width="1.425" stroke-linecap="round"/>
<path d="M18.5254 12.8252L31.3504 12.8252" stroke="#3C454D" stroke-width="1.425" stroke-linecap="round"/>
<path d="M41.3252 18.5244L48.4502 11.3994" stroke="#F6AE2D" stroke-width="1.425" stroke-linecap="round"/>
<path d="M41.3252 11.3994L48.4502 18.5244" stroke="#F6AE2D" stroke-width="1.425" stroke-linecap="round"/>
<mask id="path-10-inside-1_965_10425" fill="white">
<path d="M20.6851 36.7462C20.5081 37.0756 20.6308 37.4885 20.9719 37.6416C22.638 38.3894 24.4893 38.6432 26.3037 38.3649C28.3419 38.0522 30.2231 37.085 31.6633 35.6093C33.1036 34.1336 34.0247 32.2295 34.2878 30.1843C34.5219 28.3636 34.2232 26.5191 33.4351 24.8717C33.2737 24.5344 32.858 24.4217 32.533 24.6067C32.208 24.7917 32.0973 25.2041 32.2547 25.5433C32.8996 26.9336 33.1414 28.4824 32.9447 30.0116C32.7192 31.7653 31.9293 33.3981 30.6943 34.6635C29.4593 35.929 27.8462 36.7583 26.0984 37.0264C24.5745 37.2602 23.0202 37.0562 21.6146 36.4452C21.2717 36.2962 20.8621 36.4169 20.6851 36.7462Z"/>
</mask>
<path d="M20.6851 36.7462C20.5081 37.0756 20.6308 37.4885 20.9719 37.6416C22.638 38.3894 24.4893 38.6432 26.3037 38.3649C28.3419 38.0522 30.2231 37.085 31.6633 35.6093C33.1036 34.1336 34.0247 32.2295 34.2878 30.1843C34.5219 28.3636 34.2232 26.5191 33.4351 24.8717C33.2737 24.5344 32.858 24.4217 32.533 24.6067C32.208 24.7917 32.0973 25.2041 32.2547 25.5433C32.8996 26.9336 33.1414 28.4824 32.9447 30.0116C32.7192 31.7653 31.9293 33.3981 30.6943 34.6635C29.4593 35.929 27.8462 36.7583 26.0984 37.0264C24.5745 37.2602 23.0202 37.0562 21.6146 36.4452C21.2717 36.2962 20.8621 36.4169 20.6851 36.7462Z" fill="#3C454D" stroke="#3C454D" stroke-width="2.85" mask="url(#path-10-inside-1_965_10425)"/>
<mask id="path-11-inside-2_965_10425" fill="white">
<path d="M16.051 29.4617C15.6776 29.4824 15.3893 29.8024 15.4366 30.1734C15.5928 31.3995 15.9871 32.5856 16.5995 33.6642C17.2119 34.7428 18.0285 35.6891 19.0013 36.4515C19.2956 36.6822 19.7182 36.5986 19.9273 36.2886C20.1364 35.9786 20.0526 35.5599 19.761 35.3258C18.96 34.6826 18.2862 33.8924 17.777 32.9956C17.2678 32.0987 16.9345 31.1152 16.7926 30.0978C16.7409 29.7275 16.4243 29.441 16.051 29.4617Z"/>
</mask>
<path d="M16.051 29.4617C15.6776 29.4824 15.3893 29.8024 15.4366 30.1734C15.5928 31.3995 15.9871 32.5856 16.5995 33.6642C17.2119 34.7428 18.0285 35.6891 19.0013 36.4515C19.2956 36.6822 19.7182 36.5986 19.9273 36.2886C20.1364 35.9786 20.0526 35.5599 19.761 35.3258C18.96 34.6826 18.2862 33.8924 17.777 32.9956C17.2678 32.0987 16.9345 31.1152 16.7926 30.0978C16.7409 29.7275 16.4243 29.441 16.051 29.4617Z" fill="#3C454D" stroke="#3C454D" stroke-width="2.85" mask="url(#path-11-inside-2_965_10425)"/>
<mask id="path-12-inside-3_965_10425" fill="white">
<path d="M31.9141 23.6648C32.2128 23.4399 32.2745 23.0136 32.0289 22.7316C30.9163 21.4539 29.4819 20.4968 27.875 19.9598C27.5204 19.8412 27.1504 20.0618 27.0574 20.424C26.9644 20.7862 27.1839 21.1524 27.5371 21.2751C28.8476 21.7305 30.0205 22.5131 30.944 23.5485C31.1929 23.8276 31.6153 23.8897 31.9141 23.6648Z"/>
</mask>
<path d="M31.9141 23.6648C32.2128 23.4399 32.2745 23.0136 32.0289 22.7316C30.9163 21.4539 29.4819 20.4968 27.875 19.9598C27.5204 19.8412 27.1504 20.0618 27.0574 20.424C26.9644 20.7862 27.1839 21.1524 27.5371 21.2751C28.8476 21.7305 30.0205 22.5131 30.944 23.5485C31.1929 23.8276 31.6153 23.8897 31.9141 23.6648Z" fill="#3C454D" stroke="#3C454D" stroke-width="2.85" mask="url(#path-12-inside-3_965_10425)"/>
<circle cx="27.4008" cy="33.8852" r="1.35" fill="#F6AE2D"/>
<path d="M17.4333 23.4697C17.8655 23.7328 17.8935 24.3499 17.4869 24.651L17.2503 24.8262C17.082 24.9509 16.8673 24.9952 16.6634 24.9473L15.2622 24.6183C14.839 24.519 14.6027 24.0671 14.7625 23.6628L15.0311 22.9832C15.1934 22.5724 15.6867 22.4068 16.0641 22.6365L17.4333 23.4697Z" fill="white" stroke="#3C454D" stroke-width="1.425"/>
<path d="M13.637 10.6599C14.0542 10.3737 14.6284 10.6013 14.7363 11.0956L14.8788 11.749C14.9234 11.9536 14.8757 12.1676 14.7484 12.3339L13.5961 13.8393C13.3318 14.1845 12.8227 14.2147 12.5196 13.9031L11.6643 13.024C11.3563 12.7074 11.4076 12.1896 11.7719 11.9397L13.637 10.6599Z" fill="white" stroke="#3C454D" stroke-width="1.425"/>
<path d="M22.6387 16.684C23.2146 16.7365 23.4914 17.417 23.1156 17.8565L23.0727 17.9067L23.6143 18.3697L23.0727 17.9067C22.7681 18.263 22.589 18.7096 22.5631 19.1776L22.4859 20.573C22.4549 21.1329 21.8192 21.4392 21.3619 21.1145L19.6898 19.9271C19.4175 19.7337 19.3161 19.377 19.4458 19.0693L20.3303 16.972C20.4509 16.6861 20.7425 16.5111 21.0515 16.5393L22.6387 16.684Z" fill="white" stroke="#3C454D" stroke-width="1.425"/>
<circle cx="29.3256" cy="26.3246" r="1.35" fill="#F6AE2D"/>
<circle cx="23.4184" cy="31.9984" r="1.35" fill="#F6AE2D"/>
<path d="M27.5405 20.5869C27.6597 21.7049 27.1007 22.8228 25.4238 22.8228" stroke="#3C454D" stroke-width="1.425" stroke-linecap="round"/>
<path d="M18.525 27.6748C18.6442 28.7927 18.1769 29.6998 16.5 29.6998" stroke="#3C454D" stroke-width="1.425" stroke-linecap="round"/>
<path d="M25.4229 22.8232C25.8189 24.407 25.4229 27.854 20.9512 27.5745" stroke="#3C454D" stroke-width="1.425" stroke-linecap="round"/>
</svg>
