<svg width="40" height="40" viewBox="0 0 40 40" fill="none" xmlns="http://www.w3.org/2000/svg">
<rect x="3" y="30" width="21" height="29" rx="1" transform="rotate(-90 3 30)" fill="#FFF7E9"/>
<path d="M3 10C3 9.44772 3.44772 9 4 9H31C31.5523 9 32 9.44772 32 10V13H3V10Z" fill="#FFE3B0"/>
<path d="M5.5 9H5C3.89543 9 3 9.89543 3 11V28C3 29.1046 3.89543 30 5 30H30C31.1046 30 32 29.1046 32 28V24.5" stroke="#FFE3B0" stroke-linecap="round"/>
<path d="M6.15786 9H5C3.89543 9 3 9.89543 3 11V29C3 30.1046 3.89543 31 5 31H30C31.1046 31 32 30.1046 32 29V20" stroke="#3C454D" stroke-linecap="round"/>
<circle cx="31.5" cy="10.5" r="7" fill="white" stroke="#3C454D"/>
<path d="M24.5 31H34.5" stroke="#3C454D" stroke-linecap="round"/>
<path d="M13 9L22 9" stroke="#3C454D" stroke-linecap="round"/>
<path d="M29 13L34 8.00001" stroke="#F6AE2D" stroke-linecap="round"/>
<path d="M29 8.00002L34 13" stroke="#F6AE2D" stroke-linecap="round"/>
<mask id="path-10-inside-1_2593_20596" fill="white">
<path d="M14.516 25.7879C14.3918 26.0191 14.4779 26.3088 14.7173 26.4163C15.8864 26.941 17.1855 27.1191 18.4589 26.9238C19.8892 26.7044 21.2093 26.0257 22.22 24.9901C23.2307 23.9545 23.8771 22.6183 24.0617 21.1831C24.226 19.9054 24.0164 18.611 23.4633 17.4549C23.3501 17.2182 23.0583 17.1392 22.8303 17.269C22.6022 17.3988 22.5245 17.6882 22.635 17.9262C23.0876 18.9019 23.2572 19.9887 23.1192 21.0619C22.9609 22.2926 22.4066 23.4384 21.5399 24.3264C20.6733 25.2144 19.5413 25.7964 18.3148 25.9845C17.2453 26.1486 16.1547 26.0055 15.1683 25.5767C14.9276 25.4721 14.6402 25.5568 14.516 25.7879Z"/>
</mask>
<path d="M14.516 25.7879C14.3918 26.0191 14.4779 26.3088 14.7173 26.4163C15.8864 26.941 17.1855 27.1191 18.4589 26.9238C19.8892 26.7044 21.2093 26.0257 22.22 24.9901C23.2307 23.9545 23.8771 22.6183 24.0617 21.1831C24.226 19.9054 24.0164 18.611 23.4633 17.4549C23.3501 17.2182 23.0583 17.1392 22.8303 17.269C22.6022 17.3988 22.5245 17.6882 22.635 17.9262C23.0876 18.9019 23.2572 19.9887 23.1192 21.0619C22.9609 22.2926 22.4066 23.4384 21.5399 24.3264C20.6733 25.2144 19.5413 25.7964 18.3148 25.9845C17.2453 26.1486 16.1547 26.0055 15.1683 25.5767C14.9276 25.4721 14.6402 25.5568 14.516 25.7879Z" fill="#3C454D" stroke="#3C454D" stroke-width="2" mask="url(#path-10-inside-1_2593_20596)"/>
<mask id="path-11-inside-2_2593_20596" fill="white">
<path d="M11.264 20.676C11.002 20.6905 10.7996 20.9151 10.8328 21.1754C10.9424 22.0358 11.2191 22.8682 11.6489 23.6251C12.0786 24.382 12.6517 25.0461 13.3344 25.5811C13.5409 25.743 13.8374 25.6843 13.9842 25.4668C14.1309 25.2492 14.0721 24.9554 13.8675 24.7911C13.3054 24.3398 12.8325 23.7852 12.4752 23.1559C12.1179 22.5265 11.8839 21.8364 11.7844 21.1224C11.7481 20.8625 11.526 20.6614 11.264 20.676Z"/>
</mask>
<path d="M11.264 20.676C11.002 20.6905 10.7996 20.9151 10.8328 21.1754C10.9424 22.0358 11.2191 22.8682 11.6489 23.6251C12.0786 24.382 12.6517 25.0461 13.3344 25.5811C13.5409 25.743 13.8374 25.6843 13.9842 25.4668C14.1309 25.2492 14.0721 24.9554 13.8675 24.7911C13.3054 24.3398 12.8325 23.7852 12.4752 23.1559C12.1179 22.5265 11.8839 21.8364 11.7844 21.1224C11.7481 20.8625 11.526 20.6614 11.264 20.676Z" fill="#3C454D" stroke="#3C454D" stroke-width="2" mask="url(#path-11-inside-2_2593_20596)"/>
<mask id="path-12-inside-3_2593_20596" fill="white">
<path d="M22.396 16.608C22.6056 16.4502 22.6489 16.151 22.4765 15.9531C21.6957 15.0565 20.6891 14.3848 19.5615 14.0079C19.3126 13.9248 19.053 14.0795 18.9877 14.3337C18.9225 14.5879 19.0765 14.8449 19.3244 14.931C20.2441 15.2505 21.0671 15.7998 21.7152 16.5264C21.8898 16.7222 22.1863 16.7658 22.396 16.608Z"/>
</mask>
<path d="M22.396 16.608C22.6056 16.4502 22.6489 16.151 22.4765 15.9531C21.6957 15.0565 20.6891 14.3848 19.5615 14.0079C19.3126 13.9248 19.053 14.0795 18.9877 14.3337C18.9225 14.5879 19.0765 14.8449 19.3244 14.931C20.2441 15.2505 21.0671 15.7998 21.7152 16.5264C21.8898 16.7222 22.1863 16.7658 22.396 16.608Z" fill="#3C454D" stroke="#3C454D" stroke-width="2" mask="url(#path-12-inside-3_2593_20596)"/>
<circle cx="19.2286" cy="23.7794" r="0.947365" fill="#F6AE2D"/>
<path d="M12.2338 16.4714C12.5371 16.656 12.5567 17.089 12.2714 17.3003L12.1053 17.4233C11.9872 17.5108 11.8366 17.5419 11.6935 17.5083L10.7102 17.2774C10.4132 17.2077 10.2473 16.8906 10.3595 16.6069L10.548 16.13C10.6619 15.8417 11.0081 15.7255 11.2729 15.8867L12.2338 16.4714Z" fill="white" stroke="#3C454D"/>
<path d="M9.56977 7.48078C9.86253 7.2799 10.2655 7.43962 10.3412 7.78651L10.4412 8.24504C10.4725 8.38865 10.439 8.53877 10.3497 8.65549L9.54105 9.71195C9.35562 9.9542 8.99836 9.97537 8.78563 9.75671L8.18544 9.1398C7.96926 8.9176 8.00531 8.55425 8.26093 8.37886L9.56977 7.48078Z" fill="white" stroke="#3C454D"/>
<path d="M15.8868 11.7091C16.291 11.7459 16.4852 12.2235 16.2215 12.5319L16.5967 12.8527L16.2215 12.5319L16.1914 12.5672C15.9776 12.8172 15.8519 13.1306 15.8338 13.459L15.7796 14.4382C15.7578 14.8311 15.3117 15.0461 14.9908 14.8182L13.8174 13.9849C13.6263 13.8492 13.5551 13.5989 13.6462 13.383L14.2669 11.9112C14.3515 11.7106 14.5561 11.5878 14.773 11.6076L15.8868 11.7091Z" fill="white" stroke="#3C454D"/>
<circle cx="20.5792" cy="18.4728" r="0.947365" fill="#F6AE2D"/>
<circle cx="16.4337" cy="22.4552" r="0.947365" fill="#F6AE2D"/>
<path d="M19.3262 14.4473C19.4099 15.2318 19.0176 16.0163 17.8408 16.0163" stroke="#3C454D" stroke-linecap="round"/>
<path d="M13.0001 19.4219C13.0838 20.2064 12.7559 20.8429 11.5791 20.8429" stroke="#3C454D" stroke-linecap="round"/>
<path d="M17.8402 16.0176C18.1181 17.129 17.8402 19.5479 14.7021 19.3518" stroke="#3C454D" stroke-linecap="round"/>
</svg>
