<svg width="40" height="40" viewBox="0 0 40 40" fill="none" xmlns="http://www.w3.org/2000/svg">
<g clip-path="url(#clip0_2069_13223)">
<path d="M9 33L39 33" stroke="#3C454D" stroke-linecap="round"/>
<path d="M3 33H7" stroke="#3C454D" stroke-linecap="round"/>
<path d="M18.0547 23.9898C18.2334 25.6048 18.846 27.1412 19.8274 28.4362C20.8088 29.7311 22.1225 30.7362 23.629 31.3448C25.1355 31.9534 26.7787 32.1428 28.3842 31.8929C29.9897 31.643 31.4976 30.9632 32.7479 29.9255C33.9982 28.8878 34.9443 27.531 35.4857 25.999C36.0271 24.4671 36.1438 22.8171 35.8232 21.2243C35.5026 19.6314 34.7568 18.155 33.6649 16.9518C32.573 15.7485 31.1757 14.8634 29.6213 14.3901L29 16.5L27.5 17.5L27 19.5L26 21.5H22.5C21.8705 21.8148 21.1295 21.8148 20.5 21.5L20 23.5L18.0547 23.9898Z" fill="#FFE3B0"/>
<path d="M19 24.177C19.1494 25.5526 19.6614 26.8613 20.4817 27.9644C21.3021 29.0674 22.4001 29.9235 23.6594 30.4419C24.9187 30.9603 26.2922 31.1216 27.6341 30.9088C28.9761 30.6959 30.2365 30.1168 31.2816 29.233C32.3267 28.3491 33.1175 27.1933 33.57 25.8884C34.0226 24.5835 34.1201 23.1781 33.8521 21.8213C33.5842 20.4645 32.9608 19.2069 32.0481 18.182C31.1354 17.1571 29.9674 16.4031 28.6682 16L28.1488 17.7972L26.895 18.649L26.4771 20.3526L25.6412 22.0562H22.7157C22.1906 22.3237 21.5691 22.3237 21.044 22.0562L20.626 23.7598L19 24.177Z" fill="#FFF7E9"/>
<mask id="path-5-inside-1_2069_13223" fill="white">
<path d="M22.5011 31.0448C22.3752 31.279 22.4626 31.5722 22.703 31.6859C24.394 32.4859 26.2892 32.7644 28.1455 32.4797C30.1607 32.1705 32.0207 31.2142 33.4448 29.7551C34.8688 28.296 35.7796 26.4133 36.0396 24.3912C36.2792 22.5285 35.9547 20.6407 35.1138 18.9696C34.9943 18.732 34.699 18.6518 34.4679 18.7833C34.2368 18.9149 34.1574 19.2084 34.2756 19.4466C35.0138 20.9354 35.2973 22.613 35.0845 24.2683C34.851 26.0832 34.0336 27.773 32.7556 29.0825C31.4775 30.392 29.8081 31.2503 27.9994 31.5278C26.3498 31.7808 24.6658 31.5382 23.1595 30.8363C22.9184 30.724 22.627 30.8105 22.5011 31.0448Z"/>
</mask>
<path d="M22.5011 31.0448C22.3752 31.279 22.4626 31.5722 22.703 31.6859C24.394 32.4859 26.2892 32.7644 28.1455 32.4797C30.1607 32.1705 32.0207 31.2142 33.4448 29.7551C34.8688 28.296 35.7796 26.4133 36.0396 24.3912C36.2792 22.5285 35.9547 20.6407 35.1138 18.9696C34.9943 18.732 34.699 18.6518 34.4679 18.7833C34.2368 18.9149 34.1574 19.2084 34.2756 19.4466C35.0138 20.9354 35.2973 22.613 35.0845 24.2683C34.851 26.0832 34.0336 27.773 32.7556 29.0825C31.4775 30.392 29.8081 31.2503 27.9994 31.5278C26.3498 31.7808 24.6658 31.5382 23.1595 30.8363C22.9184 30.724 22.627 30.8105 22.5011 31.0448Z" fill="#3C454D" stroke="#3C454D" stroke-width="2" mask="url(#path-5-inside-1_2069_13223)"/>
<mask id="path-6-inside-2_2069_13223" fill="white">
<path d="M17.8204 23.6871C17.5549 23.7018 17.3503 23.9293 17.3787 24.1937C17.5157 25.4722 17.9138 26.7108 18.5504 27.8319C19.1869 28.953 20.0465 29.9295 21.0742 30.7023C21.2868 30.8621 21.5869 30.803 21.7357 30.5825C21.8844 30.362 21.8253 30.0638 21.6137 29.9028C20.7087 29.214 19.951 28.3482 19.3879 27.3563C18.8247 26.3645 18.4694 25.2702 18.3416 24.1402C18.3118 23.8759 18.086 23.6723 17.8204 23.6871Z"/>
</mask>
<path d="M17.8204 23.6871C17.5549 23.7018 17.3503 23.9293 17.3787 24.1937C17.5157 25.4722 17.9138 26.7108 18.5504 27.8319C19.1869 28.953 20.0465 29.9295 21.0742 30.7023C21.2868 30.8621 21.5869 30.803 21.7357 30.5825C21.8844 30.362 21.8253 30.0638 21.6137 29.9028C20.7087 29.214 19.951 28.3482 19.3879 27.3563C18.8247 26.3645 18.4694 25.2702 18.3416 24.1402C18.3118 23.8759 18.086 23.6723 17.8204 23.6871Z" fill="#3C454D" stroke="#3C454D" stroke-width="2" mask="url(#path-6-inside-2_2069_13223)"/>
<mask id="path-7-inside-3_2069_13223" fill="white">
<path d="M33.8428 17.832C34.0553 17.6721 34.0988 17.3692 33.9282 17.1652C32.7717 15.7822 31.2412 14.761 29.5202 14.2239C29.2664 14.1446 29.0035 14.301 28.9373 14.5586C28.8712 14.8162 29.027 15.0773 29.2804 15.158C30.7901 15.6389 32.1341 16.5358 33.1577 17.7453C33.3295 17.9483 33.6303 17.9919 33.8428 17.832Z"/>
</mask>
<path d="M33.8428 17.832C34.0553 17.6721 34.0988 17.3692 33.9282 17.1652C32.7717 15.7822 31.2412 14.761 29.5202 14.2239C29.2664 14.1446 29.0035 14.301 28.9373 14.5586C28.8712 14.8162 29.027 15.0773 29.2804 15.158C30.7901 15.6389 32.1341 16.5358 33.1577 17.7453C33.3295 17.9483 33.6303 17.9919 33.8428 17.832Z" fill="#3C454D" stroke="#3C454D" stroke-width="2" mask="url(#path-7-inside-3_2069_13223)"/>
<circle cx="28.8955" cy="27.7157" r="1" fill="#F6AE2D"/>
<circle cx="30.7974" cy="20.2402" r="1" fill="#F6AE2D"/>
<circle cx="24.9575" cy="25.8507" r="1" fill="#F6AE2D"/>
<path d="M29.3666 14.9025C29.4844 16.0079 28.9317 17.1133 27.2737 17.1133" stroke="#3C454D" stroke-linecap="round"/>
<path d="M20.4539 21.9099C20.5717 23.0152 20.1097 23.9121 18.4517 23.9121" stroke="#3C454D" stroke-linecap="round"/>
<path d="M27.2735 17.1133C27.665 18.6793 27.2735 22.0875 22.8521 21.8111" stroke="#3C454D" stroke-linecap="round"/>
<rect x="4" y="6" width="20" height="20" rx="10" fill="white"/>
<circle cx="14" cy="16" r="6" stroke="#D80032" stroke-width="2"/>
<rect x="16.6272" y="10.0505" width="2" height="12.4105" transform="rotate(32.6694 16.6272 10.0505)" fill="#D80032"/>
<rect x="4" y="6" width="20" height="20" rx="10" stroke="#3C454D"/>
<path d="M21.3663 16.1202C21.9177 16.4557 21.9535 17.243 21.4348 17.6271L21.2008 17.8004C20.9861 17.9594 20.7122 18.0159 20.4521 17.9548L19.0667 17.6296C18.5268 17.5028 18.2252 16.9263 18.4291 16.4106L18.6947 15.7386C18.9018 15.2145 19.5311 15.0033 20.0125 15.2963L21.3663 16.1202Z" fill="#FFF7E9" stroke="#3C454D"/>
<path d="M17.5057 0.917761C18.0379 0.55258 18.7705 0.842943 18.9081 1.47356L19.049 2.11961C19.1059 2.38069 19.0451 2.6536 18.8827 2.86579L17.7433 4.35431C17.4062 4.7947 16.7567 4.83317 16.37 4.43567L15.5244 3.56646C15.1314 3.16252 15.1969 2.50198 15.6616 2.18312L17.5057 0.917761Z" fill="#FFF7E9" stroke="#3C454D"/>
<path d="M24.7533 7.61018C25.4881 7.67715 25.8411 8.54532 25.3617 9.10607L25.3193 9.15569C25.0473 9.47389 24.8874 9.8727 24.8642 10.2907L24.7879 11.6704C24.7483 12.3847 23.9373 12.7755 23.354 12.3612L21.7007 11.1871C21.3532 10.9404 21.2238 10.4854 21.3894 10.0928L22.2639 8.01915C22.4177 7.65446 22.7898 7.43121 23.184 7.46714L24.7533 7.61018Z" fill="#FFF7E9" stroke="#3C454D"/>
</g>
<defs>
<clipPath id="clip0_2069_13223">
<rect width="40" height="40" fill="white"/>
</clipPath>
</defs>
</svg>
