<svg width="56" height="56" viewBox="0 0 56 56" fill="none" xmlns="http://www.w3.org/2000/svg">
<rect x="2.80005" y="12.6" width="49" height="22.4" rx="11.2" fill="#FFCED9"/>
<path d="M2.80005 23.8C2.80005 30.3722 8.12786 35 14.7 35H32.2M51.8 23.8C51.8 26.7365 50.4 29.4 48.3 31.5" stroke="#FA99AF" stroke-width="1.4" stroke-linecap="round"/>
<path d="M48.9734 32.2C50.7364 30.1246 51.8 27.4365 51.8 24.5C51.8 17.9278 46.4722 12.6 39.9 12.6H14.7C8.12786 12.6 2.80005 17.9278 2.80005 24.5C2.80005 31.0722 8.12786 36.4 14.7 36.4H32.2" stroke="#3C454D" stroke-width="1.4" stroke-linecap="round"/>
<circle cx="14.9891" cy="24.8296" r="7.98913" fill="#FA99AF"/>
<path d="M22.4 24.5C22.4 28.366 19.266 31.5 15.4 31.5C11.534 31.5 8.40002 28.366 8.40002 24.5C8.40002 20.634 11.534 17.5 15.4 17.5C19.266 17.5 22.4 20.634 22.4 24.5Z" fill="white"/>
<circle cx="14.9891" cy="24.8296" r="7.98913" stroke="#3C454D" stroke-width="1.4"/>
<path d="M39.505 29.5054C40.3227 28.1585 42.2773 28.1585 43.0951 29.5054L50.0194 40.9102C50.8691 42.3096 49.8616 44.1 48.2244 44.1H34.3757C32.7385 44.1 31.731 42.3096 32.5806 40.9102L39.505 29.5054Z" fill="white" stroke="#3C454D" stroke-width="1.4"/>
<rect x="42" y="33.6" width="5.6" height="1.4" rx="0.7" transform="rotate(90 42 33.6)" fill="#EE305C"/>
<rect x="42" y="40.6" width="1.4" height="1.4" rx="0.7" transform="rotate(90 42 40.6)" fill="#EE305C"/>
</svg>
