<svg width="91" height="18" viewBox="0 0 91 18" fill="none" xmlns="http://www.w3.org/2000/svg">
<rect width="91" height="18" rx="9" fill="#FF9900"/>
<path d="M20.7966 4.32324L16.0867 9.12743L18.6986 9.95272L17.2032 13.6751L21.913 8.87096L19.3012 8.04566L20.7966 4.32324Z" fill="white" stroke="white" stroke-linecap="round" stroke-linejoin="round"/>
<path d="M29.8802 12.09C29.1662 12.09 28.5662 11.958 28.0802 11.694C27.5942 11.43 27.2282 11.055 26.9822 10.569C26.7362 10.083 26.6132 9.507 26.6132 8.841C26.6132 8.169 26.7452 7.59 27.0092 7.104C27.2732 6.612 27.6512 6.234 28.1432 5.97C28.6412 5.7 29.2382 5.565 29.9342 5.565C30.3962 5.565 30.8012 5.628 31.1492 5.754C31.4972 5.874 31.8032 6.051 32.0672 6.285L31.6802 7.185C31.4882 7.035 31.3052 6.915 31.1312 6.825C30.9572 6.735 30.7772 6.672 30.5912 6.636C30.4052 6.594 30.1892 6.573 29.9432 6.573C29.2472 6.573 28.7192 6.771 28.3592 7.167C28.0052 7.557 27.8282 8.118 27.8282 8.85C27.8282 9.582 27.9962 10.14 28.3322 10.524C28.6742 10.908 29.2082 11.1 29.9342 11.1C30.1802 11.1 30.4262 11.076 30.6722 11.028C30.9242 10.98 31.1702 10.911 31.4102 10.821L31.1942 11.307V9.408H29.7092V8.562H32.1572V11.613C31.8632 11.763 31.5122 11.88 31.1042 11.964C30.6962 12.048 30.2882 12.09 29.8802 12.09ZM35.4443 12.09C34.9763 12.09 34.5713 11.994 34.2293 11.802C33.8873 11.61 33.6203 11.337 33.4283 10.983C33.2423 10.629 33.1493 10.209 33.1493 9.723C33.1493 9.237 33.2423 8.82 33.4283 8.472C33.6203 8.118 33.8873 7.845 34.2293 7.653C34.5713 7.461 34.9763 7.365 35.4443 7.365C35.9123 7.365 36.3173 7.461 36.6593 7.653C37.0073 7.845 37.2743 8.118 37.4603 8.472C37.6523 8.82 37.7483 9.237 37.7483 9.723C37.7483 10.209 37.6523 10.629 37.4603 10.983C37.2743 11.337 37.0073 11.61 36.6593 11.802C36.3173 11.994 35.9123 12.09 35.4443 12.09ZM35.4443 11.226C35.7983 11.226 36.0803 11.103 36.2903 10.857C36.5003 10.605 36.6053 10.227 36.6053 9.723C36.6053 9.219 36.5003 8.844 36.2903 8.598C36.0803 8.352 35.7983 8.229 35.4443 8.229C35.0903 8.229 34.8083 8.352 34.5983 8.598C34.3883 8.844 34.2833 9.219 34.2833 9.723C34.2833 10.227 34.3883 10.605 34.5983 10.857C34.8083 11.103 35.0903 11.226 35.4443 11.226ZM41.1882 13.944V8.589C41.1882 8.403 41.1822 8.214 41.1702 8.022C41.1582 7.83 41.1402 7.641 41.1162 7.455H42.2052L42.3042 8.409H42.2052C42.2952 8.091 42.4842 7.839 42.7722 7.653C43.0662 7.461 43.4052 7.365 43.7892 7.365C44.1912 7.365 44.5422 7.461 44.8422 7.653C45.1422 7.839 45.3762 8.109 45.5442 8.463C45.7122 8.811 45.7962 9.231 45.7962 9.723C45.7962 10.215 45.7122 10.638 45.5442 10.992C45.3762 11.346 45.1422 11.619 44.8422 11.811C44.5422 11.997 44.1912 12.09 43.7892 12.09C43.4112 12.09 43.0782 11.997 42.7902 11.811C42.5022 11.625 42.3102 11.376 42.2142 11.064H42.3132V13.944H41.1882ZM43.4742 11.226C43.8342 11.226 44.1222 11.103 44.3382 10.857C44.5542 10.605 44.6622 10.227 44.6622 9.723C44.6622 9.219 44.5542 8.844 44.3382 8.598C44.1222 8.352 43.8342 8.229 43.4742 8.229C43.1202 8.229 42.8352 8.352 42.6192 8.598C42.4032 8.844 42.2952 9.219 42.2952 9.723C42.2952 10.227 42.4032 10.605 42.6192 10.857C42.8352 11.103 43.1202 11.226 43.4742 11.226ZM46.7602 12V8.616C46.7602 8.424 46.7542 8.229 46.7422 8.031C46.7362 7.833 46.7212 7.641 46.6972 7.455H47.7862L47.9122 8.697H47.7322C47.7922 8.397 47.8912 8.148 48.0292 7.95C48.1732 7.752 48.3472 7.605 48.5512 7.509C48.7552 7.413 48.9772 7.365 49.2172 7.365C49.3252 7.365 49.4122 7.371 49.4782 7.383C49.5442 7.389 49.6102 7.404 49.6762 7.428L49.6672 8.418C49.5532 8.37 49.4542 8.34 49.3702 8.328C49.2922 8.316 49.1932 8.31 49.0732 8.31C48.8152 8.31 48.5962 8.364 48.4162 8.472C48.2422 8.58 48.1102 8.73 48.0202 8.922C47.9362 9.114 47.8942 9.333 47.8942 9.579V12H46.7602ZM52.2841 12.09C51.8161 12.09 51.4111 11.994 51.0691 11.802C50.7271 11.61 50.4601 11.337 50.2681 10.983C50.0821 10.629 49.9891 10.209 49.9891 9.723C49.9891 9.237 50.0821 8.82 50.2681 8.472C50.4601 8.118 50.7271 7.845 51.0691 7.653C51.4111 7.461 51.8161 7.365 52.2841 7.365C52.7521 7.365 53.1571 7.461 53.4991 7.653C53.8471 7.845 54.1141 8.118 54.3001 8.472C54.4921 8.82 54.5881 9.237 54.5881 9.723C54.5881 10.209 54.4921 10.629 54.3001 10.983C54.1141 11.337 53.8471 11.61 53.4991 11.802C53.1571 11.994 52.7521 12.09 52.2841 12.09ZM52.2841 11.226C52.6381 11.226 52.9201 11.103 53.1301 10.857C53.3401 10.605 53.4451 10.227 53.4451 9.723C53.4451 9.219 53.3401 8.844 53.1301 8.598C52.9201 8.352 52.6381 8.229 52.2841 8.229C51.9301 8.229 51.6481 8.352 51.4381 8.598C51.2281 8.844 51.1231 9.219 51.1231 9.723C51.1231 10.227 51.2281 10.605 51.4381 10.857C51.6481 11.103 51.9301 11.226 52.2841 11.226ZM58.028 12V8.589C58.028 8.403 58.022 8.214 58.01 8.022C57.998 7.83 57.98 7.641 57.956 7.455H59.045L59.135 8.355H59.027C59.171 8.037 59.384 7.794 59.666 7.626C59.948 7.452 60.275 7.365 60.647 7.365C61.181 7.365 61.583 7.515 61.853 7.815C62.123 8.115 62.258 8.583 62.258 9.219V12H61.133V9.273C61.133 8.907 61.061 8.646 60.917 8.49C60.779 8.328 60.569 8.247 60.287 8.247C59.939 8.247 59.663 8.355 59.459 8.571C59.255 8.787 59.153 9.075 59.153 9.435V12H58.028ZM65.5029 12.09C65.0349 12.09 64.6299 11.994 64.2879 11.802C63.9459 11.61 63.6789 11.337 63.4869 10.983C63.3009 10.629 63.2079 10.209 63.2079 9.723C63.2079 9.237 63.3009 8.82 63.4869 8.472C63.6789 8.118 63.9459 7.845 64.2879 7.653C64.6299 7.461 65.0349 7.365 65.5029 7.365C65.9709 7.365 66.3759 7.461 66.7179 7.653C67.0659 7.845 67.3329 8.118 67.5189 8.472C67.7109 8.82 67.8069 9.237 67.8069 9.723C67.8069 10.209 67.7109 10.629 67.5189 10.983C67.3329 11.337 67.0659 11.61 66.7179 11.802C66.3759 11.994 65.9709 12.09 65.5029 12.09ZM65.5029 11.226C65.8569 11.226 66.1389 11.103 66.3489 10.857C66.5589 10.605 66.6639 10.227 66.6639 9.723C66.6639 9.219 66.5589 8.844 66.3489 8.598C66.1389 8.352 65.8569 8.229 65.5029 8.229C65.1489 8.229 64.8669 8.352 64.6569 8.598C64.4469 8.844 64.3419 9.219 64.3419 9.723C64.3419 10.227 64.4469 10.605 64.6569 10.857C64.8669 11.103 65.1489 11.226 65.5029 11.226ZM69.9491 12L68.1761 7.455H69.3371L70.6151 10.992H70.3811L71.6771 7.455H72.4781L73.7651 10.992H73.5581L74.8271 7.455H75.9251L74.1521 12H73.1621L71.8031 8.382H72.2801L70.9481 12H69.9491Z" fill="white"/>
</svg>
