<svg width="66" height="20" viewBox="0 0 66 20" fill="none" xmlns="http://www.w3.org/2000/svg">
<rect width="66" height="20" rx="10" fill="#F6AE2D"/>
<path d="M14.6226 4.67391C14.7116 4.45666 14.6318 4.20801 14.432 4.07995C14.2321 3.95189 13.9679 3.98007 13.8008 4.14725L8.143 9.80742C8.0212 9.92928 7.97265 10.1044 8.01479 10.27C8.05693 10.4355 8.18371 10.5678 8.34961 10.6192L10.9722 11.4319L9.37712 15.3261C9.28813 15.5433 9.36796 15.792 9.5678 15.92C9.76764 16.0481 10.0319 16.0199 10.199 15.8527L15.8568 10.1926C15.9786 10.0707 16.0271 9.89558 15.985 9.73002C15.9428 9.56446 15.816 9.43223 15.6501 9.38082L13.0276 8.56807L14.6226 4.67391Z" fill="white"/>
<path d="M25.762 13.09C25.048 13.09 24.448 12.958 23.962 12.694C23.476 12.43 23.11 12.055 22.864 11.569C22.618 11.083 22.495 10.507 22.495 9.841C22.495 9.169 22.627 8.59 22.891 8.104C23.155 7.612 23.533 7.234 24.025 6.97C24.523 6.7 25.12 6.565 25.816 6.565C26.278 6.565 26.683 6.628 27.031 6.754C27.379 6.874 27.685 7.051 27.949 7.285L27.562 8.185C27.37 8.035 27.187 7.915 27.013 7.825C26.839 7.735 26.659 7.672 26.473 7.636C26.287 7.594 26.071 7.573 25.825 7.573C25.129 7.573 24.601 7.771 24.241 8.167C23.887 8.557 23.71 9.118 23.71 9.85C23.71 10.582 23.878 11.14 24.214 11.524C24.556 11.908 25.09 12.1 25.816 12.1C26.062 12.1 26.308 12.076 26.554 12.028C26.806 11.98 27.052 11.911 27.292 11.821L27.076 12.307V10.408H25.591V9.562H28.039V12.613C27.745 12.763 27.394 12.88 26.986 12.964C26.578 13.048 26.17 13.09 25.762 13.09ZM29.1571 9.823C29.1571 9.157 29.2771 8.581 29.5171 8.095C29.7631 7.609 30.1141 7.234 30.5701 6.97C31.0261 6.7 31.5691 6.565 32.1991 6.565C32.8231 6.565 33.3631 6.7 33.8191 6.97C34.2751 7.234 34.6261 7.609 34.8721 8.095C35.1241 8.581 35.2501 9.154 35.2501 9.814C35.2501 10.48 35.1241 11.059 34.8721 11.551C34.6261 12.037 34.2751 12.415 33.8191 12.685C33.3631 12.955 32.8231 13.09 32.1991 13.09C31.5691 13.09 31.0261 12.955 30.5701 12.685C30.1201 12.415 29.7721 12.037 29.5261 11.551C29.2801 11.059 29.1571 10.483 29.1571 9.823ZM30.3721 9.823C30.3721 10.537 30.5251 11.095 30.8311 11.497C31.1371 11.899 31.5931 12.1 32.1991 12.1C32.7871 12.1 33.2401 11.899 33.5581 11.497C33.8761 11.095 34.0351 10.537 34.0351 9.823C34.0351 9.103 33.8761 8.545 33.5581 8.149C33.2461 7.753 32.7931 7.555 32.1991 7.555C31.5931 7.555 31.1371 7.753 30.8311 8.149C30.5251 8.545 30.3721 9.103 30.3721 9.823ZM38.9178 13V6.655H41.7348C42.4308 6.655 42.9618 6.823 43.3278 7.159C43.6938 7.495 43.8768 7.957 43.8768 8.545C43.8768 9.127 43.6938 9.589 43.3278 9.931C42.9618 10.273 42.4308 10.444 41.7348 10.444H40.0788V13H38.9178ZM40.0788 9.526H41.5998C41.9838 9.526 42.2718 9.442 42.4638 9.274C42.6558 9.1 42.7518 8.857 42.7518 8.545C42.7518 8.233 42.6558 7.993 42.4638 7.825C42.2718 7.651 41.9838 7.564 41.5998 7.564H40.0788V9.526ZM44.912 13V6.655H47.684C48.38 6.655 48.917 6.82 49.295 7.15C49.679 7.48 49.871 7.939 49.871 8.527C49.871 8.917 49.784 9.25 49.61 9.526C49.442 9.802 49.199 10.015 48.881 10.165C48.563 10.309 48.188 10.381 47.756 10.381L47.882 10.21H48.188C48.44 10.21 48.665 10.276 48.863 10.408C49.061 10.54 49.223 10.741 49.349 11.011L50.276 13H48.998L48.062 10.939C47.978 10.729 47.849 10.591 47.675 10.525C47.507 10.459 47.303 10.426 47.063 10.426H46.073V13H44.912ZM46.073 9.571H47.495C47.903 9.571 48.212 9.487 48.422 9.319C48.638 9.145 48.746 8.893 48.746 8.563C48.746 8.233 48.638 7.984 48.422 7.816C48.212 7.648 47.903 7.564 47.495 7.564H46.073V9.571ZM50.9804 9.823C50.9804 9.157 51.1004 8.581 51.3404 8.095C51.5864 7.609 51.9374 7.234 52.3934 6.97C52.8494 6.7 53.3924 6.565 54.0224 6.565C54.6464 6.565 55.1864 6.7 55.6424 6.97C56.0984 7.234 56.4494 7.609 56.6954 8.095C56.9474 8.581 57.0734 9.154 57.0734 9.814C57.0734 10.48 56.9474 11.059 56.6954 11.551C56.4494 12.037 56.0984 12.415 55.6424 12.685C55.1864 12.955 54.6464 13.09 54.0224 13.09C53.3924 13.09 52.8494 12.955 52.3934 12.685C51.9434 12.415 51.5954 12.037 51.3494 11.551C51.1034 11.059 50.9804 10.483 50.9804 9.823ZM52.1954 9.823C52.1954 10.537 52.3484 11.095 52.6544 11.497C52.9604 11.899 53.4164 12.1 54.0224 12.1C54.6104 12.1 55.0634 11.899 55.3814 11.497C55.6994 11.095 55.8584 10.537 55.8584 9.823C55.8584 9.103 55.6994 8.545 55.3814 8.149C55.0694 7.753 54.6164 7.555 54.0224 7.555C53.4164 7.555 52.9604 7.753 52.6544 8.149C52.3484 8.545 52.1954 9.103 52.1954 9.823Z" fill="white"/>
</svg>
