<svg width="50" height="50" viewBox="0 0 50 50" fill="none" xmlns="http://www.w3.org/2000/svg">
<rect x="8.69531" y="38.043" width="21.7391" height="32.6087" rx="1.275" transform="rotate(-90 8.69531 38.043)" fill="#F3F5FF"/>
<rect x="8.69531" y="38.043" width="21.7391" height="32.6087" rx="2.55" transform="rotate(-90 8.69531 38.043)" fill="white"/>
<rect x="12.75" y="32.9609" width="6.375" height="1.08696" rx="0.543478" fill="#5B96EE"/>
<rect x="13.043" y="22.9492" width="11.475" height="1.08696" rx="0.543478" fill="#3C454D"/>
<rect x="13.043" y="25.125" width="9.78261" height="1.08696" rx="0.543478" fill="#3C454D"/>
<rect x="13.043" y="27.2969" width="11.475" height="1.08696" rx="0.543478" fill="#3C454D"/>
<rect x="13.043" y="29.4727" width="7.65" height="1.08696" rx="0.543478" fill="#3C454D"/>
<path d="M8.69531 17.5797C8.69531 16.8755 9.26615 16.3047 9.97031 16.3047H39.1301C40.3307 16.3047 41.304 17.278 41.304 18.4786V18.4786C41.304 19.0789 40.8174 19.5656 40.2171 19.5656H9.97031C9.26615 19.5656 8.69531 18.9947 8.69531 18.2906V17.5797Z" fill="#DDE8F9"/>
<rect x="5.09961" y="43.3516" width="3.825" height="40.8" rx="1.275" transform="rotate(-90 5.09961 43.3516)" fill="#DDE8F9"/>
<path d="M8.92578 38.0617V18.9367C8.92578 17.5284 10.0675 16.3867 11.4758 16.3867H34.24" stroke="#3C454D" stroke-width="1.08696" stroke-linecap="round"/>
<path d="M17.1352 40.7622C17.4353 40.7622 17.6786 40.5189 17.6786 40.2188C17.6786 39.9186 17.4353 39.6753 17.1352 39.6753V40.7622ZM5.43555 40.2188V39.6753H4.89207V40.2188H5.43555ZM45.6529 40.2188H46.1964V39.6753H45.6529V40.2188ZM21.5225 39.6753C21.2223 39.6753 20.979 39.9186 20.979 40.2188C20.979 40.5189 21.2223 40.7622 21.5225 40.7622V39.6753ZM17.1352 39.6753H5.43555V40.7622H17.1352V39.6753ZM7.60946 42.9361H43.479V41.8492H7.60946V42.9361ZM45.6529 39.6753H21.5225V40.7622H45.6529V39.6753ZM43.479 42.9361C44.9798 42.9361 46.1964 41.7195 46.1964 40.2188H45.1095C45.1095 41.1192 44.3795 41.8492 43.479 41.8492V42.9361ZM4.89207 40.2188C4.89207 41.7195 6.10869 42.9361 7.60946 42.9361V41.8492C6.709 41.8492 5.97903 41.1192 5.97903 40.2188H4.89207Z" fill="#F3F5FF"/>
<path d="M17.1352 40.2188H5.43555V40.9296C5.43555 42.3379 6.57722 43.4796 7.98555 43.4796H43.1029C44.5113 43.4796 45.6529 42.3379 45.6529 40.9296V40.2188H21.5225" stroke="#3C454D" stroke-width="1.08696" stroke-linecap="round"/>
<path d="M2.54883 43.4766L48.4488 43.4766" stroke="#3C454D" stroke-width="1.08696" stroke-linecap="round"/>
<rect x="27.1738" y="22.8242" width="9.78261" height="10.8696" rx="2.55" fill="white" stroke="#5B96EE" stroke-width="1.08696" stroke-linecap="round" stroke-dasharray="1.27 2.55"/>
<path d="M40.9878 38.0617V28.6502V18.9367C40.9878 17.5284 39.8461 16.3867 38.4378 16.3867H37.5" stroke="#3C454D" stroke-width="1.08696" stroke-linecap="round"/>
<rect x="26.7754" y="1.41016" width="1.275" height="1.275" rx="0.6375" fill="#5B96EE"/>
<rect x="43.3516" y="1.41016" width="1.275" height="1.275" rx="0.6375" fill="#5B96EE"/>
<path fill-rule="evenodd" clip-rule="evenodd" d="M31.2376 5.23438C30.8855 5.23438 30.6001 5.51979 30.6001 5.87188V6.51118H29.9617C29.6096 6.51118 29.3242 6.79659 29.3242 7.14868C29.3242 7.50076 29.6096 7.78618 29.9617 7.78618H30.6001V8.42188C30.6001 8.77396 30.8855 9.05938 31.2376 9.05938C31.5897 9.05938 31.8751 8.77396 31.8751 8.42187V7.78618H32.5117C32.8638 7.78618 33.1492 7.50076 33.1492 7.14868C33.1492 6.79659 32.8638 6.51118 32.5117 6.51118H31.8751V5.87188C31.8751 5.51979 31.5897 5.23438 31.2376 5.23438Z" fill="#5B96EE"/>
<rect x="38.6348" y="3.6875" width="3.825" height="6.08781" rx="1.275" transform="rotate(128.875 38.6348 3.6875)" fill="white"/>
<rect x="49.6758" y="12.5898" width="3.825" height="14.184" rx="1.275" transform="rotate(128.875 49.6758 12.5898)" fill="#5B96EE"/>
<rect x="48.9116" y="12.6719" width="2.73804" height="19.183" rx="0.731522" transform="rotate(128.875 48.9116 12.6719)" stroke="#3C454D" stroke-width="1.08696"/>
</svg>
