<svg width="15" height="15" viewBox="0 0 15 15" fill="none" xmlns="http://www.w3.org/2000/svg">
<g clip-path="url(#clip0_4447_25748)">
<path d="M8.13867 5.76172V3.76172C8.13867 3.36389 7.98064 2.98236 7.69933 2.70106C7.41803 2.41975 7.0365 2.26172 6.63867 2.26172L4.63867 6.76172V12.2617H10.2787C10.5198 12.2644 10.7539 12.1799 10.9376 12.0237C11.1214 11.8675 11.2425 11.6502 11.2787 11.4117L11.9687 6.91172C11.9904 6.7684 11.9808 6.62206 11.9403 6.48284C11.8999 6.34363 11.8297 6.21487 11.7346 6.10548C11.6395 5.99609 11.5217 5.90868 11.3895 5.84933C11.2572 5.78997 11.1136 5.76008 10.9687 5.76172H8.13867ZM4.63867 12.2617H3.13867C2.87346 12.2617 2.6191 12.1564 2.43157 11.9688C2.24403 11.7813 2.13867 11.5269 2.13867 11.2617V7.76172C2.13867 7.4965 2.24403 7.24215 2.43157 7.05461C2.6191 6.86708 2.87346 6.76172 3.13867 6.76172H4.63867" fill="#FFE3B0"/>
<path d="M4.63867 12.2617H3.13867C2.87346 12.2617 2.6191 12.1564 2.43157 11.9688C2.24403 11.7813 2.13867 11.5269 2.13867 11.2617V7.76172C2.13867 7.4965 2.24403 7.24215 2.43157 7.05461C2.6191 6.86708 2.87346 6.76172 3.13867 6.76172H4.63867M8.13867 5.76172V3.76172C8.13867 3.36389 7.98064 2.98236 7.69933 2.70106C7.41803 2.41975 7.0365 2.26172 6.63867 2.26172L4.63867 6.76172V12.2617H10.2787C10.5198 12.2644 10.7539 12.1799 10.9376 12.0237C11.1214 11.8675 11.2425 11.6502 11.2787 11.4117L11.9687 6.91172C11.9904 6.7684 11.9808 6.62206 11.9403 6.48284C11.8999 6.34363 11.8297 6.21487 11.7346 6.10548C11.6395 5.99609 11.5217 5.90868 11.3895 5.84933C11.2572 5.78997 11.1136 5.76008 10.9687 5.76172H8.13867Z" stroke="#3C454D" stroke-linecap="round" stroke-linejoin="round"/>
<path d="M7.52244 6.7117V5.31171C7.52244 5.03324 7.4148 4.76617 7.22321 4.56925C7.03162 4.37234 6.77177 4.26172 6.50082 4.26172L5.13867 7.4117V11.2617H9.97994C10.1442 11.2636 10.3036 11.2044 10.4287 11.0951C10.5539 10.9857 10.6364 10.8336 10.661 10.6667L11.131 7.5167C11.1458 7.41637 11.1392 7.31394 11.1117 7.21649C11.0841 7.11904 11.0363 7.0289 10.9715 6.95233C10.9068 6.87576 10.8265 6.81458 10.7365 6.77303C10.6464 6.73148 10.5486 6.71055 10.4499 6.7117H7.52244Z" fill="#FFF7E9"/>
</g>
<defs>
<clipPath id="clip0_4447_25748">
<rect width="12" height="12" fill="white" transform="translate(1.13867 1.26172)"/>
</clipPath>
</defs>
</svg>
