<svg width="20" height="20" viewBox="0 0 20 20" fill="none" xmlns="http://www.w3.org/2000/svg">
<circle cx="10" cy="10" r="9" fill="white" stroke="#5B96EE" stroke-width="2"/>
<circle r="1.5" transform="matrix(1 0 0 -1 10 10)" fill="#5B96EE" stroke="#5B96EE"/>
<path d="M1.66699 9.99998C1.66699 14.6 5.40033 18.3333 10.0003 18.3333C14.6003 18.3333 18.3337 14.6 18.3337 9.99998C18.3337 5.39998 14.6003 1.66664 10.0003 1.66664C5.40033 1.66664 1.66699 5.39998 1.66699 9.99998ZM10.0003 16.6666C6.31699 16.6666 3.33366 13.6833 3.33366 9.99998C3.33366 8.45831 3.85866 7.04165 4.74199 5.91665L14.0837 15.2583C12.9587 16.1416 11.542 16.6666 10.0003 16.6666ZM16.667 9.99998C16.667 11.5416 16.142 12.9583 15.2587 14.0833L5.91699 4.74165C7.04199 3.85831 8.45866 3.33331 10.0003 3.33331C13.6837 3.33331 16.667 6.31664 16.667 9.99998Z" fill="#E1456D"/>
</svg>
