<svg width="215" height="28" viewBox="0 0 215 28" fill="none" xmlns="http://www.w3.org/2000/svg">
<circle cx="13.5" cy="14.4988" r="11.25" transform="rotate(-90 13.5 14.4988)" fill="white" stroke="#5B96EE" stroke-width="3.125"/>
<circle r="2.03125" transform="matrix(-4.37114e-08 -1 -1 4.37114e-08 13.5 14.5012)" fill="#5B96EE" stroke="#5B96EE" stroke-width="1.5625"/>
<path d="M13.5003 24.9167C19.2503 24.9167 23.917 20.2501 23.917 14.5001C23.917 8.75008 19.2503 4.08341 13.5003 4.08341C7.75032 4.08341 3.08365 8.75008 3.08366 14.5001C3.08366 20.2501 7.75032 24.9167 13.5003 24.9167ZM21.8337 14.5001C21.8337 19.1042 18.1045 22.8334 13.5003 22.8334C11.5732 22.8334 9.80241 22.1772 8.39616 21.073L20.0732 9.39591C21.1774 10.8022 21.8337 12.573 21.8337 14.5001ZM13.5003 6.16675C15.4274 6.16675 17.1982 6.823 18.6045 7.92716L6.92741 19.6042C5.82324 18.198 5.16699 16.4272 5.16699 14.5001C5.16699 9.89591 8.89616 6.16675 13.5003 6.16675Z" fill="#D80032"/>
<path d="M37.0879 27.441V12.453C37.0879 11.9324 37.0711 11.4034 37.0375 10.866C37.004 10.3286 36.9536 9.79964 36.8864 9.27905H39.9344L40.2115 11.9492H39.9344C40.1863 11.0591 40.7153 10.3538 41.5214 9.83323C42.3442 9.29584 43.2931 9.02715 44.3678 9.02715C45.493 9.02715 46.4754 9.29584 47.3151 9.83323C48.1547 10.3538 48.8097 11.1095 49.2799 12.1003C49.7501 13.0743 49.9852 14.2499 49.9852 15.6269C49.9852 17.004 49.7501 18.1879 49.2799 19.1787C48.8097 20.1695 48.1547 20.9336 47.3151 21.471C46.4754 21.9916 45.493 22.2519 44.3678 22.2519C43.3098 22.2519 42.3778 21.9916 41.5717 21.471C40.7657 20.9504 40.2283 20.2535 39.9596 19.3802H40.2367V27.441H37.0879ZM43.4862 19.8337C44.4938 19.8337 45.2999 19.4894 45.9044 18.8009C46.509 18.0955 46.8113 17.0376 46.8113 15.6269C46.8113 14.2163 46.509 13.1667 45.9044 12.4782C45.2999 11.7897 44.4938 11.4454 43.4862 11.4454C42.4954 11.4454 41.6977 11.7897 41.0931 12.4782C40.4886 13.1667 40.1863 14.2163 40.1863 15.6269C40.1863 17.0376 40.4886 18.0955 41.0931 18.8009C41.6977 19.4894 42.4954 19.8337 43.4862 19.8337ZM57.9482 22.2519C56.6383 22.2519 55.5048 21.9832 54.5475 21.4458C53.5903 20.9084 52.843 20.1443 52.3056 19.1535C51.785 18.1627 51.5247 16.9872 51.5247 15.6269C51.5247 14.2667 51.785 13.0995 52.3056 12.1255C52.843 11.1347 53.5903 10.3706 54.5475 9.83323C55.5048 9.29584 56.6383 9.02715 57.9482 9.02715C59.2581 9.02715 60.3916 9.29584 61.3488 9.83323C62.3229 10.3706 63.0702 11.1347 63.5908 12.1255C64.1281 13.0995 64.3968 14.2667 64.3968 15.6269C64.3968 16.9872 64.1281 18.1627 63.5908 19.1535C63.0702 20.1443 62.3229 20.9084 61.3488 21.4458C60.3916 21.9832 59.2581 22.2519 57.9482 22.2519ZM57.9482 19.8337C58.939 19.8337 59.7283 19.4894 60.3161 18.8009C60.9038 18.0955 61.1977 17.0376 61.1977 15.6269C61.1977 14.2163 60.9038 13.1667 60.3161 12.4782C59.7283 11.7897 58.939 11.4454 57.9482 11.4454C56.9574 11.4454 56.1681 11.7897 55.5803 12.4782C54.9926 13.1667 54.6987 14.2163 54.6987 15.6269C54.6987 17.0376 54.9926 18.0955 55.5803 18.8009C56.1681 19.4894 56.9574 19.8337 57.9482 19.8337ZM66.6084 27.441V12.453C66.6084 11.9324 66.5916 11.4034 66.5581 10.866C66.5245 10.3286 66.4741 9.79964 66.4069 9.27905H69.4549L69.732 11.9492H69.4549C69.7068 11.0591 70.2358 10.3538 71.0419 9.83323C71.8647 9.29584 72.8136 9.02715 73.8883 9.02715C75.0135 9.02715 75.9959 9.29584 76.8356 9.83323C77.6752 10.3538 78.3302 11.1095 78.8004 12.1003C79.2706 13.0743 79.5057 14.2499 79.5057 15.6269C79.5057 17.004 79.2706 18.1879 78.8004 19.1787C78.3302 20.1695 77.6752 20.9336 76.8356 21.471C75.9959 21.9916 75.0135 22.2519 73.8883 22.2519C72.8304 22.2519 71.8983 21.9916 71.0923 21.471C70.2862 20.9504 69.7488 20.2535 69.4801 19.3802H69.7572V27.441H66.6084ZM73.0067 19.8337C74.0143 19.8337 74.8204 19.4894 75.4249 18.8009C76.0295 18.0955 76.3318 17.0376 76.3318 15.6269C76.3318 14.2163 76.0295 13.1667 75.4249 12.4782C74.8204 11.7897 74.0143 11.4454 73.0067 11.4454C72.0159 11.4454 71.2182 11.7897 70.6136 12.4782C70.0091 13.1667 69.7068 14.2163 69.7068 15.6269C69.7068 17.0376 70.0091 18.0955 70.6136 18.8009C71.2182 19.4894 72.0159 19.8337 73.0067 19.8337ZM87.8717 22.2519C85.739 22.2519 84.0681 21.6641 82.8589 20.4886C81.6498 19.3131 81.0453 17.7009 81.0453 15.6521C81.0453 14.3254 81.3056 13.1667 81.8261 12.1759C82.3467 11.1851 83.0689 10.4126 83.9925 9.85842C84.9329 9.30424 86.0245 9.02715 87.2672 9.02715C88.4931 9.02715 89.5175 9.28745 90.3404 9.80804C91.1632 10.3286 91.7846 11.0591 92.2044 11.9996C92.6411 12.94 92.8594 14.04 92.8594 15.2995V16.1307H83.5894V14.4682H90.6175L90.1892 14.8208C90.1892 13.6453 89.9373 12.7469 89.4335 12.1255C88.9465 11.5042 88.2328 11.1935 87.2924 11.1935C86.2512 11.1935 85.4451 11.5629 84.8741 12.3019C84.32 13.0408 84.0429 14.0735 84.0429 15.4002V15.7277C84.0429 17.1047 84.3787 18.1375 85.0505 18.8261C85.739 19.4978 86.7046 19.8337 87.9473 19.8337C88.6694 19.8337 89.3412 19.7413 89.9625 19.5566C90.6007 19.3551 91.2052 19.036 91.7762 18.5994L92.7082 20.7153C92.1037 21.2023 91.3816 21.5802 90.5419 21.8489C89.7022 22.1176 88.8122 22.2519 87.8717 22.2519ZM94.9968 22V12.5286C94.9968 11.9912 94.98 11.4454 94.9464 10.8912C94.9296 10.337 94.8876 9.79964 94.8204 9.27905H97.8684L98.2211 12.7553H97.7173C97.8852 11.9156 98.1623 11.2187 98.5486 10.6645C98.9516 10.1103 99.4386 9.69888 100.01 9.43019C100.581 9.1615 101.202 9.02715 101.874 9.02715C102.176 9.02715 102.419 9.04394 102.604 9.07753C102.789 9.09432 102.974 9.13631 103.158 9.20348L103.133 11.9744C102.814 11.84 102.537 11.7561 102.302 11.7225C102.084 11.6889 101.806 11.6721 101.471 11.6721C100.748 11.6721 100.136 11.8232 99.6317 12.1255C99.1447 12.4278 98.7753 12.8476 98.5234 13.385C98.2883 13.9224 98.1707 14.5354 98.1707 15.2239V22H94.9968ZM118.096 22.2519C117.021 22.2519 116.081 21.9916 115.275 21.471C114.468 20.9336 113.931 20.2115 113.662 19.3047H113.939V22H110.816V3.46016H113.965V11.8736H113.662C113.948 11.0004 114.494 10.3118 115.3 9.80804C116.106 9.28745 117.038 9.02715 118.096 9.02715C119.221 9.02715 120.203 9.29584 121.043 9.83323C121.883 10.3706 122.538 11.1347 123.008 12.1255C123.478 13.0995 123.713 14.2751 123.713 15.6521C123.713 17.0292 123.478 18.2131 123.008 19.2039C122.538 20.1779 121.874 20.9336 121.018 21.471C120.178 21.9916 119.204 22.2519 118.096 22.2519ZM117.214 19.8337C118.205 19.8337 119.003 19.4894 119.607 18.8009C120.229 18.1123 120.539 17.0628 120.539 15.6521C120.539 14.2415 120.229 13.1919 119.607 12.5034C119.003 11.7981 118.205 11.4454 117.214 11.4454C116.223 11.4454 115.426 11.7897 114.821 12.4782C114.217 13.1667 113.914 14.2163 113.914 15.6269C113.914 17.0376 114.217 18.0955 114.821 18.8009C115.426 19.4894 116.223 19.8337 117.214 19.8337ZM125.933 22V3.46016H129.082V22H125.933ZM137.74 22.2519C136.431 22.2519 135.297 21.9832 134.34 21.4458C133.383 20.9084 132.635 20.1443 132.098 19.1535C131.577 18.1627 131.317 16.9872 131.317 15.6269C131.317 14.2667 131.577 13.0995 132.098 12.1255C132.635 11.1347 133.383 10.3706 134.34 9.83323C135.297 9.29584 136.431 9.02715 137.74 9.02715C139.05 9.02715 140.184 9.29584 141.141 9.83323C142.115 10.3706 142.862 11.1347 143.383 12.1255C143.92 13.0995 144.189 14.2667 144.189 15.6269C144.189 16.9872 143.92 18.1627 143.383 19.1535C142.862 20.1443 142.115 20.9084 141.141 21.4458C140.184 21.9832 139.05 22.2519 137.74 22.2519ZM137.74 19.8337C138.731 19.8337 139.521 19.4894 140.108 18.8009C140.696 18.0955 140.99 17.0376 140.99 15.6269C140.99 14.2163 140.696 13.1667 140.108 12.4782C139.521 11.7897 138.731 11.4454 137.74 11.4454C136.75 11.4454 135.96 11.7897 135.373 12.4782C134.785 13.1667 134.491 14.2163 134.491 15.6269C134.491 17.0376 134.785 18.0955 135.373 18.8009C135.96 19.4894 136.75 19.8337 137.74 19.8337ZM152.245 22.2519C150.935 22.2519 149.785 21.9832 148.794 21.4458C147.82 20.9084 147.064 20.1443 146.527 19.1535C145.989 18.1459 145.721 16.9536 145.721 15.5765C145.721 14.1995 145.989 13.024 146.527 12.05C147.081 11.0759 147.845 10.3286 148.819 9.80804C149.793 9.28745 150.935 9.02715 152.245 9.02715C153.084 9.02715 153.899 9.1615 154.688 9.43019C155.494 9.68209 156.149 10.0515 156.653 10.5386L155.696 12.7301C155.242 12.3102 154.73 11.9996 154.159 11.798C153.605 11.5797 153.059 11.4706 152.522 11.4706C151.397 11.4706 150.515 11.8232 149.877 12.5286C149.256 13.2339 148.945 14.2583 148.945 15.6017C148.945 16.9452 149.256 17.978 149.877 18.7001C150.515 19.4222 151.397 19.7833 152.522 19.7833C153.042 19.7833 153.58 19.6825 154.134 19.481C154.705 19.2795 155.226 18.9688 155.696 18.549L156.653 20.7153C156.132 21.2023 155.469 21.5802 154.663 21.8489C153.874 22.1176 153.068 22.2519 152.245 22.2519ZM158.59 22V3.46016H161.739V14.6949H161.789L166.953 9.27905H170.757L164.334 16.0048L164.359 14.7453L171.21 22H167.306L161.789 16.3071H161.739V22H158.59ZM177.886 22.2519C175.753 22.2519 174.082 21.6641 172.873 20.4886C171.664 19.3131 171.059 17.7009 171.059 15.6521C171.059 14.3254 171.319 13.1667 171.84 12.1759C172.361 11.1851 173.083 10.4126 174.006 9.85842C174.947 9.30424 176.038 9.02715 177.281 9.02715C178.507 9.02715 179.531 9.28745 180.354 9.80804C181.177 10.3286 181.798 11.0591 182.218 11.9996C182.655 12.94 182.873 14.04 182.873 15.2995V16.1307H173.603V14.4682H180.631L180.203 14.8208C180.203 13.6453 179.951 12.7469 179.447 12.1255C178.96 11.5042 178.247 11.1935 177.306 11.1935C176.265 11.1935 175.459 11.5629 174.888 12.3019C174.334 13.0408 174.057 14.0735 174.057 15.4002V15.7277C174.057 17.1047 174.393 18.1375 175.064 18.8261C175.753 19.4978 176.719 19.8337 177.961 19.8337C178.683 19.8337 179.355 19.7413 179.976 19.5566C180.615 19.3551 181.219 19.036 181.79 18.5994L182.722 20.7153C182.118 21.2023 181.395 21.5802 180.556 21.8489C179.716 22.1176 178.826 22.2519 177.886 22.2519ZM185.011 22V12.5286C185.011 11.9912 184.994 11.4454 184.96 10.8912C184.944 10.337 184.902 9.79964 184.834 9.27905H187.882L188.235 12.7553H187.731C187.899 11.9156 188.176 11.2187 188.562 10.6645C188.966 10.1103 189.453 9.69888 190.023 9.43019C190.594 9.1615 191.216 9.02715 191.888 9.02715C192.19 9.02715 192.433 9.04394 192.618 9.07753C192.803 9.09432 192.988 9.13631 193.172 9.20348L193.147 11.9744C192.828 11.84 192.551 11.7561 192.316 11.7225C192.097 11.6889 191.82 11.6721 191.485 11.6721C190.762 11.6721 190.149 11.8232 189.646 12.1255C189.159 12.4278 188.789 12.8476 188.537 13.385C188.302 13.9224 188.185 14.5354 188.185 15.2239V22H185.011Z" fill="#D80032"/>
</svg>
