<svg width="22" height="22" viewBox="0 0 22 22" fill="none" xmlns="http://www.w3.org/2000/svg">
<circle cx="11.0016" cy="10.9996" r="9.9" fill="white" stroke="#5B96EE" stroke-width="2"/>
<circle r="1.6" transform="matrix(1 0 0 -1 10.9984 10.9996)" fill="#5B96EE" stroke="#5B96EE"/>
<path d="M1.83398 11.0003C1.83398 16.0603 5.94065 20.167 11.0007 20.167C16.0607 20.167 20.1673 16.0603 20.1673 11.0003C20.1673 5.94032 16.0607 1.83366 11.0006 1.83366C5.94065 1.83366 1.83398 5.94033 1.83398 11.0003ZM11.0007 18.3337C6.94898 18.3337 3.66732 15.052 3.66732 11.0003C3.66732 9.30449 4.24482 7.74616 5.21648 6.50866L15.4923 16.7845C14.2548 17.7562 12.6965 18.3337 11.0007 18.3337ZM18.334 11.0003C18.334 12.6962 17.7565 14.2545 16.7848 15.492L6.50898 5.21616C7.74648 4.24449 9.30482 3.66699 11.0006 3.66699C15.0523 3.66699 18.334 6.94866 18.334 11.0003Z" fill="#D80032"/>
</svg>
