<svg width="22" height="22" viewBox="0 0 22 22" fill="none" xmlns="http://www.w3.org/2000/svg">
<circle cx="11" cy="11" r="9" transform="rotate(-90 11 11)" fill="white" stroke="#5B96EE" stroke-width="2.5"/>
<circle r="1.625" transform="matrix(-4.37114e-08 -1 -1 4.37114e-08 11 11)" fill="#5B96EE" stroke="#5B96EE" stroke-width="1.25"/>
<path d="M11.0007 19.3335C15.6007 19.3335 19.334 15.6002 19.334 11.0002C19.334 6.40016 15.6006 2.66683 11.0006 2.66683C6.40065 2.66683 2.66732 6.40016 2.66732 11.0002C2.66732 15.6002 6.40065 19.3335 11.0007 19.3335ZM17.6673 11.0002C17.6673 14.6835 14.684 17.6668 11.0007 17.6668C9.45898 17.6668 8.04232 17.1418 6.91732 16.2585L16.259 6.91683C17.1423 8.04183 17.6673 9.4585 17.6673 11.0002ZM11.0006 4.3335C12.5423 4.3335 13.959 4.8585 15.084 5.74183L5.74232 15.0835C4.85898 13.9585 4.33398 12.5418 4.33398 11.0002C4.33398 7.31683 7.31732 4.3335 11.0006 4.3335Z" fill="#D80032"/>
</svg>
