<svg width="128" height="128" viewBox="0 0 128 128" fill="none" xmlns="http://www.w3.org/2000/svg">
<rect width="128" height="128" rx="64" fill="white"/>
<circle cx="63.9986" cy="63.9996" r="45.9" transform="rotate(-90 63.9986 63.9996)" fill="white" stroke="#5B96EE" stroke-width="12.75"/>
<circle r="8.2875" transform="matrix(-4.37114e-08 -1 -1 4.37114e-08 63.9986 64.0003)" fill="#5B96EE" stroke="#5B96EE" stroke-width="6.375"/>
<path d="M64.002 106.5C87.462 106.5 106.502 87.4605 106.502 64.0005C106.502 40.5405 87.4619 21.5005 64.0019 21.5005C40.5419 21.5005 21.5019 40.5405 21.5019 64.0005C21.502 87.4605 40.542 106.5 64.002 106.5ZM98.0019 64.0005C98.002 82.7855 82.787 98.0005 64.002 98.0005C56.1395 98.0005 48.9145 95.323 43.177 90.818L90.8194 43.1755C95.3244 48.913 98.0019 56.138 98.0019 64.0005ZM64.0019 30.0005C71.8644 30.0005 79.0894 32.678 84.8269 37.183L37.1845 84.8255C32.6795 79.088 30.002 71.863 30.0019 64.0005C30.0019 45.2155 45.2169 30.0005 64.0019 30.0005Z" fill="#D80032"/>
</svg>
