<svg width="26" height="47" viewBox="0 0 26 47" fill="none" xmlns="http://www.w3.org/2000/svg">
<rect x="22.3223" y="7.35352" width="2" height="2" rx="1" transform="rotate(100.172 22.3223 7.35352)" fill="#FFC866"/>
<rect x="17.3223" y="11.3535" width="2" height="2" rx="1" transform="rotate(100.172 17.3223 11.3535)" fill="#FFC866"/>
<rect x="2.32227" y="37.3535" width="2" height="2" rx="1" transform="rotate(100.172 2.32227 37.3535)" fill="#FFC866"/>
<rect x="25.6465" y="42.3291" width="5.31982" height="34.0504" rx="1" transform="rotate(151.301 25.6465 42.3291)" fill="white"/>
<rect x="23.877" y="41.4814" width="2.79908" height="24.2767" rx="1" transform="rotate(151.301 23.877 41.4814)" fill="#FFC866"/>
<rect x="23.9287" y="41.7175" width="2.74536" height="31.4485" rx="0.5" transform="rotate(151.301 23.9287 41.7175)" stroke="#3C454D"/>
<path fill-rule="evenodd" clip-rule="evenodd" d="M16 2.5002C16 2.03997 15.6269 1.66687 15.1667 1.66687L14.3341 1.66687L14.3341 0.833333C14.3341 0.373096 13.9611 -8.91253e-08 13.5008 -1.09243e-07C13.0406 -1.29361e-07 12.6675 0.373096 12.6675 0.833333L12.6675 1.66687L11.8333 1.66687C11.3731 1.66687 11 2.03997 11 2.5002C11 2.96044 11.3731 3.33354 11.8333 3.33354L12.6675 3.33354L12.6675 4.16667C12.6675 4.6269 13.0406 5 13.5008 5C13.9611 5 14.3341 4.6269 14.3341 4.16667L14.3341 3.33354L15.1667 3.33354C15.6269 3.33354 16 2.96044 16 2.5002Z" fill="#FFC866"/>
<path fill-rule="evenodd" clip-rule="evenodd" d="M9 30.5002C9 30.04 8.6269 29.6669 8.16667 29.6669L7.33415 29.6669L7.33415 28.8333C7.33415 28.3731 6.96105 28 6.50081 28C6.04058 28 5.66748 28.3731 5.66748 28.8333L5.66748 29.6669L4.83333 29.6669C4.3731 29.6669 4 30.04 4 30.5002C4 30.9604 4.3731 31.3335 4.83333 31.3335L5.66748 31.3335L5.66748 32.1667C5.66748 32.6269 6.04058 33 6.50081 33C6.96105 33 7.33415 32.6269 7.33415 32.1667L7.33415 31.3335L8.16667 31.3335C8.6269 31.3335 9 30.9604 9 30.5002Z" fill="#FFC866"/>
</svg>
