<svg width="27" height="44" viewBox="0 0 27 44" fill="none" xmlns="http://www.w3.org/2000/svg">
<mask id="path-1-outside-1_1617_4180" maskUnits="userSpaceOnUse" x="8.44922" y="13.5088" width="18" height="30" fill="black">
<rect fill="white" x="8.44922" y="13.5088" width="18" height="30"/>
<path fill-rule="evenodd" clip-rule="evenodd" d="M11.4495 17.3332L13.2003 16.509L15.4212 21.2268L13.6704 22.051L11.4495 17.3332ZM10.5447 17.7592C10.3095 17.2595 10.5238 16.6637 11.0235 16.4285L12.7744 15.6043C13.274 15.369 13.8698 15.5834 14.105 16.0831L16.326 20.8009C16.5612 21.3006 16.3468 21.8963 15.8471 22.1316L14.0963 22.9558C13.5966 23.191 13.0009 22.9766 12.7656 22.4769L10.5447 17.7592ZM14.3756 23.5492C13.8759 23.7844 13.6615 24.3802 13.8967 24.8799L21.7045 41.4655C21.9398 41.9652 22.5355 42.1796 23.0352 41.9443L24.786 41.1201C25.2857 40.8849 25.5001 40.2891 25.2649 39.7894L17.4571 23.2038C17.2219 22.7041 16.6261 22.4898 16.1264 22.725L14.3756 23.5492Z"/>
</mask>
<path fill-rule="evenodd" clip-rule="evenodd" d="M11.4495 17.3332L13.2003 16.509L15.4212 21.2268L13.6704 22.051L11.4495 17.3332ZM10.5447 17.7592C10.3095 17.2595 10.5238 16.6637 11.0235 16.4285L12.7744 15.6043C13.274 15.369 13.8698 15.5834 14.105 16.0831L16.326 20.8009C16.5612 21.3006 16.3468 21.8963 15.8471 22.1316L14.0963 22.9558C13.5966 23.191 13.0009 22.9766 12.7656 22.4769L10.5447 17.7592ZM14.3756 23.5492C13.8759 23.7844 13.6615 24.3802 13.8967 24.8799L21.7045 41.4655C21.9398 41.9652 22.5355 42.1796 23.0352 41.9443L24.786 41.1201C25.2857 40.8849 25.5001 40.2891 25.2649 39.7894L17.4571 23.2038C17.2219 22.7041 16.6261 22.4898 16.1264 22.725L14.3756 23.5492Z" fill="#073B55"/>
<path d="M13.2003 16.509L14.105 16.0831L13.6791 15.1783L12.7744 15.6043L13.2003 16.509ZM11.4495 17.3332L11.0235 16.4285L10.1188 16.8544L10.5447 17.7592L11.4495 17.3332ZM15.4212 21.2268L15.8471 22.1316L16.7519 21.7056L16.326 20.8009L15.4212 21.2268ZM13.6704 22.051L12.7656 22.4769L13.1915 23.3817L14.0963 22.9558L13.6704 22.051ZM11.0235 16.4285L11.4495 17.3332L11.0235 16.4285ZM10.5447 17.7592L9.63994 18.1851H9.63994L10.5447 17.7592ZM12.7744 15.6043L12.3484 14.6995L12.3484 14.6995L12.7744 15.6043ZM14.105 16.0831L15.0098 15.6572V15.6572L14.105 16.0831ZM16.326 20.8009L17.2307 20.375V20.375L16.326 20.8009ZM15.8471 22.1316L15.4212 21.2268L15.8471 22.1316ZM14.0963 22.9558L13.6704 22.051H13.6704L14.0963 22.9558ZM12.7656 22.4769L13.6704 22.051L13.6704 22.051L12.7656 22.4769ZM13.8967 24.8799L14.8015 24.454L13.8967 24.8799ZM14.3756 23.5492L14.8015 24.454H14.8015L14.3756 23.5492ZM21.7045 41.4655L20.7998 41.8914L21.7045 41.4655ZM23.0352 41.9443L23.4611 42.8491L23.0352 41.9443ZM24.786 41.1201L25.212 42.0249L25.212 42.0249L24.786 41.1201ZM25.2649 39.7894L24.3601 40.2154L25.2649 39.7894ZM17.4571 23.2038L18.3619 22.7779L17.4571 23.2038ZM16.1264 22.725L15.7005 21.8202H15.7005L16.1264 22.725ZM12.7744 15.6043L11.0235 16.4285L11.8754 18.238L13.6262 17.4138L12.7744 15.6043ZM16.326 20.8009L14.105 16.0831L12.2955 16.9349L14.5165 21.6527L16.326 20.8009ZM14.0963 22.9558L15.8471 22.1316L14.9953 20.3221L13.2445 21.1463L14.0963 22.9558ZM10.5447 17.7592L12.7656 22.4769L14.5751 21.6251L12.3542 16.9073L10.5447 17.7592ZM10.5976 15.5237C9.59824 15.9942 9.16948 17.1857 9.63994 18.1851L11.4495 17.3332L11.4495 17.3332L10.5976 15.5237ZM12.3484 14.6995L10.5976 15.5237L11.4495 17.3332L13.2003 16.509L12.3484 14.6995ZM15.0098 15.6572C14.5393 14.6578 13.3478 14.229 12.3484 14.6995L13.2003 16.509L13.2003 16.509L15.0098 15.6572ZM17.2307 20.375L15.0098 15.6572L13.2003 16.509L15.4212 21.2268L17.2307 20.375ZM16.2731 23.0363C17.2724 22.5659 17.7012 21.3743 17.2307 20.375L15.4212 21.2268L15.4212 21.2268L16.2731 23.0363ZM14.5222 23.8605L16.2731 23.0363L15.4212 21.2268L13.6704 22.051L14.5222 23.8605ZM11.8609 22.9029C12.3313 23.9022 13.5229 24.331 14.5222 23.8605L13.6704 22.051L13.6704 22.051L11.8609 22.9029ZM9.63994 18.1851L11.8609 22.9029L13.6704 22.051L11.4495 17.3332L9.63994 18.1851ZM14.8015 24.454L14.8015 24.454L13.9497 22.6444C12.9503 23.1149 12.5215 24.3064 12.992 25.3058L14.8015 24.454ZM22.6093 41.0396L14.8015 24.454L12.992 25.3058L20.7998 41.8914L22.6093 41.0396ZM22.6093 41.0396H22.6093L20.7998 41.8914C21.2702 42.8908 22.4618 43.3196 23.4611 42.8491L22.6093 41.0396ZM24.3601 40.2154L22.6093 41.0396L23.4611 42.8491L25.212 42.0249L24.3601 40.2154ZM24.3601 40.2154L24.3601 40.2154L25.212 42.0249C26.2113 41.5544 26.6401 40.3629 26.1696 39.3635L24.3601 40.2154ZM16.5523 23.6298L24.3601 40.2154L26.1696 39.3635L18.3619 22.7779L16.5523 23.6298ZM16.5523 23.6298H16.5523L18.3619 22.7779C17.8914 21.7785 16.6999 21.3498 15.7005 21.8202L16.5523 23.6298ZM14.8015 24.454L16.5523 23.6298L15.7005 21.8202L13.9497 22.6444L14.8015 24.454Z" fill="white" mask="url(#path-1-outside-1_1617_4180)"/>
<circle cx="18.5517" cy="1.68648" r="1.68648" fill="#FFA724"/>
<circle cx="3.93551" cy="15.1783" r="1.68648" fill="#FFA724"/>
<circle cx="1.12432" cy="21.3621" r="1.12432" fill="#FFA724"/>
<circle cx="15.7405" cy="8.43243" r="1.12432" fill="#FFA724"/>
<circle cx="21.9244" cy="11.8054" r="2.24865" fill="#FFA724"/>
</svg>
