<svg width="26" height="43" viewBox="0 0 26 43" fill="none" xmlns="http://www.w3.org/2000/svg">
<path d="M13.8969 24.8799C13.6616 24.3802 13.876 23.7844 14.3757 23.5492L16.1265 22.725C16.6262 22.4897 17.222 22.7041 17.4572 23.2038L25.265 39.7894C25.5002 40.2891 25.2859 40.8849 24.7862 41.1201L23.0353 41.9443C22.5357 42.1795 21.9399 41.9652 21.7047 41.4655L13.8969 24.8799Z" fill="#073B55"/>
<mask id="path-2-inside-1_1034_3865" fill="white">
<path d="M10.5448 17.7591C10.3096 17.2594 10.524 16.6637 11.0237 16.4284L12.7745 15.6042C13.2742 15.369 13.8699 15.5834 14.1052 16.0831L16.3261 20.8009C16.5613 21.3005 16.3469 21.8963 15.8473 22.1315L14.0964 22.9558C13.5967 23.191 13.001 22.9766 12.7657 22.4769L10.5448 17.7591Z"/>
</mask>
<path d="M14.1052 16.0831L13.2004 16.509L14.1052 16.0831ZM11.4496 17.3332L13.2004 16.509L12.3486 14.6995L10.5977 15.5237L11.4496 17.3332ZM13.2004 16.509L15.4213 21.2268L17.2309 20.3749L15.0099 15.6572L13.2004 16.509ZM15.4213 21.2268L13.6705 22.051L14.5224 23.8605L16.2732 23.0363L15.4213 21.2268ZM13.6705 22.051L11.4496 17.3332L9.64006 18.1851L11.861 22.9028L13.6705 22.051ZM13.6705 22.051L13.6705 22.051L11.861 22.9028C12.3314 23.9022 13.523 24.331 14.5224 23.8605L13.6705 22.051ZM15.4213 21.2268L15.4213 21.2268L16.2732 23.0363C17.2726 22.5658 17.7013 21.3743 17.2309 20.3749L15.4213 21.2268ZM13.2004 16.509L13.2004 16.509L15.0099 15.6572C14.5395 14.6578 13.3479 14.229 12.3486 14.6995L13.2004 16.509ZM10.5977 15.5237C9.59836 15.9941 9.1696 17.1857 9.64006 18.1851L11.4496 17.3332L11.4496 17.3332L10.5977 15.5237Z" fill="#073B55" mask="url(#path-2-inside-1_1034_3865)"/>
<circle cx="18.5512" cy="1.68648" r="1.68648" fill="#FFA724"/>
<circle cx="3.93502" cy="15.1783" r="1.68648" fill="#FFA724"/>
<circle cx="1.12432" cy="21.3621" r="1.12432" fill="#FFA724"/>
<circle cx="15.7405" cy="8.43243" r="1.12432" fill="#FFA724"/>
<circle cx="21.9242" cy="11.8054" r="2.24865" fill="#FFA724"/>
</svg>
