<svg width="40" height="40" viewBox="0 0 40 40" fill="none" xmlns="http://www.w3.org/2000/svg">
<rect x="10" y="33" width="21" height="27" rx="1" transform="rotate(-90 10 33)" fill="#F3F5FF"/>
<path d="M27.0526 12H35C36.1046 12 37 12.8954 37 14V30C37 31.1046 36.1046 32 35 32H11.3333C10.597 32 10 31.403 10 30.6667V30.6667" stroke="#DDE8F9" stroke-linecap="round"/>
<path d="M24.625 12H35C36.1046 12 37 12.8954 37 14V31C37 32.1046 36.1046 33 35 33H12C10.8954 33 10 32.1046 10 31V28.5789" stroke="#3C454D" stroke-linecap="round"/>
<rect x="33.5" y="14.5" width="1" height="1" rx="0.5" fill="#5B96EE" stroke="#3C454D"/>
<rect x="20" y="29" width="7" height="1" rx="0.5" fill="#5B96EE"/>
<rect x="14" y="26" width="19" height="1" rx="0.5" fill="#5B96EE"/>
<rect x="14" y="24" width="19" height="1" rx="0.5" fill="#5B96EE"/>
<rect x="14" y="22" width="19" height="1" rx="0.5" fill="#5B96EE"/>
<rect x="25" y="18" width="10" height="1" rx="0.5" fill="#3C454D"/>
<path d="M9 33L39 33" stroke="#3C454D" stroke-linecap="round"/>
<path d="M2 33H6" stroke="#3C454D" stroke-linecap="round"/>
<rect opacity="0.5" x="10" y="33" width="21" height="27" rx="1" transform="rotate(-90 10 33)" fill="#3C454D"/>
<circle cx="13" cy="16" r="9" fill="white" stroke="#5B96EE" stroke-width="2"/>
<circle r="1.5" transform="matrix(1 0 0 -1 13 16)" fill="#5B96EE" stroke="#5B96EE"/>
<path d="M4.66699 16C4.66699 20.6 8.40033 24.3333 13.0003 24.3333C17.6003 24.3333 21.3337 20.6 21.3337 16C21.3337 11.4 17.6003 7.66666 13.0003 7.66666C8.40033 7.66666 4.66699 11.4 4.66699 16ZM13.0003 22.6667C9.31699 22.6667 6.33366 19.6833 6.33366 16C6.33366 14.4583 6.85866 13.0417 7.74199 11.9167L17.0837 21.2583C15.9587 22.1417 14.542 22.6667 13.0003 22.6667ZM19.667 16C19.667 17.5417 19.142 18.9583 18.2587 20.0833L8.91699 10.7417C10.042 9.85833 11.4587 9.33333 13.0003 9.33333C16.6837 9.33333 19.667 12.3167 19.667 16Z" fill="#EE305C"/>
</svg>
