<svg width="18" height="18" viewBox="0 0 18 18" fill="none" xmlns="http://www.w3.org/2000/svg">
<circle cx="8.99981" cy="8.99995" r="7.2" transform="rotate(-90 8.99981 8.99995)" fill="white" stroke="#5B96EE" stroke-width="2"/>
<circle r="1.3" transform="matrix(-4.37114e-08 -1 -1 4.37114e-08 8.9998 9.00005)" fill="#5B96EE" stroke="#5B96EE"/>
<path d="M9.00008 15.6667C12.6801 15.6667 15.6667 12.68 15.6667 9.00002C15.6667 5.32002 12.6801 2.33335 9.00008 2.33335C5.32008 2.33335 2.33341 5.32002 2.33341 9.00002C2.33341 12.68 5.32008 15.6667 9.00008 15.6667ZM14.3334 9.00002C14.3334 11.9467 11.9467 14.3334 9.00008 14.3334C7.76675 14.3334 6.63341 13.9134 5.73341 13.2067L13.2067 5.73335C13.9134 6.63335 14.3334 7.76669 14.3334 9.00002ZM9.00008 3.66669C10.2334 3.66669 11.3667 4.08669 12.2667 4.79335L4.79341 12.2667C4.08675 11.3667 3.66675 10.2334 3.66675 9.00002C3.66675 6.05335 6.05341 3.66669 9.00008 3.66669Z" fill="#D80032"/>
</svg>
