<svg width="110" height="18" viewBox="0 0 110 18" fill="none" xmlns="http://www.w3.org/2000/svg">
<circle cx="8.99981" cy="8.99995" r="7.2" transform="rotate(-90 8.99981 8.99995)" fill="white" stroke="#5B96EE" stroke-width="2"/>
<circle r="1.3" transform="matrix(-4.37114e-08 -1 -1 4.37114e-08 8.9998 9.00005)" fill="#5B96EE" stroke="#5B96EE"/>
<path d="M9.00008 15.6667C12.6801 15.6667 15.6667 12.68 15.6667 9.00002C15.6667 5.32002 12.6801 2.33335 9.00008 2.33335C5.32008 2.33335 2.33341 5.32002 2.33341 9.00002C2.33341 12.68 5.32008 15.6667 9.00008 15.6667ZM14.3334 9.00002C14.3334 11.9467 11.9467 14.3334 9.00008 14.3334C7.76675 14.3334 6.63341 13.9134 5.73341 13.2067L13.2067 5.73335C13.9134 6.63335 14.3334 7.76669 14.3334 9.00002ZM9.00008 3.66669C10.2334 3.66669 11.3667 4.08669 12.2667 4.79335L4.79341 12.2667C4.08675 11.3667 3.66675 10.2334 3.66675 9.00002C3.66675 6.05335 6.05341 3.66669 9.00008 3.66669Z" fill="#D80032"/>
<path d="M23.748 14.376V7.831C23.748 7.60367 23.7407 7.37267 23.726 7.138C23.7113 6.90333 23.6893 6.67233 23.66 6.445H24.991L25.112 7.611H24.991C25.101 7.22233 25.332 6.91433 25.684 6.687C26.0433 6.45233 26.4577 6.335 26.927 6.335C27.4183 6.335 27.8473 6.45233 28.214 6.687C28.5807 6.91433 28.8667 7.24433 29.072 7.677C29.2773 8.10233 29.38 8.61567 29.38 9.217C29.38 9.81833 29.2773 10.3353 29.072 10.768C28.8667 11.2007 28.5807 11.5343 28.214 11.769C27.8473 11.9963 27.4183 12.11 26.927 12.11C26.465 12.11 26.058 11.9963 25.706 11.769C25.354 11.5417 25.1193 11.2373 25.002 10.856H25.123V14.376H23.748ZM26.542 11.054C26.982 11.054 27.334 10.9037 27.598 10.603C27.862 10.295 27.994 9.833 27.994 9.217C27.994 8.601 27.862 8.14267 27.598 7.842C27.334 7.54133 26.982 7.391 26.542 7.391C26.1093 7.391 25.761 7.54133 25.497 7.842C25.233 8.14267 25.101 8.601 25.101 9.217C25.101 9.833 25.233 10.295 25.497 10.603C25.761 10.9037 26.1093 11.054 26.542 11.054ZM32.8573 12.11C32.2853 12.11 31.7903 11.9927 31.3723 11.758C30.9543 11.5233 30.628 11.1897 30.3933 10.757C30.166 10.3243 30.0523 9.811 30.0523 9.217C30.0523 8.623 30.166 8.11333 30.3933 7.688C30.628 7.25533 30.9543 6.92167 31.3723 6.687C31.7903 6.45233 32.2853 6.335 32.8573 6.335C33.4293 6.335 33.9243 6.45233 34.3423 6.687C34.7676 6.92167 35.094 7.25533 35.3213 7.688C35.556 8.11333 35.6733 8.623 35.6733 9.217C35.6733 9.811 35.556 10.3243 35.3213 10.757C35.094 11.1897 34.7676 11.5233 34.3423 11.758C33.9243 11.9927 33.4293 12.11 32.8573 12.11ZM32.8573 11.054C33.29 11.054 33.6346 10.9037 33.8913 10.603C34.148 10.295 34.2763 9.833 34.2763 9.217C34.2763 8.601 34.148 8.14267 33.8913 7.842C33.6346 7.54133 33.29 7.391 32.8573 7.391C32.4246 7.391 32.08 7.54133 31.8233 7.842C31.5666 8.14267 31.4383 8.601 31.4383 9.217C31.4383 9.833 31.5666 10.295 31.8233 10.603C32.08 10.9037 32.4246 11.054 32.8573 11.054ZM36.6391 14.376V7.831C36.6391 7.60367 36.6317 7.37267 36.6171 7.138C36.6024 6.90333 36.5804 6.67233 36.5511 6.445H37.8821L38.0031 7.611H37.8821C37.9921 7.22233 38.2231 6.91433 38.5751 6.687C38.9344 6.45233 39.3487 6.335 39.8181 6.335C40.3094 6.335 40.7384 6.45233 41.1051 6.687C41.4717 6.91433 41.7577 7.24433 41.9631 7.677C42.1684 8.10233 42.2711 8.61567 42.2711 9.217C42.2711 9.81833 42.1684 10.3353 41.9631 10.768C41.7577 11.2007 41.4717 11.5343 41.1051 11.769C40.7384 11.9963 40.3094 12.11 39.8181 12.11C39.3561 12.11 38.9491 11.9963 38.5971 11.769C38.2451 11.5417 38.0104 11.2373 37.8931 10.856H38.0141V14.376H36.6391ZM39.4331 11.054C39.8731 11.054 40.2251 10.9037 40.4891 10.603C40.7531 10.295 40.8851 9.833 40.8851 9.217C40.8851 8.601 40.7531 8.14267 40.4891 7.842C40.2251 7.54133 39.8731 7.391 39.4331 7.391C39.0004 7.391 38.6521 7.54133 38.3881 7.842C38.1241 8.14267 37.9921 8.601 37.9921 9.217C37.9921 9.833 38.1241 10.295 38.3881 10.603C38.6521 10.9037 39.0004 11.054 39.4331 11.054ZM45.9243 12.11C44.993 12.11 44.2633 11.8533 43.7353 11.34C43.2073 10.8267 42.9433 10.1227 42.9433 9.228C42.9433 8.64867 43.057 8.14267 43.2843 7.71C43.5117 7.27733 43.827 6.94 44.2303 6.698C44.641 6.456 45.1177 6.335 45.6603 6.335C46.1957 6.335 46.643 6.44867 47.0023 6.676C47.3617 6.90333 47.633 7.22233 47.8163 7.633C48.007 8.04367 48.1023 8.524 48.1023 9.074V9.437H44.0543V8.711H47.1233L46.9363 8.865C46.9363 8.35167 46.8263 7.95933 46.6063 7.688C46.3937 7.41667 46.082 7.281 45.6713 7.281C45.2167 7.281 44.8647 7.44233 44.6153 7.765C44.3733 8.08767 44.2523 8.53867 44.2523 9.118V9.261C44.2523 9.86233 44.399 10.3133 44.6923 10.614C44.993 10.9073 45.4147 11.054 45.9573 11.054C46.2727 11.054 46.566 11.0137 46.8373 10.933C47.116 10.845 47.38 10.7057 47.6293 10.515L48.0363 11.439C47.7723 11.6517 47.457 11.8167 47.0903 11.934C46.7237 12.0513 46.335 12.11 45.9243 12.11ZM49.0357 12V7.864C49.0357 7.62933 49.0284 7.391 49.0137 7.149C49.0064 6.907 48.988 6.67233 48.9587 6.445H50.2897L50.4437 7.963H50.2237C50.297 7.59633 50.418 7.292 50.5867 7.05C50.7627 6.808 50.9754 6.62833 51.2247 6.511C51.474 6.39367 51.7454 6.335 52.0387 6.335C52.1707 6.335 52.277 6.34233 52.3577 6.357C52.4384 6.36433 52.519 6.38267 52.5997 6.412L52.5887 7.622C52.4494 7.56333 52.3284 7.52667 52.2257 7.512C52.1304 7.49733 52.0094 7.49 51.8627 7.49C51.5474 7.49 51.2797 7.556 51.0597 7.688C50.847 7.82 50.6857 8.00333 50.5757 8.238C50.473 8.47267 50.4217 8.74033 50.4217 9.041V12H49.0357ZM59.1226 12.11C58.6533 12.11 58.2426 11.9963 57.8906 11.769C57.5386 11.5343 57.304 11.219 57.1866 10.823H57.3076V12H55.9436V3.904H57.3186V7.578H57.1866C57.3113 7.19667 57.5496 6.896 57.9016 6.676C58.2536 6.44867 58.6606 6.335 59.1226 6.335C59.614 6.335 60.043 6.45233 60.4096 6.687C60.7763 6.92167 61.0623 7.25533 61.2676 7.688C61.473 8.11333 61.5756 8.62667 61.5756 9.228C61.5756 9.82933 61.473 10.3463 61.2676 10.779C61.0623 11.2043 60.7726 11.5343 60.3986 11.769C60.032 11.9963 59.6066 12.11 59.1226 12.11ZM58.7376 11.054C59.1703 11.054 59.5186 10.9037 59.7826 10.603C60.054 10.3023 60.1896 9.844 60.1896 9.228C60.1896 8.612 60.054 8.15367 59.7826 7.853C59.5186 7.545 59.1703 7.391 58.7376 7.391C58.305 7.391 57.9566 7.54133 57.6926 7.842C57.4286 8.14267 57.2966 8.601 57.2966 9.217C57.2966 9.833 57.4286 10.295 57.6926 10.603C57.9566 10.9037 58.305 11.054 58.7376 11.054ZM62.5449 12V3.904H63.9199V12H62.5449ZM67.7011 12.11C67.1291 12.11 66.6341 11.9927 66.2161 11.758C65.7981 11.5233 65.4717 11.1897 65.2371 10.757C65.0097 10.3243 64.8961 9.811 64.8961 9.217C64.8961 8.623 65.0097 8.11333 65.2371 7.688C65.4717 7.25533 65.7981 6.92167 66.2161 6.687C66.6341 6.45233 67.1291 6.335 67.7011 6.335C68.2731 6.335 68.7681 6.45233 69.1861 6.687C69.6114 6.92167 69.9377 7.25533 70.1651 7.688C70.3997 8.11333 70.5171 8.623 70.5171 9.217C70.5171 9.811 70.3997 10.3243 70.1651 10.757C69.9377 11.1897 69.6114 11.5233 69.1861 11.758C68.7681 11.9927 68.2731 12.11 67.7011 12.11ZM67.7011 11.054C68.1337 11.054 68.4784 10.9037 68.7351 10.603C68.9917 10.295 69.1201 9.833 69.1201 9.217C69.1201 8.601 68.9917 8.14267 68.7351 7.842C68.4784 7.54133 68.1337 7.391 67.7011 7.391C67.2684 7.391 66.9237 7.54133 66.6671 7.842C66.4104 8.14267 66.2821 8.601 66.2821 9.217C66.2821 9.833 66.4104 10.295 66.6671 10.603C66.9237 10.9037 67.2684 11.054 67.7011 11.054ZM74.0348 12.11C73.4628 12.11 72.9605 11.9927 72.5278 11.758C72.1025 11.5233 71.7725 11.1897 71.5378 10.757C71.3032 10.317 71.1858 9.79633 71.1858 9.195C71.1858 8.59367 71.3032 8.08033 71.5378 7.655C71.7798 7.22967 72.1135 6.90333 72.5388 6.676C72.9642 6.44867 73.4628 6.335 74.0348 6.335C74.4015 6.335 74.7572 6.39367 75.1018 6.511C75.4538 6.621 75.7398 6.78233 75.9598 6.995L75.5418 7.952C75.3438 7.76867 75.1202 7.633 74.8708 7.545C74.6288 7.44967 74.3905 7.402 74.1558 7.402C73.6645 7.402 73.2795 7.556 73.0008 7.864C72.7295 8.172 72.5938 8.61933 72.5938 9.206C72.5938 9.79267 72.7295 10.2437 73.0008 10.559C73.2795 10.8743 73.6645 11.032 74.1558 11.032C74.3832 11.032 74.6178 10.988 74.8598 10.9C75.1092 10.812 75.3365 10.6763 75.5418 10.493L75.9598 11.439C75.7325 11.6517 75.4428 11.8167 75.0908 11.934C74.7462 12.0513 74.3942 12.11 74.0348 12.11ZM76.8058 12V3.904H78.1808V8.81H78.2028L80.4578 6.445H82.1188L79.3138 9.382L79.3248 8.832L82.3168 12H80.6118L78.2028 9.514H78.1808V12H76.8058ZM85.2317 12.11C84.3004 12.11 83.5707 11.8533 83.0427 11.34C82.5147 10.8267 82.2507 10.1227 82.2507 9.228C82.2507 8.64867 82.3644 8.14267 82.5917 7.71C82.8191 7.27733 83.1344 6.94 83.5377 6.698C83.9484 6.456 84.4251 6.335 84.9677 6.335C85.5031 6.335 85.9504 6.44867 86.3097 6.676C86.6691 6.90333 86.9404 7.22233 87.1237 7.633C87.3144 8.04367 87.4097 8.524 87.4097 9.074V9.437H83.3617V8.711H86.4307L86.2437 8.865C86.2437 8.35167 86.1337 7.95933 85.9137 7.688C85.7011 7.41667 85.3894 7.281 84.9787 7.281C84.5241 7.281 84.1721 7.44233 83.9227 7.765C83.6807 8.08767 83.5597 8.53867 83.5597 9.118V9.261C83.5597 9.86233 83.7064 10.3133 83.9997 10.614C84.3004 10.9073 84.7221 11.054 85.2647 11.054C85.5801 11.054 85.8734 11.0137 86.1447 10.933C86.4234 10.845 86.6874 10.7057 86.9367 10.515L87.3437 11.439C87.0797 11.6517 86.7644 11.8167 86.3977 11.934C86.0311 12.0513 85.6424 12.11 85.2317 12.11ZM88.3431 12V7.864C88.3431 7.62933 88.3358 7.391 88.3211 7.149C88.3138 6.907 88.2954 6.67233 88.2661 6.445H89.5971L89.7511 7.963H89.5311C89.6044 7.59633 89.7254 7.292 89.8941 7.05C90.0701 6.808 90.2828 6.62833 90.5321 6.511C90.7814 6.39367 91.0528 6.335 91.3461 6.335C91.4781 6.335 91.5844 6.34233 91.6651 6.357C91.7458 6.36433 91.8264 6.38267 91.9071 6.412L91.8961 7.622C91.7568 7.56333 91.6358 7.52667 91.5331 7.512C91.4378 7.49733 91.3168 7.49 91.1701 7.49C90.8548 7.49 90.5871 7.556 90.3671 7.688C90.1544 7.82 89.9931 8.00333 89.8831 8.238C89.7804 8.47267 89.7291 8.74033 89.7291 9.041V12H88.3431Z" fill="#D80032"/>
</svg>
