<svg width="136" height="22" viewBox="0 0 136 22" fill="none" xmlns="http://www.w3.org/2000/svg">
<circle cx="11" cy="10.999" r="9" transform="rotate(-90 11 10.999)" fill="white" stroke="#5B96EE" stroke-width="2.5"/>
<circle r="1.625" transform="matrix(-4.37114e-08 -1 -1 4.37114e-08 11 11.001)" fill="#5B96EE" stroke="#5B96EE" stroke-width="1.25"/>
<path d="M11.0007 19.333C15.6007 19.333 19.334 15.5997 19.334 10.9997C19.334 6.39967 15.6006 2.66634 11.0006 2.66634C6.40065 2.66634 2.66732 6.39967 2.66732 10.9997C2.66732 15.5997 6.40065 19.333 11.0007 19.333ZM17.6673 10.9997C17.6673 14.683 14.684 17.6663 11.0007 17.6663C9.45898 17.6663 8.04232 17.1413 6.91732 16.258L16.259 6.91634C17.1423 8.04134 17.6673 9.45801 17.6673 10.9997ZM11.0006 4.33301C12.5423 4.33301 13.959 4.85801 15.084 5.74134L5.74232 15.083C4.85898 13.958 4.33398 12.5413 4.33398 10.9997C4.33398 7.31634 7.31732 4.33301 11.0006 4.33301Z" fill="#D80032"/>
<path d="M27.952 18.524V10.194C27.952 9.90467 27.9427 9.61067 27.924 9.312C27.9053 9.01333 27.8773 8.71933 27.84 8.43H29.534L29.688 9.914H29.534C29.674 9.41933 29.968 9.02733 30.416 8.738C30.8733 8.43933 31.4007 8.29 31.998 8.29C32.6233 8.29 33.1693 8.43933 33.636 8.738C34.1027 9.02733 34.4667 9.44733 34.728 9.998C34.9893 10.5393 35.12 11.1927 35.12 11.958C35.12 12.7233 34.9893 13.3813 34.728 13.932C34.4667 14.4827 34.1027 14.9073 33.636 15.206C33.1693 15.4953 32.6233 15.64 31.998 15.64C31.41 15.64 30.892 15.4953 30.444 15.206C29.996 14.9167 29.6973 14.5293 29.548 14.044H29.702V18.524H27.952ZM31.508 14.296C32.068 14.296 32.516 14.1047 32.852 13.722C33.188 13.33 33.356 12.742 33.356 11.958C33.356 11.174 33.188 10.5907 32.852 10.208C32.516 9.82533 32.068 9.634 31.508 9.634C30.9573 9.634 30.514 9.82533 30.178 10.208C29.842 10.5907 29.674 11.174 29.674 11.958C29.674 12.742 29.842 13.33 30.178 13.722C30.514 14.1047 30.9573 14.296 31.508 14.296ZM39.5456 15.64C38.8176 15.64 38.1876 15.4907 37.6556 15.192C37.1236 14.8933 36.7083 14.4687 36.4096 13.918C36.1203 13.3673 35.9756 12.714 35.9756 11.958C35.9756 11.202 36.1203 10.5533 36.4096 10.012C36.7083 9.46133 37.1236 9.03667 37.6556 8.738C38.1876 8.43933 38.8176 8.29 39.5456 8.29C40.2736 8.29 40.9036 8.43933 41.4356 8.738C41.977 9.03667 42.3923 9.46133 42.6816 10.012C42.9803 10.5533 43.1296 11.202 43.1296 11.958C43.1296 12.714 42.9803 13.3673 42.6816 13.918C42.3923 14.4687 41.977 14.8933 41.4356 15.192C40.9036 15.4907 40.2736 15.64 39.5456 15.64ZM39.5456 14.296C40.0963 14.296 40.535 14.1047 40.8616 13.722C41.1883 13.33 41.3516 12.742 41.3516 11.958C41.3516 11.174 41.1883 10.5907 40.8616 10.208C40.535 9.82533 40.0963 9.634 39.5456 9.634C38.995 9.634 38.5563 9.82533 38.2296 10.208C37.903 10.5907 37.7396 11.174 37.7396 11.958C37.7396 12.742 37.903 13.33 38.2296 13.722C38.5563 14.1047 38.995 14.296 39.5456 14.296ZM44.3588 18.524V10.194C44.3588 9.90467 44.3495 9.61067 44.3308 9.312C44.3121 9.01333 44.2841 8.71933 44.2468 8.43H45.9408L46.0948 9.914H45.9408C46.0808 9.41933 46.3748 9.02733 46.8228 8.738C47.2801 8.43933 47.8075 8.29 48.4048 8.29C49.0301 8.29 49.5761 8.43933 50.0428 8.738C50.5095 9.02733 50.8735 9.44733 51.1348 9.998C51.3961 10.5393 51.5268 11.1927 51.5268 11.958C51.5268 12.7233 51.3961 13.3813 51.1348 13.932C50.8735 14.4827 50.5095 14.9073 50.0428 15.206C49.5761 15.4953 49.0301 15.64 48.4048 15.64C47.8168 15.64 47.2988 15.4953 46.8508 15.206C46.4028 14.9167 46.1041 14.5293 45.9548 14.044H46.1088V18.524H44.3588ZM47.9148 14.296C48.4748 14.296 48.9228 14.1047 49.2588 13.722C49.5948 13.33 49.7628 12.742 49.7628 11.958C49.7628 11.174 49.5948 10.5907 49.2588 10.208C48.9228 9.82533 48.4748 9.634 47.9148 9.634C47.3641 9.634 46.9208 9.82533 46.5848 10.208C46.2488 10.5907 46.0808 11.174 46.0808 11.958C46.0808 12.742 46.2488 13.33 46.5848 13.722C46.9208 14.1047 47.3641 14.296 47.9148 14.296ZM56.1764 15.64C54.9911 15.64 54.0624 15.3133 53.3904 14.66C52.7184 14.0067 52.3824 13.1107 52.3824 11.972C52.3824 11.2347 52.5271 10.5907 52.8164 10.04C53.1058 9.48933 53.5071 9.06 54.0204 8.752C54.5431 8.444 55.1498 8.29 55.8404 8.29C56.5218 8.29 57.0911 8.43467 57.5484 8.724C58.0058 9.01333 58.3511 9.41933 58.5844 9.942C58.8271 10.4647 58.9484 11.076 58.9484 11.776V12.238H53.7964V11.314H57.7024L57.4644 11.51C57.4644 10.8567 57.3244 10.3573 57.0444 10.012C56.7738 9.66667 56.3771 9.494 55.8544 9.494C55.2758 9.494 54.8278 9.69933 54.5104 10.11C54.2024 10.5207 54.0484 11.0947 54.0484 11.832V12.014C54.0484 12.7793 54.2351 13.3533 54.6084 13.736C54.9911 14.1093 55.5278 14.296 56.2184 14.296C56.6198 14.296 56.9931 14.2447 57.3384 14.142C57.6931 14.03 58.0291 13.8527 58.3464 13.61L58.8644 14.786C58.5284 15.0567 58.1271 15.2667 57.6604 15.416C57.1938 15.5653 56.6991 15.64 56.1764 15.64ZM60.1364 15.5V10.236C60.1364 9.93733 60.127 9.634 60.1084 9.326C60.099 9.018 60.0757 8.71933 60.0384 8.43H61.7324L61.9284 10.362H61.6484C61.7417 9.89533 61.8957 9.508 62.1104 9.2C62.3344 8.892 62.605 8.66333 62.9224 8.514C63.2397 8.36467 63.585 8.29 63.9584 8.29C64.1264 8.29 64.2617 8.29933 64.3644 8.318C64.467 8.32733 64.5697 8.35067 64.6724 8.388L64.6584 9.928C64.481 9.85333 64.327 9.80667 64.1964 9.788C64.075 9.76933 63.921 9.76 63.7344 9.76C63.333 9.76 62.9924 9.844 62.7124 10.012C62.4417 10.18 62.2364 10.4133 62.0964 10.712C61.9657 11.0107 61.9004 11.3513 61.9004 11.734V15.5H60.1364ZM72.9743 15.64C72.3769 15.64 71.8542 15.4953 71.4062 15.206C70.9582 14.9073 70.6596 14.506 70.5102 14.002H70.6642V15.5H68.9282V5.196H70.6782V9.872H70.5102C70.6689 9.38667 70.9722 9.004 71.4202 8.724C71.8682 8.43467 72.3862 8.29 72.9743 8.29C73.5996 8.29 74.1456 8.43933 74.6123 8.738C75.0789 9.03667 75.4429 9.46133 75.7043 10.012C75.9656 10.5533 76.0963 11.2067 76.0963 11.972C76.0963 12.7373 75.9656 13.3953 75.7043 13.946C75.4429 14.4873 75.0743 14.9073 74.5982 15.206C74.1316 15.4953 73.5902 15.64 72.9743 15.64ZM72.4843 14.296C73.0349 14.296 73.4782 14.1047 73.8143 13.722C74.1596 13.3393 74.3323 12.756 74.3323 11.972C74.3323 11.188 74.1596 10.6047 73.8143 10.222C73.4782 9.83 73.0349 9.634 72.4843 9.634C71.9336 9.634 71.4902 9.82533 71.1542 10.208C70.8182 10.5907 70.6502 11.174 70.6502 11.958C70.6502 12.742 70.8182 13.33 71.1542 13.722C71.4902 14.1047 71.9336 14.296 72.4843 14.296ZM77.3299 15.5V5.196H79.0799V15.5H77.3299ZM83.8923 15.64C83.1643 15.64 82.5343 15.4907 82.0023 15.192C81.4703 14.8933 81.0549 14.4687 80.7563 13.918C80.4669 13.3673 80.3223 12.714 80.3223 11.958C80.3223 11.202 80.4669 10.5533 80.7563 10.012C81.0549 9.46133 81.4703 9.03667 82.0023 8.738C82.5343 8.43933 83.1643 8.29 83.8923 8.29C84.6203 8.29 85.2503 8.43933 85.7823 8.738C86.3236 9.03667 86.7389 9.46133 87.0283 10.012C87.3269 10.5533 87.4763 11.202 87.4763 11.958C87.4763 12.714 87.3269 13.3673 87.0283 13.918C86.7389 14.4687 86.3236 14.8933 85.7823 15.192C85.2503 15.4907 84.6203 15.64 83.8923 15.64ZM83.8923 14.296C84.4429 14.296 84.8816 14.1047 85.2083 13.722C85.5349 13.33 85.6983 12.742 85.6983 11.958C85.6983 11.174 85.5349 10.5907 85.2083 10.208C84.8816 9.82533 84.4429 9.634 83.8923 9.634C83.3416 9.634 82.9029 9.82533 82.5763 10.208C82.2496 10.5907 82.0863 11.174 82.0863 11.958C82.0863 12.742 82.2496 13.33 82.5763 13.722C82.9029 14.1047 83.3416 14.296 83.8923 14.296ZM91.9534 15.64C91.2254 15.64 90.5861 15.4907 90.0354 15.192C89.4941 14.8933 89.0741 14.4687 88.7754 13.918C88.4768 13.358 88.3274 12.6953 88.3274 11.93C88.3274 11.1647 88.4768 10.5113 88.7754 9.97C89.0834 9.42867 89.5081 9.01333 90.0494 8.724C90.5908 8.43467 91.2254 8.29 91.9534 8.29C92.4201 8.29 92.8728 8.36467 93.3114 8.514C93.7594 8.654 94.1234 8.85933 94.4034 9.13L93.8714 10.348C93.6194 10.1147 93.3348 9.942 93.0174 9.83C92.7094 9.70867 92.4061 9.648 92.1074 9.648C91.4821 9.648 90.9921 9.844 90.6374 10.236C90.2921 10.628 90.1194 11.1973 90.1194 11.944C90.1194 12.6907 90.2921 13.2647 90.6374 13.666C90.9921 14.0673 91.4821 14.268 92.1074 14.268C92.3968 14.268 92.6954 14.212 93.0034 14.1C93.3208 13.988 93.6101 13.8153 93.8714 13.582L94.4034 14.786C94.1141 15.0567 93.7454 15.2667 93.2974 15.416C92.8588 15.5653 92.4108 15.64 91.9534 15.64ZM95.4801 15.5V5.196H97.2301V11.44H97.2581L100.128 8.43H102.242L98.6721 12.168L98.6861 11.468L102.494 15.5H100.324L97.2581 12.336H97.2301V15.5H95.4801ZM106.204 15.64C105.019 15.64 104.09 15.3133 103.418 14.66C102.746 14.0067 102.41 13.1107 102.41 11.972C102.41 11.2347 102.555 10.5907 102.844 10.04C103.133 9.48933 103.535 9.06 104.048 8.752C104.571 8.444 105.177 8.29 105.868 8.29C106.549 8.29 107.119 8.43467 107.576 8.724C108.033 9.01333 108.379 9.41933 108.612 9.942C108.855 10.4647 108.976 11.076 108.976 11.776V12.238H103.824V11.314H107.73L107.492 11.51C107.492 10.8567 107.352 10.3573 107.072 10.012C106.801 9.66667 106.405 9.494 105.882 9.494C105.303 9.494 104.855 9.69933 104.538 10.11C104.23 10.5207 104.076 11.0947 104.076 11.832V12.014C104.076 12.7793 104.263 13.3533 104.636 13.736C105.019 14.1093 105.555 14.296 106.246 14.296C106.647 14.296 107.021 14.2447 107.366 14.142C107.721 14.03 108.057 13.8527 108.374 13.61L108.892 14.786C108.556 15.0567 108.155 15.2667 107.688 15.416C107.221 15.5653 106.727 15.64 106.204 15.64ZM110.164 15.5V10.236C110.164 9.93733 110.155 9.634 110.136 9.326C110.127 9.018 110.103 8.71933 110.066 8.43H111.76L111.956 10.362H111.676C111.769 9.89533 111.923 9.508 112.138 9.2C112.362 8.892 112.633 8.66333 112.95 8.514C113.267 8.36467 113.613 8.29 113.986 8.29C114.154 8.29 114.289 8.29933 114.392 8.318C114.495 8.32733 114.597 8.35067 114.7 8.388L114.686 9.928C114.509 9.85333 114.355 9.80667 114.224 9.788C114.103 9.76933 113.949 9.76 113.762 9.76C113.361 9.76 113.02 9.844 112.74 10.012C112.469 10.18 112.264 10.4133 112.124 10.712C111.993 11.0107 111.928 11.3513 111.928 11.734V15.5H110.164Z" fill="#D80032"/>
</svg>
