<svg width="40" height="40" viewBox="0 0 40 40" fill="none" xmlns="http://www.w3.org/2000/svg">
<path d="M18.6769 9.33862C18.6769 9.80749 15.2812 8.48951 13.5832 7.64063C11.8853 6.79175 12.0194 7.1653 11.9524 5.70505C11.8854 4.24481 13.5832 4.24499 15.2811 5.09383C16.979 5.94267 18.6769 8.86975 18.6769 9.33862Z" fill="white"/>
<path d="M22.0731 9.33862C22.0731 9.80749 25.4688 8.48951 27.1668 7.64063C28.8647 6.79175 28.7306 7.1653 28.7976 5.70505C28.8646 4.24481 27.1668 4.24499 25.4689 5.09383C23.771 5.94267 22.0731 8.86975 22.0731 9.33862Z" fill="white"/>
<path d="M8.48958 15.2812H32.2604V25.8083C32.2604 26.5585 31.6523 27.1667 30.9021 27.1667H9.84792C9.09773 27.1667 8.48958 26.5585 8.48958 25.8083V15.2812Z" fill="white"/>
<path d="M6.79167 15.2812H33.9583V18.6771H6.79167V15.2812Z" fill="#FFE3B0"/>
<path d="M8.48958 25.4688H32.2604V35.9958C32.2604 36.746 31.6523 37.3542 30.9021 37.3542H9.84792C9.09773 37.3542 8.48958 36.746 8.48958 35.9958V25.4688Z" fill="#FFE3B0"/>
<path d="M8.48958 22.0729H32.2604V32.2604C32.2604 33.1981 31.5002 33.9583 30.5625 33.9583H10.1875C9.24977 33.9583 8.48958 33.1981 8.48958 32.2604V22.0729Z" fill="#FFF7E9"/>
<path d="M6.79167 13.5833H33.9583V15.2813C33.9583 16.219 33.1982 16.9792 32.2604 16.9792H8.48958C7.55185 16.9792 6.79167 16.219 6.79167 15.2813V13.5833Z" fill="#FFF7E9"/>
<path d="M16.1302 19.526H7.64063C6.70289 19.526 5.94271 18.7659 5.94271 17.8281V14.4323C5.94271 13.4946 6.70289 12.7344 7.64063 12.7344H33.1094C34.0471 12.7344 34.8073 13.4946 34.8073 14.4323V17.8281C34.8073 18.7659 34.0471 19.526 33.1094 19.526H24.6198" stroke="#3C454D" stroke-width="1.69792" stroke-linecap="round"/>
<path d="M20.375 22.9219V33.1093" stroke="#3C454D" stroke-width="1.69792" stroke-linecap="round"/>
<path d="M20.375 15.4844V19.526" stroke="#3C454D" stroke-width="1.69792" stroke-linecap="round"/>
<path d="M21.741 9.45441C22.937 6.56659 26.835 2.5469 28.5327 5.09387C30.1416 7.50758 25.1339 9.20017 21.7411 9.62526" stroke="#3C454D" stroke-width="1.69792" stroke-linecap="round"/>
<path d="M19.0089 9.33851C17.8129 6.45069 13.915 2.5469 12.2173 5.09387C10.6084 7.50758 15.6161 9.20017 19.0089 9.62526" stroke="#3C454D" stroke-width="1.69792" stroke-linecap="round"/>
<path d="M7.64062 22.9219V34.8073C7.64062 35.745 8.40081 36.5052 9.33854 36.5052H31.4115C32.3492 36.5052 33.1094 35.745 33.1094 34.8073V22.9219" stroke="#3C454D" stroke-width="1.69792" stroke-linecap="round"/>
</svg>
