<svg width="17" height="16" viewBox="0 0 17 16" fill="none" xmlns="http://www.w3.org/2000/svg">
<path d="M11.1226 2.67391C11.2116 2.45666 11.1318 2.20801 10.932 2.07995C10.7321 1.95189 10.4679 1.98007 10.3008 2.14725L4.643 7.80742C4.5212 7.92928 4.47265 8.10442 4.51479 8.26998C4.55693 8.43554 4.68371 8.56777 4.84961 8.61918L7.47217 9.43193L5.87712 13.3261C5.78813 13.5433 5.86796 13.792 6.0678 13.92C6.26764 14.0481 6.53188 14.0199 6.69899 13.8527L12.3568 8.19258C12.4786 8.07072 12.5271 7.89558 12.485 7.73002C12.4428 7.56446 12.316 7.43223 12.1501 7.38082L9.52759 6.56807L11.1226 2.67391Z" fill="#3C454D"/>
</svg>
