<svg width="73" height="30" viewBox="0 0 73 30" fill="none" xmlns="http://www.w3.org/2000/svg">
<g filter="url(#filter0_d_1007_12569)">
<rect x="4" y="4" width="65" height="22" rx="11" fill="white"/>
</g>
<path d="M21.0977 9.38848L15.4459 15.1535L18.5801 16.1439L16.7856 20.6108L22.4374 14.8457L19.3032 13.8554L21.0977 9.38848Z" fill="#F6AE2D" stroke="#F6AE2D" stroke-linecap="round" stroke-linejoin="round"/>
<path d="M27.5948 11.628H29.7368C30.0428 11.628 30.3368 11.658 30.6188 11.718C30.9068 11.778 31.1588 11.88 31.3748 12.024C31.5908 12.162 31.7618 12.351 31.8878 12.591C32.0198 12.825 32.0858 13.119 32.0858 13.473C32.0858 13.875 32.0168 14.199 31.8788 14.445C31.7408 14.691 31.5548 14.883 31.3208 15.021C31.0868 15.153 30.8138 15.243 30.5018 15.291C30.1958 15.339 29.8748 15.363 29.5388 15.363H28.7288V18H27.5948V11.628ZM29.4128 14.391C29.5748 14.391 29.7428 14.385 29.9168 14.373C30.0908 14.361 30.2498 14.325 30.3938 14.265C30.5438 14.205 30.6638 14.115 30.7538 13.995C30.8498 13.875 30.8978 13.707 30.8978 13.491C30.8978 13.293 30.8558 13.137 30.7718 13.023C30.6878 12.903 30.5798 12.813 30.4478 12.753C30.3158 12.687 30.1688 12.645 30.0068 12.627C29.8448 12.609 29.6888 12.6 29.5388 12.6H28.7288V14.391H29.4128ZM33.0967 11.628H35.3107C35.6167 11.628 35.9107 11.658 36.1927 11.718C36.4807 11.772 36.7357 11.868 36.9577 12.006C37.1797 12.144 37.3567 12.33 37.4887 12.564C37.6207 12.798 37.6867 13.095 37.6867 13.455C37.6867 13.917 37.5577 14.304 37.2997 14.616C37.0477 14.928 36.6847 15.117 36.2107 15.183L37.9027 18H36.5347L35.0587 15.3H34.2307V18H33.0967V11.628ZM35.1127 14.328C35.2747 14.328 35.4367 14.322 35.5987 14.31C35.7607 14.292 35.9077 14.256 36.0397 14.202C36.1777 14.142 36.2887 14.055 36.3727 13.941C36.4567 13.821 36.4987 13.656 36.4987 13.446C36.4987 13.26 36.4597 13.11 36.3817 12.996C36.3037 12.882 36.2017 12.798 36.0757 12.744C35.9497 12.684 35.8087 12.645 35.6527 12.627C35.5027 12.609 35.3557 12.6 35.2117 12.6H34.2307V14.328H35.1127ZM38.4237 14.841C38.4237 14.331 38.5077 13.869 38.6757 13.455C38.8437 13.035 39.0747 12.678 39.3687 12.384C39.6687 12.09 40.0227 11.865 40.4307 11.709C40.8447 11.547 41.2977 11.466 41.7897 11.466C42.2877 11.46 42.7437 11.535 43.1577 11.691C43.5717 11.841 43.9287 12.063 44.2287 12.357C44.5287 12.651 44.7627 13.005 44.9307 13.419C45.0987 13.833 45.1827 14.295 45.1827 14.805C45.1827 15.303 45.0987 15.756 44.9307 16.164C44.7627 16.572 44.5287 16.923 44.2287 17.217C43.9287 17.511 43.5717 17.742 43.1577 17.91C42.7437 18.072 42.2877 18.156 41.7897 18.162C41.2977 18.162 40.8447 18.084 40.4307 17.928C40.0227 17.766 39.6687 17.541 39.3687 17.253C39.0747 16.959 38.8437 16.608 38.6757 16.2C38.5077 15.792 38.4237 15.339 38.4237 14.841ZM39.6117 14.769C39.6117 15.111 39.6627 15.426 39.7647 15.714C39.8727 16.002 40.0227 16.251 40.2147 16.461C40.4067 16.671 40.6347 16.836 40.8987 16.956C41.1687 17.076 41.4687 17.136 41.7987 17.136C42.1287 17.136 42.4287 17.076 42.6987 16.956C42.9687 16.836 43.1997 16.671 43.3917 16.461C43.5837 16.251 43.7307 16.002 43.8327 15.714C43.9407 15.426 43.9947 15.111 43.9947 14.769C43.9947 14.451 43.9407 14.154 43.8327 13.878C43.7307 13.602 43.5837 13.362 43.3917 13.158C43.1997 12.948 42.9687 12.786 42.6987 12.672C42.4287 12.552 42.1287 12.492 41.7987 12.492C41.4687 12.492 41.1687 12.552 40.8987 12.672C40.6347 12.786 40.4067 12.948 40.2147 13.158C40.0227 13.362 39.8727 13.602 39.7647 13.878C39.6627 14.154 39.6117 14.451 39.6117 14.769Z" fill="#F6AE2D"/>
<defs>
<filter id="filter0_d_1007_12569" x="0" y="0" width="73" height="30" filterUnits="userSpaceOnUse" color-interpolation-filters="sRGB">
<feFlood flood-opacity="0" result="BackgroundImageFix"/>
<feColorMatrix in="SourceAlpha" type="matrix" values="0 0 0 0 0 0 0 0 0 0 0 0 0 0 0 0 0 0 127 0" result="hardAlpha"/>
<feOffset/>
<feGaussianBlur stdDeviation="2"/>
<feComposite in2="hardAlpha" operator="out"/>
<feColorMatrix type="matrix" values="0 0 0 0 0 0 0 0 0 0 0 0 0 0 0 0 0 0 0.1 0"/>
<feBlend mode="normal" in2="BackgroundImageFix" result="effect1_dropShadow_1007_12569"/>
<feBlend mode="normal" in="SourceGraphic" in2="effect1_dropShadow_1007_12569" result="shape"/>
</filter>
</defs>
</svg>
