<svg width="15" height="15" viewBox="0 0 15 15" fill="none" xmlns="http://www.w3.org/2000/svg">
<g clip-path="url(#clip0_4447_25745)">
<path d="M4.46122 5.31893C4.46122 4.53531 4.77058 3.78337 5.32202 3.22662C5.88041 2.66287 6.64097 2.3457 7.43444 2.3457H7.639C8.56338 2.3457 9.44942 2.7152 10.0999 3.37195L10.202 3.47499C10.5958 3.87263 10.8168 4.40968 10.8168 4.96936V6.07196C10.8168 6.69329 10.9343 7.30901 11.1632 7.88666L11.7856 9.45766C11.8752 9.68379 11.7085 9.92904 11.4653 9.92904H3.30566L4.28304 7.46211C4.40076 7.16497 4.46122 6.84823 4.46122 6.52861V5.31893Z" fill="#FFE3B0"/>
<path d="M4.08993 5.14438C4.08993 4.42285 4.37861 3.73132 4.89162 3.22395C5.39728 2.72385 6.07976 2.44336 6.79095 2.44336H7.00667C7.85607 2.44336 8.67119 2.77836 9.27511 3.37564L9.34845 3.44818C9.71638 3.81206 9.92342 4.30802 9.92342 4.82549V6.15119C9.92342 6.47588 9.95357 6.79986 10.0135 7.11897L10.4159 9.26172H3.0293L3.92623 7.04404C4.03435 6.7767 4.08993 6.49103 4.08993 6.20266V5.14438Z" fill="#FFF7E9"/>
<path d="M8.57729 12.6367C8.48206 12.8009 8.34537 12.9372 8.18091 13.0319C8.01645 13.1266 7.83 13.1765 7.64021 13.1765C7.45042 13.1765 7.26396 13.1266 7.0995 13.0319C6.93504 12.9372 6.79836 12.8009 6.70312 12.6367" stroke="#3C454D" stroke-width="1.08333" stroke-linecap="round" stroke-linejoin="round"/>
<path d="M11.2312 8.30404C10.9902 7.42188 10.8753 6.51006 10.8899 5.5957" stroke="#3C454D" stroke-width="1.08333" stroke-linecap="round" stroke-linejoin="round"/>
<path d="M4.52951 4.6543C4.4354 4.95959 4.38792 5.27733 4.38867 5.5968C4.38867 9.38846 2.76367 10.4718 2.76367 10.4718H10.347" stroke="#3C454D" stroke-width="1.08333" stroke-linecap="round" stroke-linejoin="round"/>
<path d="M10.8897 5.59467C10.8906 5.00591 10.7315 4.42797 10.4295 3.92259C10.1274 3.41721 9.69377 3.00336 9.17484 2.72526C8.6559 2.44716 8.07116 2.31525 7.48309 2.34362C6.89502 2.37199 6.3257 2.55957 5.83594 2.88633" stroke="#3C454D" stroke-width="1.08333" stroke-linecap="round" stroke-linejoin="round"/>
<path d="M1.95117 2.07422L12.5137 12.6367" stroke="#3C454D" stroke-width="1.08333" stroke-linecap="round" stroke-linejoin="round"/>
</g>
<defs>
<clipPath id="clip0_4447_25745">
<rect width="13" height="13" fill="white" transform="translate(1.13867 1.26172)"/>
</clipPath>
</defs>
</svg>
