<svg width="24" height="24" viewBox="0 0 24 24" fill="none" xmlns="http://www.w3.org/2000/svg">
<path d="M10.595 2.18501C11.0809 0.885487 12.9191 0.885488 13.405 2.18501L15.018 6.4987C15.3693 7.43831 16.2483 8.07692 17.2505 8.12071L21.8515 8.32176C23.2376 8.38232 23.8056 10.1305 22.7198 10.9942L19.1157 13.8613C18.3307 14.4858 17.9949 15.5191 18.263 16.4857L19.4936 20.9237C19.8643 22.2606 18.3772 23.3411 17.2202 22.5753L13.3798 20.0336C12.5432 19.4799 11.4568 19.4799 10.6202 20.0336L6.77977 22.5753C5.62281 23.3411 4.13573 22.2606 4.50645 20.9237L5.73703 16.4857C6.00508 15.5191 5.66934 14.4858 4.88428 13.8613L1.28017 10.9942C0.194407 10.1305 0.762421 8.38232 2.1485 8.32176L6.7495 8.12071C7.7517 8.07692 8.63067 7.43831 8.98202 6.4987L10.595 2.18501Z" fill="#F6AE2D" stroke="#F6AE2D"/>
</svg>
