<svg width="27" height="27" viewBox="0 0 27 27" fill="none" xmlns="http://www.w3.org/2000/svg">
<path d="M15.4288 10.6073V6.75016C15.4288 5.98292 15.1241 5.24711 14.5816 4.7046C14.039 4.16208 13.3032 3.8573 12.536 3.8573L8.67885 12.5359V23.143H19.556C20.0211 23.1483 20.4724 22.9853 20.8268 22.684C21.1812 22.3828 21.4148 21.9636 21.4846 21.5037L22.8153 12.8252C22.8572 12.5488 22.8386 12.2665 22.7606 11.998C22.6827 11.7296 22.5473 11.4812 22.3639 11.2703C22.1804 11.0593 21.9533 10.8907 21.6982 10.7763C21.4432 10.6618 21.1663 10.6041 20.8867 10.6073H15.4288ZM8.67885 23.143H5.78599C5.2745 23.143 4.78396 22.9398 4.42229 22.5781C4.06061 22.2165 3.85742 21.7259 3.85742 21.2144V14.4644C3.85742 13.953 4.06061 13.4624 4.42229 13.1007C4.78396 12.7391 5.2745 12.5359 5.78599 12.5359H8.67885" fill="#BCF2E2"/>
<path d="M8.67885 23.143H5.78599C5.2745 23.143 4.78396 22.9398 4.42229 22.5781C4.06061 22.2165 3.85742 21.7259 3.85742 21.2144V14.4644C3.85742 13.953 4.06061 13.4624 4.42229 13.1007C4.78396 12.7391 5.2745 12.5359 5.78599 12.5359H8.67885M15.4288 10.6073V6.75016C15.4288 5.98292 15.1241 5.24711 14.5816 4.7046C14.039 4.16208 13.3032 3.8573 12.536 3.8573L8.67885 12.5359V23.143H19.556C20.0211 23.1483 20.4724 22.9853 20.8268 22.684C21.1812 22.3828 21.4148 21.9636 21.4846 21.5037L22.8153 12.8252C22.8572 12.5488 22.8386 12.2665 22.7606 11.998C22.6827 11.7296 22.5473 11.4812 22.3639 11.2703C22.1804 11.0593 21.9533 10.8907 21.6982 10.7763C21.4432 10.6618 21.1663 10.6041 20.8867 10.6073H15.4288Z" stroke="#3C454D" stroke-width="1.38462" stroke-linecap="round" stroke-linejoin="round"/>
<path d="M14.2408 12.4393V9.73934C14.2408 9.20228 14.0332 8.68722 13.6637 8.30746C13.2942 7.9277 12.7931 7.71436 12.2706 7.71436L9.64355 13.7893V21.2143H18.9803C19.2971 21.2179 19.6045 21.1038 19.8458 20.893C20.0872 20.6821 20.2463 20.3887 20.2938 20.0668L21.2001 13.9918C21.2287 13.7983 21.216 13.6008 21.1629 13.4128C21.1098 13.2249 21.0176 13.0511 20.8927 12.9034C20.7677 12.7557 20.613 12.6377 20.4393 12.5576C20.2656 12.4775 20.077 12.4371 19.8866 12.4393H14.2408Z" fill="#E4F7F1"/>
</svg>
