<svg width="10" height="10" viewBox="0 0 10 10" fill="none" xmlns="http://www.w3.org/2000/svg">
<g clip-path="url(#clip0_8130_953)">
<rect width="10" height="10" rx="5" fill="#FFC866"/>
<g filter="url(#filter0_d_8130_953)">
<mask id="path-2-inside-1_8130_953" fill="white">
<path d="M6.91126 3.09177C6.79295 2.97345 6.60182 2.97345 6.4835 3.09177L5 4.57224L3.5165 3.08874C3.39818 2.97042 3.20705 2.97042 3.08874 3.08874C2.97042 3.20705 2.97042 3.39818 3.08874 3.5165L4.57224 5L3.08874 6.4835C2.97042 6.60182 2.97042 6.79295 3.08874 6.91126C3.20705 7.02958 3.39818 7.02958 3.5165 6.91126L5 5.42776L6.4835 6.91126C6.60182 7.02958 6.79295 7.02958 6.91126 6.91126C7.02958 6.79295 7.02958 6.60182 6.91126 6.4835L5.42776 5L6.91126 3.5165C7.02655 3.40121 7.02655 3.20705 6.91126 3.09177Z"/>
</mask>
<path d="M6.91126 3.09177C6.79295 2.97345 6.60182 2.97345 6.4835 3.09177L5 4.57224L3.5165 3.08874C3.39818 2.97042 3.20705 2.97042 3.08874 3.08874C2.97042 3.20705 2.97042 3.39818 3.08874 3.5165L4.57224 5L3.08874 6.4835C2.97042 6.60182 2.97042 6.79295 3.08874 6.91126C3.20705 7.02958 3.39818 7.02958 3.5165 6.91126L5 5.42776L6.4835 6.91126C6.60182 7.02958 6.79295 7.02958 6.91126 6.91126C7.02958 6.79295 7.02958 6.60182 6.91126 6.4835L5.42776 5L6.91126 3.5165C7.02655 3.40121 7.02655 3.20705 6.91126 3.09177Z" fill="#FFC866"/>
<path d="M6.4835 3.09177L6.95443 3.56366L6.95491 3.56318L6.4835 3.09177ZM5 4.57224L4.5286 5.04365L4.99952 5.51457L5.47092 5.04413L5 4.57224ZM3.5165 3.08874L3.9879 2.61733L3.9879 2.61733L3.5165 3.08874ZM3.08874 3.5165L2.61733 3.9879L2.61733 3.9879L3.08874 3.5165ZM4.57224 5L5.04365 5.4714L5.51505 5L5.04365 4.5286L4.57224 5ZM3.08874 6.4835L2.61733 6.0121L2.61733 6.0121L3.08874 6.4835ZM3.5165 6.91126L3.04509 6.43986H3.04509L3.5165 6.91126ZM5 5.42776L5.4714 4.95635L5 4.48495L4.5286 4.95635L5 5.42776ZM6.4835 6.91126L6.0121 7.38267H6.0121L6.4835 6.91126ZM6.91126 6.4835L7.38267 6.0121L6.91126 6.4835ZM5.42776 5L4.95635 4.5286L4.48495 5L4.95635 5.4714L5.42776 5ZM6.91126 3.5165L6.43986 3.04509V3.04509L6.91126 3.5165ZM7.38267 2.62037C7.004 2.2417 6.39077 2.2417 6.0121 2.62037L6.95491 3.56318C6.81288 3.70521 6.58189 3.70521 6.43986 3.56318L7.38267 2.62037ZM6.01258 2.61988L4.52908 4.10035L5.47092 5.04413L6.95443 3.56366L6.01258 2.61988ZM5.4714 4.10084L3.9879 2.61733L3.04509 3.56014L4.5286 5.04365L5.4714 4.10084ZM3.9879 2.61733C3.60923 2.23867 2.996 2.23867 2.61733 2.61733L3.56014 3.56014C3.41811 3.70218 3.18712 3.70218 3.04509 3.56014L3.9879 2.61733ZM2.61733 2.61733C2.23867 2.996 2.23867 3.60923 2.61733 3.9879L3.56014 3.04509C3.70218 3.18712 3.70218 3.41811 3.56014 3.56014L2.61733 2.61733ZM2.61733 3.9879L4.10084 5.4714L5.04365 4.5286L3.56014 3.04509L2.61733 3.9879ZM4.10084 4.5286L2.61733 6.0121L3.56014 6.95491L5.04365 5.4714L4.10084 4.5286ZM2.61733 6.0121C2.23867 6.39077 2.23867 7.004 2.61733 7.38267L3.56014 6.43986C3.70218 6.58189 3.70218 6.81288 3.56014 6.95491L2.61733 6.0121ZM2.61733 7.38267C2.996 7.76133 3.60923 7.76133 3.9879 7.38267L3.04509 6.43986C3.18712 6.29782 3.41811 6.29782 3.56014 6.43986L2.61733 7.38267ZM3.9879 7.38267L5.4714 5.89916L4.5286 4.95635L3.04509 6.43986L3.9879 7.38267ZM4.5286 5.89916L6.0121 7.38267L6.95491 6.43986L5.4714 4.95635L4.5286 5.89916ZM6.0121 7.38267C6.39077 7.76133 7.004 7.76133 7.38267 7.38267L6.43986 6.43986C6.58189 6.29782 6.81288 6.29782 6.95491 6.43986L6.0121 7.38267ZM7.38267 7.38267C7.76133 7.004 7.76133 6.39077 7.38267 6.0121L6.43986 6.95491C6.29782 6.81288 6.29782 6.58189 6.43986 6.43986L7.38267 7.38267ZM7.38267 6.0121L5.89916 4.5286L4.95635 5.4714L6.43986 6.95491L7.38267 6.0121ZM5.89916 5.4714L7.38267 3.9879L6.43986 3.04509L4.95635 4.5286L5.89916 5.4714ZM7.38267 3.9879C7.7583 3.61227 7.7583 2.996 7.38267 2.62037L6.43986 3.56318C6.29479 3.41811 6.29479 3.19016 6.43986 3.04509L7.38267 3.9879Z" fill="#FFF7E9" mask="url(#path-2-inside-1_8130_953)"/>
</g>
</g>
<defs>
<filter id="filter0_d_8130_953" x="0.333333" y="0.333333" width="9.33333" height="9.33333" filterUnits="userSpaceOnUse" color-interpolation-filters="sRGB">
<feFlood flood-opacity="0" result="BackgroundImageFix"/>
<feColorMatrix in="SourceAlpha" type="matrix" values="0 0 0 0 0 0 0 0 0 0 0 0 0 0 0 0 0 0 127 0" result="hardAlpha"/>
<feOffset/>
<feGaussianBlur stdDeviation="1.33333"/>
<feComposite in2="hardAlpha" operator="out"/>
<feColorMatrix type="matrix" values="0 0 0 0 0 0 0 0 0 0 0 0 0 0 0 0 0 0 0.1 0"/>
<feBlend mode="normal" in2="BackgroundImageFix" result="effect1_dropShadow_8130_953"/>
<feBlend mode="normal" in="SourceGraphic" in2="effect1_dropShadow_8130_953" result="shape"/>
</filter>
<clipPath id="clip0_8130_953">
<rect width="10" height="10" rx="5" fill="white"/>
</clipPath>
</defs>
</svg>
