<svg width="19" height="18" viewBox="0 0 19 18" fill="none" xmlns="http://www.w3.org/2000/svg">
<path d="M5.26303 4.76079C6.48553 3.53829 8.21803 2.83329 10.123 3.02829C12.8755 3.30579 15.1405 5.54079 15.448 8.29329C15.8605 11.9308 13.048 14.9983 9.50053 14.9983C7.10803 14.9983 5.05303 13.5958 4.09303 11.5783C3.85303 11.0758 4.21303 10.4983 4.76803 10.4983C5.04554 10.4983 5.30803 10.6483 5.42803 10.8958C6.27553 12.7183 8.30803 13.8733 10.528 13.3783C12.193 13.0108 13.5355 11.6533 13.888 9.98829C14.518 7.07829 12.3055 4.49829 9.50053 4.49829C8.25553 4.49829 7.14553 5.01579 6.33554 5.83329L7.46803 6.96579C7.94053 7.43829 7.61053 8.24829 6.94303 8.24829H4.25053C3.83803 8.24829 3.50053 7.91079 3.50053 7.49829V4.80578C3.50053 4.13829 4.31053 3.80079 4.78303 4.27329L5.26303 4.76079Z" fill="#3C454D"/>
</svg>
