<svg width="40" height="40" viewBox="0 0 40 40" fill="none" xmlns="http://www.w3.org/2000/svg">
<rect x="12" y="33" width="19" height="24" rx="1" transform="rotate(-90 12 33)" fill="#F3F5FF"/>
<path d="M27.1579 14H34C35.1046 14 36 14.8954 36 16V30C36 31.1046 35.1046 32 34 32H13.2C12.5373 32 12 31.4627 12 30.8V30.8" stroke="#DDE8F9" stroke-linecap="round"/>
<path d="M26 14H34C35.1046 14 36 14.8954 36 16V31C36 32.1046 35.1046 33 34 33H14C12.8954 33 12 32.1046 12 31V28" stroke="#3C454D" stroke-linecap="round"/>
<path d="M25 20L34 20" stroke="#3C454D" stroke-linecap="round"/>
<rect x="32.5" y="16.5" width="1" height="1" rx="0.5" fill="#3C454D" stroke="#3C454D"/>
<rect x="18" y="26" width="13" height="2" rx="1" fill="#DDE8F9"/>
<rect x="18.5" y="23.5" width="12" height="3" rx="0.5" stroke="#5B96EE"/>
<rect x="21" y="29" width="7" height="1" rx="0.5" fill="#3C454D"/>
<path d="M9 33L39 33" stroke="#3C454D" stroke-linecap="round"/>
<path d="M2 33H6" stroke="#3C454D" stroke-linecap="round"/>
<rect opacity="0.4" x="12" y="33" width="19" height="24" rx="1" transform="rotate(-90 12 33)" fill="#0B135F"/>
<rect x="4" y="6" width="20" height="20" rx="10" fill="white"/>
<path d="M10 20L18 12" stroke="#5B96EE" stroke-width="1.3" stroke-linecap="round"/>
<path d="M10 12L18 20" stroke="#5B96EE" stroke-width="1.3" stroke-linecap="round"/>
<rect x="4" y="6" width="20" height="20" rx="10" stroke="#3C454D"/>
</svg>
