<svg width="40" height="40" viewBox="0 0 40 40" fill="none" xmlns="http://www.w3.org/2000/svg">
<rect width="19" height="24" rx="1" transform="matrix(-4.37114e-08 1 1 4.37114e-08 4 7)" fill="#F3F5FF"/>
<path d="M13.5 25H6C4.89543 25 4 24.1046 4 23V9C4 7.89543 4.89543 7 6 7H26.8C27.4627 7 28 7.53726 28 8.2V8.2" stroke="#DDE8F9" stroke-linecap="round"/>
<path d="M13.5 26H6C4.89543 26 4 25.1046 4 24V9C4 7.89543 4.89543 7 6 7H26C27.1046 7 28 7.89543 28 9V10" stroke="#3C454D" stroke-linecap="round"/>
<path d="M6.00006 13L19 13" stroke="#3C454D" stroke-linecap="round"/>
<rect x="24.5" y="9.5" width="1" height="1" rx="0.5" fill="#3C454D" stroke="#3C454D"/>
<rect x="12.5" y="21.5" width="6" height="1" rx="0.5" stroke="#DDE8F9"/>
<rect x="8" y="18" width="16" height="1" rx="0.5" fill="#DDE8F9"/>
<rect x="8" y="16" width="16" height="1" rx="0.5" fill="#DDE8F9"/>
<path d="M22 35H35" stroke="#3C454D" stroke-linecap="round"/>
<path d="M15 35H19" stroke="#3C454D" stroke-linecap="round"/>
<path d="M37 35H38" stroke="#3C454D" stroke-linecap="round"/>
<circle cx="26" cy="23" r="7" fill="white"/>
<circle cx="26" cy="23" r="6.5" fill="#5B96EE" stroke="#5B96EE"/>
<circle cx="26" cy="23" r="5.5" fill="white" stroke="white"/>
<path d="M21.7998 27.2003L30.479 18.8004" stroke="#5B96EE" stroke-linecap="round"/>
<path d="M30.9721 31.136C31.1061 31.3551 31.0374 31.6423 30.8123 31.7659C29.0995 32.7063 27.1452 33.1259 25.1909 32.9672C23.0818 32.796 21.0813 31.9601 19.4774 30.5799C17.8734 29.1997 16.7486 27.3463 16.2649 25.2862C15.8166 23.3774 15.9401 21.3824 16.6145 19.5485C16.7032 19.3075 16.977 19.1968 17.2136 19.2966V19.2966C17.4503 19.3963 17.56 19.6687 17.4725 19.9101C16.8739 21.5623 16.7669 23.3564 17.1702 25.0736C17.609 26.9421 18.6292 28.6231 20.084 29.875C21.5388 31.1269 23.3532 31.885 25.2661 32.0403C27.0243 32.183 28.7824 31.8097 30.3268 30.9714C30.5525 30.8489 30.8382 30.9168 30.9721 31.136V31.136Z" fill="#3C454D"/>
<path d="M18.5 21L17.5683 19.1366C17.528 19.056 17.4386 19.0123 17.3502 19.03L15 19.5" stroke="#3C454D" stroke-linecap="round"/>
<path d="M21.0279 14.864C20.8939 14.6449 20.9626 14.3577 21.1877 14.2341C22.9005 13.2937 24.8548 12.8741 26.8091 13.0328C28.9182 13.204 30.9187 14.0399 32.5226 15.4201C34.1266 16.8003 35.2514 18.6537 35.7351 20.7138C36.1834 22.6226 36.0599 24.6176 35.3855 26.4515C35.2968 26.6925 35.023 26.8032 34.7864 26.7034V26.7034C34.5497 26.6037 34.44 26.3313 34.5275 26.0899C35.1261 24.4377 35.2331 22.6436 34.8298 20.9264C34.391 19.0579 33.3708 17.3769 31.916 16.125C30.4612 14.8731 28.6468 14.115 26.7339 13.9597C24.9757 13.817 23.2176 14.1903 21.6732 15.0286C21.4475 15.1511 21.1618 15.0832 21.0279 14.864V14.864Z" fill="#3C454D"/>
<path d="M33.5 25L34.4317 26.8634C34.472 26.944 34.5614 26.9877 34.6498 26.97L37 26.5" stroke="#3C454D" stroke-linecap="round"/>
</svg>
