<svg width="16" height="16" viewBox="0 0 16 16" fill="none" xmlns="http://www.w3.org/2000/svg">
<g clip-path="url(#clip0_6107_33037)">
<path d="M8 10.5C9.38071 10.5 10.5 9.38071 10.5 8C10.5 6.61929 9.38071 5.5 8 5.5C6.61929 5.5 5.5 6.61929 5.5 8C5.5 9.38071 6.61929 10.5 8 10.5Z" stroke="#5B96EE" stroke-miterlimit="10" stroke-linecap="round" stroke-linejoin="round"/>
<path d="M15.25 6.75H13.6123C13.4678 6.09899 13.2105 5.47829 12.852 4.916L14.0105 3.7575C14.0574 3.71062 14.0837 3.64704 14.0837 3.58075C14.0837 3.51446 14.0574 3.45088 14.0105 3.404L12.5962 1.9895C12.5494 1.94263 12.4858 1.9163 12.4195 1.9163C12.3532 1.9163 12.2896 1.94263 12.2428 1.9895L11.0843 3.148C10.5219 2.78957 9.90108 2.53236 9.25 2.388V0.75C9.25 0.683696 9.22366 0.620107 9.17678 0.573223C9.12989 0.526339 9.0663 0.5 9 0.5H7C6.9337 0.5 6.87011 0.526339 6.82322 0.573223C6.77634 0.620107 6.75 0.683696 6.75 0.75V2.388C6.09899 2.53246 5.47829 2.78976 4.916 3.14825L3.75725 1.9895C3.71037 1.94263 3.64679 1.9163 3.5805 1.9163C3.51421 1.9163 3.45063 1.94263 3.40375 1.9895L1.9895 3.40375C1.94263 3.45063 1.9163 3.51421 1.9163 3.5805C1.9163 3.64679 1.94263 3.71037 1.9895 3.75725L3.148 4.91575C2.78957 5.47813 2.53236 6.09892 2.388 6.75H0.75C0.683696 6.75 0.620107 6.77634 0.573223 6.82322C0.526339 6.87011 0.5 6.9337 0.5 7V9C0.5 9.0663 0.526339 9.12989 0.573223 9.17678C0.620107 9.22366 0.683696 9.25 0.75 9.25H2.388C2.53246 9.90101 2.78976 10.5217 3.14825 11.084L1.9895 12.2428C1.94263 12.2896 1.9163 12.3532 1.9163 12.4195C1.9163 12.4858 1.94263 12.5494 1.9895 12.5962L3.40375 14.0105C3.45063 14.0574 3.51421 14.0837 3.5805 14.0837C3.64679 14.0837 3.71037 14.0574 3.75725 14.0105L4.91575 12.852C5.47812 13.2105 6.09891 13.4678 6.75 13.6123V15.25C6.75 15.3163 6.77634 15.3799 6.82322 15.4268C6.87011 15.4737 6.9337 15.5 7 15.5H9C9.0663 15.5 9.12989 15.4737 9.17678 15.4268C9.22366 15.3799 9.25 15.3163 9.25 15.25V13.6123C9.90101 13.4678 10.5217 13.2105 11.084 12.852L12.2425 14.0105C12.2894 14.0574 12.353 14.0837 12.4192 14.0837C12.4855 14.0837 12.5491 14.0574 12.596 14.0105L14.0103 12.5962C14.0571 12.5494 14.0834 12.4858 14.0834 12.4195C14.0834 12.3532 14.0571 12.2896 14.0103 12.2428L12.8518 11.0843C13.2104 10.5219 13.4677 9.90112 13.6123 9.25H15.25C15.3163 9.25 15.3799 9.22366 15.4268 9.17678C15.4737 9.12989 15.5 9.0663 15.5 9V7C15.5 6.9337 15.4737 6.87011 15.4268 6.82322C15.3799 6.77634 15.3163 6.75 15.25 6.75Z" stroke="#5B96EE" stroke-miterlimit="10" stroke-linecap="round" stroke-linejoin="round"/>
</g>
<defs>
<clipPath id="clip0_6107_33037">
<rect width="16" height="16" fill="white"/>
</clipPath>
</defs>
</svg>
