<svg width="18" height="13" viewBox="0 0 18 13" fill="none" xmlns="http://www.w3.org/2000/svg">
<path d="M3.7832 1L14.218 11.4348" stroke="#5B96EE" stroke-width="1.5" stroke-linecap="round" stroke-linejoin="round"/>
<path d="M6.95633 1.17544C7.48938 1.06275 8.05509 1 8.65217 1C13.5217 1 16.3043 4.71014 17 6.56522C16.5991 7.26681 15.8949 8.27166 14.8313 9.18653M4.47826 2.14894C2.22735 3.48984 1 5.6412 1 6.56522C1.69565 8.18841 3.78261 11.4348 8.65217 11.4348C10.3522 11.4348 11.7696 11.0391 12.9339 10.455" stroke="#5B96EE" stroke-width="1.5" stroke-linecap="round" stroke-linejoin="round"/>
<path d="M11.7824 6.21735C11.7824 4.48846 10.3808 3.08691 8.65192 3.08691M6.36773 4.07675C5.84289 4.63657 5.52148 5.38942 5.52148 6.21735C5.52148 7.94624 6.92303 9.34778 8.65192 9.34778C9.54025 9.34778 10.3422 8.97777 10.9119 8.38344" stroke="#5B96EE" stroke-width="1.5" stroke-linecap="round" stroke-linejoin="round"/>
</svg>
