<svg width="32" height="32" viewBox="0 0 32 32" fill="none" xmlns="http://www.w3.org/2000/svg">
<path d="M17.9657 3.57897C18.0648 3.45138 18.1819 3.42485 18.2805 3.44275C18.379 3.46064 18.4794 3.52667 18.5272 3.68094L20.7479 10.8371C20.9576 11.5127 21.4559 12.0687 22.1241 12.3303L28.8709 14.9712C28.9784 15.0133 29.0628 15.1116 29.0822 15.2703C29.1017 15.4303 29.0433 15.5783 28.9212 15.6723L23.0491 20.1953C22.488 20.6275 22.1487 21.2872 22.1092 21.9892L21.6841 29.54C21.674 29.7207 21.5774 29.8399 21.4648 29.8971C21.3562 29.9524 21.2522 29.9452 21.1567 29.874L15.3068 25.5133C14.7317 25.0845 13.9941 24.9506 13.3049 25.1498L6.29539 27.1755C6.18096 27.2086 6.08105 27.1787 5.99879 27.0888C5.91352 26.9956 5.86501 26.8501 5.91903 26.6773L8.17577 19.4591C8.38557 18.7881 8.29985 18.0512 7.92654 17.4494L4.01946 11.1505C3.93827 11.0196 3.9356 10.8605 4.01011 10.7177C4.08403 10.5759 4.19767 10.5135 4.31301 10.5119L11.5576 10.4116C12.2751 10.4017 12.9371 10.0564 13.3709 9.49758L17.9657 3.57897Z" fill="#FFE3B0" stroke="#FFC866" stroke-width="2"/>
</svg>
