<svg width="18" height="19" viewBox="0 0 18 19" fill="none" xmlns="http://www.w3.org/2000/svg">
<rect x="1" y="8.5" width="4" height="8" rx="1.3" fill="#FFC866"/>
<path d="M1 9.8C1 9.08203 1.58203 8.5 2.3 8.5H3C3.27614 8.5 3.5 8.72386 3.5 9V14.5C3.5 14.7761 3.27614 15 3 15H1.5C1.22386 15 1 14.7761 1 14.5V9.8Z" fill="#FFF7E9"/>
<path d="M1 11.5V9.8C1 9.08203 1.58203 8.5 2.3 8.5H3.7C4.41797 8.5 5 9.08203 5 9.8V15.2C5 15.918 4.41797 16.5 3.7 16.5H2.3C1.58203 16.5 1 15.918 1 15.2V13.5" stroke="#3C454D" stroke-linecap="round"/>
<rect x="7" y="4.5" width="4" height="12" rx="1.3" fill="#FFC866"/>
<path d="M7 5.8C7 5.08203 7.58203 4.5 8.3 4.5H9C9.27614 4.5 9.5 4.72386 9.5 5V14.5C9.5 14.7761 9.27614 15 9 15H7.5C7.22386 15 7 14.7761 7 14.5V5.8Z" fill="#FFF7E9"/>
<path d="M7 7.5V5.8C7 5.08203 7.58203 4.5 8.3 4.5H9.7C10.418 4.5 11 5.08203 11 5.8V15.2C11 15.918 10.418 16.5 9.7 16.5H8.3C7.58203 16.5 7 15.918 7 15.2V10.5" stroke="#3C454D" stroke-linecap="round"/>
<rect x="13" y="1.5" width="4" height="15" rx="1.3" fill="#FFC866"/>
<path d="M12.5 2.8C12.5 2.08203 13.082 1.5 13.8 1.5H15C15.2761 1.5 15.5 1.72386 15.5 2V14.5C15.5 14.7761 15.2761 15 15 15H13C12.7239 15 12.5 14.7761 12.5 14.5V2.8Z" fill="#FFF7E9"/>
<path d="M13 4.5V2.8C13 2.08203 13.582 1.5 14.3 1.5H15.7C16.418 1.5 17 2.08203 17 2.8V15.2C17 15.918 16.418 16.5 15.7 16.5H14.3C13.582 16.5 13 15.918 13 15.2V7.5" stroke="#3C454D" stroke-linecap="round"/>
</svg>
