<svg width="85" height="26" viewBox="0 0 85 26" fill="none" xmlns="http://www.w3.org/2000/svg">
<g filter="url(#filter0_d_5762_34719)">
<rect x="4" y="4" width="76.2367" height="18" rx="9" fill="#F6AE2D" shape-rendering="crispEdges"/>
<path d="M17.9147 8.32324L13.2049 13.1274L15.8168 13.9527L14.3214 17.6751L19.0312 12.871L16.4194 12.0457L17.9147 8.32324Z" fill="white" stroke="white" stroke-linecap="round" stroke-linejoin="round"/>
<path d="M25.4323 16V10.609H23.3353V9.655H28.6903V10.609H26.5933V16H25.4323ZM30.4725 16.09C30.0765 16.09 29.7285 15.997 29.4285 15.811C29.1285 15.619 28.8945 15.346 28.7265 14.992C28.5585 14.638 28.4745 14.215 28.4745 13.723C28.4745 13.231 28.5585 12.811 28.7265 12.463C28.8945 12.109 29.1285 11.839 29.4285 11.653C29.7285 11.461 30.0765 11.365 30.4725 11.365C30.8565 11.365 31.1925 11.461 31.4805 11.653C31.7745 11.839 31.9695 12.091 32.0655 12.409H31.9665L32.0655 11.455H33.1455C33.1275 11.641 33.1095 11.83 33.0915 12.022C33.0795 12.214 33.0735 12.403 33.0735 12.589V16H31.9575L31.9485 15.064H32.0565C31.9605 15.376 31.7655 15.625 31.4715 15.811C31.1775 15.997 30.8445 16.09 30.4725 16.09ZM30.7875 15.226C31.1415 15.226 31.4265 15.103 31.6425 14.857C31.8585 14.605 31.9665 14.227 31.9665 13.723C31.9665 13.219 31.8585 12.844 31.6425 12.598C31.4265 12.352 31.1415 12.229 30.7875 12.229C30.4335 12.229 30.1485 12.352 29.9325 12.598C29.7165 12.844 29.6085 13.219 29.6085 13.723C29.6085 14.227 29.7135 14.605 29.9235 14.857C30.1395 15.103 30.4275 15.226 30.7875 15.226ZM34.2985 16V9.376H35.4235V13.39H35.4415L37.2865 11.455H38.6455L36.3505 13.858L36.3595 13.408L38.8075 16H37.4125L35.4415 13.966H35.4235V16H34.2985ZM41.3725 16.09C40.6105 16.09 40.0135 15.88 39.5815 15.46C39.1495 15.04 38.9335 14.464 38.9335 13.732C38.9335 13.258 39.0265 12.844 39.2125 12.49C39.3985 12.136 39.6565 11.86 39.9865 11.662C40.3225 11.464 40.7125 11.365 41.1565 11.365C41.5945 11.365 41.9605 11.458 42.2545 11.644C42.5485 11.83 42.7705 12.091 42.9205 12.427C43.0765 12.763 43.1545 13.156 43.1545 13.606V13.903H39.8425V13.309H42.3535L42.2005 13.435C42.2005 13.015 42.1105 12.694 41.9305 12.472C41.7565 12.25 41.5015 12.139 41.1655 12.139C40.7935 12.139 40.5055 12.271 40.3015 12.535C40.1035 12.799 40.0045 13.168 40.0045 13.642V13.759C40.0045 14.251 40.1245 14.62 40.3645 14.866C40.6105 15.106 40.9555 15.226 41.3995 15.226C41.6575 15.226 41.8975 15.193 42.1195 15.127C42.3475 15.055 42.5635 14.941 42.7675 14.785L43.1005 15.541C42.8845 15.715 42.6265 15.85 42.3265 15.946C42.0265 16.042 41.7085 16.09 41.3725 16.09ZM48.3318 16.09C47.9358 16.09 47.5878 15.997 47.2878 15.811C46.9878 15.619 46.7538 15.346 46.5858 14.992C46.4178 14.638 46.3338 14.215 46.3338 13.723C46.3338 13.231 46.4178 12.811 46.5858 12.463C46.7538 12.109 46.9878 11.839 47.2878 11.653C47.5878 11.461 47.9358 11.365 48.3318 11.365C48.7158 11.365 49.0518 11.461 49.3398 11.653C49.6338 11.839 49.8288 12.091 49.9248 12.409H49.8258L49.9248 11.455H51.0048C50.9868 11.641 50.9688 11.83 50.9508 12.022C50.9388 12.214 50.9328 12.403 50.9328 12.589V16H49.8168L49.8078 15.064H49.9158C49.8198 15.376 49.6248 15.625 49.3308 15.811C49.0368 15.997 48.7038 16.09 48.3318 16.09ZM48.6468 15.226C49.0008 15.226 49.2858 15.103 49.5018 14.857C49.7178 14.605 49.8258 14.227 49.8258 13.723C49.8258 13.219 49.7178 12.844 49.5018 12.598C49.2858 12.352 49.0008 12.229 48.6468 12.229C48.2928 12.229 48.0078 12.352 47.7918 12.598C47.5758 12.844 47.4678 13.219 47.4678 13.723C47.4678 14.227 47.5728 14.605 47.7828 14.857C47.9988 15.103 48.2868 15.226 48.6468 15.226ZM54.6276 16V9.376H55.7526V16H54.6276ZM59.0263 16.09C58.5583 16.09 58.1533 15.994 57.8113 15.802C57.4693 15.61 57.2023 15.337 57.0103 14.983C56.8243 14.629 56.7313 14.209 56.7313 13.723C56.7313 13.237 56.8243 12.82 57.0103 12.472C57.2023 12.118 57.4693 11.845 57.8113 11.653C58.1533 11.461 58.5583 11.365 59.0263 11.365C59.4943 11.365 59.8993 11.461 60.2413 11.653C60.5893 11.845 60.8563 12.118 61.0423 12.472C61.2343 12.82 61.3303 13.237 61.3303 13.723C61.3303 14.209 61.2343 14.629 61.0423 14.983C60.8563 15.337 60.5893 15.61 60.2413 15.802C59.8993 15.994 59.4943 16.09 59.0263 16.09ZM59.0263 15.226C59.3803 15.226 59.6623 15.103 59.8723 14.857C60.0823 14.605 60.1873 14.227 60.1873 13.723C60.1873 13.219 60.0823 12.844 59.8723 12.598C59.6623 12.352 59.3803 12.229 59.0263 12.229C58.6723 12.229 58.3903 12.352 58.1803 12.598C57.9703 12.844 57.8653 13.219 57.8653 13.723C57.8653 14.227 57.9703 14.605 58.1803 14.857C58.3903 15.103 58.6723 15.226 59.0263 15.226ZM64.3525 16.09C63.8845 16.09 63.4795 15.994 63.1375 15.802C62.7955 15.61 62.5285 15.337 62.3365 14.983C62.1505 14.629 62.0575 14.209 62.0575 13.723C62.0575 13.237 62.1505 12.82 62.3365 12.472C62.5285 12.118 62.7955 11.845 63.1375 11.653C63.4795 11.461 63.8845 11.365 64.3525 11.365C64.8205 11.365 65.2255 11.461 65.5675 11.653C65.9155 11.845 66.1825 12.118 66.3685 12.472C66.5605 12.82 66.6565 13.237 66.6565 13.723C66.6565 14.209 66.5605 14.629 66.3685 14.983C66.1825 15.337 65.9155 15.61 65.5675 15.802C65.2255 15.994 64.8205 16.09 64.3525 16.09ZM64.3525 15.226C64.7065 15.226 64.9885 15.103 65.1985 14.857C65.4085 14.605 65.5135 14.227 65.5135 13.723C65.5135 13.219 65.4085 12.844 65.1985 12.598C64.9885 12.352 64.7065 12.229 64.3525 12.229C63.9985 12.229 63.7165 12.352 63.5065 12.598C63.2965 12.844 63.1915 13.219 63.1915 13.723C63.1915 14.227 63.2965 14.605 63.5065 14.857C63.7165 15.103 63.9985 15.226 64.3525 15.226ZM67.6266 16V9.376H68.7516V13.39H68.7696L70.6146 11.455H71.9736L69.6786 13.858L69.6876 13.408L72.1356 16H70.7406L68.7696 13.966H68.7516V16H67.6266Z" fill="white"/>
</g>
<defs>
<filter id="filter0_d_5762_34719" x="0" y="0" width="84.2363" height="26" filterUnits="userSpaceOnUse" color-interpolation-filters="sRGB">
<feFlood flood-opacity="0" result="BackgroundImageFix"/>
<feColorMatrix in="SourceAlpha" type="matrix" values="0 0 0 0 0 0 0 0 0 0 0 0 0 0 0 0 0 0 127 0" result="hardAlpha"/>
<feOffset/>
<feGaussianBlur stdDeviation="2"/>
<feComposite in2="hardAlpha" operator="out"/>
<feColorMatrix type="matrix" values="0 0 0 0 0 0 0 0 0 0 0 0 0 0 0 0 0 0 0.1 0"/>
<feBlend mode="normal" in2="BackgroundImageFix" result="effect1_dropShadow_5762_34719"/>
<feBlend mode="normal" in="SourceGraphic" in2="effect1_dropShadow_5762_34719" result="shape"/>
</filter>
</defs>
</svg>
