<svg width="14" height="14" viewBox="0 0 14 14" fill="none" xmlns="http://www.w3.org/2000/svg">
<g clip-path="url(#clip0_594_5887)">
<path d="M8 5.5V3.5C8 3.10218 7.84196 2.72064 7.56066 2.43934C7.27936 2.15804 6.89782 2 6.5 2L4.5 6.5V12H10.14C10.3812 12.0027 10.6152 11.9182 10.799 11.762C10.9827 11.6058 11.1038 11.3885 11.14 11.15L11.83 6.65C11.8518 6.50668 11.8421 6.36034 11.8017 6.22113C11.7613 6.08191 11.6911 5.95315 11.5959 5.84376C11.5008 5.73437 11.383 5.64697 11.2508 5.58761C11.1185 5.52825 10.975 5.49836 10.83 5.5H8ZM4.5 12H3C2.73478 12 2.48043 11.8946 2.29289 11.7071C2.10536 11.5196 2 11.2652 2 11V7.5C2 7.23478 2.10536 6.98043 2.29289 6.79289C2.48043 6.60536 2.73478 6.5 3 6.5H4.5" fill="#FFC866"/>
<path d="M4.5 12H3C2.73478 12 2.48043 11.8946 2.29289 11.7071C2.10536 11.5196 2 11.2652 2 11V7.5C2 7.23478 2.10536 6.98043 2.29289 6.79289C2.48043 6.60536 2.73478 6.5 3 6.5H4.5M8 5.5V3.5C8 3.10218 7.84196 2.72064 7.56066 2.43934C7.27936 2.15804 6.89782 2 6.5 2L4.5 6.5V12H10.14C10.3812 12.0027 10.6152 11.9182 10.799 11.762C10.9827 11.6058 11.1038 11.3885 11.14 11.15L11.83 6.65C11.8518 6.50668 11.8421 6.36034 11.8017 6.22113C11.7613 6.08191 11.6911 5.95315 11.5959 5.84376C11.5008 5.73437 11.383 5.64697 11.2508 5.58761C11.1185 5.52825 10.975 5.49836 10.83 5.5H8Z" stroke="#3C454D" stroke-linecap="round" stroke-linejoin="round"/>
<path d="M7.38377 6.44998V5.04999C7.38377 4.77152 7.27613 4.50445 7.08454 4.30754C6.89295 4.11062 6.6331 4 6.36215 4L5 7.14998V11H9.84127C10.0055 11.0019 10.1649 10.9427 10.2901 10.8334C10.4152 10.724 10.4977 10.5719 10.5223 10.405L10.9923 7.25498C11.0071 7.15465 11.0005 7.05222 10.973 6.95477C10.9455 6.85732 10.8977 6.76719 10.8329 6.69061C10.7681 6.61404 10.6879 6.55286 10.5978 6.51131C10.5077 6.46976 10.4099 6.44884 10.3112 6.44998H7.38377Z" fill="#FFF7E9"/>
</g>
<defs>
<clipPath id="clip0_594_5887">
<rect width="12" height="12" fill="white" transform="translate(1 1)"/>
</clipPath>
</defs>
</svg>
