<svg width="14" height="15" viewBox="0 0 14 15" fill="none" xmlns="http://www.w3.org/2000/svg">
<path d="M1.46826 7.54599C1.58301 8.58304 1.97637 9.56967 2.60659 10.4012C3.23681 11.2327 4.08038 11.8782 5.04779 12.269C6.01521 12.6598 7.07038 12.7814 8.10133 12.6209C9.13229 12.4605 10.1006 12.0239 10.9035 11.3576C11.7063 10.6912 12.3138 9.81995 12.6615 8.83622C13.0092 7.85248 13.0841 6.79297 12.8782 5.7701C12.6724 4.74724 12.1935 3.79919 11.4923 3.02654C10.7911 2.25389 9.89386 1.68547 8.89573 1.38159L8.49676 2.73643L7.53354 3.37858L7.21246 4.66287L6.57032 5.94717H4.3228C3.91856 6.14929 3.44275 6.14929 3.03851 5.94717L2.71744 7.23146L1.46826 7.54599Z" fill="#FFC866"/>
<path d="M2.37659 7.39778C2.46014 8.16727 2.74656 8.89936 3.20544 9.51637C3.66433 10.1334 4.27856 10.6123 4.98297 10.9023C5.68738 11.1922 6.45568 11.2825 7.20636 11.1634C7.95703 11.0444 8.66208 10.7204 9.24668 10.226C9.83128 9.73156 10.2736 9.08508 10.5268 8.35513C10.78 7.62519 10.8345 6.83902 10.6846 6.08005C10.5347 5.32108 10.186 4.61761 9.67543 4.0443C9.16488 3.47098 8.51156 3.04921 7.78478 2.82373L7.49428 3.82904L6.79292 4.30552L6.55914 5.25847L6.09157 6.21143H4.45508C4.16133 6.3611 3.81369 6.3611 3.51994 6.21143L3.28616 7.16439L2.37659 7.39778Z" fill="#FFF7E9"/>
<mask id="path-3-inside-1_594_5833" fill="white">
<path d="M4.39704 11.939C4.27569 12.1648 4.35977 12.4481 4.59424 12.5517C5.58665 12.9903 6.68195 13.1544 7.76465 13.0222C9.00138 12.8712 10.161 12.341 11.0843 11.5045C12.0076 10.6679 12.6493 9.56606 12.9212 8.35019C13.1593 7.28574 13.1038 6.17962 12.7649 5.14888C12.6848 4.90534 12.4112 4.79382 12.1745 4.89237C11.9379 4.99092 11.8281 5.26223 11.9048 5.50686C12.172 6.35953 12.2115 7.27028 12.0153 8.14757C11.7852 9.17635 11.2422 10.1087 10.461 10.8165C9.67976 11.5243 8.69855 11.9729 7.65213 12.1007C6.75979 12.2097 5.85734 12.0808 5.03509 11.731C4.79919 11.6306 4.5184 11.7132 4.39704 11.939Z"/>
</mask>
<path d="M4.39704 11.939C4.27569 12.1648 4.35977 12.4481 4.59424 12.5517C5.58665 12.9903 6.68195 13.1544 7.76465 13.0222C9.00138 12.8712 10.161 12.341 11.0843 11.5045C12.0076 10.6679 12.6493 9.56606 12.9212 8.35019C13.1593 7.28574 13.1038 6.17962 12.7649 5.14888C12.6848 4.90534 12.4112 4.79382 12.1745 4.89237C11.9379 4.99092 11.8281 5.26223 11.9048 5.50686C12.172 6.35953 12.2115 7.27028 12.0153 8.14757C11.7852 9.17635 11.2422 10.1087 10.461 10.8165C9.67976 11.5243 8.69855 11.9729 7.65213 12.1007C6.75979 12.2097 5.85734 12.0808 5.03509 11.731C4.79919 11.6306 4.5184 11.7132 4.39704 11.939Z" fill="#3C454D" stroke="#3C454D" stroke-width="2.39735" mask="url(#path-3-inside-1_594_5833)"/>
<mask id="path-4-inside-2_594_5833" fill="white">
<path d="M1.49259 6.97476C1.22073 6.97188 0.995916 7.19028 1.01521 7.46147C1.06522 8.16444 1.23811 8.85454 1.52727 9.50001C1.81643 10.1455 2.21629 10.7339 2.70757 11.2392C2.8971 11.4341 3.20972 11.4117 3.38856 11.207C3.5674 11.0022 3.54434 10.6927 3.35794 10.4948C2.97217 10.0852 2.65677 9.61309 2.42578 9.09748C2.1948 8.58188 2.05248 8.03225 2.00362 7.47169C1.98002 7.20084 1.76445 6.97763 1.49259 6.97476Z"/>
</mask>
<path d="M1.49259 6.97476C1.22073 6.97188 0.995916 7.19028 1.01521 7.46147C1.06522 8.16444 1.23811 8.85454 1.52727 9.50001C1.81643 10.1455 2.21629 10.7339 2.70757 11.2392C2.8971 11.4341 3.20972 11.4117 3.38856 11.207C3.5674 11.0022 3.54434 10.6927 3.35794 10.4948C2.97217 10.0852 2.65677 9.61309 2.42578 9.09748C2.1948 8.58188 2.05248 8.03225 2.00362 7.47169C1.98002 7.20084 1.76445 6.97763 1.49259 6.97476Z" fill="#3C454D" stroke="#3C454D" stroke-width="2.39735" mask="url(#path-4-inside-2_594_5833)"/>
<mask id="path-5-inside-3_594_5833" fill="white">
<path d="M11.4863 3.68165C11.6892 3.52887 11.7312 3.23912 11.5634 3.04837C10.8664 2.25604 9.97354 1.66022 8.97437 1.32075C8.73383 1.23902 8.48237 1.38897 8.4192 1.63504C8.35603 1.88111 8.50525 2.12982 8.74465 2.21484C9.54265 2.49824 10.258 2.97557 10.826 3.60367C10.9964 3.7921 11.2833 3.83443 11.4863 3.68165Z"/>
</mask>
<path d="M11.4863 3.68165C11.6892 3.52887 11.7312 3.23912 11.5634 3.04837C10.8664 2.25604 9.97354 1.66022 8.97437 1.32075C8.73383 1.23902 8.48237 1.38897 8.4192 1.63504C8.35603 1.88111 8.50525 2.12982 8.74465 2.21484C9.54265 2.49824 10.258 2.97557 10.826 3.60367C10.9964 3.7921 11.2833 3.83443 11.4863 3.68165Z" fill="#3C454D" stroke="#3C454D" stroke-width="2.39735" mask="url(#path-5-inside-3_594_5833)"/>
<circle cx="8.42682" cy="9.93682" r="0.642147" fill="#3C454D"/>
<circle cx="9.65362" cy="5.13751" r="0.642147" fill="#3C454D"/>
<circle cx="5.89837" cy="8.74054" r="0.642147" fill="#3C454D"/>
<path d="M8.7306 1.70935C8.80627 2.41916 8.45137 3.12896 7.38666 3.12896" stroke="#3C454D" stroke-linecap="round"/>
<path d="M3.01148 6.20911C3.08715 6.91891 2.79048 7.49482 1.72577 7.49482" stroke="#3C454D" stroke-linecap="round"/>
<path d="M7.38842 3.12817C7.63981 4.13373 7.38842 6.3223 4.54919 6.14485" stroke="#3C454D" stroke-linecap="round"/>
</svg>
