<svg width="14" height="15" viewBox="0 0 14 15" fill="none" xmlns="http://www.w3.org/2000/svg">
<path d="M8.24927 2.5053C8.7797 2.50615 9.28807 2.71768 9.66254 3.09335L11.4152 4.85158C11.7896 5.22726 11.9995 5.7363 11.9987 6.26673L11.9947 8.74927C11.9938 9.2797 11.7823 9.78807 11.4066 10.1625L9.64842 11.9152C9.27274 12.2896 8.7637 12.4995 8.23327 12.4987L5.75073 12.4947C5.2203 12.4938 4.71193 12.2823 4.33746 11.9066L2.58485 10.1484C2.21038 9.77274 2.00048 9.2637 2.00133 8.73327L2.0053 6.25073C2.00615 5.7203 2.21768 5.21193 2.59335 4.83746L4.35158 3.08485C4.72726 2.71038 5.2363 2.50048 5.76673 2.50133L8.24927 2.5053Z" fill="#FFC866"/>
<path d="M6.83424 2.50263C7.36359 2.50431 7.87201 2.71577 8.24572 3.09068L9.41515 4.26387C9.78962 4.63954 9.99952 5.14859 9.99867 5.67902L9.99602 7.33368C9.99517 7.86411 9.78365 8.37248 9.40797 8.74695L8.23608 9.9151C7.8604 10.2896 7.35136 10.4995 6.82093 10.4986L5.16627 10.496C4.63584 10.4951 4.12747 10.2836 3.75299 9.90792L2.58445 8.73562C2.2103 8.36027 2.00096 7.85142 2.00266 7.32144C2.00435 6.79526 2.21395 6.29108 2.58577 5.91876L5.41144 3.08934C5.78813 2.71215 6.30116 2.50095 6.83424 2.50263Z" fill="#FFF7E9"/>
<path fill-rule="evenodd" clip-rule="evenodd" d="M5.64645 8.14644C5.45118 8.3417 5.45118 8.65828 5.64645 8.85354C5.84171 9.0488 6.15829 9.0488 6.35355 8.85354L6.99999 8.2071L7.64644 8.85355C7.8417 9.04881 8.15828 9.04881 8.35354 8.85355C8.5488 8.65829 8.5488 8.3417 8.35354 8.14644L7.7071 7.5L8.35354 6.85355C8.5488 6.65829 8.5488 6.34171 8.35354 6.14645C8.15828 5.95118 7.8417 5.95118 7.64644 6.14645L6.99999 6.79289L6.35355 6.14645C6.15829 5.95119 5.84171 5.95119 5.64645 6.14645C5.45118 6.34171 5.45118 6.6583 5.64645 6.85356L6.29288 7.5L5.64645 8.14644Z" fill="#3C454D"/>
<path d="M8.24847 3.0053C8.64629 3.00594 9.02757 3.16459 9.30843 3.44634L11.061 5.20457C11.3419 5.48632 11.4993 5.86811 11.4987 6.26593L11.4947 8.74847C11.4941 9.14629 11.3354 9.52757 11.0537 9.80843L9.29543 11.561C9.01368 11.8419 8.63189 11.9993 8.23407 11.9987L5.75153 11.9947C5.35371 11.9941 4.97243 11.8354 4.69157 11.5537L2.93897 9.79543C2.65811 9.51367 2.50069 9.13189 2.50133 8.73407L2.5053 6.25153C2.50594 5.85371 2.66459 5.47243 2.94634 5.19157L4.70457 3.43897C4.98633 3.15811 5.36811 3.00069 5.76593 3.00133L8.24847 3.0053Z" stroke="#3C454D"/>
</svg>
