<svg width="14" height="15" viewBox="0 0 14 15" fill="none" xmlns="http://www.w3.org/2000/svg">
<path d="M12.7333 8.23333C12.2667 6.98889 10.4 4.5 7.13333 4.5C6.73279 4.5 6.35329 4.5421 5.99571 4.61769L4.33333 5.27075C2.82335 6.17027 2 7.61347 2 8.23333C2.46667 9.32222 3.86667 11.5 7.13333 11.5C8.27374 11.5 9.22457 11.2346 10.0057 10.8427L11.2785 9.9918C11.992 9.37807 12.4644 8.70399 12.7333 8.23333Z" fill="#FFF7E9"/>
<circle cx="6.5" cy="8" r="2.5" fill="#FFC866"/>
<path d="M3.86664 4.5L10.8666 11.5" stroke="#3C454D" stroke-linecap="round" stroke-linejoin="round"/>
<path d="M5.99571 4.61769C6.35329 4.5421 6.73279 4.5 7.13333 4.5C10.4 4.5 12.2667 6.98889 12.7333 8.23333C12.4644 8.70399 11.992 9.37807 11.2785 9.9918M4.33333 5.27075C2.82335 6.17027 2 7.61347 2 8.23333C2.46667 9.32222 3.86667 11.5 7.13333 11.5C8.27374 11.5 9.22457 11.2346 10.0057 10.8427" stroke="#3C454D" stroke-linecap="round" stroke-linejoin="round"/>
<path d="M9.23332 8.00002C9.23332 6.84023 8.29312 5.90002 7.13333 5.90002M5.60102 6.56404C5.24893 6.93958 5.03333 7.44463 5.03333 8.00002C5.03333 9.15982 5.97353 10.1 7.13333 10.1C7.72925 10.1 8.2672 9.8518 8.64942 9.45311" stroke="#3C454D" stroke-linecap="round" stroke-linejoin="round"/>
</svg>
