<svg width="20" height="20" viewBox="0 0 20 20" fill="none" xmlns="http://www.w3.org/2000/svg">
<g clip-path="url(#clip0_681_543)">
<rect width="20" height="20" rx="10" fill="#C7DBFA"/>
<path d="M6.83313 7.66667C6.83313 5.91776 8.25089 4.5 9.9998 4.5C11.7487 4.5 13.1665 5.91776 13.1665 7.66667C13.1665 9.41557 11.7487 10.8333 9.9998 10.8333C8.25089 10.8333 6.83313 9.41557 6.83313 7.66667Z" fill="#5B96EE"/>
<path d="M7.33329 12.5C6.49344 12.5 5.68799 12.8336 5.09412 13.4275C4.50026 14.0214 4.16663 14.8268 4.16663 15.6667V19L6.99988 21L9.99988 21.5L12.4999 21L14.9999 20V19.3726C15.0883 19.4518 15.2052 19.5 15.3333 19.5C15.6094 19.5 15.8333 19.2761 15.8333 19V15.6667C15.8333 14.8268 15.4997 14.0214 14.9058 13.4275C14.3119 12.8336 13.5065 12.5 12.6666 12.5H7.33329Z" fill="#5B96EE"/>
</g>
<defs>
<clipPath id="clip0_681_543">
<rect width="20" height="20" rx="10" fill="white"/>
</clipPath>
</defs>
</svg>
