<svg width="18" height="18" viewBox="0 0 18 18" fill="none" xmlns="http://www.w3.org/2000/svg">
<path d="M11.7938 10.1438L10.9688 9.31875C11.2937 8.43125 11.125 7.69375 10.4625 7.10625C9.8 6.51875 9.08125 6.36875 8.30625 6.65625L7.48125 5.83125C7.69375 5.69375 7.93125 5.59375 8.19375 5.53125C8.45625 5.46875 8.725 5.4375 9 5.4375C9.8875 5.4375 10.6406 5.74688 11.2594 6.36563C11.8781 6.98438 12.1875 7.7375 12.1875 8.625C12.1875 8.9 12.1531 9.17188 12.0844 9.44063C12.0156 9.70938 11.9188 9.94375 11.7938 10.1438ZM14.2125 12.5625L13.4625 11.8125C14.075 11.3625 14.6094 10.8594 15.0656 10.3031C15.5219 9.74688 15.8562 9.1875 16.0687 8.625C15.4437 7.2375 14.5062 6.14063 13.2562 5.33438C12.0062 4.52813 10.65 4.125 9.1875 4.125C8.6625 4.125 8.125 4.175 7.575 4.275C7.025 4.375 6.59375 4.49375 6.28125 4.63125L5.41875 3.75C5.85625 3.55 6.41562 3.375 7.09687 3.225C7.77812 3.075 8.44375 3 9.09375 3C10.8813 3 12.5156 3.50938 13.9969 4.52813C15.4781 5.54688 16.5625 6.9125 17.25 8.625C16.925 9.425 16.5063 10.1563 15.9938 10.8188C15.4813 11.4813 14.8875 12.0625 14.2125 12.5625ZM15.686 16.3646C15.4761 16.6014 15.1106 16.614 14.8849 16.3923L12.15 13.7063C11.7125 13.8813 11.2188 14.0156 10.6688 14.1094C10.1188 14.2031 9.5625 14.25 9 14.25C7.175 14.25 5.51875 13.7406 4.03125 12.7219C2.54375 11.7031 1.45 10.3375 0.75 8.625C1 7.975 1.34688 7.34063 1.79063 6.72188C2.23438 6.10313 2.775 5.5125 3.4125 4.95L1.44378 2.98128C1.22555 2.76306 1.22348 2.40989 1.43912 2.18912V2.18912C1.65838 1.96464 2.01877 1.96252 2.24065 2.1844L15.6632 15.6069C15.8699 15.8137 15.8799 16.1457 15.686 16.3646V16.3646ZM4.18125 5.7375C3.71875 6.075 3.27187 6.51875 2.84062 7.06875C2.40937 7.61875 2.1 8.1375 1.9125 8.625C2.55 10.0125 3.50937 11.1094 4.79062 11.9156C6.07187 12.7219 7.525 13.125 9.15 13.125C9.5625 13.125 9.96875 13.1 10.3687 13.05C10.7687 13 11.0687 12.925 11.2687 12.825L10.0688 11.625C9.93125 11.6875 9.7625 11.7344 9.5625 11.7656C9.3625 11.7969 9.175 11.8125 9 11.8125C8.125 11.8125 7.375 11.5063 6.75 10.8938C6.125 10.2813 5.8125 9.525 5.8125 8.625C5.8125 8.4375 5.82812 8.25 5.85938 8.0625C5.89062 7.875 5.9375 7.70625 6 7.55625L4.18125 5.7375Z" fill="#627280"/>
</svg>
