<svg width="40" height="40" viewBox="0 0 40 40" fill="none" xmlns="http://www.w3.org/2000/svg">
<rect x="11" y="35" width="27" height="20" rx="1" transform="rotate(-90 11 35)" fill="#F3F5FF"/>
<rect x="14.5" y="31.5" width="29" height="22" rx="3" transform="rotate(-90 14.5 31.5)" fill="#DDE8F9" stroke="#3C454D"/>
<rect x="15" y="30" width="27" height="21" rx="3" transform="rotate(-90 15 30)" fill="white"/>
<rect x="24" y="17" width="8" height="1" rx="0.5" fill="#3C454D"/>
<rect x="24" y="24" width="8" height="1" rx="0.5" fill="#3C454D"/>
<rect x="24" y="15" width="10" height="1" rx="0.5" fill="#3C454D"/>
<rect x="24" y="22" width="10" height="1" rx="0.5" fill="#3C454D"/>
<path d="M31.5 33.2419V33.2419C31.5 34.489 30.489 35.5 29.2419 35.5L12.5 35.5C11.3954 35.5 10.5 34.6046 10.5 33.5L10.5 9.78261C10.5 8.52196 11.522 7.5 12.7826 7.5V7.5" stroke="#DDE8F9" stroke-linecap="round"/>
<path d="M31.5 33.3281L31.5 33.5C31.5 35.1569 30.1569 36.5 28.5 36.5L12.5 36.5C10.8431 36.5 9.5 35.1569 9.5 33.5L9.5 10.5C9.5 8.84315 10.8431 7.5 12.5 7.5L12.7083 7.5" stroke="#3C454D" stroke-linecap="round"/>
<path d="M18.5273 23.2237L19.3082 23.9767L21.3578 22" stroke="#5B96EE" stroke-linecap="round"/>
<path d="M18.5273 16.2237L19.3082 16.9767L21.3578 15" stroke="#5B96EE" stroke-linecap="round"/>
<rect x="6" y="36" width="28" height="1" rx="0.5" fill="#3C454D"/>
<rect x="2" y="36" width="3" height="1" rx="0.5" fill="#3C454D"/>
<rect x="35" y="36" width="3" height="1" rx="0.5" fill="#3C454D"/>
<rect x="18" y="9" width="14" height="1" rx="0.5" fill="#5B96EE"/>
<rect x="18" y="7" width="16" height="1" rx="0.5" fill="#5B96EE"/>
</svg>
