<svg width="8" height="12" viewBox="0 0 8 12" fill="none" xmlns="http://www.w3.org/2000/svg">
<path d="M6.62267 0.673911C6.71165 0.45666 6.63183 0.208011 6.43199 0.0799519C6.23215 -0.0481072 5.96791 -0.0199331 5.8008 0.147252L0.143027 5.80742C0.0212261 5.92928 -0.0273185 6.10442 0.0148208 6.26998C0.0569602 6.43554 0.183737 6.56777 0.349639 6.61918L2.9722 7.43193L1.37715 11.3261C1.28816 11.5433 1.36799 11.792 1.56783 11.92C1.76767 12.0481 2.03191 12.0199 2.19902 11.8527L7.85679 6.19258C7.97859 6.07072 8.02714 5.89558 7.985 5.73002C7.94286 5.56446 7.81608 5.43223 7.65018 5.38082L5.02762 4.56807L6.62267 0.673911Z" fill="#F6AE2D"/>
</svg>
